<svg width="376" height="376" viewBox="0 0 376 376" fill="none" xmlns="http://www.w3.org/2000/svg">
<g clip-path="url(#clip0_61_1414)">
<path d="M188 376C291.83 376 376 291.83 376 188C376 84.1704 291.83 0 188 0C84.1704 0 0 84.1704 0 188C0 291.83 84.1704 376 188 376Z" fill="#9BB77F"/>
<mask id="mask0_61_1414" style="mask-type:luminance" maskUnits="userSpaceOnUse" x="64" y="64" width="248" height="248">
<path d="M312 64H64V312H312V64Z" fill="white"/>
</mask>
<g mask="url(#mask0_61_1414)">
<path d="M209.125 301.947H154.875C153.847 301.947 152.861 301.539 152.135 300.812C151.408 300.085 151 299.1 151 298.072V73.3218C151 72.2941 151.408 71.3085 152.135 70.5817C152.861 69.8551 153.847 69.4468 154.875 69.4468H209.125C210.153 69.4468 211.138 69.8551 211.865 70.5817C212.591 71.3085 213 72.2941 213 73.3218V298.072C213 299.1 212.591 300.085 211.865 300.812C211.138 301.539 210.153 301.947 209.125 301.947Z" fill="#FEBC00"/>
<path d="M209.125 69.4468H205.25V239.947C205.25 254.335 199.534 268.133 189.361 278.307C179.187 288.481 165.388 294.197 151 294.197V298.072C151 299.1 151.408 300.085 152.135 300.812C152.861 301.539 153.847 301.947 154.875 301.947H209.125C210.153 301.947 211.138 301.539 211.865 300.812C212.591 300.085 213 299.1 213 298.072V73.3218C213 72.2941 212.591 71.3085 211.865 70.5817C211.138 69.8551 210.153 69.4468 209.125 69.4468Z" fill="#EDAA03"/>
<path d="M178.125 88.8218H151V96.5716H178.125V88.8218Z" fill="#F74E0C"/>
<path d="M178.125 112.071H151V119.821H178.125V112.071Z" fill="#F74E0C"/>
<path d="M178.125 135.322H151V143.072H178.125V135.322Z" fill="#F74E0C"/>
<path d="M178.125 158.572H151V166.322H178.125V158.572Z" fill="#F74E0C"/>
<path d="M178.125 181.822H151V189.572H178.125V181.822Z" fill="#F74E0C"/>
<path d="M178.125 205.073H151V212.823H178.125V205.073Z" fill="#F74E0C"/>
<path d="M178.125 228.322H151V236.072H178.125V228.322Z" fill="#F74E0C"/>
<path d="M178.125 251.572H151V259.322H178.125V251.572Z" fill="#F74E0C"/>
<path d="M178.125 274.822H151V282.572H178.125V274.822Z" fill="#F74E0C"/>
<path d="M181.686 185.531H123.191C120.101 185.531 117.245 183.882 115.7 181.205L96.3254 147.65C93.9362 143.513 95.3533 138.223 99.4898 135.833L143.363 110.502C147.5 108.114 152.79 109.531 155.179 113.669L189.177 172.555C192.505 178.317 188.333 185.531 181.686 185.531Z" fill="#C7E9F4"/>
<path d="M128.92 118.841L113.937 127.493L144.947 181.205C150.561 190.928 165.761 182.654 159.93 172.555L128.92 118.841Z" fill="#80D0E1"/>
<path d="M93.637 109.864L92.6774 88.7274C92.3602 81.7248 100.088 77.2787 105.98 81.0477L123.804 92.4474C129.259 95.936 129.081 103.986 123.468 107.226L106.605 116.964C101.016 120.19 93.9325 116.365 93.637 109.864Z" fill="#6A82A1"/>
<path d="M242.091 185.532C179.552 185.532 179.445 186.992 176.105 181.206C172.682 175.278 173.187 177.608 214.163 106.637C216.548 102.505 221.844 101.082 225.981 103.472L269.851 128.802C273.987 131.189 275.406 136.482 273.018 140.62L249.582 181.206C248.037 183.883 245.181 185.532 242.091 185.532Z" fill="#FFDA79"/>
<path d="M269.85 128.802L225.98 103.472C221.843 101.081 216.548 102.504 214.162 106.637C202.384 127.038 193.955 141.372 187.997 151.596V185.531H242.091C245.181 185.531 248.038 183.882 249.582 181.206L273.018 140.619C275.406 136.482 273.986 131.189 269.85 128.802Z" fill="#FFD155"/>
<path d="M259.066 312.001H116.926C112.148 312.001 108.275 308.128 108.275 303.35V270.142C108.275 265.365 112.148 261.491 116.926 261.491H259.066C263.843 261.491 267.717 265.364 267.717 270.142V303.35C267.717 308.127 263.843 312.001 259.066 312.001Z" fill="#627573"/>
<path d="M259.066 261.491H187.997V312.001H259.066C263.844 312.001 267.717 308.128 267.717 303.35V270.142C267.717 265.365 263.844 261.491 259.066 261.491Z" fill="#526261"/>
<path d="M267.717 278.792H108.275V182.035C108.275 178.104 112.148 174.916 116.926 174.916H259.066C263.843 174.916 267.717 178.103 267.717 182.035V278.792Z" fill="#627573"/>
<path d="M267.717 182.034C267.717 178.102 263.844 174.915 259.066 174.915H187.997V278.791H267.717V182.034Z" fill="#526261"/>
<path d="M164.822 207.953C170.968 207.953 175.95 202.97 175.95 196.825C175.95 190.678 170.968 185.696 164.822 185.696C158.676 185.696 153.693 190.678 153.693 196.825C153.693 202.97 158.676 207.953 164.822 207.953Z" fill="#D4EEEC"/>
<path d="M211.173 207.953C217.319 207.953 222.301 202.97 222.301 196.825C222.301 190.678 217.319 185.696 211.173 185.696C205.027 185.696 200.044 190.678 200.044 196.825C200.044 202.97 205.027 207.953 211.173 207.953Z" fill="#20B8AE"/>
<path d="M164.822 245.656C170.968 245.656 175.95 240.674 175.95 234.528C175.95 228.382 170.968 223.4 164.822 223.4C158.676 223.4 153.693 228.382 153.693 234.528C153.693 240.674 158.676 245.656 164.822 245.656Z" fill="#D4EEEC"/>
<path d="M211.173 245.656C217.319 245.656 222.301 240.674 222.301 234.528C222.301 228.382 217.319 223.4 211.173 223.4C205.027 223.4 200.044 228.382 200.044 234.528C200.044 240.674 205.027 245.656 211.173 245.656Z" fill="#20B8AE"/>
<path d="M93.3984 104.61C93.7806 113.038 94.7668 134.762 95.1737 143.716C95.4699 150.237 102.576 154.028 108.14 150.815L152.014 125.485C157.621 122.248 157.809 114.198 152.349 110.706C144.758 105.851 125.561 93.5726 119.372 89.6143L93.3984 104.61Z" fill="#FFDA79"/>
<path d="M261.199 143.787L217.326 118.458C213.189 116.069 211.771 110.779 214.16 106.641L219.91 96.68C229.279 80.4534 250.101 74.8739 266.329 84.2417C282.594 93.6327 288.159 114.395 278.767 130.661L273.016 140.621C270.619 144.773 265.32 146.166 261.199 143.787Z" fill="#FF9392"/>
<path d="M211.173 207.953C217.319 207.953 222.301 202.97 222.301 196.825C222.301 190.678 217.319 185.696 211.173 185.696C205.027 185.696 200.044 190.678 200.044 196.825C200.044 202.97 205.027 207.953 211.173 207.953Z" fill="#D4EEEC"/>
<path d="M211.173 245.659C217.319 245.659 222.301 240.677 222.301 234.53C222.301 228.384 217.319 223.402 211.173 223.402C205.027 223.402 200.044 228.384 200.044 234.53C200.044 240.677 205.027 245.659 211.173 245.659Z" fill="#D4EEEC"/>
</g>
</g>
<defs>
<clipPath id="clip0_61_1414">
<rect width="376" height="376" fill="white"/>
</clipPath>
</defs>
</svg>
