<svg width="376" height="376" viewBox="0 0 376 376" fill="none" xmlns="http://www.w3.org/2000/svg">
<g clip-path="url(#clip0_60_1263)">
<path d="M188 376C291.83 376 376 291.83 376 188C376 84.1704 291.83 0 188 0C84.1704 0 0 84.1704 0 188C0 291.83 84.1704 376 188 376Z" fill="#FFA05B"/>
<mask id="mask0_60_1263" style="mask-type:luminance" maskUnits="userSpaceOnUse" x="0" y="0" width="376" height="376">
<path d="M376 0H0V376H376V0Z" fill="white"/>
</mask>
<g mask="url(#mask0_60_1263)">
<path d="M268.6 155.205V231.636C268.6 238.147 266.11 244.392 261.677 248.996C257.244 253.599 251.232 256.186 244.964 256.186H150.419C144.151 256.186 138.138 253.599 133.706 248.996C129.274 244.392 126.783 238.147 126.783 231.636V100.705C126.783 94.1947 129.274 87.9502 133.706 83.3464C138.138 78.7425 144.151 76.156 150.419 76.156H192.491C196.631 76.1526 200.731 76.9964 204.557 78.6392C208.383 80.282 211.859 82.6916 214.788 85.7303L259.382 132.047C262.307 135.089 264.627 138.7 266.209 142.674C267.79 146.647 268.603 150.906 268.6 155.205Z" fill="#D1BDBD"/>
<path d="M268.6 152.264V223.681C268.6 229.95 266.11 235.961 261.677 240.394C257.244 244.827 251.232 247.317 244.964 247.317H150.419C144.151 247.317 138.138 244.827 133.706 240.394C129.274 235.961 126.783 229.95 126.783 223.681V99.7919C126.783 93.5236 129.274 87.5115 133.706 83.0789C138.138 78.6463 144.151 76.156 150.419 76.156H192.491C196.631 76.1528 200.731 76.9652 204.557 78.5469C208.383 80.1285 211.859 82.4484 214.788 85.3741L259.382 129.968C262.307 132.896 264.628 136.373 266.209 140.199C267.79 144.024 268.603 148.125 268.6 152.264Z" fill="white"/>
<path d="M265.763 139.185H229.206C222.938 139.185 216.925 136.695 212.493 132.262C208.06 127.83 205.57 121.818 205.57 115.549V78.9919C208.992 80.564 212.112 82.724 214.788 85.3737L259.382 129.967C262.031 132.643 264.191 135.763 265.763 139.185Z" fill="#D1BDBD"/>
<mask id="mask1_60_1263" style="mask-type:luminance" maskUnits="userSpaceOnUse" x="137" y="109" width="84" height="84">
<path d="M220.119 109.089H137.884V192.155H220.119V109.089Z" fill="white"/>
</mask>
<g mask="url(#mask1_60_1263)">
<path d="M185.855 112.55H172.149C170.256 112.55 168.722 114.099 168.722 116.011V188.694C168.722 190.605 170.256 192.155 172.149 192.155H185.855C187.747 192.155 189.281 190.605 189.281 188.694V116.011C189.281 114.099 187.747 112.55 185.855 112.55Z" fill="#EC5044"/>
<path d="M213.266 157.528H199.561C197.668 157.528 196.134 159.078 196.134 160.989V188.695C196.134 190.607 197.668 192.156 199.561 192.156H213.266C215.159 192.156 216.693 190.607 216.693 188.695V160.989C216.693 159.078 215.159 157.528 213.266 157.528Z" fill="#7B766B"/>
<path d="M158.443 140.24H144.736C142.844 140.24 141.31 141.789 141.31 143.701V188.695C141.31 190.607 142.844 192.156 144.736 192.156H158.443C160.335 192.156 161.869 190.607 161.869 188.695V143.701C161.869 141.789 160.335 140.24 158.443 140.24Z" fill="#41C3F1"/>
</g>
<mask id="mask2_60_1263" style="mask-type:luminance" maskUnits="userSpaceOnUse" x="87" y="48" width="85" height="85">
<path d="M171.82 48H87.394V132.426H171.82V48Z" fill="white"/>
</mask>
<g mask="url(#mask2_60_1263)">
<path d="M132.486 128.588C132.486 126.468 130.768 124.75 128.648 124.75C126.53 124.75 124.811 126.468 124.811 128.588C124.811 130.707 126.53 132.425 128.648 132.425C130.768 132.425 132.486 130.707 132.486 128.588Z" fill="black"/>
<path fill-rule="evenodd" clip-rule="evenodd" d="M154.103 95.8625C157.6 90.6758 159.348 84.9554 159.348 78.7005C159.348 70.2227 156.351 62.9865 150.357 56.992C144.362 50.9973 137.125 48 128.648 48C120.17 48 112.934 50.9973 106.939 56.992C100.945 62.9865 97.9473 70.2227 97.9473 78.7005C97.9473 84.9554 99.6956 90.6758 103.192 95.8625C105.559 99.3735 108.454 102.233 111.876 104.443V104.456C113.515 105.693 114.802 107.313 115.735 109.314C116.668 111.315 117.135 113.455 117.135 115.733C117.135 115.939 117.131 116.146 117.122 116.353C117.115 116.56 117.102 116.766 117.086 116.972H117.135V117.076H140.16V115.733C140.16 113.42 140.64 111.253 141.6 109.23C142.56 107.206 143.879 105.58 145.558 104.353C148.92 102.156 151.768 99.3259 154.103 95.8625Z" fill="url(#paint0_radial_60_1263)"/>
<path d="M117.134 120.914C117.134 125.153 120.571 128.589 124.81 128.589H132.485C136.724 128.589 140.16 125.153 140.16 120.914V117.077H117.134V120.914Z" fill="url(#paint1_radial_60_1263)"/>
<path d="M134.405 120.914H122.892C121.833 120.914 120.973 121.773 120.973 122.832C120.973 123.892 121.833 124.751 122.892 124.751H134.405C135.465 124.751 136.324 123.892 136.324 122.832C136.324 121.773 135.465 120.914 134.405 120.914Z" fill="black" fill-opacity="0.2"/>
<path fill-rule="evenodd" clip-rule="evenodd" d="M120.506 70.5596C122.754 68.3116 125.467 67.1876 128.647 67.1876C129.707 67.1876 130.611 66.8129 131.36 66.0636C132.11 65.3142 132.485 64.4097 132.485 63.35C132.485 62.2903 132.11 61.3858 131.36 60.6364C130.611 59.8871 129.707 59.5125 128.647 59.5125C123.348 59.5125 118.826 61.3858 115.079 65.1325C111.332 68.8791 109.459 73.4016 109.459 78.7003C109.459 79.7599 109.834 80.6645 110.583 81.4138C111.332 82.1631 112.237 82.5377 113.297 82.5377C114.356 82.5377 115.261 82.1631 116.01 81.4138C116.76 80.6645 117.134 79.7599 117.134 78.7003C117.134 75.5211 118.258 72.8075 120.506 70.5596Z" fill="white"/>
</g>
<path d="M115.205 276.716C115.205 277.81 115.887 278.659 116.661 278.521L116.377 278.572C115.706 278.69 115.204 279.491 115.204 280.441C115.204 281.392 115.704 282.192 116.375 282.31L116.66 282.36C115.887 282.224 115.204 283.071 115.202 284.168C115.202 284.925 115.534 285.604 116.038 285.871L117.037 286.4L110.441 282.925C108.811 282.066 108.811 278.82 110.443 277.96L116.875 274.568L116.045 275.009C115.539 275.281 115.205 275.958 115.205 276.716Z" fill="#64798A"/>
<path d="M253.798 273.501L273.534 276.187C273.689 278.932 273.686 281.971 273.529 284.716L253.243 289.873C253.224 287.029 253.773 276.344 253.798 273.501Z" fill="#F6C358"/>
<path d="M115.2 284.168C115.2 283.073 115.886 282.224 116.658 282.361L117.925 282.584L128.775 284.499C128.99 284.537 130.563 284.062 130.731 284.228C129.396 284.674 127.021 286.949 127.022 288.965C127.022 290.32 127.471 291.523 128.171 292.303C128.167 292.302 128.16 292.302 128.155 292.298L117.039 286.401L116.04 285.872C115.534 285.603 115.2 284.925 115.2 284.168Z" fill="#DC8744"/>
<path d="M131.046 275.752C129.942 276.391 127.027 278.655 127.025 280.435C127.025 282.217 130.185 284.29 131.287 284.928C131.128 284.987 128.576 284.464 128.401 284.434L117.922 282.584L116.655 282.361L116.371 282.311C115.701 282.194 115.2 281.393 115.199 280.442C115.199 279.492 115.701 278.691 116.373 278.573L116.657 278.522L117.922 278.298L128.401 276.439C128.581 276.407 130.886 275.694 131.046 275.752Z" fill="#F6C358"/>
<path d="M127.029 271.905C127.028 273.92 129.664 275.885 130.998 276.329C130.829 276.495 129.68 276.213 129.465 276.251L117.928 278.294L116.662 278.519C115.889 278.657 115.207 277.808 115.206 276.713C115.206 275.955 115.542 275.277 116.044 275.009L116.874 274.567L128.166 268.57C128.172 268.566 128.177 268.568 128.182 268.564C127.481 269.349 127.031 270.552 127.029 271.905Z" fill="#FCD462"/>
<path d="M130.054 284.7C129.647 284.7 129.259 284.586 128.905 284.382C127.802 283.745 127.025 282.22 127.025 280.438C127.026 278.654 127.803 277.129 128.909 276.492C129.264 276.288 129.652 276.172 130.059 276.171L250.831 275.187L250.826 286.001L130.054 284.7Z" fill="#D15241"/>
<path d="M130.059 276.17C129.818 276.17 129.584 276.125 129.359 276.051C128.025 275.606 127.03 273.921 127.031 271.907C127.031 270.552 127.484 269.348 128.182 268.566C128.7 267.988 129.353 267.64 130.064 267.641L249.597 267.668H250.833L250.828 276.197L130.059 276.17Z" fill="#E56353"/>
<path d="M273.531 284.714C273.265 289.41 272.545 293.244 271.376 293.243L254.567 293.251C254.5 290.4 254.463 287.56 254.441 284.72L273.531 284.714Z" fill="#DC8744"/>
<path d="M273.536 276.186L254.417 276.195C254.441 273.356 254.481 270.516 254.55 267.667L271.388 267.658C272.557 267.659 273.273 271.489 273.536 276.186Z" fill="#FCD462"/>
<path d="M255.424 284.724C255.446 287.562 255.482 290.404 255.549 293.255L256.812 293.253L250.823 293.255L250.828 284.726L250.833 276.197L250.837 267.668L256.827 267.667H255.565C255.494 270.518 255.456 273.356 255.432 276.196C255.405 279.038 255.403 281.881 255.424 284.724Z" fill="#EBF0F3"/>
<path d="M127.021 288.966C127.023 286.951 128.018 285.266 129.354 284.819C129.58 284.744 129.813 284.7 130.055 284.699L250.828 284.726L250.823 293.255L249.589 293.257L130.051 293.228C129.339 293.229 128.686 292.881 128.171 292.305C127.471 291.524 127.021 290.321 127.021 288.966Z" fill="#CE412D"/>
</g>
</g>
<defs>
<radialGradient id="paint0_radial_60_1263" cx="0" cy="0" r="1" gradientUnits="userSpaceOnUse" gradientTransform="translate(118.383 66.9931) rotate(56.4705) scale(51.7901 46.0357)">
<stop stop-color="#FADF73"/>
<stop offset="0.457142" stop-color="#FFD500"/>
<stop offset="1" stop-color="#FC9900"/>
</radialGradient>
<radialGradient id="paint1_radial_60_1263" cx="0" cy="0" r="1" gradientUnits="userSpaceOnUse" gradientTransform="translate(109.627 113.5) rotate(38.4256) scale(24.2784 48.5567)">
<stop stop-color="#EFFCFF"/>
<stop offset="0.999999" stop-color="#A5F2FF"/>
</radialGradient>
<clipPath id="clip0_60_1263">
<rect width="376" height="376" fill="white"/>
</clipPath>
</defs>
</svg>
