<svg width="376" height="376" viewBox="0 0 376 376" fill="none" xmlns="http://www.w3.org/2000/svg">
<g clip-path="url(#clip0_61_1562)">
<path d="M188 376C291.83 376 376 291.83 376 188C376 84.1704 291.83 0 188 0C84.1704 0 0 84.1704 0 188C0 291.83 84.1704 376 188 376Z" fill="#5BEBFF"/>
<path d="M106.541 263.879C99.011 264.906 92.1649 259.258 92.1649 251.556L91.6514 214.073C97.9841 214.416 104.145 214.758 109.965 215.1L116.982 248.989C118.522 256.006 113.73 262.852 106.541 263.879Z" fill="#FF7058"/>
<path d="M250.536 249.271C250.536 250.519 250.786 251.767 251.036 252.766C222.078 230.798 184.883 222.06 137.951 217.567C137.951 217.567 138.201 217.567 138.45 217.567V131.193C185.132 126.7 222.078 117.963 251.036 95.9951C250.786 97.243 250.536 98.2417 250.536 99.49V249.271Z" fill="#FF7058"/>
<path d="M138.451 131.194C120.976 132.941 102.004 133.94 81.534 134.938C74.2945 135.188 68.553 141.179 68.553 148.668V200.343C68.553 207.582 74.2945 213.573 81.534 214.072C102.004 215.071 120.726 216.07 138.451 217.817V131.194Z" fill="#424547"/>
<path d="M279.994 150.667V198.097C292.725 197.598 302.71 187.113 302.71 174.382C302.71 161.651 292.725 151.166 279.994 150.667Z" fill="#FF7058"/>
<path d="M265.265 264C257.027 264 250.536 257.509 250.536 249.272V99.4907C250.536 91.2529 257.027 84.7625 265.265 84.7625C273.503 84.7625 279.993 91.2529 279.993 99.4907V249.272C279.993 257.509 273.503 264 265.265 264Z" fill="#424547"/>
</g>
<defs>
<clipPath id="clip0_61_1562">
<rect width="376" height="376" fill="white"/>
</clipPath>
</defs>
</svg>
