<svg width="376" height="376" viewBox="0 0 376 376" fill="none" xmlns="http://www.w3.org/2000/svg">
<g clip-path="url(#clip0_61_1451)">
<path d="M188 376C291.83 376 376 291.83 376 188C376 84.1704 291.83 0 188 0C84.1704 0 0 84.1704 0 188C0 291.83 84.1704 376 188 376Z" fill="#6ED379"/>
<path d="M255 294.258C255 302.129 247.118 310 239.235 310H136.765C128.882 310 121 302.129 121 294.258V81.7419C121 73.871 128.882 66 136.765 66H239.235C247.118 66 255 73.871 255 81.7419V294.258Z" fill="#212528"/>
<path d="M233 84C235.209 84 237 82.2091 237 80C237 77.7909 235.209 76 233 76C230.791 76 229 77.7909 229 80C229 82.2091 230.791 84 233 84Z" fill="#94989B"/>
<path d="M200 80C200 81.2 199.6 82 198.8 82H177.2C176.4 82 176 81.2 176 80C176 79.2 176.4 78 177.2 78H198.8C199.6 78 200 79.2 200 80Z" fill="#94989B"/>
<path d="M129 94H247V282H129V94Z" fill="#3E4347"/>
<path d="M203 298.903C203 300.452 201.816 302 199.842 302H176.158C174.579 302 173 300.839 173 298.903V293.097C173 291.548 174.184 290 176.158 290H199.842C201.421 290 203 291.161 203 293.097V298.903Z" fill="#94989B"/>
<path d="M157 271.734C157 273.775 155.367 275 153.735 275H140.266C138.225 275 137 273.367 137 271.734V258.265C137 256.224 138.633 255 140.266 255H153.735C155.775 255 157 256.632 157 258.265V271.734Z" fill="#C7E755"/>
<path d="M184 271.734C184 273.775 182.449 275 180.898 275H168.102C166.163 275 165 273.367 165 271.734V258.265C165 256.224 166.551 255 168.102 255H180.898C182.837 255 184 256.632 184 258.265V271.734Z" fill="#FF435E"/>
<path d="M212 271.734C212 273.775 210.367 275 208.734 275H195.265C193.225 275 192 273.367 192 271.734V258.265C192 256.224 193.633 255 195.265 255H208.734C210.775 255 212 256.632 212 258.265V271.734Z" fill="#42ADE2"/>
<path d="M239 271.734C239 273.775 237.449 275 235.898 275H223.102C221.163 275 220 273.367 220 271.734V258.265C220 256.224 221.551 255 223.102 255H235.898C237.837 255 239 256.632 239 258.265V271.734Z" fill="#C28FEF"/>
</g>
<defs>
<clipPath id="clip0_61_1451">
<rect width="376" height="376" fill="white"/>
</clipPath>
</defs>
</svg>
