<svg width="376" height="376" viewBox="0 0 376 376" fill="none" xmlns="http://www.w3.org/2000/svg">
<g clip-path="url(#clip0_60_198)">
<path d="M188 376C291.83 376 376 291.83 376 188C376 84.1704 291.83 0 188 0C84.1704 0 0 84.1704 0 188C0 291.83 84.1704 376 188 376Z" fill="#8E7FB7"/>
<path d="M236.022 70V109.928H276V276H87V70H236.022Z" fill="white"/>
<path d="M236 70L276 110H236V70Z" fill="#E6E9EE"/>
<path d="M244.052 248L256 236.052L235.948 216L224 227.948L244.052 248Z" fill="#2B3B4E"/>
<path d="M184 248C223.764 248 256 215.764 256 176C256 136.235 223.764 104 184 104C144.235 104 112 136.235 112 176C112 215.764 144.235 248 184 248Z" fill="#324A5E"/>
<path d="M184.5 233C216.257 233 242 207.256 242 175.5C242 143.743 216.257 118 184.5 118C152.744 118 127 143.743 127 175.5C127 207.256 152.744 233 184.5 233Z" fill="#54C0EB"/>
<path d="M257.185 226.7L234.7 249.185C233.767 250.118 233.767 251.56 234.7 252.493L287.506 305.3C288.44 306.233 289.882 306.233 290.815 305.3L313.3 282.815C314.233 281.882 314.233 280.44 313.3 279.507L260.494 226.7C259.561 225.767 258.118 225.767 257.185 226.7Z" fill="#E6E9EE"/>
<path d="M245 261.986L269.524 287L295 261.014L270.476 236L245 261.986Z" fill="#FF7058"/>
<path d="M201.159 194L186.577 172.4L175.556 188.642L167.587 176.753L161.059 186.298H138V178.344H156.736L167.587 162.521L175.556 174.325L186.577 158L201.159 179.6L206.839 171.228H231V179.182H211.162L201.159 194Z" fill="white"/>
</g>
<defs>
<clipPath id="clip0_60_198">
<rect width="376" height="376" fill="white"/>
</clipPath>
</defs>
</svg>
