<svg width="376" height="376" viewBox="0 0 376 376" fill="none" xmlns="http://www.w3.org/2000/svg">
<g clip-path="url(#clip0_60_207)">
<path d="M188 376C291.83 376 376 291.83 376 188C376 84.1704 291.83 0 188 0C84.1704 0 0 84.1704 0 188C0 291.83 84.1704 376 188 376Z" fill="#54B4D2"/>
<path d="M239.037 115.642H231.507V140.463H239.037C243.22 140.463 246.846 137.674 246.846 134.048V121.778C246.846 118.431 243.499 115.642 239.037 115.642Z" fill="#505357"/>
<path d="M128.875 121.778V134.048C128.875 137.395 132.222 140.463 136.684 140.463H144.214V115.642H136.684C132.222 115.642 128.875 118.431 128.875 121.778Z" fill="#505357"/>
<path d="M287.285 306.96H88.436V226.918C88.436 214.089 97.6396 202.654 111.305 198.471L168.478 181.18C181.306 177.275 194.693 177.275 206.965 181.18L264.137 198.471C277.803 202.654 287.006 214.089 287.006 226.918L287.285 306.96Z" fill="#F99653"/>
<path d="M234.296 238.074H201.108V245.325H234.296V238.074Z" fill="#FFD551"/>
<path d="M208.917 146.32H166.804V204.887H208.917V146.32Z" fill="#EDBF9A"/>
<path d="M235.69 117.315C235.69 149.666 214.216 182.575 188 182.575C161.784 182.575 140.031 149.388 140.031 117.315C140.031 85.2426 161.505 65.4414 188 65.4414C214.495 65.4414 235.69 84.9638 235.69 117.315Z" fill="#FFD9B6"/>
<path d="M134.174 248.95H132.78C131.385 248.95 129.991 250.065 129.991 251.739V306.68H137.242V252.017C136.963 250.344 135.569 248.95 134.174 248.95Z" fill="#E08344"/>
<path d="M243.22 248.95H241.826C240.431 248.95 239.037 250.065 239.037 251.739V306.68H246.288V252.017C246.009 250.344 244.894 248.95 243.22 248.95Z" fill="#E08344"/>
<path d="M208.917 185.363L188 204.328L166.804 185.363L163.736 182.574L141.426 189.268L174.613 219.388L188 204.885L201.108 219.388L234.574 189.268L211.984 182.574L208.917 185.363Z" fill="#E08344"/>
<path d="M206.965 160.823C203.618 160.823 202.781 160.823 198.598 160.544H194.414V157.197H198.598C217.841 157.755 224.256 158.034 230.112 153.014C236.248 147.994 235.132 135.165 235.132 134.886L238.479 134.607C238.479 135.165 239.873 149.388 232.343 155.524C226.765 160.265 219.514 160.823 206.965 160.823Z" fill="#505357"/>
<path d="M202.223 164.727H190.789C189.116 164.727 187.721 163.333 187.721 161.66V157.476C187.721 155.803 189.116 154.409 190.789 154.409H202.223C203.896 154.409 205.291 155.803 205.291 157.476V161.66C205.57 163.054 204.176 164.727 202.223 164.727Z" fill="#0E0D0D"/>
<path d="M235.69 86.6368C235.69 71.8557 228.16 71.2979 228.16 71.2979L216.447 69.9034C214.216 69.6245 212.542 67.9511 212.264 65.7201C210.869 58.19 205.291 59.0267 205.291 59.0267C205.291 59.0267 166.526 59.0267 154.254 63.7678C140.031 69.3456 136.684 79.1068 136.684 87.1946C136.684 103.649 140.868 133.211 143.378 139.905C143.935 141.299 146.445 141.02 146.445 139.347V117.315C146.445 115.92 147.561 114.805 148.956 114.805H203.06C204.455 114.805 205.57 113.689 205.57 112.295V106.996C205.57 105.602 206.686 104.486 208.08 104.486C209.474 104.486 210.311 105.602 210.311 106.996V112.295C210.311 113.689 211.427 114.805 212.821 114.805H226.766C228.16 114.805 229.276 115.92 229.276 117.315V138.51C229.276 140.184 232.343 140.184 232.901 138.789C234.854 131.817 235.969 124.845 235.969 117.594C235.969 114.526 235.69 95.2823 235.69 86.6368Z" fill="#3F3F3F"/>
<path d="M111.305 213.811H264.416C269.715 213.811 273.898 218.273 273.34 223.572L267.763 310.028H108.237L102.659 223.572C102.102 218.273 106.006 213.811 111.305 213.811Z" fill="#EFEEED"/>
<path d="M198.04 288.274C198.04 283.812 195.251 280.186 191.347 278.792V286.601C191.347 288.274 190.231 289.947 188.279 289.947C186.327 290.226 184.374 288.553 184.374 286.601V278.792C180.191 280.186 177.402 284.369 177.681 289.111C177.96 293.015 180.749 296.362 184.374 297.756V308.075H191.068V297.756C195.251 296.641 198.04 292.736 198.04 288.274Z" fill="#80B2F9"/>
<path d="M217.283 296.361H223.977V281.301H217.283C216.447 278.512 215.61 275.723 213.937 273.492L218.678 268.751L208.08 257.874L203.339 262.615C200.829 261.221 198.319 260.106 195.53 259.269V252.576H180.47V259.269C177.681 260.106 175.171 260.942 172.661 262.615L167.92 257.874L157.322 268.472L162.063 273.213C160.669 275.723 159.553 278.233 158.717 281.022H152.023V296.082H158.717C159.274 298.592 160.39 300.823 161.505 303.054C161.505 303.333 161.784 303.612 162.063 303.891L157.322 308.632L165.41 316.72H170.43L172.661 314.489C174.056 315.326 175.729 316.162 177.123 316.72H198.877C200.55 316.162 201.944 315.326 203.339 314.489L205.57 316.72H210.59L218.957 308.632L214.216 303.891C214.495 303.612 214.495 303.333 214.773 302.776C215.889 300.823 216.726 298.592 217.283 296.361ZM191.347 305.007C190.231 305.285 189.116 305.285 188 305.285C186.884 305.285 185.769 305.285 184.653 305.007C182.98 304.728 181.307 303.891 179.633 303.054C174.613 300.266 171.266 294.688 171.266 288.552C171.266 279.349 178.796 271.819 188 271.819C197.204 271.819 204.734 279.349 204.734 288.552C204.734 294.688 201.387 299.987 196.366 303.054C194.972 303.891 193.02 304.728 191.347 305.007Z" fill="#80B2F9"/>
<path d="M303.182 310.028C303.182 311.98 302.345 313.653 301.229 315.048C300.114 316.442 298.161 317 296.209 317H79.7906C75.8862 317 72.8184 313.932 72.8184 310.028C72.8184 308.075 73.655 306.402 74.7706 305.008C75.8862 303.613 77.8384 303.056 79.7906 303.056H296.209C300.114 303.056 303.182 306.123 303.182 310.028Z" fill="#448FFC"/>
</g>
<defs>
<clipPath id="clip0_60_207">
<rect width="376" height="376" fill="white"/>
</clipPath>
</defs>
</svg>
