<svg width="376" height="376" viewBox="0 0 376 376" fill="none" xmlns="http://www.w3.org/2000/svg">
<path d="M188 376C291.83 376 376 291.83 376 188C376 84.1704 291.83 0 188 0C84.1704 0 0 84.1704 0 188C0 291.83 84.1704 376 188 376Z" fill="#EC7979"/>
<path d="M70.9794 79.0006H305.019C312.709 79.0006 319 85.2859 319 92.9678V237H57V92.9672C57 85.2853 63.2914 79 70.9807 79L70.9794 79.0006Z" fill="#666666"/>
<path d="M67 227H309V92.4828C309 90.0354 306.971 88 304.532 88H71.4695C69.0305 88 67.0018 90.0354 67.0018 92.4828V227H67Z" fill="white"/>
<path d="M318.999 237V252.148C318.999 259.768 312.065 266 303.588 266H72.4107C63.9344 266 57 259.768 57 252.148V237H319H318.999Z" fill="white"/>
<path d="M188 255C190.761 255 193 252.985 193 250.5C193 248.015 190.761 246 188 246C185.239 246 183 248.015 183 250.5C183 252.985 185.239 255 188 255Z" fill="#B6B6B8"/>
<path d="M217.961 287.906L240 295H136L153.783 287.906V266H217.959V287.906H217.961Z" fill="#C2C2C4"/>
<path d="M153.783 288H217.96L240 294.99V298H136V294.99L153.783 288Z" fill="#9AA5A8"/>
<path d="M154 266H218V288L154 266Z" fill="#919191"/>
<path d="M102 98H77V102H102V98Z" fill="#20D0C2"/>
<path d="M150 98H105V102H150V98Z" fill="#FF5B62"/>
<path d="M190 98H152V102H190V98Z" fill="#FAD24D"/>
<path d="M117 115H104V120H117V115Z" fill="#FAD24D"/>
<path d="M142 115H118V120H142V115Z" fill="#FF5B62"/>
<path d="M163 115H143V120H163V115Z" fill="#20D0C2"/>
<path d="M101 123H77V127H101V123Z" fill="#20D0C2"/>
<path d="M145 123H103V127H145V123Z" fill="#FAD24D"/>
<path d="M125 132H102V136H125V132Z" fill="#FF5B62"/>
<path d="M169 132H128V136H169V132Z" fill="#20D0C2"/>
<path d="M105 141H81V145H105V141Z" fill="#FAD24D"/>
<path d="M124 141H108V145H124V141Z" fill="#20D0C2"/>
<path d="M175 141H128V145H175V141Z" fill="#FF5B62"/>
<path d="M195 141H179V145H195V141Z" fill="#20D0C2"/>
<path d="M139 150H76V154H139V150Z" fill="#20D0C2"/>
<path d="M158 150H142V154H158V150Z" fill="#FAD24D"/>
<path d="M184 150H161V154H184V150Z" fill="#FF5B62"/>
<path d="M106 106H105V111H106V106Z" fill="white"/>
<path d="M151 123H149V128H151V123Z" fill="white"/>
<path d="M102 162H77V167H102V162Z" fill="#20D0C2"/>
<path d="M150 162H105V167H150V162Z" fill="#FF5B62"/>
<path d="M190 162H152V167H190V162Z" fill="#FAD24D"/>
<path d="M117 180H104V184H117V180Z" fill="#FAD24D"/>
<path d="M142 180H118V184H142V180Z" fill="#FF5B62"/>
<path d="M163 180H143V184H163V180Z" fill="#20D0C2"/>
<path d="M101 188H77V192H101V188Z" fill="#20D0C2"/>
<path d="M145 188H103V192H145V188Z" fill="#FAD24D"/>
<path d="M106 171H105V176H106V171Z" fill="white"/>
<path d="M151 188H149V193H151V188Z" fill="white"/>
<path d="M299 98H209V118H299V98Z" fill="#DCE3DB"/>
<path d="M209 121H252V149H209V121Z" fill="#DCE3DB"/>
<path d="M256 121H299V149H256V121Z" fill="#DCE3DB"/>
<path d="M209 153H299V154.339H209V153ZM209 165.661H268.121V167H209V165.661ZM209 161.44H299V162.779H209V161.44ZM209 157.221H299V158.56H209V157.221Z" fill="#DCE3DB"/>
<path d="M209 170H235.98V197H209V170ZM273.019 170H300V197H273.019V170ZM241.01 170H267.99V197H241.01V170Z" fill="#DCE3DB"/>
<path d="M209 200H299V201.339H209V200ZM209 212.661H268.121V214H209V212.661ZM209 208.44H299V209.779H209V208.44ZM209 204.221H299V205.56H209V204.221Z" fill="#DCE3DB"/>
</svg>
