<svg width="512" height="512" viewBox="0 0 512 512" fill="none" xmlns="http://www.w3.org/2000/svg">
<g clip-path="url(#clip0_633_3008)">
<path d="M295.255 457.621H194.445C192.535 457.621 190.703 456.862 189.353 455.512C188.003 454.161 187.244 452.33 187.244 450.42V32.7769C187.244 30.8672 188.003 29.0356 189.353 27.6852C190.703 26.3348 192.535 25.5762 194.445 25.5762H295.255C297.165 25.5762 298.996 26.3348 300.347 27.6852C301.697 29.0356 302.456 30.8672 302.456 32.7769V450.42C302.456 452.33 301.697 454.161 300.347 455.512C298.996 456.862 297.165 457.621 295.255 457.621Z" fill="#FEBC00"/>
<path d="M295.255 25.5762H288.054V342.409C288.054 369.146 277.433 394.787 258.528 413.693C239.622 432.598 213.98 443.219 187.244 443.219V443.219V450.42C187.244 452.33 188.003 454.161 189.353 455.512C190.703 456.862 192.535 457.621 194.445 457.621H295.255C297.165 457.621 298.996 456.862 300.347 455.512C301.697 454.161 302.456 452.33 302.456 450.42V32.7769C302.456 30.8672 301.697 29.0356 300.347 27.6852C298.996 26.3348 297.165 25.5762 295.255 25.5762V25.5762Z" fill="#EDAA03"/>
<path d="M237.649 61.5801H187.244V75.9816H237.649V61.5801Z" fill="#F74E0C"/>
<path d="M237.649 104.781H187.244V119.183H237.649V104.781Z" fill="#F74E0C"/>
<path d="M237.649 147.988H187.244V162.39H237.649V147.988Z" fill="#F74E0C"/>
<path d="M237.649 191.193H187.244V205.595H237.649V191.193Z" fill="#F74E0C"/>
<path d="M237.649 234.398H187.244V248.8H237.649V234.398Z" fill="#F74E0C"/>
<path d="M237.649 277.604H187.244V292.005H237.649V277.604Z" fill="#F74E0C"/>
<path d="M237.649 320.807H187.244V335.208H237.649V320.807Z" fill="#F74E0C"/>
<path d="M237.649 364.012H187.244V378.413H237.649V364.012Z" fill="#F74E0C"/>
<path d="M237.649 407.215H187.244V421.616H237.649V407.215Z" fill="#F74E0C"/>
<path d="M244.267 241.289H135.569C129.828 241.289 124.519 238.226 121.648 233.252L85.6448 170.898C81.2055 163.209 83.8392 153.379 91.526 148.939L173.053 101.866C180.741 97.4294 190.571 100.062 195.011 107.751L258.188 217.177C264.372 227.884 256.618 241.289 244.267 241.289Z" fill="#C7E9F4"/>
<path d="M146.214 117.363L118.371 133.44L175.996 233.251C186.428 251.32 214.674 235.942 203.84 217.177L146.214 117.363Z" fill="#80D0E1"/>
<path d="M80.6493 100.681L78.8662 61.4039C78.2767 48.3912 92.6358 40.1293 103.586 47.1329L136.707 68.3166C146.844 74.799 146.513 89.7586 136.083 95.7793L104.747 113.874C94.3622 119.869 81.1984 112.761 80.6493 100.681Z" fill="#6A82A1"/>
<path d="M352.446 251.412C236.233 251.412 236.032 254.126 229.825 243.374C223.465 232.358 224.405 236.688 300.547 104.806C304.981 97.1259 314.821 94.4815 322.509 98.9243L404.03 145.993C411.716 150.43 414.353 160.266 409.915 167.954L366.367 243.374C363.495 248.348 358.188 251.412 352.446 251.412Z" fill="#FFDA79"/>
<path d="M408.099 135.871L326.577 88.8026C318.889 84.3607 309.05 87.0051 304.616 94.6847C282.729 132.594 267.065 159.231 255.994 178.23V241.29H356.515C362.257 241.29 367.566 238.226 370.436 233.252L413.984 157.833C418.422 150.144 415.785 140.308 408.099 135.871Z" fill="#FFD155"/>
<path d="M388.059 486.424H123.927C115.049 486.424 107.851 479.227 107.851 470.349V408.64C107.851 399.763 115.048 392.564 123.927 392.564H388.059C396.937 392.564 404.135 399.762 404.135 408.64V470.349C404.135 479.226 396.937 486.424 388.059 486.424Z" fill="#627573"/>
<path d="M388.059 392.564H255.994V486.424H388.059C396.937 486.424 404.135 479.227 404.135 470.349V408.64C404.135 399.763 396.937 392.564 388.059 392.564Z" fill="#526261"/>
<path d="M404.135 424.716H107.851V244.916C107.851 237.611 115.048 231.688 123.927 231.688H388.059C396.937 231.688 404.135 237.61 404.135 244.916V424.716Z" fill="#627573"/>
<path d="M404.135 244.914C404.135 237.609 396.938 231.686 388.059 231.686H255.994V424.714H404.135V244.914Z" fill="#526261"/>
<path d="M212.929 293.078C224.35 293.078 233.608 283.819 233.608 272.398C233.608 260.977 224.35 251.719 212.929 251.719C201.508 251.719 192.249 260.977 192.249 272.398C192.249 283.819 201.508 293.078 212.929 293.078Z" fill="#D4EEEC"/>
<path d="M299.061 293.078C310.482 293.078 319.74 283.819 319.74 272.398C319.74 260.977 310.482 251.719 299.061 251.719C287.639 251.719 278.381 260.977 278.381 272.398C278.381 283.819 287.639 293.078 299.061 293.078Z" fill="#20B8AE"/>
<path d="M212.929 363.142C224.35 363.142 233.608 353.884 233.608 342.463C233.608 331.042 224.35 321.783 212.929 321.783C201.508 321.783 192.249 331.042 192.249 342.463C192.249 353.884 201.508 363.142 212.929 363.142Z" fill="#D4EEEC"/>
<path d="M299.061 363.142C310.482 363.142 319.74 353.884 319.74 342.463C319.74 331.042 310.482 321.783 299.061 321.783C287.639 321.783 278.381 331.042 278.381 342.463C278.381 353.884 287.639 363.142 299.061 363.142Z" fill="#20B8AE"/>
<path d="M80.2065 90.9168C80.9166 106.579 82.7492 146.947 83.5053 163.585C84.0553 175.703 97.2614 182.749 107.601 176.778L189.129 129.708C199.549 123.693 199.898 108.733 189.752 102.245C175.646 93.2228 139.973 70.4063 128.473 63.0508L80.2065 90.9168Z" fill="#FFDA79"/>
<path d="M392.024 163.719L310.496 116.649C302.808 112.21 300.173 102.38 304.612 94.6907L315.298 76.1812C332.707 46.028 371.401 35.6599 401.556 53.0677V53.0686C431.781 70.5196 442.12 109.099 424.668 139.326L413.982 157.834C409.528 165.551 399.682 168.138 392.024 163.719Z" fill="#FF9392"/>
<path d="M299.06 293.076C310.482 293.076 319.74 283.817 319.74 272.396C319.74 260.975 310.482 251.717 299.06 251.717C287.639 251.717 278.381 260.975 278.381 272.396C278.381 283.817 287.639 293.076 299.06 293.076Z" fill="#D4EEEC"/>
<path d="M299.06 363.144C310.482 363.144 319.74 353.886 319.74 342.465C319.74 331.044 310.482 321.785 299.06 321.785C287.639 321.785 278.381 331.044 278.381 342.465C278.381 353.886 287.639 363.144 299.06 363.144Z" fill="#D4EEEC"/>
</g>
<defs>
<clipPath id="clip0_633_3008">
<rect width="460.848" height="460.848" fill="white" transform="translate(25.5762 25.5762)"/>
</clipPath>
</defs>
</svg>
