<?xml version="1.0" encoding="utf-8"?><!-- Uploaded to: SVG Repo, www.svgrepo.com, Generator: SVG Repo Mixer Tools -->
<svg version="1.1" id="Uploaded to svgrepo.com" xmlns="http://www.w3.org/2000/svg" xmlns:xlink="http://www.w3.org/1999/xlink" 
	 width="800px" height="800px" viewBox="0 0 32 32" xml:space="preserve">
<style type="text/css">
	.isometric_drie{fill:#F2D76C;}
	.isometric_vijf{fill:#F29227;}
	.isometric_zeven{fill:#FF7344;}
	.isometric_tien{fill:#7BD6C4;}
	.isometric_twaalf{fill:#569080;}
	.isometric_dertien{fill:#225B49;}
	.st0{fill:#F05A28;}
	.st1{fill:#72C0AB;}
	.st2{fill:#225B49;}
	.st3{fill:#BE1E2D;}
	.st4{fill:#F28103;}
	.st5{fill:#F8F7C5;}
	.st6{fill:#AD9A74;}
	.st7{fill:#F5DF89;}
	.st8{fill:#7BD6C4;}
	.st9{fill:#80CCBE;}
</style>
<g>
	<path class="isometric_vijf" d="M17.101,8.057l-5.754-3.322C9.82,3.853,8.456,3.756,7.558,4.32
		c-0.31,0.195-1.593,0.872-2.345,1.373C4.458,6.108,4,6.958,4,8.179v0.098c0,2.515,1.943,5.702,4.427,7.37l1.814,2.838l1.681-0.69
		c0.827-1.108,1.851-2.089,2.977-2.739l3.341-1.929l2.413-1.393c0.016-0.009,0.031-0.015,0.046-0.024
		C19.803,10.231,18.53,8.881,17.101,8.057z"/>
	<path class="isometric_drie" d="M11.922,17.795c0.827-1.108,1.851-2.089,2.977-2.739l3.341-1.929
		c-0.895-1.473-2.165-2.815-3.587-3.636L8.899,6.17C6.193,4.608,4,5.507,4,8.179v0.098c0,2.515,1.943,5.702,4.427,7.37l1.814,2.838
		L11.922,17.795z"/>
	<path class="isometric_zeven" d="M8.045,12.307c-0.436-0.252-0.708-0.756-0.708-1.219c0-0.476,0.283-0.648,0.696-0.41
		c0.413,0.238,0.708,0.743,0.708,1.22C8.741,12.362,8.457,12.546,8.045,12.307z M10.495,13.707
		c-0.436-0.252-0.708-0.756-0.708-1.219c0-0.476,0.283-0.648,0.696-0.41c0.413,0.238,0.708,0.743,0.708,1.22
		C11.191,13.762,10.907,13.946,10.495,13.707z M12.948,15.114c-0.436-0.252-0.708-0.756-0.708-1.219c0-0.476,0.283-0.648,0.696-0.41
		c0.413,0.238,0.708,0.743,0.708,1.22C13.644,15.168,13.361,15.352,12.948,15.114z"/>
	<path class="isometric_vijf" d="M9.455,11.731c-0.113,0.086-0.679,0.489-0.875,0.611c0.102-0.082,0.16-0.234,0.16-0.444
		c0-0.476-0.295-0.982-0.708-1.22c-0.413-0.238-0.696-0.067-0.696,0.41c0,0.086-0.03-0.26,0.129-0.425
		c0.121-0.127,0.833-0.613,0.971-0.678C9.068,9.693,10.033,11.287,9.455,11.731z M10.887,11.385
		c-0.139,0.064-0.85,0.551-0.971,0.678c-0.158,0.165-0.129,0.511-0.129,0.425c0-0.476,0.283-0.648,0.696-0.41
		c0.413,0.238,0.708,0.744,0.708,1.22c0,0.21-0.058,0.362-0.16,0.444c0.195-0.122,0.762-0.525,0.875-0.611
		C12.483,12.687,11.518,11.093,10.887,11.385z M13.34,12.792c-0.139,0.064-0.85,0.551-0.971,0.678
		c-0.158,0.165-0.129,0.511-0.129,0.425c0-0.476,0.283-0.648,0.696-0.41c0.413,0.238,0.708,0.744,0.708,1.22
		c0,0.21-0.058,0.362-0.16,0.444c0.195-0.122,0.762-0.525,0.875-0.611C14.936,14.094,13.971,12.499,13.34,12.792z"/>
	<path class="isometric_dertien" d="M24.442,11.32c-0.898-0.564-2.262-0.467-3.789,0.415l-5.754,3.322
		C12.193,16.619,10,20.051,10,22.723v0.098c0,1.113,0.381,1.917,1.022,2.363c0.442,0.308,2.179,1.291,2.599,1.534
		c0.898,0.521,2.234,0.409,3.726-0.453l2.622-1.514l1.79,0.734l1.814-2.838C26.057,20.979,28,17.792,28,15.277V15.18
		c0-0.95-0.278-1.674-0.757-2.144C26.773,12.575,24.832,11.565,24.442,11.32z"/>
	<path class="isometric_twaalf" d="M23.101,13.17l-5.754,3.322c-2.705,1.562-4.899,4.994-4.899,7.666v0.098
		c0,2.672,2.193,3.571,4.899,2.009l2.622-1.514l1.79,0.734l1.814-2.838C26.057,20.978,28,17.791,28,15.277
		C28,12.332,25.666,11.689,23.101,13.17z"/>
	<path class="isometric_dertien" d="M19.643,20.475c0.082,0.086,0.129,0.229,0.129,0.421c0,0.463-0.271,0.967-0.708,1.219
		c-0.2,0.115-0.369,0.132-0.491,0.065c-0.129-0.071-0.796-0.543-0.919-0.638c-0.105-0.081-0.165-0.235-0.165-0.449
		c0-0.476,0.295-0.982,0.708-1.22c0.192-0.111,0.356-0.133,0.476-0.077C18.811,19.862,19.522,20.349,19.643,20.475z M21.094,18.407
		c-0.12-0.056-0.284-0.034-0.476,0.077c-0.413,0.238-0.708,0.743-0.708,1.22c0,0.214,0.06,0.368,0.165,0.449
		c0.123,0.095,0.79,0.567,0.919,0.638c0.122,0.067,0.291,0.05,0.491-0.065c0.436-0.252,0.708-0.756,0.708-1.219
		c0-0.193-0.046-0.335-0.129-0.421C21.944,18.958,21.233,18.471,21.094,18.407z M23.563,16.985c-0.12-0.056-0.284-0.034-0.476,0.077
		c-0.413,0.238-0.708,0.743-0.708,1.22c0,0.214,0.06,0.368,0.165,0.449c0.123,0.095,0.79,0.567,0.919,0.638
		c0.122,0.067,0.291,0.05,0.491-0.065c0.436-0.252,0.708-0.756,0.708-1.219c0-0.193-0.046-0.335-0.129-0.421
		C24.413,17.536,23.701,17.05,23.563,16.985z"/>
	<path class="isometric_tien" d="M18.369,21.711c0-0.476,0.295-0.982,0.708-1.22s0.696-0.067,0.696,0.41
		c0,0.463-0.271,0.967-0.708,1.219C18.652,22.358,18.369,22.174,18.369,21.711z M20.791,20.32c0-0.476,0.295-0.982,0.708-1.22
		s0.696-0.067,0.696,0.41c0,0.463-0.271,0.967-0.708,1.219C21.074,20.967,20.791,20.783,20.791,20.32z M23.259,18.898
		c0-0.476,0.295-0.982,0.708-1.22s0.696-0.067,0.696,0.41c0,0.463-0.271,0.967-0.708,1.219
		C23.543,19.546,23.259,19.362,23.259,18.898z"/>
</g>
</svg>