<svg width="512" height="512" viewBox="0 0 512 512" fill="none" xmlns="http://www.w3.org/2000/svg">
<g clip-path="url(#clip0_633_3032)">
<path d="M406.203 219.063V406.138C406.203 422.074 400.108 437.358 389.259 448.627C378.409 459.895 363.694 466.226 348.351 466.226H116.941C101.597 466.226 86.8821 459.895 76.0326 448.627C65.1832 437.358 59.088 422.074 59.088 406.138V85.6665C59.088 69.7301 65.1832 54.4464 76.0326 43.1776C86.8821 31.9089 101.597 25.5781 116.941 25.5781H219.918C230.051 25.5699 240.086 27.6352 249.45 31.6562C258.814 35.6771 267.323 41.5749 274.492 49.0126L383.641 162.379C390.802 169.825 396.48 178.664 400.351 188.39C404.223 198.116 406.211 208.538 406.203 219.063V219.063Z" fill="#D1BDBD"/>
<path d="M406.203 211.863V386.665C406.203 402.008 400.108 416.723 389.259 427.573C378.409 438.422 363.694 444.518 348.351 444.518H116.941C101.597 444.518 86.8821 438.422 76.0326 427.573C65.1832 416.723 59.088 402.008 59.088 386.665V83.4307C59.088 68.0872 65.1832 53.3722 76.0326 42.5228C86.8821 31.6733 101.597 25.5781 116.941 25.5781H219.918C230.051 25.5702 240.086 27.5587 249.45 31.43C258.814 35.3014 267.323 40.9797 274.492 48.1406L383.641 157.289C390.802 164.458 396.48 172.967 400.351 182.332C404.223 191.696 406.211 201.731 406.203 211.863Z" fill="#FFF1F1"/>
<path d="M399.26 179.851H309.782C294.438 179.851 279.723 173.755 268.874 162.906C258.024 152.057 251.929 137.342 251.929 121.998V32.5195C260.305 36.3675 267.942 41.6543 274.492 48.1397L383.64 157.288C390.126 163.838 395.412 171.475 399.26 179.851Z" fill="#D1BDBD"/>
<g clip-path="url(#clip1_633_3032)">
<path d="M97.7698 211.43C97.7698 206.724 93.9557 202.91 89.2507 202.91C84.5457 202.91 80.731 206.724 80.731 211.43C80.731 216.135 84.5457 219.949 89.2507 219.949C93.9557 219.949 97.7698 216.135 97.7698 211.43Z" fill="black"/>
<path fill-rule="evenodd" clip-rule="evenodd" d="M145.762 138.777C153.524 127.263 157.406 114.563 157.406 100.677C157.406 81.8556 150.752 65.7908 137.444 52.4823C124.135 39.1738 108.07 32.5195 89.2492 32.5195C70.4279 32.5195 54.3631 39.1738 41.0547 52.4823C27.7462 65.7908 21.0919 81.8556 21.0919 100.677C21.0919 114.563 24.9733 127.263 32.7361 138.777C37.9913 146.572 44.4174 152.922 52.0146 157.827V157.855C55.6544 160.602 58.5104 164.198 60.5823 168.64C62.6542 173.084 63.6901 177.833 63.6901 182.891C63.6901 183.35 63.681 183.809 63.6628 184.268C63.6447 184.727 63.6174 185.185 63.5811 185.642H63.6901V185.873H114.808V182.891C114.808 177.757 115.873 172.945 118.004 168.454C120.134 163.961 123.064 160.352 126.792 157.626C134.255 152.75 140.577 146.466 145.762 138.777Z" fill="url(#paint0_radial_633_3032)"/>
<path d="M63.6885 194.394C63.6885 203.805 71.3173 211.434 80.7281 211.434H97.7668C107.178 211.434 114.806 203.805 114.806 194.394V185.875H63.6885V194.394Z" fill="url(#paint1_radial_633_3032)"/>
<path d="M102.029 194.393H76.471C74.1184 194.393 72.2113 196.3 72.2113 198.652C72.2113 201.005 74.1184 202.912 76.471 202.912H102.029C104.382 202.912 106.289 201.005 106.289 198.652C106.289 196.3 104.382 194.393 102.029 194.393Z" fill="black" fill-opacity="0.2"/>
<path fill-rule="evenodd" clip-rule="evenodd" d="M71.1741 82.6015C76.1648 77.6108 82.1889 75.1154 89.2469 75.1154C91.5998 75.1154 93.6076 74.2836 95.2711 72.6201C96.9345 70.9565 97.7669 68.9484 97.7669 66.5958C97.7669 64.2432 96.9345 62.2351 95.2711 60.5715C93.6076 58.908 91.5998 58.0762 89.2469 58.0762C77.4838 58.0762 67.4433 62.2351 59.1255 70.5529C50.8077 78.8707 46.6488 88.9111 46.6488 100.674C46.6488 103.027 47.4806 105.035 49.1441 106.699C50.8077 108.362 52.8158 109.194 55.1684 109.194C57.521 109.194 59.5291 108.362 61.1927 106.699C62.8563 105.035 63.688 103.027 63.688 100.674C63.688 93.6165 66.1834 87.5921 71.1741 82.6015Z" fill="white"/>
</g>
<path d="M413.247 472.506C415.317 472.506 416.922 471.216 416.661 469.753L416.756 470.29C416.98 471.559 418.495 472.509 420.291 472.509C422.088 472.509 423.6 471.562 423.824 470.293L423.918 469.756C423.661 471.216 425.263 472.509 427.336 472.512C428.768 472.512 430.052 471.884 430.556 470.931L431.557 469.042L424.986 481.513C423.363 484.594 417.226 484.594 415.599 481.51L409.187 469.349L410.021 470.917C410.534 471.875 411.815 472.506 413.247 472.506Z" fill="#64798A"/>
<path d="M407.17 210.48L412.248 173.165C417.437 172.874 423.183 172.877 428.372 173.174L438.124 211.527C432.746 211.563 412.545 210.525 407.17 210.48Z" fill="#F6C358"/>
<path d="M427.337 472.515C425.267 472.515 423.662 471.22 423.92 469.759L424.343 467.365L427.963 446.851C428.036 446.445 427.137 443.471 427.45 443.152C428.294 445.677 432.594 450.166 436.407 450.166C438.968 450.166 441.244 449.316 442.719 447.992C442.716 448.002 442.716 448.013 442.707 448.023L431.56 469.039L430.558 470.928C430.051 471.885 428.77 472.516 427.337 472.515Z" fill="#DC8744"/>
<path d="M411.425 442.557C412.633 444.645 416.912 450.157 420.278 450.16C423.647 450.16 427.568 444.187 428.773 442.102C428.886 442.402 427.895 447.228 427.838 447.558L424.342 467.371L423.919 469.765L423.825 470.302C423.603 471.568 422.089 472.518 420.292 472.518C418.495 472.518 416.981 471.569 416.757 470.3L416.662 469.762L416.237 467.371L412.723 447.558C412.663 447.219 411.316 442.861 411.425 442.557Z" fill="#F6C358"/>
<path d="M404.153 450.151C407.962 450.153 411.677 445.17 412.517 442.648C412.83 442.967 412.296 445.14 412.369 445.546L416.232 467.359L416.657 469.751C416.918 471.214 415.312 472.503 413.243 472.504C411.81 472.504 410.527 471.869 410.02 470.919L409.185 469.35L397.846 448.002C397.84 447.99 397.844 447.981 397.834 447.972C399.319 449.298 401.594 450.148 404.153 450.151Z" fill="#FCD462"/>
<path d="M428.341 444.433C428.341 445.203 428.126 445.935 427.74 446.605C426.535 448.69 423.652 450.16 420.283 450.16C416.911 450.157 414.028 448.688 412.823 446.597C412.438 445.926 412.219 445.192 412.216 444.423L410.356 216.089L430.802 216.098L428.341 444.433Z" fill="#D15241"/>
<path d="M412.216 444.422C412.216 444.877 412.131 445.321 411.991 445.745C411.15 448.267 407.964 450.149 404.154 450.146C401.592 450.146 399.316 449.29 397.839 447.969C396.746 446.992 396.087 445.757 396.091 444.413L396.142 218.421V216.084L412.267 216.093L412.216 444.422Z" fill="#E56353"/>
<path d="M428.369 173.171C437.249 173.675 444.496 175.035 444.493 177.247L444.509 209.026C439.119 209.153 433.75 209.223 428.381 209.262L428.369 173.171Z" fill="#DC8744"/>
<path d="M412.245 173.162L412.263 209.308C406.894 209.263 401.525 209.187 396.138 209.057L396.123 177.223C396.123 175.013 403.364 173.66 412.245 173.162Z" fill="#FCD462"/>
<path d="M428.388 207.406C433.754 207.363 439.126 207.297 444.516 207.169L444.513 204.781L444.516 216.105L428.392 216.096L412.267 216.086L396.142 216.077L396.139 204.754L396.139 207.139C401.529 207.272 406.895 207.346 412.264 207.391C417.639 207.442 423.013 207.445 428.388 207.406Z" fill="#EBF0F3"/>
<path d="M436.407 450.167C432.599 450.164 429.411 448.282 428.568 445.757C428.426 445.329 428.343 444.889 428.34 444.431L428.392 216.096L444.517 216.105L444.52 218.439L444.465 444.44C444.468 445.785 443.81 447.02 442.72 447.994C441.245 449.317 438.969 450.167 436.407 450.167Z" fill="#CE412D"/>
<g clip-path="url(#clip2_633_3032)">
<path d="M221.305 234.162H190.877C186.675 234.162 183.27 237.602 183.27 241.846V403.208C183.27 407.452 186.675 410.892 190.877 410.892H221.305C225.506 410.892 228.912 407.452 228.912 403.208V241.846C228.912 237.602 225.506 234.162 221.305 234.162Z" fill="#EC5044"/>
<path d="M282.161 334.018H251.733C247.532 334.018 244.126 337.458 244.126 341.701V403.211C244.126 407.455 247.532 410.895 251.733 410.895H282.161C286.363 410.895 289.768 407.455 289.768 403.211V341.701C289.768 337.458 286.363 334.018 282.161 334.018Z" fill="#7B766B"/>
<path d="M160.448 295.637H130.02C125.819 295.637 122.413 299.077 122.413 303.321V403.211C122.413 407.455 125.819 410.895 130.02 410.895H160.448C164.65 410.895 168.055 407.455 168.055 403.211V303.321C168.055 299.077 164.65 295.637 160.448 295.637Z" fill="#41C3F1"/>
</g>
</g>
<defs>
<radialGradient id="paint0_radial_633_3032" cx="0" cy="0" r="1" gradientUnits="userSpaceOnUse" gradientTransform="translate(66.4606 74.6855) rotate(56.4705) scale(114.978 102.203)">
<stop stop-color="#FADF73"/>
<stop offset="0.457142" stop-color="#FFD500"/>
<stop offset="1" stop-color="#FC9900"/>
</radialGradient>
<radialGradient id="paint1_radial_633_3032" cx="0" cy="0" r="1" gradientUnits="userSpaceOnUse" gradientTransform="translate(47.0216 177.936) rotate(38.4256) scale(53.8996 107.799)">
<stop stop-color="#EFFCFF"/>
<stop offset="0.999999" stop-color="#A5F2FF"/>
</radialGradient>
<clipPath id="clip0_633_3032">
<rect width="512" height="512" fill="white"/>
</clipPath>
<clipPath id="clip1_633_3032">
<rect width="187.432" height="187.432" fill="white" transform="translate(-2.33707 32.5195)"/>
</clipPath>
<clipPath id="clip2_633_3032">
<rect width="182.569" height="184.414" fill="white" transform="translate(114.806 226.48)"/>
</clipPath>
</defs>
</svg>
