<svg width="512" height="512" viewBox="0 0 512 512" fill="none" xmlns="http://www.w3.org/2000/svg">
<path d="M98.1645 434.606C83.1357 436.655 69.4732 425.383 69.4732 410.013L68.4485 335.211C81.0864 335.894 93.3826 336.577 104.996 337.26L119 404.89C122.074 418.894 112.51 432.556 98.1645 434.606Z" fill="#FF7058"/>
<path d="M385.528 405.453C385.528 407.944 386.026 410.435 386.524 412.428C328.735 368.587 254.505 351.151 160.847 342.184C160.847 342.184 161.345 342.184 161.843 342.184V169.812C255.004 160.845 328.735 143.409 386.524 99.5684C386.026 102.059 385.528 104.052 385.528 106.543V405.453Z" fill="#FF7058"/>
<path d="M161.843 169.814C126.97 173.302 89.1085 175.294 48.2575 177.287C33.8101 177.785 22.3519 189.742 22.3519 204.687V307.811C22.3519 322.259 33.8101 334.215 48.2575 335.211C89.1085 337.204 126.472 339.197 161.843 342.684V169.814Z" fill="#424547"/>
<path d="M444.313 208.674V303.329C469.721 302.332 489.648 281.409 489.648 256.001C489.648 230.594 469.721 209.67 444.313 208.674Z" fill="#FF7058"/>
<path d="M414.92 434.848C398.48 434.848 385.528 421.895 385.528 405.455V106.545C385.528 90.1051 398.48 77.1523 414.92 77.1523C431.361 77.1523 444.313 90.1051 444.313 106.545V405.455C444.313 421.895 431.361 434.848 414.92 434.848Z" fill="#424547"/>
</svg>
