<svg width="512" height="512" viewBox="0 0 512 512" fill="none" xmlns="http://www.w3.org/2000/svg">
<path d="M448.392 26H384.059C380.223 26 377.112 29.1104 377.112 32.9467V43.5537C377.112 50.1204 371.771 55.4625 365.203 55.4625H168.354C161.787 55.4625 156.445 50.1204 156.445 43.5537V32.9467C156.445 29.1104 153.335 26 149.498 26H63.6077C42.8708 26 26.0009 42.8709 26.0009 63.6077V448.392C26.0009 469.13 42.8708 486 63.6077 486H149.498C153.335 486 156.445 482.89 156.445 479.053V468.446C156.445 461.88 161.787 456.538 168.354 456.538H365.201C371.769 456.538 377.11 461.88 377.11 468.446V479.053C377.11 482.89 380.222 486 384.057 486H448.39C469.128 486 485.998 469.13 485.998 448.392V63.6077C485.999 42.8709 469.129 26 448.392 26Z" fill="#73C470"/>
<g opacity="0.15">
<path d="M41.8798 448.392V63.6077C41.8798 42.8709 58.7498 26 79.4866 26H63.6077C42.8708 26 26.0009 42.8709 26.0009 63.6077V448.392C26.0009 469.13 42.8708 486 63.6077 486H79.4866C58.7498 486 41.8798 469.13 41.8798 448.392Z" fill="#231F20"/>
</g>
<path d="M377.112 298.916C377.112 305.493 371.782 310.824 365.203 310.824H142.201C135.624 310.824 130.292 305.493 130.292 298.916V209.598C130.292 203.021 135.624 197.689 142.201 197.689H365.203C371.782 197.689 377.112 203.021 377.112 209.598V298.916Z" fill="#EBF25F"/>
<path d="M298.36 130.846C304.938 130.846 310.269 136.178 310.269 142.754V365.757C310.269 372.334 304.938 377.666 298.36 377.666H209.042C202.466 377.666 197.133 372.334 197.133 365.757V142.754C197.133 136.178 202.466 130.846 209.042 130.846H298.36V130.846Z" fill="#EBF25F"/>
<path d="M336.072 158.744H171.331C163.11 158.744 156.445 165.41 156.445 173.63V338.371C156.445 346.593 163.111 353.258 171.331 353.258H336.072C344.294 353.258 350.959 346.592 350.959 338.371V310.824V197.689V173.63C350.959 165.41 344.294 158.744 336.072 158.744ZM298.36 304.63H208.051V209.358H298.361V304.63H298.36Z" fill="#547475"/>
<path d="M321.186 311.577C321.186 318.153 315.855 323.485 309.277 323.485H198.126C191.549 323.485 186.217 318.153 186.217 311.577V200.426C186.217 193.849 191.549 188.518 198.126 188.518H309.277C315.855 188.518 321.186 193.849 321.186 200.426V311.577Z" fill="#384949"/>
<path opacity="0.15" d="M202.097 311.577V200.426C202.097 193.849 207.43 188.518 214.006 188.518H198.126C191.549 188.518 186.217 193.849 186.217 200.426V311.577C186.217 318.153 191.549 323.485 198.126 323.485H214.006C207.43 323.486 202.097 318.153 202.097 311.577Z" fill="#231F20"/>
<path d="M67.7908 81.2655C75.8296 81.2655 82.3463 74.7487 82.3463 66.7099C82.3463 58.6711 75.8296 52.1543 67.7908 52.1543C59.7519 52.1543 53.2352 58.6711 53.2352 66.7099C53.2352 74.7487 59.7519 81.2655 67.7908 81.2655Z" fill="#DBDDDD"/>
<path d="M445.286 81.2655C453.325 81.2655 459.842 74.7487 459.842 66.7099C459.842 58.6711 453.325 52.1543 445.286 52.1543C437.248 52.1543 430.731 58.6711 430.731 66.7099C430.731 74.7487 437.248 81.2655 445.286 81.2655Z" fill="#DBDDDD"/>
<path d="M445.286 460.31C453.325 460.31 459.842 453.794 459.842 445.755C459.842 437.716 453.325 431.199 445.286 431.199C437.248 431.199 430.731 437.716 430.731 445.755C430.731 453.794 437.248 460.31 445.286 460.31Z" fill="#DBDDDD"/>
<path d="M214.56 138.286C210.45 138.286 207.117 134.953 207.117 130.842V97.8244C207.117 93.7141 210.449 90.3809 214.56 90.3809C218.671 90.3809 222.004 93.7132 222.004 97.8244V130.843C222.003 134.954 218.67 138.286 214.56 138.286Z" fill="#547475"/>
<path d="M241.025 138.286C236.914 138.286 233.581 134.953 233.581 130.842V97.8244C233.581 93.7141 236.913 90.3809 241.025 90.3809C245.136 90.3809 248.468 93.7132 248.468 97.8244V130.843C248.468 134.954 245.135 138.286 241.025 138.286Z" fill="#547475"/>
<path d="M267.488 138.286C263.377 138.286 260.045 134.953 260.045 130.842V97.8244C260.045 93.7141 263.376 90.3809 267.488 90.3809C271.6 90.3809 274.932 93.7132 274.932 97.8244V130.843C274.932 134.954 271.6 138.286 267.488 138.286Z" fill="#547475"/>
<path d="M293.954 138.286C289.843 138.286 286.51 134.953 286.51 130.842V97.8244C286.51 93.7141 289.842 90.3809 293.954 90.3809C298.065 90.3809 301.397 93.7132 301.397 97.8244V130.843C301.396 134.954 298.063 138.286 293.954 138.286Z" fill="#547475"/>
<path d="M214.56 419.868C210.45 419.868 207.117 416.536 207.117 412.425V379.406C207.117 375.296 210.449 371.963 214.56 371.963C218.671 371.963 222.004 375.295 222.004 379.406V412.425C222.003 416.536 218.67 419.868 214.56 419.868Z" fill="#547475"/>
<path d="M241.025 419.868C236.914 419.868 233.581 416.536 233.581 412.425V379.406C233.581 375.296 236.913 371.963 241.025 371.963C245.136 371.963 248.468 375.295 248.468 379.406V412.425C248.468 416.536 245.135 419.868 241.025 419.868Z" fill="#547475"/>
<path d="M267.488 419.868C263.377 419.868 260.045 416.536 260.045 412.425V379.406C260.045 375.296 263.376 371.963 267.488 371.963C271.6 371.963 274.932 375.295 274.932 379.406V412.425C274.932 416.536 271.6 419.868 267.488 419.868Z" fill="#547475"/>
<path d="M293.954 419.868C289.843 419.868 286.51 416.536 286.51 412.425V379.406C286.51 375.296 289.842 371.963 293.954 371.963C298.065 371.963 301.397 375.295 301.397 379.406V412.425C301.396 416.536 298.063 419.868 293.954 419.868Z" fill="#547475"/>
<path d="M129.973 302.266H96.9559C92.8446 302.266 89.5123 298.934 89.5123 294.822C89.5123 290.712 92.8437 287.379 96.9559 287.379H129.973C134.084 287.379 137.417 290.711 137.417 294.822C137.417 298.934 134.084 302.266 129.973 302.266Z" fill="#547475"/>
<path d="M129.973 275.801H96.9559C92.8446 275.801 89.5123 272.469 89.5123 268.358C89.5123 264.246 92.8437 260.914 96.9559 260.914H129.973C134.084 260.914 137.417 264.246 137.417 268.358C137.417 272.469 134.084 275.801 129.973 275.801Z" fill="#547475"/>
<path d="M129.973 249.338H96.9559C92.8446 249.338 89.5123 246.006 89.5123 241.895C89.5123 237.784 92.8437 234.451 96.9559 234.451H129.973C134.084 234.451 137.417 237.783 137.417 241.895C137.417 246.006 134.084 249.338 129.973 249.338Z" fill="#547475"/>
<path d="M129.973 222.871H96.9559C92.8446 222.871 89.5123 219.539 89.5123 215.428C89.5123 211.318 92.8437 207.984 96.9559 207.984H129.973C134.084 207.984 137.417 211.317 137.417 215.428C137.417 219.539 134.084 222.871 129.973 222.871Z" fill="#547475"/>
<path d="M411.558 302.266H378.541C374.43 302.266 371.097 298.934 371.097 294.822C371.097 290.712 374.429 287.379 378.541 287.379H411.558C415.669 287.379 419.002 290.711 419.002 294.822C419.001 298.934 415.669 302.266 411.558 302.266Z" fill="#547475"/>
<path d="M411.558 275.801H378.541C374.43 275.801 371.097 272.469 371.097 268.358C371.097 264.246 374.429 260.914 378.541 260.914H411.558C415.669 260.914 419.002 264.246 419.002 268.358C419.002 272.469 415.669 275.801 411.558 275.801Z" fill="#547475"/>
<path d="M411.558 249.338H378.541C374.43 249.338 371.097 246.006 371.097 241.895C371.097 237.784 374.429 234.451 378.541 234.451H411.558C415.669 234.451 419.002 237.783 419.002 241.895C419.001 246.006 415.669 249.338 411.558 249.338Z" fill="#547475"/>
<path d="M411.558 222.871H378.541C374.43 222.871 371.097 219.539 371.097 215.428C371.097 211.318 374.429 207.984 378.541 207.984H411.558C415.669 207.984 419.002 211.317 419.002 215.428C419.001 219.539 415.669 222.871 411.558 222.871Z" fill="#547475"/>
<path d="M213.994 215.453H294.518" stroke="#231F20" stroke-width="12.5352" stroke-miterlimit="10" stroke-linecap="round" stroke-linejoin="round"/>
<path d="M213.994 296.66H294.518" stroke="#231F20" stroke-width="12.5352" stroke-miterlimit="10" stroke-linecap="round" stroke-linejoin="round"/>
<path d="M213.994 269.588H294.518" stroke="#231F20" stroke-width="12.5352" stroke-miterlimit="10" stroke-linecap="round" stroke-linejoin="round"/>
<path d="M213.994 242.525H294.518" stroke="#231F20" stroke-width="12.5352" stroke-miterlimit="10" stroke-linecap="round" stroke-linejoin="round"/>
<path d="M63.701 351.735C59.5907 351.735 56.2467 348.402 56.2467 344.291C56.2467 340.18 59.5691 336.848 63.6786 336.848H63.6992C67.8096 336.848 71.1428 340.18 71.1428 344.291C71.1437 348.402 67.8114 351.735 63.701 351.735Z" fill="#AAEAA4"/>
<path d="M63.701 432.94C59.5907 432.94 56.2467 429.608 56.2467 425.496C56.2467 421.386 59.5691 418.053 63.6786 418.053H63.6992C67.8096 418.053 71.1428 421.385 71.1428 425.496C71.1437 429.608 67.8114 432.94 63.701 432.94Z" fill="#AAEAA4"/>
<path d="M63.701 405.871C59.5907 405.871 56.2467 402.539 56.2467 398.428C56.2467 394.317 59.5691 390.984 63.6786 390.984H63.6992C67.8096 390.984 71.1428 394.317 71.1428 398.428C71.1437 402.539 67.8114 405.871 63.701 405.871Z" fill="#AAEAA4"/>
<path d="M63.701 378.805C59.5907 378.805 56.2467 375.473 56.2467 371.362C56.2467 367.251 59.5691 363.918 63.6786 363.918H63.6992C67.8096 363.918 71.1428 367.25 71.1428 371.362C71.1437 375.473 67.8114 378.805 63.701 378.805Z" fill="#AAEAA4"/>
<path d="M63.701 118.836C59.5907 118.836 56.2467 115.504 56.2467 111.393C56.2467 107.282 59.5691 103.949 63.6786 103.949H63.6992C67.8096 103.949 71.1428 107.282 71.1428 111.393C71.1437 115.504 67.8114 118.836 63.701 118.836Z" fill="#AAEAA4"/>
<path d="M63.701 200.041C59.5907 200.041 56.2467 196.709 56.2467 192.598C56.2467 188.487 59.5691 185.154 63.6786 185.154H63.6992C67.8096 185.154 71.1428 188.487 71.1428 192.598C71.1437 196.709 67.8114 200.041 63.701 200.041Z" fill="#AAEAA4"/>
<path d="M63.701 172.971C59.5907 172.971 56.2467 169.639 56.2467 165.528C56.2467 161.417 59.5691 158.084 63.6786 158.084H63.6992C67.8096 158.084 71.1428 161.416 71.1428 165.528C71.1437 169.639 67.8114 172.971 63.701 172.971Z" fill="#AAEAA4"/>
<path d="M63.701 145.905C59.5907 145.905 56.2467 142.572 56.2467 138.461C56.2467 134.351 59.5691 131.018 63.6786 131.018H63.6992C67.8096 131.018 71.1428 134.35 71.1428 138.461C71.1428 142.572 67.8114 145.905 63.701 145.905Z" fill="#AAEAA4"/>
<path d="M92.7098 458.704C88.5985 458.704 85.2662 455.382 85.2662 451.272V451.25C85.2662 447.14 88.5976 443.807 92.7098 443.807C96.8219 443.807 100.153 447.139 100.153 451.25C100.153 455.361 96.8219 458.704 92.7098 458.704Z" fill="#AAEAA4"/>
<path d="M119.778 458.704C115.667 458.704 112.334 455.382 112.334 451.272V451.25C112.334 447.14 115.667 443.807 119.778 443.807C123.889 443.807 127.221 447.139 127.221 451.25C127.221 455.361 123.888 458.704 119.778 458.704Z" fill="#AAEAA4"/>
<path d="M485.999 173.629H471.755C465.178 173.629 459.846 178.96 459.846 185.538V326.461C459.846 333.038 465.178 338.37 471.755 338.37H485.999V173.629Z" fill="#EBF25F"/>
</svg>
