<svg width="512" height="512" viewBox="0 0 512 512" fill="none" xmlns="http://www.w3.org/2000/svg">
<path d="M321.76 357.282C318.804 376.004 315.356 396.695 309.936 418.372C304.517 440.542 298.113 463.697 289.737 487.837C278.899 488.822 268.553 489.315 257.222 489.315C246.383 489.315 235.545 488.822 224.706 487.837C207.956 439.557 198.103 394.725 192.684 357.282C207.463 310.48 256.729 307.031 256.729 307.031C256.729 307.031 307.473 310.973 321.76 357.282Z" fill="#E6E9EE"/>
<mask id="mask0_635_3635" style="mask-type:alpha" maskUnits="userSpaceOnUse" x="2" y="262" width="508" height="225">
<path d="M448.78 330.875C448.357 330.756 447.933 330.664 447.5 330.602L363.189 317.951C362.673 317.873 361.569 317.832 361.044 317.832C355.711 317.832 351.214 321.809 350.564 327.105C345.282 369.987 304.633 262.107 255.999 262.107C207.355 262.107 166.706 369.993 161.435 327.105C160.775 321.653 155.865 317.554 150.687 317.836C150.068 317.801 149.459 317.852 148.809 317.95L64.4985 330.601C64.0655 330.663 63.643 330.755 63.2192 330.874C23.3656 342.035 2.50934 381.251 2.50934 414.222V455.14C2.50934 472.561 18.0225 486.734 37.0937 486.734H474.906C493.978 486.734 509.491 472.562 509.491 455.14V414.222C509.492 381.251 488.636 342.035 448.78 330.875Z" fill="#FF4F19"/>
</mask>
<g mask="url(#mask0_635_3635)">
<path d="M258.207 391.725C257.715 392.217 257.715 392.217 258.207 391.725C257.715 391.725 257.715 391.725 257.715 391.725H258.207Z" fill="#F1543F"/>
<path d="M281.362 398.621L273.48 421.284H241.949L234.067 398.621C246.876 393.202 257.715 392.217 257.715 392.217C257.715 392.217 268.553 392.709 281.362 398.621Z" fill="#F1543F"/>
<path d="M220.765 572.528C233.082 574.006 245.398 574.991 257.715 574.991C270.031 574.991 282.84 574.006 294.664 572.528L273.48 421.281H241.949L220.765 572.528Z" fill="#FF7058"/>
<path d="M476.455 485.821C427.189 534.102 362.158 566.125 289.737 573.515C306.488 525.234 316.341 480.402 321.76 442.96C322.253 444.438 339.003 380.885 330.135 341.965L448.374 399.113L476.455 485.821Z" fill="#324A5E"/>
<path d="M475.963 483.358H475.47C475.47 483.358 475.47 482.866 475.963 482.373V483.358Z" fill="#324A5E"/>
<path d="M225.199 573.515C152.778 566.125 87.7472 534.102 38.4813 485.821L66.5628 399.113L184.801 341.965C175.933 380.885 192.684 443.945 193.176 442.96C199.088 480.402 208.449 524.741 225.199 573.515Z" fill="#324A5E"/>
<path d="M316.834 317.826C316.834 317.826 324.224 359.702 257.715 392.218C257.715 392.218 307.473 396.159 321.76 442.469C322.746 444.44 349.842 342.459 316.834 317.826Z" fill="white"/>
<path d="M326.687 423.748C327.179 421.285 327.672 418.821 328.165 415.865C327.672 418.821 327.179 421.285 326.687 423.748Z" fill="white"/>
<path d="M198.595 317.826C198.595 317.826 191.206 359.702 257.715 392.218C257.715 392.218 207.956 396.159 193.669 442.469C192.684 444.44 165.587 342.459 198.595 317.826Z" fill="white"/>
<path d="M187.264 416.359C187.757 419.315 188.25 421.779 188.742 424.242C188.25 421.286 187.757 418.823 187.264 416.359Z" fill="white"/>
</g>
<path d="M258.207 330.534C233.919 330.534 211.882 320.111 195.623 303.266C195.611 313.361 195.244 327.932 192.567 338.564C194.323 339.638 195.685 341.4 195.951 343.592C199.421 371.827 226.183 393.116 258.207 393.116C290.225 393.116 316.986 371.824 320.463 343.592C320.733 341.397 322.066 339.638 323.849 338.568C321.172 327.935 320.804 313.362 320.792 303.266C304.533 320.111 282.496 330.534 258.207 330.534Z" fill="#FDC88E"/>
<path d="M319.433 304.549C303.311 320.609 281.848 330.534 258.207 330.534C233.919 330.534 211.882 320.111 195.623 303.266C195.611 313.361 195.244 327.932 192.567 338.564C194.323 339.638 195.685 341.4 195.951 343.592C197.486 356.073 203.581 367.185 212.66 375.712C254.527 369.816 302.046 328.475 319.433 304.549Z" fill="#FFB980"/>
<path d="M320.79 156.697H202.579C183.409 156.697 167.812 172.295 167.812 191.465V233.186C167.812 286.866 208.365 330.536 258.208 330.536C308.051 330.536 348.604 286.866 348.604 233.186V184.511C348.604 169.175 336.129 156.697 320.79 156.697Z" fill="#FFE1B2"/>
<path d="M306.883 80.207H216.487C203.408 80.207 192.415 89.2788 189.453 101.458C165.517 104.5 146.952 124.994 146.952 149.742V184.51C146.952 202.43 154.559 219.148 167.812 231.029V191.464C167.812 172.294 183.41 156.696 202.58 156.696H320.79C336.13 156.696 348.604 169.173 348.604 184.51V231.021C361.86 219.143 369.465 202.426 369.465 184.51V142.789C369.465 108.283 341.393 80.207 306.883 80.207Z" fill="#58504E"/>
</svg>
