<svg width="512" height="512" viewBox="0 0 512 512" fill="none" xmlns="http://www.w3.org/2000/svg">
<path d="M104.8 248.969V327.877C104.8 490.335 406.4 490.335 406.4 327.877V248.969H104.8Z" fill="#596066"/>
<path d="M512 215.176L256 368.07L0 215.176L256 62.2812L512 215.176Z" fill="#3E4347"/>
<path d="M300.517 205.769C337.317 222.569 417.317 258.569 420.517 260.169C422.117 260.969 423.717 262.569 423.717 264.969V319.369C423.717 325.769 415.717 325.769 415.717 319.369V268.969C379.717 252.969 302.117 217.769 298.917 216.169C294.117 213.769 295.717 204.169 300.517 205.769" fill="#FFCE31"/>
<path d="M419.717 337.769C411.322 337.769 404.517 329.173 404.517 318.569C404.517 307.965 411.322 299.369 419.717 299.369C428.111 299.369 434.917 307.965 434.917 318.569C434.917 329.173 428.111 337.769 419.717 337.769Z" fill="#FFCE31"/>
<path d="M419.717 422.568C411.717 422.568 404.517 418.568 404.517 412.968V318.568H434.917V412.968C434.917 418.568 427.717 422.568 419.717 422.568" fill="#FFCE31"/>
<path d="M409.317 320.969C410.117 320.969 410.117 321.769 410.917 321.769V420.969C410.117 420.969 410.117 420.169 409.317 420.169V320.969Z" fill="#594640"/>
<path d="M415.717 323.369H417.317V422.569H415.717V323.369Z" fill="#594640"/>
<path d="M422.117 323.369H423.717V422.569H422.117V323.369Z" fill="#594640"/>
<path d="M428.517 321.769C429.317 321.769 429.317 320.969 430.117 320.969V420.969C429.317 420.969 429.317 421.769 428.517 421.769V321.769Z" fill="#594640"/>
</svg>
