<svg width="512" height="512" viewBox="0 0 512 512" fill="none" xmlns="http://www.w3.org/2000/svg">
<path d="M379.809 452.911C379.809 467.476 365.243 482.042 350.677 482.042H161.323C146.757 482.042 132.191 467.476 132.191 452.911V59.6354C132.191 45.0697 146.757 30.5039 161.323 30.5039H350.677C365.243 30.5039 379.809 45.0697 379.809 59.6354V452.911Z" fill="#212528"/>
<path d="M339.753 63.2767C343.775 63.2767 347.036 60.016 347.036 55.9938C347.036 51.9716 343.775 48.7109 339.753 48.7109C335.731 48.7109 332.47 51.9716 332.47 55.9938C332.47 60.016 335.731 63.2767 339.753 63.2767Z" fill="#94989B"/>
<path d="M277.848 55.991C277.848 58.1759 277.12 59.6325 275.664 59.6325H236.336C234.88 59.6325 234.151 58.1759 234.151 55.991C234.151 54.5345 234.88 52.3496 236.336 52.3496H275.664C277.12 52.3496 277.848 54.5345 277.848 55.991Z" fill="#94989B"/>
<path d="M146.757 81.4883H365.243V431.066H146.757V81.4883Z" fill="#3E4347"/>
<path d="M283.675 461.647C283.675 464.56 281.49 467.473 277.849 467.473H234.151C231.238 467.473 228.325 465.289 228.325 461.647V450.723C228.325 447.81 230.51 444.896 234.151 444.896H277.849C280.762 444.896 283.675 447.081 283.675 450.723V461.647Z" fill="#94989B"/>
<path d="M197.737 410.674C197.737 414.316 194.824 416.501 191.911 416.501H167.877C164.236 416.501 162.051 413.587 162.051 410.674V386.641C162.051 382.999 164.964 380.814 167.877 380.814H191.911C195.552 380.814 197.737 383.728 197.737 386.641V410.674Z" fill="#C7E755"/>
<path d="M248.717 410.674C248.717 414.316 245.804 416.501 242.891 416.501H218.858C215.216 416.501 213.031 413.587 213.031 410.674V386.641C213.031 382.999 215.944 380.814 218.858 380.814H242.891C246.532 380.814 248.717 383.728 248.717 386.641V410.674Z" fill="#FF435E"/>
<path d="M299.697 410.674C299.697 414.316 296.784 416.501 293.871 416.501H269.837C266.196 416.501 264.011 413.587 264.011 410.674V386.641C264.011 382.999 266.924 380.814 269.837 380.814H293.871C297.512 380.814 299.697 383.728 299.697 386.641V410.674Z" fill="#42ADE2"/>
<path d="M350.677 410.674C350.677 414.316 347.764 416.501 344.851 416.501H320.818C317.176 416.501 314.991 413.587 314.991 410.674V386.641C314.991 382.999 317.905 380.814 320.818 380.814H344.851C348.493 380.814 350.677 383.728 350.677 386.641V410.674Z" fill="#C28FEF"/>
</svg>
