<svg width="512" height="512" viewBox="0 0 512 512" fill="none" xmlns="http://www.w3.org/2000/svg">
<path d="M372.692 219.063V406.138C372.692 422.074 366.597 437.358 355.748 448.627C344.898 459.895 330.183 466.226 314.84 466.226H83.4297C68.0862 466.226 53.3712 459.895 42.5218 448.627C31.6723 437.358 25.5771 422.074 25.5771 406.138V85.6665C25.5771 69.7301 31.6723 54.4464 42.5218 43.1776C53.3712 31.9089 68.0862 25.5781 83.4297 25.5781H186.407C196.54 25.5699 206.575 27.6352 215.939 31.6562C225.303 35.6771 233.812 41.5749 240.981 49.0126L350.13 162.379C357.291 169.825 362.969 178.664 366.84 188.39C370.712 198.116 372.7 208.538 372.692 219.063V219.063Z" fill="#D1BDBD"/>
<path d="M372.692 211.863V386.665C372.692 402.008 366.597 416.723 355.748 427.573C344.898 438.422 330.183 444.518 314.84 444.518H83.4297C68.0862 444.518 53.3712 438.422 42.5218 427.573C31.6723 416.723 25.5771 402.008 25.5771 386.665V83.4307C25.5771 68.0872 31.6723 53.3722 42.5218 42.5228C53.3712 31.6733 68.0862 25.5781 83.4297 25.5781H186.407C196.54 25.5702 206.575 27.5587 215.939 31.43C225.303 35.3014 233.813 40.9797 240.981 48.1406L350.13 157.289C357.291 164.458 362.969 172.967 366.841 182.332C370.712 191.696 372.7 201.731 372.692 211.863Z" fill="#FFF1F1"/>
<path d="M365.75 179.851H276.271C260.928 179.851 246.213 173.755 235.363 162.906C224.514 152.057 218.418 137.342 218.418 121.998V32.5195C226.794 36.3675 234.431 41.6543 240.981 48.1397L350.129 157.288C356.615 163.838 361.902 171.475 365.75 179.851Z" fill="#D1BDBD"/>
<path d="M313.95 404.275L336.589 381.637L298.596 343.644L275.958 366.283L313.95 404.275Z" fill="#2B3B4E"/>
<path d="M201.904 403.648C276.046 403.648 336.15 343.544 336.15 269.402C336.15 195.26 276.046 135.156 201.904 135.156C127.762 135.156 67.6584 195.26 67.6584 269.402C67.6584 343.544 127.762 403.648 201.904 403.648Z" fill="#324A5E"/>
<path d="M201.904 376.863C261.253 376.863 309.364 328.752 309.364 269.403C309.364 210.055 261.253 161.943 201.904 161.943C142.556 161.943 94.4442 210.055 94.4442 269.403C94.4442 328.752 142.556 376.863 201.904 376.863Z" fill="#54C0EB"/>
<path d="M338.21 363.868L296.209 405.869C294.466 407.613 294.466 410.307 296.209 412.051L394.851 510.693C396.595 512.437 399.289 512.437 401.033 510.693L443.034 468.692C444.777 466.948 444.777 464.254 443.034 462.511L344.392 363.868C342.648 362.125 339.954 362.125 338.21 363.868Z" fill="#E6E9EE"/>
<path d="M314.61 430.388L361 476.777L409.191 428.586L362.801 382.197L314.61 430.388Z" fill="#FF7058"/>
<path d="M232.969 303.477L205.708 262.585L185.104 293.334L170.205 270.827L158.001 288.896H114.89V273.839H149.918L170.205 243.883L185.104 266.231L205.708 235.324L232.969 276.216L243.588 260.367H288.76V275.424H251.672L232.969 303.477Z" fill="white"/>
</svg>
