<svg width="512" height="512" viewBox="0 0 512 512" fill="none" xmlns="http://www.w3.org/2000/svg">
<g clip-path="url(#clip0_635_3600)">
<path d="M125.814 306.58C107.223 306.58 90.357 298.603 77.9124 285.71C77.9034 293.436 77.6223 304.59 75.5741 312.727C76.9181 313.548 77.9608 314.897 78.1643 316.575C80.8201 338.185 101.303 354.479 125.814 354.479C150.32 354.479 170.802 338.183 173.463 316.575C173.67 314.894 174.69 313.548 176.054 312.729C174.005 304.59 173.724 293.436 173.715 285.709C161.27 298.603 144.403 306.58 125.814 306.58Z" fill="#FFB980"/>
<path d="M172.675 286.69C160.335 298.982 143.907 306.579 125.814 306.579C107.223 306.579 90.357 298.602 77.9124 285.709C77.9034 293.435 77.6223 304.589 75.5741 312.726C76.9181 313.547 77.9608 314.896 78.1643 316.574C79.3381 326.126 84.0038 334.631 90.9524 341.158C122.997 336.645 159.367 305.002 172.675 286.69Z" fill="#F8AB6B"/>
<path d="M222.953 318.476C222.74 318.417 222.527 318.369 222.308 318.338L179.824 311.964C179.565 311.925 179.008 311.904 178.743 311.904C176.056 311.904 173.791 313.908 173.463 316.577C170.802 338.186 150.319 354.482 125.814 354.482C101.302 354.482 80.8201 338.188 78.1643 316.577C77.8319 313.831 75.3575 311.764 72.7491 311.907C72.4367 311.889 72.1304 311.915 71.803 311.965L29.319 318.339C29.1004 318.37 28.8878 318.417 28.6742 318.477C8.59087 324.1 -1.91829 343.861 -1.91829 360.475V381.093C-1.91829 389.871 5.89885 397.012 15.5083 397.012H236.118C245.729 397.012 253.545 389.871 253.545 381.093V360.475C253.545 343.861 243.036 324.1 222.953 318.476Z" fill="#00E68C"/>
<path d="M173.713 173.525H83.2361C68.5639 173.525 56.6251 185.464 56.6251 200.136V232.069C56.6251 273.154 87.664 306.579 125.813 306.579C163.961 306.579 195 273.154 195 232.069V194.814C195.001 183.076 185.453 173.525 173.713 173.525Z" fill="#FDC88E"/>
<path d="M163.069 114.982H93.8802C83.8698 114.982 75.4552 121.926 73.1893 131.247C54.8681 133.576 40.6584 149.261 40.6584 168.203V194.814C40.6584 208.53 46.4807 221.325 56.6251 230.419V200.136C56.6251 185.464 68.5639 173.525 83.2361 173.525H173.713C185.454 173.525 195.001 183.075 195.001 194.813V230.413C205.148 221.321 210.968 208.526 210.968 194.813V162.881C210.968 136.471 189.481 114.982 163.069 114.982Z" fill="#5C546A"/>
<path d="M386.186 306.58C367.596 306.58 350.73 298.603 338.285 285.71C338.276 293.436 337.995 304.59 335.947 312.727C337.291 313.548 338.333 314.897 338.537 316.575C341.193 338.185 361.676 354.479 386.186 354.479C410.692 354.479 431.175 338.183 433.836 316.575C434.042 314.894 435.063 313.548 436.427 312.729C434.378 304.59 434.097 293.436 434.088 285.709C421.643 298.603 404.776 306.58 386.186 306.58Z" fill="#FFB980"/>
<path d="M433.048 286.69C420.708 298.982 404.28 306.579 386.186 306.579C367.596 306.579 350.73 298.602 338.285 285.709C338.276 293.435 337.995 304.589 335.947 312.726C337.291 313.547 338.333 314.896 338.537 316.574C339.711 326.126 344.376 334.631 351.325 341.158C383.369 336.645 419.74 305.002 433.048 286.69Z" fill="#F8AB6B"/>
<path d="M483.326 318.476C483.113 318.417 482.9 318.369 482.681 318.338L440.197 311.964C439.937 311.925 439.381 311.904 439.116 311.904C436.429 311.904 434.163 313.908 433.836 316.577C431.175 338.186 410.691 354.482 386.186 354.482C361.675 354.482 341.193 338.188 338.537 316.577C338.204 313.831 335.73 311.764 333.122 311.907C332.809 311.889 332.503 311.915 332.176 311.965L289.692 318.339C289.473 318.37 289.26 318.417 289.047 318.477C268.964 324.101 258.455 343.861 258.455 360.475V381.093C258.455 389.871 266.272 397.012 275.882 397.012H496.492C506.102 397.012 513.918 389.871 513.918 381.093V360.475C513.918 343.861 503.409 324.1 483.326 318.476Z" fill="#00ABFF"/>
<path d="M434.085 173.525H343.609C328.936 173.525 316.998 185.464 316.998 200.136V232.069C316.998 273.154 348.037 306.579 386.185 306.579C424.334 306.579 455.373 273.154 455.373 232.069V194.814C455.375 183.076 445.827 173.525 434.085 173.525Z" fill="#FDC88E"/>
<path d="M423.441 114.982H354.254C344.243 114.982 335.829 121.926 333.563 131.247C315.242 133.576 301.032 149.261 301.032 168.203V194.814C301.032 208.53 306.854 221.325 316.999 230.419V200.136C316.999 185.464 328.937 173.525 343.61 173.525H434.087C445.828 173.525 455.375 183.075 455.375 194.813V230.413C465.521 221.321 471.342 208.526 471.342 194.813V162.881C471.341 136.471 449.855 114.982 423.441 114.982Z" fill="#7E5C62"/>
<path d="M256 332.607C227.847 332.607 202.304 320.526 183.457 301C183.443 312.702 183.018 329.592 179.915 341.915C181.95 343.16 183.53 345.202 183.838 347.743C187.86 380.47 218.88 405.147 256 405.147C293.112 405.147 324.132 380.467 328.162 347.743C328.474 345.199 330.019 343.16 332.086 341.919C328.983 329.595 328.557 312.703 328.542 301C309.696 320.526 284.153 332.607 256 332.607Z" fill="#FDC88E"/>
<path d="M326.968 302.487C308.28 321.103 283.402 332.607 256 332.607C227.847 332.607 202.304 320.526 183.457 301C183.443 312.702 183.018 329.592 179.915 341.915C181.95 343.16 183.53 345.202 183.838 347.743C185.616 362.209 192.682 375.09 203.205 384.974C251.734 378.14 306.814 330.22 326.968 302.487Z" fill="#FFB980"/>
<path d="M403.109 350.619C402.787 350.528 402.463 350.458 402.133 350.41L337.795 340.756C337.401 340.697 336.559 340.666 336.158 340.666C332.089 340.666 328.657 343.7 328.161 347.741C324.131 380.465 293.111 405.145 255.999 405.145C218.879 405.145 187.859 380.47 183.837 347.741C183.333 343.581 179.587 340.453 175.635 340.669C175.163 340.642 174.698 340.681 174.203 340.755L109.865 350.409C109.535 350.457 109.212 350.527 108.889 350.618C78.4766 359.135 62.5613 389.061 62.5613 414.221V445.445C62.5613 458.739 74.3993 469.554 88.9526 469.554H423.046C437.6 469.554 449.438 458.74 449.438 445.445V414.221C449.439 389.061 433.523 359.135 403.109 350.619Z" fill="#FF4F19"/>
<path d="M328.539 131.105H191.52C169.3 131.105 151.221 149.185 151.221 171.405V219.765C151.221 281.986 198.226 332.604 256 332.604C313.774 332.604 360.779 281.986 360.779 219.765V163.345C360.779 145.569 346.32 131.105 328.539 131.105Z" fill="#FFE1B2"/>
<path d="M312.42 42.4473H207.64C192.481 42.4473 179.738 52.9625 176.305 67.0795C148.56 70.6057 127.041 94.3604 127.041 123.047V163.346C127.041 184.118 135.858 203.496 151.221 217.267V171.406C151.221 149.186 169.3 131.107 191.52 131.107H328.539C346.32 131.107 360.779 145.569 360.779 163.346V217.258C376.145 203.49 384.959 184.113 384.959 163.346V114.987C384.959 74.9903 352.42 42.4473 312.42 42.4473Z" fill="#7E5449"/>
</g>
<defs>
<clipPath id="clip0_635_3600">
<rect width="512" height="512" fill="white"/>
</clipPath>
</defs>
</svg>
