<svg width="512" height="512" viewBox="0 0 512 512" fill="none" xmlns="http://www.w3.org/2000/svg">
<path d="M347.163 126.752H333.713V171.088H347.163C354.636 171.088 361.112 166.107 361.112 159.631V137.712C361.112 131.734 355.134 126.752 347.163 126.752Z" fill="#505357"/>
<path d="M150.39 137.712V159.631C150.39 165.609 156.368 171.088 164.338 171.088H177.789V126.752H164.338C156.368 126.752 150.39 131.734 150.39 137.712Z" fill="#505357"/>
<path d="M433.345 468.487H78.1564V325.515C78.1564 302.6 94.5958 282.175 119.006 274.703L221.129 243.817C244.044 236.842 267.956 236.842 289.875 243.817L391.998 274.703C416.408 282.175 432.847 302.6 432.847 325.515L433.345 468.487Z" fill="#F99653"/>
<path d="M338.695 345.443H279.414V358.396H338.695V345.443Z" fill="#FFD551"/>
<path d="M293.362 181.549H218.14V286.163H293.362V181.549Z" fill="#EDBF9A"/>
<path d="M341.186 129.74C341.186 187.527 302.827 246.31 256 246.31C209.173 246.31 170.316 187.029 170.316 129.74C170.316 72.4515 208.675 37.082 256 37.082C303.325 37.082 341.186 71.9533 341.186 129.74Z" fill="#FFD9B6"/>
<path d="M159.855 364.869H157.364C154.873 364.869 152.383 366.862 152.383 369.851V467.988H165.335V370.349C164.837 367.36 162.346 364.869 159.855 364.869Z" fill="#E08344"/>
<path d="M354.636 364.869H352.145C349.654 364.869 347.164 366.862 347.164 369.851V467.988H360.116V370.349C359.618 367.36 357.625 364.869 354.636 364.869Z" fill="#E08344"/>
<path d="M293.362 251.288L256 285.163L218.14 251.288L212.66 246.307L172.807 258.263L232.088 312.064L256 286.16L279.414 312.064L339.193 258.263L298.842 246.307L293.362 251.288Z" fill="#E08344"/>
<path d="M289.875 207.456C283.897 207.456 282.402 207.456 274.93 206.958H267.458V200.98H274.93C309.303 201.976 320.761 202.474 331.222 193.508C342.182 184.541 340.189 161.625 340.189 161.127L346.167 160.629C346.167 161.625 348.658 187.031 335.208 197.991C325.244 206.46 312.292 207.456 289.875 207.456Z" fill="#505357"/>
<path d="M281.406 214.428H260.982C257.993 214.428 255.502 211.937 255.502 208.948V201.476C255.502 198.487 257.993 195.996 260.982 195.996H281.406C284.395 195.996 286.886 198.487 286.886 201.476V208.948C287.384 211.439 284.893 214.428 281.406 214.428Z" fill="#0E0D0D"/>
<path d="M341.185 74.9416C341.185 48.539 327.735 47.5427 327.735 47.5427L306.812 45.0519C302.827 44.5537 299.838 41.5648 299.34 37.5795C296.849 24.1291 286.886 25.6236 286.886 25.6236C286.886 25.6236 217.641 25.6236 195.722 34.0924C170.316 44.0556 164.338 61.4912 164.338 75.9379C164.338 105.329 171.811 158.134 176.294 170.09C177.29 172.581 181.774 172.083 181.774 169.094V129.739C181.774 127.248 183.766 125.256 186.257 125.256H282.901C285.391 125.256 287.384 123.263 287.384 120.772V111.307C287.384 108.817 289.377 106.824 291.867 106.824C294.358 106.824 295.853 108.817 295.853 111.307V120.772C295.853 123.263 297.845 125.256 300.336 125.256H325.244C327.735 125.256 329.728 127.248 329.728 129.739V167.6C329.728 170.588 335.207 170.589 336.204 168.098C339.691 155.644 341.684 143.19 341.684 130.237C341.684 124.758 341.185 90.3846 341.185 74.9416Z" fill="#3F3F3F"/>
<path d="M119.006 302.104H392.496C401.961 302.104 409.434 310.074 408.437 319.539L398.474 473.969H113.526L103.563 319.539C102.566 310.074 109.541 302.104 119.006 302.104Z" fill="#EFEEED"/>
<path d="M273.934 435.111C273.934 427.141 268.952 420.665 261.978 418.174V432.122C261.978 435.111 259.985 438.1 256.498 438.1C253.011 438.598 249.524 435.609 249.524 432.122V418.174C242.051 420.665 237.07 428.137 237.568 436.606C238.066 443.58 243.048 449.558 249.524 452.049V470.481H261.48V452.049C268.952 450.056 273.934 443.082 273.934 435.111Z" fill="#80B2F9"/>
<path d="M308.307 449.557H320.263V422.656H308.307C306.812 417.675 305.318 412.693 302.329 408.708L310.798 400.239L291.868 380.811L283.399 389.28C278.915 386.789 274.432 384.796 269.45 383.302V371.346H242.55V383.302C237.568 384.796 233.085 386.291 228.601 389.28L220.132 380.811L201.202 399.741L209.671 408.21C207.18 412.693 205.188 417.177 203.693 422.158H191.737V449.059H203.693C204.689 453.542 206.682 457.528 208.675 461.513C208.675 462.011 209.173 462.509 209.671 463.007L201.202 471.476L215.649 485.923H224.616L228.601 481.937C231.092 483.432 234.081 484.926 236.572 485.923H275.428C278.417 484.926 280.908 483.432 283.399 481.937L287.384 485.923H296.351L311.296 471.476L302.827 463.007C303.325 462.509 303.325 462.011 303.823 461.015C305.816 457.528 307.311 453.542 308.307 449.557ZM261.978 465C259.985 465.498 257.993 465.498 256 465.498C254.007 465.498 252.015 465.498 250.022 465C247.033 464.502 244.044 463.007 241.055 461.513C232.088 456.531 226.11 446.568 226.11 435.608C226.11 419.169 239.561 405.719 256 405.719C272.439 405.719 285.89 419.169 285.89 435.608C285.89 446.568 279.912 456.033 270.945 461.513C268.454 463.007 264.967 464.502 261.978 465Z" fill="#80B2F9"/>
<path d="M461.741 473.97C461.741 477.457 460.246 480.446 458.253 482.937C456.261 485.427 452.774 486.424 449.286 486.424H62.7135C55.7392 486.424 50.2595 480.944 50.2595 473.97C50.2595 470.483 51.7539 467.494 53.7466 465.003C55.7392 462.512 59.2264 461.516 62.7135 461.516H449.286C456.261 461.516 461.741 466.995 461.741 473.97Z" fill="#448FFC"/>
</svg>
