<svg width="512" height="512" viewBox="0 0 512 512" fill="none" xmlns="http://www.w3.org/2000/svg">
<g clip-path="url(#clip0_633_3107)">
<path d="M371.483 48.9967L355.191 48.9967L276.447 177.85L290.676 317.33L435.99 317.33L450.219 177.85L371.483 48.9967Z" fill="#FCB641"/>
<path d="M279 363.328L447.667 363.328L447.667 317.328L279 317.328L279 363.328Z" fill="#EB805B"/>
<path d="M294.333 478.332L432.333 478.332L432.334 363.332L294.333 363.332L294.333 478.332Z" fill="#E66032"/>
<path d="M363.334 210.04C351.161 210.04 341.292 219.908 341.292 232.081C341.292 244.255 351.161 254.123 363.334 254.123C375.507 254.123 385.375 244.255 385.375 232.081C385.375 219.908 375.507 210.04 363.334 210.04Z" fill="white"/>
<path d="M83.5141 225.033L56.4086 252.139L83.5141 279.244L110.62 252.139L83.5141 225.033Z" fill="#FCB641"/>
<path d="M83.5001 217.392C85.5395 217.392 87.4868 218.197 88.9205 219.638L116.022 246.747C119.02 249.745 119.02 254.59 116.022 257.588L88.9205 284.697C86.0455 287.572 80.9548 287.572 78.0798 284.697L50.9781 257.588C47.9805 254.59 47.9805 249.745 50.9781 246.747L78.0798 219.638C79.5135 218.204 81.4608 217.392 83.5001 217.392ZM99.7611 252.168L83.5001 235.907L67.2391 252.168L83.5001 268.429L99.7611 252.168Z" fill="#4D4D4D"/>
<path d="M478.333 48.9987C478.333 57.4704 471.472 64.332 463 64.332C454.528 64.332 447.667 57.4704 447.667 48.9987C447.667 40.527 454.528 33.6654 463 33.6654C471.472 33.6654 478.333 40.527 478.333 48.9987Z" fill="#FEF0D9"/>
<path d="M463 25.998C475.681 25.998 486 36.3174 486 48.998C486 61.6787 475.681 71.998 463 71.998C450.32 71.998 440 61.6787 440 48.998C440 36.3174 450.32 25.998 463 25.998ZM463 56.6647C467.232 56.6647 470.667 53.2224 470.667 48.998C470.667 44.7737 467.232 41.3314 463 41.3314C458.768 41.3314 455.334 44.7737 455.334 48.998C455.334 53.2224 458.768 56.6647 463 56.6647Z" fill="#4D4D4D"/>
<path d="M192.053 56.6614C124.341 85.7411 76.7922 153.07 76.7922 231.316C76.7922 235.548 80.2192 238.982 84.4588 238.982C88.6985 238.982 92.1255 235.548 92.1255 231.316C92.1255 135.007 170.471 56.6614 266.772 56.6614L447.667 56.6614L447.667 41.3281L64.3339 41.3281L64.3339 56.6614L192.053 56.6614Z" fill="#4D4D4D"/>
<path d="M64.3335 48.9987C64.3335 57.4704 57.4718 64.332 49.0002 64.332C40.5285 64.332 33.6668 57.4704 33.6668 48.9987C33.6668 40.527 40.5285 33.6654 49.0002 33.6654C57.4718 33.6654 64.3335 40.527 64.3335 48.9987Z" fill="#FEF0D9"/>
<path d="M49.0002 26C61.6809 26 72.0002 36.3193 72.0002 49C72.0002 61.6807 61.6809 72 49.0002 72C36.3196 72 26.0002 61.6807 26.0002 49C26.0002 36.3193 36.3196 26 49.0002 26ZM49.0002 56.6667C53.2322 56.6667 56.6669 53.2243 56.6669 49C56.6669 44.7757 53.2322 41.3333 49.0002 41.3333C44.7682 41.3333 41.3336 44.7757 41.3336 49C41.3336 53.2243 44.7682 56.6667 49.0002 56.6667Z" fill="#4D4D4D"/>
<path d="M271.334 48.9987C271.334 57.4704 264.472 64.332 256.001 64.332C247.529 64.332 240.667 57.4704 240.667 48.9987C240.667 40.527 247.529 33.6654 256.001 33.6654C264.472 33.6654 271.334 40.527 271.334 48.9987Z" fill="#FEF0D9"/>
<path d="M256 26C268.681 26 279 36.3193 279 49C279 61.6807 268.681 72 256 72C243.32 72 233 61.6807 233 49C233 36.3193 243.32 26 256 26ZM256 56.6667C260.232 56.6667 263.667 53.2243 263.667 49C263.667 44.7757 260.232 41.3333 256 41.3333C251.768 41.3333 248.334 44.7757 248.334 49C248.334 53.2243 251.768 56.6667 256 56.6667Z" fill="#4D4D4D"/>
<path d="M110.334 455.332L125.667 455.332L125.667 470.665C125.667 474.897 129.094 478.332 133.334 478.332C137.573 478.332 141 474.897 141 470.665L141 455.332L156.334 455.332C160.573 455.332 164 451.897 164 447.665C164 443.433 160.573 439.999 156.334 439.999L141 439.999L141 424.665C141 420.433 137.573 416.999 133.334 416.999C129.094 416.999 125.667 420.433 125.667 424.665L125.667 439.999L110.334 439.999C106.094 439.999 102.667 443.433 102.667 447.665C102.667 451.897 106.094 455.332 110.334 455.332Z" fill="#FCB641"/>
<path d="M194.667 271.33C207.348 271.33 217.667 281.649 217.667 294.33C217.667 307.011 207.348 317.33 194.667 317.33C181.986 317.33 171.667 307.011 171.667 294.33C171.667 281.649 181.986 271.33 194.667 271.33ZM194.667 301.997C198.899 301.997 202.334 298.554 202.334 294.33C202.334 290.106 198.899 286.663 194.667 286.663C190.435 286.663 187 290.106 187 294.33C187 298.554 190.435 301.997 194.667 301.997Z" fill="#ED7765"/>
<path d="M282.189 309.667L279 309.667C274.76 309.667 271.333 313.101 271.333 317.333L271.333 363.333C271.333 367.565 274.76 371 279 371L286.666 371L286.666 478.333C286.666 482.565 290.093 486 294.333 486L432.333 486C436.573 486 440 482.565 440 478.333L440 371L447.666 371C451.906 371 455.333 367.565 455.333 363.333L455.333 317.333C455.333 313.101 451.906 309.667 447.666 309.667L444.477 309.667L457.848 178.636C458.009 176.964 457.641 175.285 456.759 173.859L378.015 44.998C376.627 42.721 374.151 41.3333 371.475 41.3333L355.183 41.3333C352.508 41.3333 350.031 42.721 348.636 45.0056L269.892 173.867C269.018 175.301 268.642 176.972 268.803 178.643L282.189 309.667ZM424.666 470.667L302 470.667L302 371L355.666 371L355.666 417L340.333 417C336.093 417 332.666 420.435 332.666 424.667C332.666 428.899 336.093 432.333 340.333 432.333L386.333 432.333C390.573 432.333 394 428.899 394 424.667C394 420.435 390.573 417 386.333 417L371 417L371 371L424.666 371L424.666 470.667ZM440 355.667L432.333 355.667L294.333 355.667L286.666 355.667L286.666 325L290.676 325L435.99 325L440 325L440 355.667ZM363.333 246.417C355.406 246.417 348.958 239.969 348.958 232.042C348.958 224.114 355.406 217.667 363.333 217.667C371.26 217.667 377.708 224.114 377.708 232.042C377.708 239.969 371.26 246.417 363.333 246.417ZM355.666 62.915L355.666 203.468C343.016 206.872 333.625 218.334 333.625 232.049C333.625 245.765 343.016 257.219 355.666 260.623L355.666 286.667C355.666 290.899 359.093 294.333 363.333 294.333C367.573 294.333 371 290.899 371 286.667L371 260.623C383.65 257.219 393.041 245.757 393.041 232.042C393.041 218.326 383.65 206.872 371 203.468L371 62.915L442.33 179.655L429.059 309.667L297.607 309.667L284.343 179.655L355.666 62.915Z" fill="#4D4D4D"/>
</g>
<path d="M125.048 123.254H122.28V131.552H125.048V123.254Z" fill="white"/>
<path d="M196.843 150.463H194.075V158.761H196.843V150.463Z" fill="white"/>
<path d="M125.048 227.256H122.28V235.554H125.048V227.256Z" fill="white"/>
<path d="M196.843 254.475H194.075V262.772H196.843V254.475Z" fill="white"/>
<defs>
<clipPath id="clip0_633_3107">
<rect width="460" height="460" fill="white" transform="translate(486 486) rotate(-180)"/>
</clipPath>
</defs>
</svg>
