<svg width="512" height="512" viewBox="0 0 512 512" fill="none" xmlns="http://www.w3.org/2000/svg">
<path d="M52.9762 65.5011H459.022C472.362 65.5011 483.277 76.4162 483.277 89.7567V339.885H28.7227V89.7557C28.7227 76.4152 39.6378 65.5 52.9783 65.5H52.9762V65.5011Z" fill="#666666"/>
<path d="M45.1894 323.415H466.804V89.7555C466.804 85.5042 463.269 81.9688 459.021 81.9688H52.9762C48.727 81.9688 45.1926 85.5042 45.1926 89.7555V323.415H45.1894Z" fill="white"/>
<path d="M483.274 339.883V366.409C483.274 379.752 471.244 390.665 456.538 390.665H55.4602C40.7542 390.665 28.7236 379.752 28.7236 366.409V339.883H483.276H483.274Z" fill="white"/>
<path d="M255.998 372.565C260.611 372.565 264.349 368.826 264.349 364.214C264.349 359.602 260.611 355.863 255.998 355.863C251.386 355.863 247.648 359.602 247.648 364.214C247.648 368.826 251.386 372.565 255.998 372.565Z" fill="#B6B6B8"/>
<path d="M308.422 428.821L346.988 441.179H165.006L196.122 428.821V390.664H308.42V428.821H308.422Z" fill="#C2C2C4"/>
<path d="M196.124 428.822H308.423L346.989 441.18V446.501H256.001H165.008V441.18L196.124 428.822Z" fill="#9AA5A8"/>
<path d="M196.124 390.664H308.423V428.821L196.124 390.664Z" fill="#919191"/>
<path d="M107.049 97.8496H63.5184V105.346H107.049V97.8496Z" fill="#20D0C2"/>
<path d="M189.298 97.8496H112.083V105.346H189.298V97.8496Z" fill="#FF5B62"/>
<path d="M258.76 97.8496H193.019V105.346H258.76V97.8496Z" fill="#FAD24D"/>
<path d="M132.342 128.688H109.246V136.184H132.342V128.688Z" fill="#FAD24D"/>
<path d="M175.979 128.688H135.01V136.184H175.979V128.688Z" fill="#FF5B62"/>
<path d="M212.828 128.686H177.952V136.182H212.828V128.686Z" fill="#20D0C2"/>
<path d="M103.819 141.855H63.2439V149.352H103.819V141.855Z" fill="#20D0C2"/>
<path d="M180.458 141.857H108.501V149.354H180.458V141.857Z" fill="#FAD24D"/>
<path d="M147.134 157.598H106.559V165.094H147.134V157.598Z" fill="#FF5B62"/>
<path d="M223.772 157.598H151.815V165.094H223.772V157.598Z" fill="#20D0C2"/>
<path d="M111.049 172.643H70.474V180.139H111.049V172.643Z" fill="#FAD24D"/>
<path d="M145.449 172.643H116.412V180.139H145.449V172.643Z" fill="#20D0C2"/>
<path d="M233.819 172.643H152.285V180.139H233.819V172.643Z" fill="#FF5B62"/>
<path d="M268.827 172.646H239.79V180.143H268.827V172.646Z" fill="#20D0C2"/>
<path d="M170.381 188.387H61.8047V195.883H170.381V188.387Z" fill="#20D0C2"/>
<path d="M204.153 188.381H175.116V195.877H204.153V188.381Z" fill="#FAD24D"/>
<path d="M248.865 188.381H208.29V195.877H248.865V188.381Z" fill="#FF5B62"/>
<path d="M114.091 112.375H111.092V121.367H114.091V112.375Z" fill="white"/>
<path d="M191.892 141.861H188.893V150.853H191.892V141.861Z" fill="white"/>
<path d="M107.049 210.562H63.5184V218.059H107.049V210.562Z" fill="#20D0C2"/>
<path d="M189.298 210.562H112.083V218.059H189.298V210.562Z" fill="#FF5B62"/>
<path d="M258.76 210.562H193.019V218.059H258.76V210.562Z" fill="#FAD24D"/>
<path d="M132.342 241.391H109.246V248.887H132.342V241.391Z" fill="#FAD24D"/>
<path d="M175.979 241.393H135.01V248.889H175.979V241.393Z" fill="#FF5B62"/>
<path d="M212.828 241.391H177.952V248.887H212.828V241.391Z" fill="#20D0C2"/>
<path d="M103.819 254.57H63.244V262.066H103.819V254.57Z" fill="#20D0C2"/>
<path d="M180.458 254.572H108.501V262.068H180.458V254.572Z" fill="#FAD24D"/>
<path d="M114.091 225.076H111.092V234.068H114.091V225.076Z" fill="white"/>
<path d="M191.892 254.572H188.893V263.564H191.892V254.572Z" fill="white"/>
<path d="M450 97.8496H292.563V134.159H450V97.8496Z" fill="#DCE3DB"/>
<path d="M292.561 139.303H367.542V187.224H292.561V139.303Z" fill="#DCE3DB"/>
<path d="M375.02 139.303H450.001V187.224H375.02V139.303Z" fill="#DCE3DB"/>
<path d="M292.777 194.094H449.787V196.414H292.777V194.094ZM292.777 216.033H395.918V218.354H292.777V216.033ZM292.777 208.719H449.787V211.039H292.777V208.719ZM292.777 201.407H449.787V203.728H292.777V201.407Z" fill="#DCE3DB"/>
<path d="M292.376 224.057H339.167V270.448H292.376V224.057ZM403.401 224.057H450.193V270.448H403.401V224.057ZM347.889 224.057H394.679V270.448H347.889V224.057Z" fill="#DCE3DB"/>
<path d="M292.777 276.906H449.787V279.227H292.777V276.906ZM292.777 298.846H395.918V301.166H292.777V298.846ZM292.777 291.532H449.787V293.853H292.777V291.532ZM292.777 284.221H449.787V286.541H292.777V284.221Z" fill="#DCE3DB"/>
</svg>
