<svg xmlns="http://www.w3.org/2000/svg" xmlns:xlink="http://www.w3.org/1999/xlink" width="80px" height="26px" viewBox="0 0 80 26"><title>CNX</title><g id="Homepage" stroke="none" stroke-width="1" fill="none" fill-rule="evenodd"><g id="1.-10P-WEB-REVAMP_HOMEPAGE_UPDATE-1" transform="translate(-680.000000, -896.000000)" fill="#434343" fill-rule="nonzero"><g id="Group-6" transform="translate(190.000000, 896.000000)"><g id="CNX" transform="translate(490.000000, 0.000000)"><path d="M24.48,25.2 C24.48,25.14 24.48,25.08 24.48,24.96 C24.48,16.8 24.48,8.7 24.48,0.54 C24.48,0.48 24.48,0.42 24.48,0.36 C24.54,0.36 24.6,0.36 24.66,0.36 C27.12,0.36 29.58,0.36 32.04,0.36 C32.16,0.36 32.28,0.42 32.34,0.48 C32.76,1.02 33.18,1.5 33.6,1.98 C33.9,2.34 34.2,2.76 34.56,3.12 C34.98,3.66 35.4,4.14 35.82,4.68 C36.06,5.1 36.3,5.4 36.6,5.76 C36.9,6.12 37.2,6.48 37.44,6.84 C37.74,7.26 38.1,7.62 38.4,8.04 C38.82,8.58 39.24,9.12 39.66,9.6 C40.08,10.14 40.56,10.68 40.98,11.22 C40.98,11.22 40.98,11.22 41.04,11.28 C41.04,11.16 41.1,11.1 41.1,10.98 C41.1,7.98 41.1,5.04 41.1,2.04 C41.1,1.56 41.1,1.02 41.1,0.54 C41.1,0.48 41.1,0.42 41.1,0.36 C43.92,0.36 46.74,0.36 49.56,0.36 C49.56,0.42 49.56,0.48 49.56,0.48 C49.56,0.84 49.5,1.14 49.5,1.5 C49.5,2.1 49.38,2.7 49.26,3.3 C49.14,3.9 49.02,4.5 48.84,5.1 C48.66,5.64 48.54,6.24 48.36,6.78 C48.18,7.32 48,7.86 47.82,8.4 C47.82,8.46 47.82,8.52 47.76,8.52 C47.7,8.58 47.64,8.58 47.58,8.58 C47.52,8.58 47.46,8.52 47.46,8.4 C47.4,8.04 47.28,7.68 47.22,7.32 C47.1,6.96 46.98,6.54 46.74,6.24 C46.68,6.18 46.62,6.12 46.62,6.06 C46.56,6 46.5,5.94 46.44,6 C46.38,6 46.38,6.12 46.38,6.18 C46.38,6.24 46.38,6.3 46.38,6.36 C46.38,6.78 46.38,7.2 46.38,7.62 C46.38,8.04 46.26,8.4 46.26,8.82 C46.2,9.48 46.02,10.08 45.84,10.68 C45.66,11.4 45.42,12.06 45.24,12.78 C45.12,13.26 45,13.8 44.88,14.28 C44.76,14.82 44.76,15.36 44.7,15.9 C44.64,16.56 44.64,17.28 44.7,17.94 C44.7,18.3 44.82,18.66 44.88,18.96 C45,19.62 45.18,20.22 45.42,20.82 C45.66,21.36 45.9,21.9 46.2,22.38 C46.5,22.86 46.8,23.28 47.1,23.7 C47.52,24.18 47.94,24.66 48.42,25.08 C48.48,25.14 48.48,25.2 48.48,25.2 C46.38,25.2 44.22,25.2 42.12,25.2 C41.82,24.84 41.52,24.48 41.22,24.06 C40.74,23.46 40.26,22.86 39.72,22.2 C39.42,21.84 39.18,21.48 38.88,21.12 C38.52,20.64 38.1,20.16 37.74,19.68 C37.56,19.44 37.38,19.2 37.2,19.02 C36.84,18.54 36.42,18.06 36.06,17.58 C35.82,17.28 35.58,16.98 35.34,16.68 C35.04,16.26 34.68,15.9 34.38,15.54 C33.96,15 33.48,14.46 33.06,13.92 C33,13.86 33,13.8 32.94,13.74 C32.94,13.74 32.94,13.74 32.88,13.74 C32.88,13.92 32.88,14.04 32.88,14.22 C32.88,17.82 32.88,21.36 32.88,24.96 C32.88,25.02 32.88,25.08 32.88,25.14 C30,25.2 27.24,25.2 24.48,25.2 Z" id="Path"></path><path d="M11.88,25.2 C11.7,25.2 11.52,25.14 11.34,25.14 C10.8,25.08 10.32,25.02 9.84,24.9 C9.36,24.78 8.88,24.66 8.46,24.54 C8.1,24.42 7.8,24.3 7.5,24.18 C7.02,23.94 6.48,23.7 6,23.46 C5.58,23.22 5.16,22.92 4.74,22.62 C4.44,22.38 4.08,22.08 3.78,21.84 C3.36,21.48 3,21.06 2.64,20.58 C2.46,20.34 2.34,20.16 2.16,19.92 C2.04,19.68 1.86,19.5 1.74,19.26 C1.26,18.48 0.9,17.64 0.66,16.8 C0.42,16.02 0.24,15.24 0.12,14.4 C-7.91033905e-16,13.62 -7.91033905e-16,12.84 0.06,12.06 C0.06,11.52 0.18,11.04 0.24,10.5 C0.3,9.96 0.48,9.42 0.66,8.88 C0.9,8.1 1.26,7.32 1.68,6.6 C1.98,6.12 2.28,5.64 2.58,5.22 C3,4.68 3.42,4.14 3.96,3.72 C4.5,3.24 5.1,2.76 5.7,2.4 C6.24,2.04 6.84,1.74 7.44,1.5 C7.98,1.26 8.52,1.08 9.06,0.96 C9.72,0.78 10.38,0.66 11.04,0.6 C11.82,0.48 12.66,0.48 13.44,0.54 C13.98,0.6 14.52,0.66 15.06,0.72 C15.6,0.78 16.14,0.96 16.74,1.14 C17.34,1.32 17.94,1.56 18.48,1.86 C19.02,2.16 19.56,2.46 20.04,2.82 C20.7,3.3 21.36,3.9 21.9,4.56 C22.2,4.86 22.44,5.22 22.68,5.52 C22.92,5.88 23.16,6.24 23.4,6.6 C23.4,6.66 23.46,6.72 23.46,6.78 C23.4,6.6 23.34,6.6 23.28,6.66 C22.68,7.02 22.08,7.38 21.42,7.74 C20.64,8.16 19.92,8.64 19.2,9.06 C18.66,9.36 18.12,9.66 17.64,9.96 C17.46,10.08 17.28,10.14 17.1,10.26 C17.04,10.32 16.98,10.32 16.92,10.32 C16.86,10.26 16.86,10.2 16.8,10.14 C16.62,9.78 16.44,9.48 16.2,9.18 C15.96,8.82 15.6,8.52 15.3,8.28 C14.88,7.98 14.46,7.74 13.98,7.62 C13.68,7.56 13.38,7.5 13.02,7.44 C12.66,7.44 12.3,7.44 11.94,7.44 C11.34,7.5 10.74,7.74 10.26,8.1 C9.54,8.58 9.06,9.24 8.7,9.96 C8.46,10.44 8.34,10.92 8.22,11.46 C8.16,12 8.1,12.48 8.1,13.02 C8.1,13.44 8.16,13.86 8.28,14.28 C8.4,14.82 8.58,15.36 8.88,15.84 C9.3,16.56 9.9,17.16 10.62,17.52 C10.98,17.7 11.4,17.82 11.76,17.88 C12.18,17.94 12.66,17.94 13.08,17.94 C13.56,17.88 14.04,17.76 14.46,17.58 C15.3,17.22 15.96,16.56 16.5,15.78 C16.62,15.54 16.8,15.3 16.92,15.12 C16.92,15.06 16.98,15.06 16.98,15 C17.1,15.06 17.16,15.06 17.22,15.12 C18,15.54 18.78,16.02 19.56,16.44 C19.98,16.68 20.46,16.92 20.88,17.22 C21.36,17.52 21.9,17.82 22.38,18.06 C22.68,18.24 23.04,18.42 23.34,18.6 C23.46,18.66 23.52,18.72 23.4,18.9 C23.22,19.2 23.04,19.5 22.8,19.8 C22.62,20.04 22.5,20.28 22.32,20.46 C22.2,20.58 22.14,20.7 22.02,20.82 C21.96,21.06 21.78,21.18 21.6,21.36 C21.3,21.66 20.94,22.02 20.64,22.32 C20.16,22.74 19.68,23.04 19.2,23.4 C18.72,23.7 18.24,23.94 17.7,24.18 C17.28,24.36 16.92,24.48 16.5,24.6 C16.08,24.72 15.66,24.84 15.3,24.9 C14.94,24.96 14.58,25.02 14.22,25.08 C13.86,25.14 13.44,25.14 13.08,25.2 C13.08,25.2 13.02,25.2 13.02,25.2 C12.6,25.2 12.24,25.2 11.88,25.2 Z" id="Path"></path><path d="M52.8,25.2 C52.8,25.14 52.86,25.08 52.86,25.08 C53.28,24.66 53.7,24.18 54.12,23.7 C54.72,22.98 55.26,22.2 55.74,21.36 C56.22,20.52 56.64,19.68 56.94,18.78 C57.18,18.06 57.36,17.34 57.54,16.62 C57.66,16.14 57.66,15.6 57.72,15.12 C57.78,14.46 57.78,13.8 57.72,13.14 C57.72,12.66 57.6,12.12 57.54,11.64 C57.48,10.86 57.3,10.14 57.06,9.42 C56.82,8.46 56.52,7.56 56.1,6.66 C55.8,5.88 55.38,5.1 54.96,4.38 C54.84,4.14 54.72,3.96 54.54,3.72 C54.6,3.6 54.54,3.54 54.42,3.6 C54.42,3.66 54.36,3.72 54.36,3.78 C54.36,4.74 54.12,5.64 53.76,6.48 C53.76,6.48 53.76,6.54 53.7,6.54 C53.64,6.6 53.58,6.66 53.52,6.66 C53.46,6.66 53.4,6.6 53.34,6.48 C53.28,6.24 53.22,6.06 53.16,5.82 C53.04,5.22 52.8,4.68 52.62,4.08 C52.26,3.24 51.84,2.4 51.3,1.62 C51,1.2 50.7,0.84 50.4,0.42 C50.4,0.42 50.34,0.36 50.34,0.3 C50.4,0.3 50.46,0.3 50.52,0.3 C51.72,0.3 52.98,0.3 54.18,0.3 C55.32,0.3 56.46,0.3 57.6,0.3 C57.78,0.3 57.84,0.36 57.96,0.48 C58.38,1.2 58.86,1.98 59.28,2.7 C59.58,3.18 59.88,3.66 60.18,4.2 C60.54,4.8 60.96,5.46 61.32,6.06 C61.32,6.12 61.38,6.18 61.44,6.24 C61.5,6.12 61.56,6.06 61.62,5.94 C62.1,5.16 62.58,4.38 63.06,3.54 C63.48,2.88 63.84,2.22 64.26,1.56 C64.44,1.2 64.68,0.9 64.86,0.54 C64.98,0.36 65.1,0.3 65.28,0.3 C68.22,0.3 71.1,0.3 74.04,0.3 C74.1,0.3 74.16,0.3 74.22,0.3 C74.22,0.3 74.22,0.3 74.22,0.36 C71.52,4.38 68.88,8.4 66.18,12.42 C66.3,12.6 66.42,12.78 66.54,13.02 C67.08,13.86 67.56,14.7 68.1,15.48 C68.46,16.08 68.88,16.68 69.24,17.28 C69.78,18.18 70.38,19.08 70.92,19.98 C71.34,20.64 71.76,21.3 72.18,21.96 C72.84,22.98 73.5,24 74.16,25.08 C74.16,25.14 74.22,25.14 74.22,25.2 C71.16,25.2 68.1,25.2 64.98,25.2 C64.8,24.9 64.68,24.66 64.5,24.36 C64.14,23.7 63.72,23.04 63.36,22.38 C63,21.78 62.7,21.24 62.34,20.7 C61.98,20.1 61.68,19.56 61.32,18.96 C61.26,18.9 61.26,18.84 61.2,18.78 C61.14,18.84 61.14,18.9 61.08,18.9 C60.78,19.38 60.48,19.92 60.18,20.4 C60.06,20.58 59.94,20.76 59.82,20.94 C59.64,21.18 59.52,21.48 59.34,21.72 C58.86,22.5 58.38,23.28 57.9,24.06 C57.66,24.42 57.42,24.84 57.18,25.2 C55.86,25.2 54.36,25.2 52.8,25.2 Z" id="Path"></path><path d="M49.32,25.2 C48.9,24.66 48.54,24.06 48.3,23.46 C48.12,23.1 48,22.68 47.88,22.32 C47.58,21.42 47.46,20.52 47.58,19.56 C47.64,18.96 47.82,18.42 48.06,17.88 C48.06,17.82 48.06,17.82 48.12,17.82 C48.18,17.82 48.18,17.76 48.24,17.76 C48.3,17.76 48.3,17.82 48.36,17.88 C48.36,18 48.36,18.12 48.36,18.18 C48.3,18.6 48.3,19.02 48.3,19.44 C48.3,19.74 48.36,19.98 48.54,20.28 C48.6,20.4 48.72,20.52 48.84,20.58 C49.02,20.7 49.26,20.7 49.38,20.52 C49.5,20.4 49.56,20.22 49.68,20.04 C49.86,19.62 49.92,19.2 49.98,18.78 C50.22,17.4 50.16,16.02 50.16,14.64 C50.16,14.46 50.16,14.28 50.16,14.1 C50.16,14.04 50.16,13.98 50.22,13.92 C50.34,13.86 50.4,13.92 50.46,13.98 C50.58,14.16 50.7,14.34 50.82,14.52 C51.36,15.36 51.72,16.26 51.96,17.22 C52.08,17.76 52.2,18.3 52.32,18.84 C52.38,19.32 52.38,19.8 52.44,20.34 C52.44,20.52 52.5,20.7 52.56,20.88 C52.62,21 52.74,21.06 52.92,21.06 C53.1,21.06 53.28,21 53.46,20.88 C53.64,20.7 53.82,20.52 54,20.34 C54.12,20.22 54.12,20.22 54.3,20.22 C54.3,20.28 54.3,20.28 54.3,20.34 C54.36,21.48 54.06,22.5 53.46,23.46 C53.1,24.12 52.68,24.72 52.14,25.2 C52.14,25.2 52.08,25.26 52.08,25.26 C51,25.2 50.16,25.2 49.32,25.2 Z" id="Path"></path><path d="M79.02,0.48 C79.02,1.14 79.02,1.74 79.02,2.4 C78.9,2.4 78.78,2.4 78.6,2.4 C78.6,1.98 78.6,1.62 78.6,1.2 C78.6,1.2 78.6,1.2 78.54,1.2 C78.36,1.44 78.18,1.68 78,1.98 C77.82,1.74 77.64,1.44 77.46,1.26 C77.46,1.68 77.46,2.04 77.46,2.46 C77.34,2.46 77.22,2.46 77.04,2.46 C77.04,1.8 77.04,1.2 77.04,0.54 C77.22,0.54 77.34,0.54 77.46,0.54 C77.64,0.78 77.82,1.08 78,1.32 C78.06,1.26 78.06,1.2 78.12,1.2 C78.24,1.02 78.3,0.9 78.42,0.72 C78.48,0.6 78.6,0.54 78.78,0.54 C78.84,0.48 78.9,0.48 79.02,0.48 Z" id="Path"></path><path d="M75.72,0.84 C75.54,0.84 75.36,0.84 75.18,0.84 C75.12,0.6 75.18,0.48 75.42,0.48 C75.84,0.48 76.2,0.48 76.62,0.48 C76.68,0.48 76.74,0.48 76.8,0.48 C76.8,0.6 76.8,0.72 76.8,0.84 C76.62,0.84 76.44,0.84 76.2,0.84 C76.2,1.38 76.2,1.92 76.2,2.4 C76.14,2.4 76.14,2.4 76.14,2.4 C75.84,2.46 75.78,2.4 75.78,2.1 C75.78,1.74 75.78,1.38 75.78,1.02 C75.72,0.96 75.72,0.9 75.72,0.84 Z" id="Path"></path></g></g></g></g></svg>