<svg xmlns="http://www.w3.org/2000/svg" width="121" height="31" viewBox="0 0 121 31"><g fill="none" fill-rule="evenodd"><g fill="#434343" fill-rule="nonzero"><g><g><path d="M0 15.7c.06-.1.13-.19.19-.29.26-.44.65-.65 1.15-.7.18-.02.37-.01.55-.01h27.65c.98 0 1.92-.17 2.84-.49.11-.04.22-.08.32-.13.06-.03.11-.08.19-.14-1.53-2.8-.9-5.37.82-7.91 2.06 1.08 3.31 2.69 3.76 4.92.39-.03.76-.03 1.12-.09.96-.14 1.9 0 2.81.25.47.13.93.36 1.35.62.48.29.48.38.26.9-.53 1.24-1.39 2.18-2.57 2.83-1.05.57-2.17.83-3.36.83-.62 0-.54 0-.75.51-.9 2.2-1.97 4.3-3.42 6.2-2.24 2.93-5.08 5.07-8.53 6.38-1.94.73-3.94 1.21-6.01 1.42-.49.05-.98.12-1.47.19h-3.6c-.49-.06-.98-.14-1.47-.19-1.51-.16-2.98-.47-4.41-.99-1.77-.64-3.23-1.67-4.37-3.18C1.38 24.4.59 21.83.2 19.11.13 18.6.07 18.1 0 17.59V15.7zM120.2 16.5c-.61.88-.89.97-1.93.64-2.27-.74-4.59.5-5.19 2.81-.13.49-.15 1.02-.16 1.53-.02 1.53 0 3.06-.01 4.6 0 .62-.28.98-.84 1.15-.72.22-1.45-.29-1.49-1.04-.01-.22-.01-.43-.01-.65v-9.39-.4c.02-.71.47-1.19 1.13-1.21.62-.02 1.11.42 1.2 1.09.01.06.03.13.05.25.25-.15.47-.28.69-.42 1.16-.69 2.41-1.03 3.77-.88.49.05.99.11 1.47.22.57.13 1.04.44 1.3.99.02.24.02.48.02.71zM23.9.1c.03.18.1.36.1.53.01.98.01 1.96 0 2.95 0 .47-.11.6-.59.6-1.1.01-2.2.01-3.3 0-.5 0-.61-.13-.61-.64 0-.95-.01-1.9.01-2.85 0-.2.12-.4.19-.6 1.4.01 2.8.01 4.2.01zM55.31 15.88v-.65-4.65c0-.2.01-.4.05-.59.15-.6.65-.94 1.27-.89.61.05 1.03.48 1.07 1.11.01.08 0 .17 0 .25 0 3.51-.02 7.03 0 10.54.02 2.96-2.09 5.25-4.41 5.97-3.94 1.22-7.67-1.34-8.26-4.99-.65-4.06 2.22-6.87 5.18-7.36 1.67-.28 3.25.01 4.67.98.11.09.23.15.43.28zm0 5.03c.1-1.73-1.34-3.96-3.97-3.98-2.19-.02-4.01 1.7-4 4.01.01 2.26 1.77 3.94 4 3.95 2.19.01 4.05-1.87 3.97-3.98zM99.12 22.1c.08.51.3.86.55 1.19 1.39 1.85 4.03 2.15 5.81.67.04-.03.07-.07.11-.1.59-.48 1.29-.45 1.73.08.43.52.36 1.26-.18 1.75-.69.62-1.48 1.08-2.37 1.34-3.8 1.11-7.36-1.27-8.12-4.72-.86-3.91 1.95-7.24 5.31-7.69 3.48-.46 6.01 1.64 6.93 4.08.25.67.39 1.38.39 2.1 0 .82-.48 1.3-1.31 1.3h-8.85zm.05-2.42h7.47c-.32-1.48-1.95-2.74-3.77-2.74-1.77 0-3.49 1.3-3.7 2.74z" transform="translate(-393 -1212) translate(82 1104) translate(311 108)"></path><path d="M87.59 19.11c.25-.15.4-.25.55-.34 2.01-1.31 4.02-2.62 6.04-3.91.2-.13.44-.23.68-.29.46-.1.97.17 1.21.61.23.41.17 1.02-.16 1.35-.13.13-.28.23-.44.33-1.38.9-2.77 1.79-4.15 2.69-.09.06-.18.14-.3.23.41.47.8.93 1.19 1.37 1.16 1.31 2.33 2.61 3.49 3.91.11.12.22.25.31.39.33.56.22 1.14-.29 1.56-.45.37-1.1.36-1.54-.09-.4-.4-.76-.84-1.14-1.26-1.26-1.42-2.52-2.84-3.79-4.25-.1-.11-.21-.2-.34-.33-.39.26-.76.51-1.14.75-.21.13-.19.33-.19.53 0 1.13.01 2.27-.01 3.4 0 .26-.04.54-.13.78-.18.49-.75.8-1.25.72-.53-.09-.97-.56-1.01-1.09-.01-.15-.01-.3-.01-.45v-15.1-.4c.04-.62.46-1.08 1.06-1.13.6-.05 1.13.31 1.28.89.05.21.06.43.06.64v7.8c.02.2.02.38.02.69zM71.7 20.94c.1 3.3-2.74 6.36-6.42 6.34-3.39-.01-6.34-2.76-6.35-6.34-.01-3.6 2.84-6.44 6.42-6.42 3.79.03 6.44 3.14 6.35 6.42zm-2.39-.02c.04-2.05-1.6-3.98-3.95-4-2.26-.02-4.03 1.75-4.01 3.99.02 2.39 1.85 3.95 3.99 3.97 2.34.03 4.05-2.03 3.97-3.96zM72.86 20.87c.05-3.08 2.3-5.74 5.34-6.24 1.81-.29 3.47.08 4.95 1.21.13.1.26.21.37.33.41.44.46 1.03.13 1.51-.32.46-.86.64-1.41.41-.23-.09-.43-.25-.63-.39-1.96-1.46-4.59-.71-5.72 1.11-1.16 1.85-.57 4.39 1.32 5.5 1.48.87 3.12.78 4.49-.25.29-.22.58-.37.96-.37.51 0 .88.23 1.06.69.18.44.18.92-.2 1.25-.45.39-.93.78-1.46 1.03-3.87 1.81-8.1-.45-8.99-4.3-.11-.49-.15-1-.21-1.49zM27.06 13.9c-.57 0-1.13.01-1.7 0-.42-.01-.54-.12-.54-.54-.01-.98-.01-1.96 0-2.94 0-.46.14-.6.6-.6 1.11-.01 2.23-.01 3.34 0 .43 0 .54.12.54.54.01 1.01.01 2.03 0 3.04 0 .42-.08.49-.5.5-.58.01-1.16 0-1.74 0zM5.9 13.9H4.25c-.49-.01-.56-.07-.56-.54-.01-1-.01-2 0-2.99 0-.46.09-.55.57-.55 1.1-.01 2.19-.01 3.29 0 .48 0 .62.13.63.63.02.96.02 1.93 0 2.89-.01.44-.14.55-.58.56-.57.01-1.14 0-1.7 0zM11.14 13.9c-.55 0-1.1.01-1.65 0-.46-.01-.58-.11-.58-.55-.01-1-.01-2 0-2.99 0-.39.12-.53.5-.54 1.18-.02 2.36-.01 3.54 0 .32 0 .45.14.45.47.01 1.03.01 2.06 0 3.09 0 .39-.12.5-.51.51-.59.02-1.17.01-1.75.01zM16.49 13.9h-1.65c-.48 0-.61-.11-.62-.57-.01-.98-.01-1.96 0-2.94.01-.43.15-.57.58-.57 1.13-.01 2.26-.01 3.39 0 .39 0 .51.13.51.51.01 1.03.01 2.06 0 3.09 0 .39-.09.47-.48.47-.57.02-1.15.01-1.73.01zM21.78 13.9c-.57 0-1.13.01-1.7 0-.46-.01-.57-.11-.58-.55-.01-1-.01-2 0-2.99 0-.38.13-.52.51-.53 1.16-.02 2.33-.01 3.49 0 .36 0 .49.13.49.49.01 1.03.01 2.06 0 3.09 0 .38-.12.49-.52.5-.56 0-1.13-.01-1.69-.01zM11.14 9.01c-.57 0-1.13.01-1.7 0-.43-.01-.53-.09-.53-.53-.01-.98-.01-1.96 0-2.95 0-.44.1-.53.53-.54 1.15-.01 2.3-.01 3.45 0 .44 0 .51.08.52.53.01.98.01 1.96 0 2.95 0 .47-.07.53-.57.54h-1.7zM21.74 9.01c-.57 0-1.13.01-1.7 0-.44-.01-.53-.09-.54-.53-.01-.98-.01-1.96 0-2.95 0-.46.1-.54.58-.54 1.12-.01 2.23-.01 3.35 0 .51 0 .57.06.57.58v2.85c0 .54-.06.59-.61.59h-1.65zM16.45 9.01c-.55 0-1.1.01-1.65 0-.43-.01-.56-.1-.57-.51-.02-1-.02-2 0-3 .01-.39.14-.5.52-.51 1.17-.01 2.33-.01 3.5 0 .38 0 .46.08.46.48.01 1.02.01 2.03 0 3.05 0 .41-.08.48-.52.48-.58.02-1.16.01-1.74.01zM115.79 27.19c-.47-.01-.8-.36-.8-.83 0-.48.34-.81.82-.81.47 0 .86.4.84.86-.01.43-.41.79-.86.78zm.41-.39c.27-.33.28-.68.02-.91-.24-.22-.58-.22-.82-.01-.25.23-.27.66-.06.91.24.27.53.27.86.01z" transform="translate(-393 -1212) translate(82 1104) translate(311 108)"></path><path d="M116.2 26.8c-.13-.08-.27-.16-.47-.28-.03.07-.06.18-.1.28-.04-.02-.09-.05-.13-.07v-.48c0-.21.11-.31.31-.3.19.01.36.06.34.32-.01.18.03.36.05.53z" transform="translate(-393 -1212) translate(82 1104) translate(311 108)"></path></g></g></g></g></svg>