<svg xmlns="http://www.w3.org/2000/svg" id="JohnsonandJohnsonLogo" width="126.72" height="22.981" viewBox="0 0 126.72 22.981"><defs><style>            .cls-1{fill:#494949}        </style></defs><path id="Fill-1" d="M2.412 22.982c-.961 0-1.448-.882-1.448-2.621a12.764 12.764 0 0 1 2.183-6.343C1.015 11.931 0 10.409 0 7.4a7.735 7.735 0 0 1 2.278-5.362A6.148 6.148 0 0 1 5.954 0c.239 0 .346.086.346.28a4.612 4.612 0 0 1-.076.62l-.038.191a19.393 19.393 0 0 0-.44 3.9A41.943 41.943 0 0 0 6.1 9.668v.013l.077.686c2.4-2.4 4.293-3.474 5.1-3.474.113 0 .3.017.3.134 0 .152-.178.37-.371.583a3.924 3.924 0 0 0-.847 2.595c0 1.324.7 2.665 2.046 2.665a2.042 2.042 0 0 0 1.9-2.251 3.954 3.954 0 0 0-.045-.736h-.3c-1.084 0-2.25-.539-2.25-1.722a1.16 1.16 0 0 1 1.219-1.2h.029a2.5 2.5 0 0 1 2.059 1.934 6.281 6.281 0 0 0 2.279-.851v-2.39a8.609 8.609 0 0 1 .806-3.814C18.639.8 19.349.231 20.11.231c.875 0 1.4.721 1.4 1.93a8.575 8.575 0 0 1-2.343 5.746v3.078c0 .4 0 .6.044.6.079 0 .272-.358.516-.812l.132-.244c.442-.843 1.01-1.77 1.4-2.394l.022-.035c.3-.48.757-1.206 1.565-1.206.664 0 1.03.539 1.03 1.516v3.864c0 .108.023.158.072.158a.386.386 0 0 0 .139-.139c.312-.43 1.935-2.964 2.869-4.549a1.513 1.513 0 0 1 1.38-.851c.669 0 1.037.539 1.037 1.516v2.941c0 .133.018.233.041.233s.1-.05.163-.185c.119-.227 1.194-2.254 2.116-3.655a1.539 1.539 0 0 1 1.355-.851c.663 0 1.029.539 1.029 1.516v4.022c0 .138.026.164.076.164.022 0 .088-.073.134-.139a28.874 28.874 0 0 0 3.1-5.267c.115-.324.187-.477.347-.477s.228.21.3.433l.039.112c.127.311.321.675.526 1.061s.44.826.647 1.288a15.042 15.042 0 0 1 2.76-1.98 5.887 5.887 0 0 1 2.5-.734c.111 0 .3.017.3.134 0 .187-.125.32-.3.5l-.073.078a4 4 0 0 0-.845 2.595c0 1.324.7 2.665 2.046 2.665a2.043 2.043 0 0 0 1.905-2.251v-.184a2.966 2.966 0 0 0-.029-.622 1.473 1.473 0 0 1-.364.026 2.825 2.825 0 0 1-1.128-.164 1.585 1.585 0 0 1-1.08-1.514 1.161 1.161 0 0 1 1.22-1.2h.042a2.416 2.416 0 0 1 1.992 1.748 6.48 6.48 0 0 0 1.123-.69c.169-.118.328-.248.48-.372a2.475 2.475 0 0 1 1.634-.753c.769 0 1.128.482 1.128 1.516v2.941c0 .163.02.233.068.233s.1-.119.15-.214l.009-.019c.081-.152.174-.332.277-.532A31.99 31.99 0 0 1 54.8 7.744a1.567 1.567 0 0 1 1.355-.851c.7 0 1.1.553 1.1 1.516v4.022c0 .141.071.251.161.251a.634.634 0 0 0 .466-.274l.064-.069c.17-.187.306-.342.416-.466.337-.383.439-.5.6-.5a.34.34 0 0 1 .365.325.534.534 0 0 1-.063.227l-.169.287v.006c-.814 1.382-1.349 2.282-2.341 2.282-.947 0-1.469-.6-1.469-1.677V9.238c0-.307-.051-.367-.139-.367-.066 0-.16.141-.275.325-.489.816-1.584 2.92-2.342 4.5a1.246 1.246 0 0 1-1.1.806c-.556 0-.8-.333-.8-1.08V8.915c0-.309-.1-.46-.3-.46a1.229 1.229 0 0 0-.644.323 5.631 5.631 0 0 1-1.218.786l.011.07a4.761 4.761 0 0 1 .057.957c0 2.3-1.446 3.912-3.517 3.912-2.226 0-3.24-1.956-3.24-3.773a3.959 3.959 0 0 1 .712-2.34 7.74 7.74 0 0 0-2.9 2.024 4.815 4.815 0 0 1 .363 1.676 2.246 2.246 0 0 1-2.014 2.41 1.264 1.264 0 0 1-1.219-1.36 3.806 3.806 0 0 1 1.105-2.227 9.879 9.879 0 0 0-.692-1.288c-.715 1.213-1.811 2.946-2.525 3.886-.409.521-.828.988-1.47.988-.387 0-1.037-.173-1.037-1.335V9.263c0-.286-.017-.413-.117-.413-.058 0-.155.113-.3.346-.469.8-1.6 2.9-2.372 4.5a1.221 1.221 0 0 1-1.075.806c-.566 0-.807-.323-.807-1.08V9.306c0-.291-.046-.345-.136-.345s-.2.1-.3.276c-.476.831-1.747 2.867-2.964 4.6a1.262 1.262 0 0 1-1.059.667c-.309 0-1.029-.13-1.029-1.335V9.238c0-.268-.047-.388-.093-.388-.155 0-.339.332-.644.882l-.187.334c-.31.556-1.352 2.43-1.724 3.222-.377.824-.652 1.216-1.194 1.216a.765.765 0 0 1-.8-.829V9.057a6.065 6.065 0 0 1-2.047.71l.009.111c.018.236.036.459.036.713a3.607 3.607 0 0 1-3.511 3.909c-2.226 0-3.24-1.956-3.24-3.773a5.466 5.466 0 0 1 .229-1.468A15.206 15.206 0 0 0 6.3 11.493c.088 1.03.132 2.1.132 3.17a14.59 14.59 0 0 1-1.148 5.487c-.8 1.826-1.82 2.832-2.872 2.832zM4.64 13.4a10.738 10.738 0 0 0-2.57 6.777c.018.785.4 1.334.919 1.334H3c.732 0 1.2-.846 1.462-1.555a9.621 9.621 0 0 0 .521-3.2A24.207 24.207 0 0 0 4.64 13.4zm33.55-1.566a2.714 2.714 0 0 0-.549 1.244c0 .327.19.529.365.529.258 0 .392-.37.392-.736a3.046 3.046 0 0 0-.208-1.038zM5.377.787c-.641 0-1.544.741-2.247 1.843A8.963 8.963 0 0 0 1.795 7.4 8.315 8.315 0 0 0 3.7 13.195l.736-.992c-.044-.283-.09-.566-.135-.846a24.913 24.913 0 0 1-.421-3.614 14.49 14.49 0 0 1 .853-4.938c.209-.582.392-1.03.527-1.356a2.91 2.91 0 0 0 .209-.575c0-.068-.02-.087-.092-.087zM46.3 8a.3.3 0 0 0-.32.32c0 .387.425.668 1.011.668a1.482 1.482 0 0 0 .162-.014 1.471 1.471 0 0 1 .161-.014C47.06 8.331 46.612 8 46.3 8zM13.079 8a.3.3 0 0 0-.322.32c0 .437.415.64 1.306.64-.249-.629-.684-.96-.984-.96zm6.96-6.941c-.3 0-.874.826-.874 3.952V6.69a7.808 7.808 0 0 0 1.286-4.09c0-1.267-.036-1.54-.412-1.54z" class="cls-1" transform="translate(0 0)"></path><path id="Fill-4" d="M9.7 22.982c-.963 0-1.451-.882-1.451-2.621a12.681 12.681 0 0 1 2.183-6.343 13.378 13.378 0 0 1-1.515-1.654 5.718 5.718 0 0 0-1.033-.112 8.868 8.868 0 0 0-2.072.344c-.047 1.194-.3 1.908-.665 1.908-.22 0-.322-.22-.322-.691 0-.127-.01-.265-.021-.412-.013-.176-.026-.357-.026-.555a5.511 5.511 0 0 1-1.19.163C1.375 13.008 0 12.321 0 11.216c0-.464.234-1.243 1.8-1.243A3.729 3.729 0 0 1 4.64 11.1a3.341 3.341 0 0 0-.682-1.67l-.076-.1a.335.335 0 0 1-.069-.2c0-.093.295-.239.554-.368a1.454 1.454 0 0 1 .668-.228.258.258 0 0 1 .181.068 5.283 5.283 0 0 1 .648 2.8v.462l.185-.041a7.5 7.5 0 0 1 1.669-.235 3.464 3.464 0 0 1 .647.045A7.661 7.661 0 0 1 7.285 7.4a7.735 7.735 0 0 1 2.278-5.362A6.146 6.146 0 0 1 13.237 0c.237 0 .342.086.342.28a4.527 4.527 0 0 1-.071.62l-.041.2a19.251 19.251 0 0 0-.442 3.886 41.765 41.765 0 0 0 .353 4.651l.082.729c2.4-2.4 4.295-3.474 5.1-3.474.09 0 .3.013.3.134 0 .14-.148.335-.369.583a4 4 0 0 0-.845 2.595c0 1.324.7 2.665 2.042 2.665a2.043 2.043 0 0 0 1.912-2.25 4.2 4.2 0 0 0-.042-.736h-.3c-1.12 0-2.25-.532-2.25-1.722a1.161 1.161 0 0 1 1.22-1.2h.029a2.5 2.5 0 0 1 2.055 1.934 6.278 6.278 0 0 0 2.278-.851v-2.39a8.61 8.61 0 0 1 .806-3.814C25.919.8 26.627.231 27.385.231c.879 0 1.4.721 1.4 1.93a8.555 8.555 0 0 1-2.343 5.746v3.078c0 .4 0 .6.047.6.08 0 .28-.375.533-.851v-.007l.105-.2c.424-.8.946-1.66 1.4-2.394l.022-.034c.3-.481.755-1.207 1.564-1.207.667 0 1.035.539 1.035 1.516v3.864c0 .105.023.158.068.158a.319.319 0 0 0 .139-.139c.3-.406 1.914-2.927 2.875-4.549a1.5 1.5 0 0 1 1.379-.851c.666 0 1.032.539 1.032 1.516v2.941c0 .133.021.233.05.233s.09-.045.157-.185c.284-.537 1.277-2.387 2.113-3.655a1.549 1.549 0 0 1 1.354-.851c.669 0 1.037.539 1.037 1.516v4.022c0 .138.024.164.068.164.025 0 .093-.073.139-.139a29.028 29.028 0 0 0 3.1-5.267c.119-.332.187-.477.342-.477s.229.2.3.417l.045.128c.128.31.321.674.526 1.059s.44.828.648 1.29a14.949 14.949 0 0 1 2.756-1.98 6.053 6.053 0 0 1 2.5-.734c.09 0 .3.013.3.134 0 .182-.121.312-.288.492l-.084.091a4 4 0 0 0-.845 2.595c0 1.324.7 2.665 2.041 2.665a2.044 2.044 0 0 0 1.91-2.251v-.2a3.129 3.129 0 0 0-.025-.608 1.568 1.568 0 0 1-.365.026 2.857 2.857 0 0 1-1.12-.158 1.584 1.584 0 0 1-1.07-1.514 1.147 1.147 0 0 1 1.218-1.2h.031a2.4 2.4 0 0 1 1.986 1.748 6.636 6.636 0 0 0 1.13-.69c.169-.118.327-.247.479-.372a2.472 2.472 0 0 1 1.634-.754c.768 0 1.126.482 1.126 1.516v2.941c0 .166.019.233.067.233s.107-.119.156-.214l.01-.019c.078-.148.168-.323.268-.516a32.153 32.153 0 0 1 1.751-3.091 1.571 1.571 0 0 1 1.353-.851c.7 0 1.108.553 1.108 1.516v4.022c0 .143.069.251.16.251a.646.646 0 0 0 .472-.282l.055-.06c.168-.184.3-.337.411-.46.342-.388.445-.5.6-.5a.342.342 0 0 1 .366.325.536.536 0 0 1-.065.227l-.159.27c-.813 1.386-1.35 2.3-2.347 2.3-.947 0-1.469-.6-1.469-1.677V9.238c0-.309-.049-.367-.139-.367-.069 0-.163.141-.278.325-.458.764-1.555 2.852-2.339 4.5a1.251 1.251 0 0 1-1.1.806c-.561 0-.8-.323-.8-1.08V8.915c0-.305-.1-.46-.305-.46a1.228 1.228 0 0 0-.638.323 5.849 5.849 0 0 1-1.219.786l.008.05a4.886 4.886 0 0 1 .057.977c0 2.3-1.444 3.912-3.513 3.912-2.227 0-3.241-1.956-3.241-3.773a3.994 3.994 0 0 1 .712-2.341 8.268 8.268 0 0 0-2.9 2.024 4.786 4.786 0 0 1 .367 1.676A2.246 2.246 0 0 1 45.22 14.5 1.263 1.263 0 0 1 44 13.144a3.758 3.758 0 0 1 1.1-2.227 10.192 10.192 0 0 0-.691-1.288c-.712 1.209-1.809 2.941-2.53 3.886-.406.521-.824.988-1.472.988-.384 0-1.028-.173-1.028-1.335V9.263c0-.313-.028-.413-.115-.413s-.2.178-.3.346c-.479.821-1.6 2.9-2.364 4.5a1.235 1.235 0 0 1-1.083.806c-.561 0-.8-.323-.8-1.08V9.306c0-.29-.049-.345-.139-.345s-.2.106-.3.276c-.478.831-1.75 2.868-2.961 4.6a1.288 1.288 0 0 1-1.062.667c-.386 0-1.033-.173-1.033-1.335V9.238c0-.286-.046-.388-.085-.388-.16 0-.346.337-.653.9l-.177.32c-.4.721-1.381 2.478-1.725 3.222-.379.824-.655 1.216-1.2 1.216a.764.764 0 0 1-.8-.829V9.057a6.016 6.016 0 0 1-2.047.71c.025.278.046.533.046.824a4.152 4.152 0 0 1-1.004 2.809 3.34 3.34 0 0 1-2.506 1.1c-2.228 0-3.243-1.956-3.243-3.773a5.409 5.409 0 0 1 .234-1.468 15.07 15.07 0 0 0-2.483 2.23c.091 1.034.137 2.1.137 3.17a14.6 14.6 0 0 1-1.148 5.487c-.8 1.83-1.819 2.836-2.868 2.836zm2.225-9.582a10.724 10.724 0 0 0-2.574 6.777c.021.785.4 1.334.918 1.334h.016c.734 0 1.2-.846 1.464-1.555a9.607 9.607 0 0 0 .521-3.2 25.1 25.1 0 0 0-.345-3.356zm33.549-1.566a2.692 2.692 0 0 0-.556 1.244c0 .327.192.529.371.529.256 0 .391-.37.391-.736a3.047 3.047 0 0 0-.206-1.038zM12.661.787c-.641 0-1.545.741-2.25 1.843A8.951 8.951 0 0 0 9.074 7.4a8.331 8.331 0 0 0 1.91 5.793l.737-.992-.149-.94a24.325 24.325 0 0 1-.408-3.52 14.573 14.573 0 0 1 .85-4.938c.206-.568.387-1.009.519-1.332a3.079 3.079 0 0 0 .217-.6c-.001-.064-.022-.084-.089-.084zM2.416 10.824c-.428 0-.618.157-.618.508 0 .491.656.848 1.561.848a7.555 7.555 0 0 0 1.032-.046c-.748-.934-1.32-1.31-1.975-1.31zM53.583 8a.3.3 0 0 0-.32.32c0 .387.423.668 1.005.668a1.506 1.506 0 0 0 .167-.014 1.42 1.42 0 0 1 .157-.014A1.355 1.355 0 0 0 53.583 8zM20.355 8a.3.3 0 0 0-.321.32c0 .437.416.64 1.309.64-.243-.629-.681-.96-.988-.96zm6.964-6.94c-.3 0-.873.826-.873 3.952V6.69a7.815 7.815 0 0 0 1.286-4.09c0-1.338-.054-1.54-.413-1.54z" class="cls-1" transform="translate(60.11 0)"></path></svg>