<svg xmlns="http://www.w3.org/2000/svg" width="109.254" height="26.511" viewBox="0 0 109.254 26.511"><defs><style>            .cls-1{fill:#434343}        </style></defs><g id="PayPal-White" transform="translate(0.001)"><g id="Group" transform="translate(31.86 5.67)"><path id="Shape" d="M3.585 16.686H.5a.5.5 0 0 1-.5-.576L2.437.705A.838.838 0 0 1 3.261 0h6.008c2.012 0 3.523.531 4.374 1.535a4.61 4.61 0 0 1 .768 3.873 6.72 6.72 0 0 1-2.157 4.279 7.1 7.1 0 0 1-4.681 1.434h-1.9a.835.835 0 0 0-.819.705l-.691 4.365a.585.585 0 0 1-.578.495zm3.03-13.354a.5.5 0 0 0-.5.424l-.629 4.025h.905c1.593 0 3.239 0 3.568-2.158a2.009 2.009 0 0 0-.291-1.672c-.533-.619-1.557-.619-2.64-.619z" class="cls-1" transform="translate(43.013 0.259)"></path><path id="Shape-2" d="M3.368 16.686H.5a.5.5 0 0 1-.5-.576L2.435.705A.838.838 0 0 1 3.259 0h6.008c2.017 0 3.528.531 4.374 1.535a4.624 4.624 0 0 1 .768 3.873 6.72 6.72 0 0 1-2.157 4.279 7.1 7.1 0 0 1-4.682 1.434h-1.9a.836.836 0 0 0-.824.705l-.654 4.154a.836.836 0 0 1-.824.706zM6.613 3.332a.5.5 0 0 0-.491.424l-.639 4.025h.91c1.593 0 3.24 0 3.569-2.158a1.991 1.991 0 0 0-.3-1.672c-.528-.619-1.554-.619-2.64-.619z" class="cls-1" transform="translate(0.164 0.259)"></path><path id="Shape-3" d="M4.779 11.67A4.5 4.5 0 0 1 1.16 10.2 5.44 5.44 0 0 1 .084 5.785 6.623 6.623 0 0 1 6.508 0C8.16 0 9.365.428 9.9 1.209l.2.295.129-.8a.5.5 0 0 1 .5-.424H13.6a.5.5 0 0 1 .376.172.508.508 0 0 1 .119.4L12.542 10.7a.84.84 0 0 1-.824.705H9.127a.5.5 0 0 1-.381-.18.493.493 0 0 1-.109-.4l.129-.8a5.58 5.58 0 0 1-3.987 1.645zm2.41-8.619a3.216 3.216 0 0 0-3.224 2.767 2.435 2.435 0 0 0 .448 2.018 2.42 2.42 0 0 0 1.934.777 3.2 3.2 0 0 0 3.247-2.742A2.5 2.5 0 0 0 9.1 3.832a2.429 2.429 0 0 0-1.911-.781z" class="cls-1" transform="translate(13.786 5.543)"></path><path id="Shape-4" d="M4.782 11.67a4.506 4.506 0 0 1-3.624-1.47A5.418 5.418 0 0 1 .087 5.785 6.611 6.611 0 0 1 6.506 0c1.652 0 2.857.43 3.4 1.211l.2.295.129-.8a.5.5 0 0 1 .49-.424H13.6a.5.5 0 0 1 .383.176.5.5 0 0 1 .113.4L12.539 10.7a.835.835 0 0 1-.819.705H9.13a.5.5 0 0 1-.38-.176.5.5 0 0 1-.116-.406l.129-.8a5.565 5.565 0 0 1-3.981 1.647zm2.4-8.619a3.221 3.221 0 0 0-3.219 2.767 2.436 2.436 0 0 0 .452 2.018 2.415 2.415 0 0 0 1.929.777 3.2 3.2 0 0 0 3.248-2.742 2.479 2.479 0 0 0-.486-2.039 2.433 2.433 0 0 0-1.919-.781z" class="cls-1" transform="translate(56.633 5.543)"></path><path id="Path" d="M13.406 0h-2.892a.839.839 0 0 0-.691.367L5.835 6.242 4.145.6a.836.836 0 0 0-.8-.6H.5a.5.5 0 0 0-.473.661l3.183 9.345-2.994 4.226a.5.5 0 0 0 .408.791h2.889a.839.839 0 0 0 .686-.359L13.813.786A.5.5 0 0 0 13.406 0z" class="cls-1" transform="translate(29.303 5.816)"></path><path id="Path-2" d="M2.471.421L.006 16.108a.5.5 0 0 0 .494.578h2.479a.833.833 0 0 0 .823-.7L6.233.578A.5.5 0 0 0 5.738 0H2.963a.5.5 0 0 0-.492.421z" class="cls-1" transform="translate(71.155 0.259)"></path></g><g id="Group-2"><path id="Path-3" fill="#9e9e9e" d="M20.245 6.734A5.264 5.264 0 0 0 19.127 2C17.9.6 15.682 0 12.845 0H4.6a1.176 1.176 0 0 0-1.16 1L.009 22.75a.708.708 0 0 0 .7.818h5.086L5.444 25.8a.62.62 0 0 0 .61.715h4.288a1.03 1.03 0 0 0 1.018-.869l.043-.219.807-5.127.051-.284a1.028 1.028 0 0 1 1.018-.869h.643c4.153 0 7.406-1.687 8.356-6.566.4-2.038.192-3.742-.859-4.938a4.085 4.085 0 0 0-1.174-.91" opacity="0.5" transform="translate(-0.001)"></path><path id="Path-4" fill="#434343" d="M20.245 6.734A5.264 5.264 0 0 0 19.127 2C17.9.6 15.682 0 12.845 0H4.6a1.176 1.176 0 0 0-1.16 1L.009 22.75a.708.708 0 0 0 .7.818h5.086l1.277-8.1-.041.254a1.176 1.176 0 0 1 1.161-1h2.417c4.747 0 8.464-1.928 9.553-7.506.032-.165.059-.324.084-.483" opacity="0.5" transform="translate(-0.001)"></path><path id="Path-5" d="M8.444 6.764a1.026 1.026 0 0 1 1.018-.869h6.458a13.763 13.763 0 0 1 2.13.154c.186.03.367.065.543.1s.348.084.513.132c.084.024.165.049.243.076a5.7 5.7 0 0 1 .894.378A5.264 5.264 0 0 0 19.125 2C17.9.6 15.682 0 12.845 0H4.6a1.176 1.176 0 0 0-1.16 1L.009 22.75a.708.708 0 0 0 .7.818h5.086l1.277-8.1z" class="cls-1" transform="translate(-0.001)"></path></g></g></svg>