<svg xmlns="http://www.w3.org/2000/svg" width="67" height="24" viewBox="0 0 67 24"><g fill="none" fill-rule="evenodd"><g fill="#434343" fill-rule="nonzero"><g><g><path d="M3.84 16.546c.282.749.672 1.389 1.171 1.92.499.532 1.09.938 1.773 1.22.684.282 1.427.423 2.23.423.78 0 1.512-.146 2.196-.439.683-.293 1.28-.705 1.79-1.236.51-.532.905-1.166 1.187-1.904.282-.738.423-1.562.423-2.473V0h3.417v22.777h-3.384v-2.115c-.76.803-1.654 1.421-2.685 1.855-1.03.434-2.142.65-3.335.65-1.215 0-2.348-.21-3.4-.634-1.053-.423-1.964-1.025-2.734-1.805-.77-.781-1.377-1.72-1.822-2.815C.222 16.817 0 15.597 0 14.253V0h3.417v14.057c0 .911.14 1.74.423 2.49zM23.916 0v8.297c.76-.759 1.638-1.36 2.636-1.805.998-.445 2.082-.667 3.254-.667 1.215 0 2.353.227 3.416.683 1.063.455 1.985 1.074 2.766 1.855.781.78 1.4 1.702 1.855 2.765.455 1.063.683 2.191.683 3.385 0 1.193-.228 2.315-.683 3.367-.456 1.052-1.074 1.969-1.855 2.75-.78.78-1.703 1.399-2.766 1.855-1.063.455-2.202.683-3.416.683-1.172 0-2.262-.222-3.27-.667-1.01-.445-1.893-1.047-2.652-1.806v2.082H20.63V0h3.286zm.374 16.758c.293.694.7 1.301 1.22 1.822.521.52 1.129.933 1.823 1.236.694.304 1.442.456 2.245.456.78 0 1.518-.152 2.213-.456.694-.303 1.296-.715 1.806-1.236.51-.52.916-1.128 1.22-1.822.303-.694.455-1.443.455-2.245 0-.803-.152-1.557-.455-2.262-.304-.705-.71-1.318-1.22-1.838-.51-.521-1.112-.928-1.806-1.22-.695-.293-1.432-.44-2.213-.44-.781 0-1.519.146-2.213.44-.694.292-1.301.699-1.822 1.22-.52.52-.933 1.133-1.236 1.838-.304.705-.456 1.459-.456 2.262 0 .802.146 1.55.44 2.245zM40.38 11.161c.434-1.041 1.031-1.958 1.79-2.75.76-.791 1.66-1.415 2.701-1.87 1.041-.456 2.17-.684 3.384-.684 1.193 0 2.3.217 3.32.65 1.019.435 1.897 1.037 2.635 1.807.737.77 1.312 1.681 1.724 2.733.413 1.052.619 2.197.619 3.433v1.074H43.049c.108.672.325 1.296.65 1.87.326.576.733 1.075 1.22 1.498.489.423 1.042.754 1.66.992.619.239 1.275.358 1.969.358 1.974 0 3.569-.813 4.783-2.44l2.376 1.757c-.825 1.106-1.844 1.974-3.059 2.603-1.215.629-2.581.943-4.1.943-1.236 0-2.392-.217-3.465-.65-1.074-.434-2.007-1.042-2.799-1.823-.791-.78-1.415-1.697-1.87-2.75-.456-1.051-.684-2.196-.684-3.432 0-1.171.217-2.278.65-3.319zm4.572-1.285c-.922.77-1.534 1.795-1.838 3.075h10.12c-.282-1.28-.884-2.305-1.806-3.075S49.427 8.72 48.19 8.72c-1.236 0-2.316.385-3.238 1.155zM62.702 10.25c-.694.76-1.04 1.79-1.04 3.091v9.437h-3.287V6.182h3.253v2.05c.413-.672.95-1.204 1.611-1.594.662-.39 1.448-.586 2.36-.586h1.138v3.059h-1.366c-1.085 0-1.974.38-2.669 1.139z" transform="translate(-189 -1216) translate(82 1104) translate(107 112)"></path></g></g></g></g></svg>