<svg width="565" height="765" viewBox="0 0 565 765" fill="none" xmlns="http://www.w3.org/2000/svg">
<mask id="mask0_101_296" style="mask-type:luminance" maskUnits="userSpaceOnUse" x="0" y="0" width="565" height="649">
<path d="M565 0H0V649H565V0Z" fill="#3498db"/>
</mask>
<g mask="url(#mask0_101_296)">
<path d="M307.545 423.91H232.545V392.15C232.546 386.736 234.033 381.427 236.845 376.8C239.666 372.169 243.022 367.886 246.845 364.04C250.685 360.12 254.845 356.22 259.105 352.47C263.177 348.91 267.065 345.145 270.755 341.19C274.085 337.668 276.983 333.76 279.385 329.55C281.437 325.887 282.492 321.749 282.445 317.55C282.451 314.653 281.967 311.776 281.015 309.04C280.159 306.503 278.798 304.167 277.015 302.17C275.184 300.17 272.975 298.552 270.515 297.41C267.797 296.178 264.838 295.57 261.855 295.63C257.465 295.63 253.965 296.36 251.455 297.8C249.025 299.129 246.982 301.065 245.525 303.42C243.984 306.05 242.965 308.953 242.525 311.97C241.94 315.607 241.649 319.286 241.655 322.97V328.08C241.659 329.569 241.766 331.056 241.975 332.53L242.745 337.82H162.355L161.935 333.65C161.675 331.19 161.435 328.82 161.185 326.54C160.912 323.999 160.778 321.445 160.785 318.89C160.616 306.518 163.505 294.297 169.195 283.31C174.817 272.715 182.728 263.505 192.355 256.35C202.797 248.682 214.549 242.982 227.035 239.53C239.579 235.992 252.524 234.076 265.555 233.83V-109H274.915V243.05H270.235C256.526 242.93 242.869 244.741 229.665 248.43C218.272 251.576 207.545 256.764 198.005 263.74C189.491 270.058 182.486 278.187 177.495 287.54C172.511 297.2 169.989 307.941 170.155 318.81C170.151 321.031 170.268 323.251 170.505 325.46C170.615 326.46 170.715 327.46 170.825 328.46H232.205C232.205 328.3 232.205 328.15 232.205 327.99V322.88C232.204 318.717 232.538 314.56 233.205 310.45C233.843 306.25 235.293 302.215 237.475 298.57C239.755 294.875 242.943 291.825 246.735 289.71C250.685 287.45 255.735 286.31 261.815 286.31C266.198 286.243 270.541 287.159 274.525 288.99C278.091 290.661 281.292 293.019 283.945 295.93C286.564 298.835 288.573 302.235 289.855 305.93C291.146 309.644 291.801 313.548 291.795 317.48C291.839 323.271 290.378 328.974 287.555 334.03C284.788 338.884 281.455 343.392 277.625 347.46C273.72 351.646 269.601 355.628 265.285 359.39C261.175 362.99 257.225 366.71 253.565 370.47C250.27 373.784 247.38 377.476 244.955 381.47C242.985 384.669 241.946 388.353 241.955 392.11V414.67H298.185V403.11C298.185 398.51 300.285 394.11 304.425 389.99C308.4 386.145 312.659 382.605 317.165 379.4C322.018 375.893 327.245 372.04 332.845 367.84C338.303 363.739 343.353 359.121 347.925 354.05C352.525 348.952 356.38 343.229 359.375 337.05C362.414 330.474 363.922 323.293 363.785 316.05C363.922 305.67 361.646 295.4 357.135 286.05C352.687 277.086 346.266 269.247 338.355 263.12C329.525 256.411 319.53 251.393 308.875 248.32L311.605 239.45C323.378 242.855 334.417 248.412 344.165 255.84C353.36 262.912 360.772 272.038 365.807 282.488C370.843 292.938 373.363 304.422 373.165 316.02C373.309 324.651 371.483 333.201 367.825 341.02C364.45 347.994 360.103 354.455 354.915 360.21C349.94 365.726 344.444 370.749 338.505 375.21C332.865 379.443 327.598 383.327 322.705 386.86C318.586 389.777 314.698 393.007 311.075 396.52C308.745 398.82 307.565 401.03 307.565 403.08L307.545 423.91Z" fill="#3498db"/>
<path d="M274.935 876.15H265.575V509.17H232.795V438.57H308.475V504.53H299.105V447.84H242.165V499.89H274.935V876.15Z" fill="#3498db"/>
</g>
<path d="M138.225 532.29V518.67C138.22 516.72 138.753 514.807 139.765 513.14C141.001 511.093 142.471 509.197 144.145 507.49C145.995 505.58 147.995 503.67 150.075 501.84C152.155 500.01 154.365 497.84 156.295 495.77C158.224 493.705 159.902 491.419 161.295 488.96C162.698 486.39 163.408 483.498 163.355 480.57C163.346 478.588 163.008 476.621 162.355 474.75C161.715 472.905 160.716 471.206 159.415 469.75C158.093 468.289 156.496 467.103 154.715 466.26C152.733 465.34 150.57 464.879 148.385 464.91C145.772 464.815 143.18 465.404 140.865 466.62C138.978 467.688 137.395 469.22 136.265 471.07C135.172 472.913 134.449 474.951 134.135 477.07C133.801 479.157 133.634 481.267 133.635 483.38V486.38H102.355C102.295 485.8 102.235 485.23 102.165 484.67C101.513 477.981 102.746 471.244 105.725 465.22C108.248 460.435 111.804 456.271 116.135 453.03C120.948 449.468 126.37 446.811 132.135 445.19C138.821 443.307 145.739 442.381 152.685 442.44C159.306 442.369 165.901 443.279 172.255 445.14C177.684 446.709 182.771 449.28 187.255 452.72C191.269 455.869 194.523 459.882 196.775 464.46C199.067 469.256 200.223 474.515 200.155 479.83C200.227 483.553 199.458 487.245 197.905 490.63C196.389 493.796 194.433 496.732 192.095 499.35C189.778 501.944 187.216 504.308 184.445 506.41C181.612 508.537 178.972 510.5 176.525 512.3C174.257 513.923 172.118 515.719 170.125 517.67C169.194 518.497 168.44 519.504 167.908 520.629C167.375 521.755 167.075 522.976 167.025 524.22V532.31L138.225 532.29Z" fill="#3498db"/>
<path d="M167.485 546.8H138.325V573.73H167.485V546.8Z" fill="#3498db"/>
<path d="M334.555 168.1V154.43C334.555 152.484 335.087 150.575 336.095 148.91C337.33 146.862 338.8 144.966 340.475 143.26C342.335 141.34 344.325 139.44 346.405 137.6C348.58 135.684 350.656 133.658 352.625 131.53C354.556 129.47 356.234 127.187 357.625 124.73C359.035 122.178 359.765 119.306 359.745 116.39C359.742 114.408 359.404 112.44 358.745 110.57C358.11 108.708 357.111 106.991 355.805 105.52C354.482 104.067 352.889 102.885 351.115 102.04C349.131 101.117 346.963 100.655 344.775 100.69C342.165 100.59 339.574 101.179 337.265 102.4C335.371 103.462 333.784 104.995 332.655 106.85C331.566 108.694 330.842 110.732 330.525 112.85C330.192 114.937 330.025 117.047 330.025 119.16C330.025 119.16 330.025 122.06 330.025 122.16H298.645C298.585 121.58 298.525 121.01 298.465 120.45C298.343 119.318 298.283 118.179 298.285 117.04C298.207 111.483 299.488 105.99 302.015 101.04C304.544 96.2531 308.103 92.0865 312.435 88.84C317.264 85.2755 322.703 82.622 328.485 81.01C335.166 79.1189 342.082 78.1896 349.025 78.25C355.649 78.1794 362.247 79.0893 368.605 80.95C374.034 82.5203 379.121 85.0911 383.605 88.53C387.626 91.6793 390.883 95.6958 393.135 100.28C395.419 105.078 396.572 110.336 396.505 115.65C396.577 119.373 395.808 123.065 394.255 126.45C392.74 129.617 390.784 132.552 388.445 135.17C386.129 137.759 383.571 140.119 380.805 142.22C377.972 144.36 375.332 146.327 372.885 148.12C370.614 149.744 368.471 151.539 366.475 153.49C365.547 154.319 364.795 155.325 364.264 156.451C363.733 157.576 363.434 158.797 363.385 160.04V168.12L334.555 168.1Z" fill="#3498db"/>
<path d="M363.815 182.62H334.655V209.55H363.815V182.62Z" fill="#3498db"/>
<path d="M168.505 194.87V187.38C168.511 186.321 168.805 185.284 169.355 184.38C170.031 183.259 170.836 182.222 171.755 181.29C172.755 180.24 173.855 179.19 175.005 178.19C176.194 177.139 177.329 176.027 178.405 174.86C179.465 173.734 180.382 172.481 181.135 171.13C181.909 169.732 182.308 168.158 182.295 166.56C182.3 165.478 182.121 164.402 181.765 163.38C181.42 162.358 180.873 161.415 180.155 160.61C179.43 159.813 178.557 159.165 177.585 158.7C176.498 158.197 175.312 157.944 174.115 157.96C172.683 157.908 171.263 158.232 169.995 158.9C168.961 159.486 168.094 160.326 167.475 161.34C166.876 162.344 166.479 163.454 166.305 164.61C166.124 165.754 166.034 166.911 166.035 168.07V169.67H148.845C148.845 169.36 148.775 169.04 148.745 168.74C148.675 168.119 148.642 167.495 148.645 166.87C148.589 163.821 149.275 160.804 150.645 158.08C152.036 155.462 153.986 153.182 156.355 151.4C159.002 149.446 161.985 147.992 165.155 147.11C168.83 146.095 172.632 145.61 176.445 145.67C180.075 145.632 183.691 146.13 187.175 147.15C190.138 148.016 192.914 149.423 195.365 151.3C197.568 153.026 199.352 155.227 200.585 157.74C201.842 160.367 202.475 163.248 202.435 166.16C202.473 168.197 202.053 170.217 201.205 172.07C200.373 173.806 199.299 175.416 198.015 176.85C196.747 178.273 195.344 179.569 193.825 180.72C192.275 181.89 190.825 182.97 189.485 183.95C188.241 184.838 187.067 185.821 185.975 186.89C185.467 187.345 185.056 187.897 184.766 188.513C184.475 189.13 184.312 189.799 184.285 190.48V194.91L168.505 194.87Z" fill="#3498db"/>
<path d="M184.535 202.82H168.565V217.57H184.535V202.82Z" fill="#3498db"/>
<path d="M349.155 640.51V622.93C349.154 620.421 349.846 617.96 351.155 615.82C352.74 613.184 354.63 610.744 356.785 608.55C359.175 606.08 361.785 603.64 364.425 601.27C367.223 598.805 369.893 596.198 372.425 593.46C374.901 590.805 377.056 587.868 378.845 584.71C380.656 581.425 381.593 577.731 381.565 573.98C381.569 571.431 381.146 568.899 380.315 566.49C379.5 564.099 378.215 561.896 376.535 560.01C374.848 558.135 372.81 556.609 370.535 555.52C367.984 554.335 365.198 553.74 362.385 553.78C359.025 553.655 355.69 554.413 352.715 555.98C350.284 557.348 348.245 559.317 346.795 561.7C345.394 564.066 344.464 566.681 344.055 569.4C343.621 572.081 343.404 574.794 343.405 577.51C343.405 577.51 343.405 581.23 343.405 581.42H303.035C302.955 580.68 302.885 579.94 302.805 579.22C302.65 577.762 302.573 576.296 302.575 574.83C302.464 567.667 304.113 560.587 307.375 554.21C310.627 548.051 315.203 542.689 320.775 538.51C326.965 533.928 333.939 530.515 341.355 528.44C349.953 526.012 358.852 524.82 367.785 524.9C376.304 524.805 384.79 525.974 392.965 528.37C399.929 530.395 406.454 533.701 412.205 538.12C417.376 542.168 421.564 547.334 424.455 553.23C427.404 559.402 428.892 566.17 428.805 573.01C428.893 577.798 427.906 582.544 425.915 586.9C423.957 590.97 421.439 594.747 418.435 598.12C415.45 601.449 412.155 604.486 408.595 607.19C404.955 609.943 401.558 612.47 398.405 614.77C395.489 616.867 392.734 619.18 390.165 621.69C387.525 624.33 386.165 627.16 386.165 630.11V640.51H349.155Z" fill="#3498db"/>
<path d="M386.805 659.19H349.295V693.84H386.805V659.19Z" fill="#3498db"/>
<path d="M85.6251 342.47V333.47C85.6144 332.191 85.9607 330.933 86.6251 329.84C87.4296 328.49 88.3932 327.241 89.4951 326.12C90.7151 324.87 92.0251 323.62 93.3951 322.41C94.7651 321.2 96.2151 319.79 97.4751 318.41C98.7427 317.056 99.8439 315.555 100.755 313.94C101.681 312.263 102.16 310.376 102.145 308.46C102.15 307.16 101.933 305.868 101.505 304.64C101.093 303.414 100.436 302.285 99.575 301.32C98.7059 300.365 97.66 299.587 96.4951 299.03C95.1923 298.427 93.7703 298.127 92.3351 298.15C90.6185 298.082 88.9145 298.468 87.3951 299.27C86.1609 299.97 85.1277 300.975 84.3951 302.19C83.6837 303.4 83.2087 304.733 82.9951 306.12C82.774 307.489 82.6636 308.873 82.6651 310.26C82.6651 310.26 82.6651 312.17 82.6651 312.26H62.0451L61.9251 311.14C61.8436 310.396 61.8035 309.648 61.8051 308.9C61.7522 305.24 62.5932 301.622 64.2551 298.36C65.9201 295.221 68.2594 292.489 71.1051 290.36C74.2745 288.014 77.8467 286.269 81.6451 285.21C86.0365 283.97 90.582 283.36 95.1451 283.4C99.4954 283.354 103.829 283.951 108.005 285.17C111.563 286.215 114.896 287.91 117.835 290.17C120.473 292.243 122.612 294.881 124.095 297.89C125.599 301.042 126.359 304.498 126.315 307.99C126.362 310.438 125.856 312.865 124.835 315.09C123.836 317.169 122.55 319.098 121.015 320.82C119.502 322.521 117.828 324.072 116.015 325.45C114.155 326.863 112.418 328.153 110.805 329.32C109.316 330.394 107.909 331.577 106.595 332.86C105.992 333.407 105.504 334.069 105.16 334.808C104.817 335.546 104.624 336.346 104.595 337.16V342.47H85.6251Z" fill="#3498db"/>
<path d="M104.855 352H85.6948V369.69H104.855V352Z" fill="#3498db"/>
<path d="M380.635 439.11V430.11C380.626 428.831 380.972 427.574 381.635 426.48C382.442 425.135 383.406 423.889 384.505 422.77C385.725 421.51 387.035 420.26 388.405 419.05C389.833 417.788 391.195 416.453 392.485 415.05C393.755 413.698 394.856 412.197 395.765 410.58C396.691 408.903 397.17 407.016 397.155 405.1C397.16 403.8 396.943 402.508 396.515 401.28C396.1 400.055 395.444 398.926 394.585 397.96C393.716 397.005 392.67 396.227 391.505 395.67C390.201 395.072 388.78 394.771 387.345 394.79C385.629 394.727 383.926 395.113 382.405 395.91C381.171 396.61 380.138 397.615 379.405 398.83C378.694 400.04 378.219 401.373 378.005 402.76C377.784 404.132 377.673 405.52 377.675 406.91C377.675 406.91 377.675 408.81 377.675 408.91H357.055L356.935 407.79C356.857 407.046 356.82 406.298 356.825 405.55C356.769 401.89 357.607 398.273 359.265 395.01C360.93 391.871 363.269 389.139 366.115 387.01C369.287 384.662 372.863 382.917 376.665 381.86C381.053 380.619 385.595 380.009 390.155 380.05C394.506 380.002 398.84 380.602 403.015 381.83C406.576 382.867 409.91 384.563 412.845 386.83C415.484 388.897 417.624 391.532 419.105 394.54C420.624 397.699 421.394 401.165 421.355 404.67C421.402 407.118 420.897 409.545 419.875 411.77C418.878 413.85 417.592 415.78 416.055 417.5C414.542 419.201 412.867 420.752 411.055 422.13C409.195 423.537 407.458 424.83 405.845 426.01C404.355 427.075 402.95 428.255 401.645 429.54C401.041 430.086 400.552 430.748 400.208 431.487C399.865 432.226 399.673 433.026 399.645 433.84V439.15L380.635 439.11Z" fill="#3498db"/>
<path d="M399.865 448.65H380.705V466.34H399.865V448.65Z" fill="#3498db"/>
</svg>
