<svg width="512" height="512" viewBox="0 0 512 512" fill="none" xmlns="http://www.w3.org/2000/svg">
<g clip-path="url(#clip0_633_3008)">
<path d="M291.094 445.299H200.969C199.262 445.299 197.624 444.621 196.417 443.413C195.21 442.206 194.532 440.569 194.532 438.861V65.4863C194.532 63.779 195.21 62.1416 196.417 60.9343C197.624 59.7271 199.262 59.0488 200.969 59.0488H291.094C292.802 59.0488 294.439 59.7271 295.646 60.9343C296.853 62.1416 297.532 63.779 297.532 65.4863V438.861C297.532 440.569 296.853 442.206 295.646 443.413C294.439 444.621 292.802 445.299 291.094 445.299Z" fill="#FEBC00"/>
<path d="M291.094 59.0488H284.657V342.299C284.657 366.201 275.161 389.125 258.26 406.027C241.358 422.929 218.434 432.424 194.532 432.424V432.424V438.861C194.532 440.569 195.21 442.206 196.417 443.413C197.624 444.621 199.262 445.299 200.969 445.299H291.094C292.802 445.299 294.439 444.621 295.646 443.413C296.853 442.206 297.532 440.569 297.532 438.861V65.4863C297.532 63.779 296.853 62.1416 295.646 60.9343C294.439 59.7271 292.802 59.0488 291.094 59.0488V59.0488Z" fill="#EDAA03"/>
<path d="M239.594 91.2363H194.532V104.111H239.594V91.2363Z" fill="#F74E0C"/>
<path d="M239.594 129.859H194.532V142.734H239.594V129.859Z" fill="#F74E0C"/>
<path d="M239.594 168.486H194.532V181.361H239.594V168.486Z" fill="#F74E0C"/>
<path d="M239.594 207.111H194.532V219.986H239.594V207.111Z" fill="#F74E0C"/>
<path d="M239.594 245.736H194.532V258.611H239.594V245.736Z" fill="#F74E0C"/>
<path d="M239.594 284.363H194.532V297.238H239.594V284.363Z" fill="#F74E0C"/>
<path d="M239.594 322.986H194.532V335.861H239.594V322.986Z" fill="#F74E0C"/>
<path d="M239.594 361.611H194.532V374.486H239.594V361.611Z" fill="#F74E0C"/>
<path d="M239.594 400.236H194.532V413.111H239.594V400.236Z" fill="#F74E0C"/>
<path d="M245.511 251.898H148.334C143.201 251.898 138.455 249.159 135.889 244.712L103.702 188.967C99.7329 182.094 102.087 173.306 108.959 169.336L181.845 127.253C188.718 123.286 197.506 125.64 201.475 132.514L257.956 230.341C263.484 239.914 256.553 251.898 245.511 251.898Z" fill="#C7E9F4"/>
<path d="M157.851 141.107L132.959 155.48L184.476 244.712C193.803 260.865 219.054 247.118 209.368 230.342L157.851 141.107Z" fill="#80D0E1"/>
<path d="M99.2356 126.194L97.6415 91.0794C97.1145 79.446 109.952 72.0598 119.741 78.3211L149.352 97.2594C158.414 103.055 158.118 116.429 148.794 121.811L120.779 137.988C111.495 143.348 99.7265 136.993 99.2356 126.194Z" fill="#6A82A1"/>
<path d="M345.861 251.899C241.966 251.899 241.787 254.325 236.238 244.713C230.552 234.865 231.392 238.736 299.464 120.833C303.427 113.967 312.224 111.603 319.097 115.575L391.978 157.654C398.849 161.621 401.207 170.414 397.239 177.288L358.306 244.713C355.739 249.16 350.994 251.899 345.861 251.899Z" fill="#FFDA79"/>
<path d="M391.977 157.654L319.096 115.574C312.223 111.603 303.427 113.967 299.463 120.833C279.896 154.724 265.892 178.538 255.994 195.523V251.899H345.861C350.994 251.899 355.74 249.159 358.306 244.713L397.239 177.287C401.206 170.414 398.848 161.62 391.977 157.654Z" fill="#FFD155"/>
<path d="M374.061 462.001H137.926C129.989 462.001 123.554 455.567 123.554 447.629V392.462C123.554 384.525 129.988 378.09 137.926 378.09H374.061C381.998 378.09 388.433 384.524 388.433 392.462V447.629C388.433 455.566 381.998 462.001 374.061 462.001Z" fill="#627573"/>
<path d="M374.061 378.09H255.994V462.001H374.061C381.998 462.001 388.433 455.567 388.433 447.629V392.462C388.433 384.525 381.998 378.09 374.061 378.09Z" fill="#526261"/>
<path d="M388.433 406.832H123.554V246.09C123.554 239.559 129.988 234.264 137.926 234.264H374.061C381.998 234.264 388.433 239.558 388.433 246.09V406.832Z" fill="#627573"/>
<path d="M388.433 246.088C388.433 239.557 381.999 234.262 374.061 234.262H255.994V406.83H388.433V246.088Z" fill="#526261"/>
<path d="M217.494 289.147C227.705 289.147 235.982 280.87 235.982 270.66C235.982 260.449 227.705 252.172 217.494 252.172C207.284 252.172 199.006 260.449 199.006 270.66C199.006 280.87 207.284 289.147 217.494 289.147Z" fill="#D4EEEC"/>
<path d="M294.496 289.147C304.707 289.147 312.984 280.87 312.984 270.66C312.984 260.449 304.707 252.172 294.496 252.172C284.286 252.172 276.009 260.449 276.009 270.66C276.009 280.87 284.286 289.147 294.496 289.147Z" fill="#20B8AE"/>
<path d="M217.494 351.784C227.705 351.784 235.982 343.507 235.982 333.296C235.982 323.086 227.705 314.809 217.494 314.809C207.284 314.809 199.006 323.086 199.006 333.296C199.006 343.507 207.284 351.784 217.494 351.784Z" fill="#D4EEEC"/>
<path d="M294.496 351.784C304.707 351.784 312.984 343.507 312.984 333.296C312.984 323.086 304.707 314.809 294.496 314.809C284.286 314.809 276.009 323.086 276.009 333.296C276.009 343.507 284.286 351.784 294.496 351.784Z" fill="#20B8AE"/>
<path d="M98.8397 117.465C99.4746 131.467 101.113 167.556 101.789 182.431C102.281 193.264 114.087 199.563 123.33 194.225L196.217 152.145C205.532 146.767 205.845 133.393 196.774 127.593C184.163 119.527 152.271 99.1286 141.99 92.5527L98.8397 117.465Z" fill="#FFDA79"/>
<path d="M377.606 182.55L304.72 140.47C297.846 136.501 295.491 127.713 299.46 120.839L309.013 104.291C324.576 77.334 359.169 68.0648 386.128 83.6274V83.6283C413.149 99.2295 422.393 133.72 406.79 160.743L397.236 177.289C393.255 184.188 384.452 186.501 377.606 182.55Z" fill="#FF9392"/>
<path d="M294.496 289.147C304.707 289.147 312.984 280.87 312.984 270.66C312.984 260.449 304.707 252.172 294.496 252.172C284.286 252.172 276.009 260.449 276.009 270.66C276.009 280.87 284.286 289.147 294.496 289.147Z" fill="#D4EEEC"/>
<path d="M294.496 351.788C304.707 351.788 312.984 343.511 312.984 333.3C312.984 323.09 304.707 314.812 294.496 314.812C284.286 314.812 276.009 323.09 276.009 333.3C276.009 343.511 284.286 351.788 294.496 351.788Z" fill="#D4EEEC"/>
</g>
<defs>
<clipPath id="clip0_633_3008">
<rect width="412" height="412" fill="white" transform="translate(50 50)"/>
</clipPath>
</defs>
</svg>
