<svg width="512" height="512" viewBox="0 0 512 512" fill="none" xmlns="http://www.w3.org/2000/svg">
<g clip-path="url(#clip0_633_3032)">
<path d="M412.339 227.347V371.849C412.339 384.159 407.631 395.965 399.25 404.669C390.87 413.373 379.504 418.263 367.652 418.263H188.904C177.053 418.263 165.686 413.373 157.306 404.669C148.926 395.965 144.218 384.159 144.218 371.849V124.308C144.218 111.999 148.926 100.193 157.306 91.4889C165.686 82.7846 177.053 77.8946 188.904 77.8946H268.447C276.274 77.8882 284.025 79.4835 291.258 82.5894C298.491 85.6953 305.064 90.2509 310.602 95.996L394.911 183.564C400.442 189.315 404.828 196.142 407.819 203.655C410.809 211.167 412.345 219.218 412.339 227.347V227.347Z" fill="#D1BDBD"/>
<path d="M412.339 221.786V356.808C412.339 368.66 407.631 380.026 399.251 388.407C390.87 396.787 379.504 401.495 367.652 401.495H188.904C177.053 401.495 165.686 396.787 157.306 388.407C148.926 380.026 144.218 368.66 144.218 356.808V122.581C144.218 110.73 148.926 99.3635 157.306 90.983C165.686 82.6026 177.053 77.8945 188.904 77.8945H268.447C276.274 77.8884 284.025 79.4244 291.258 82.4147C298.491 85.405 305.064 89.7911 310.602 95.3224L394.911 179.632C400.442 185.169 404.829 191.742 407.819 198.975C410.809 206.208 412.345 213.96 412.339 221.786Z" fill="white"/>
<path d="M406.976 197.059H337.86C326.009 197.059 314.642 192.35 306.262 183.97C297.882 175.59 293.174 164.223 293.174 152.372V83.2559C299.643 86.2281 305.542 90.3118 310.601 95.3213L394.911 179.631C399.92 184.69 404.004 190.589 406.976 197.059Z" fill="#D1BDBD"/>
<g clip-path="url(#clip1_633_3032)">
<path d="M255.899 146.701H229.986C226.408 146.701 223.508 149.631 223.508 153.245V290.661C223.508 294.275 226.408 297.205 229.986 297.205H255.899C259.477 297.205 262.377 294.275 262.377 290.661V153.245C262.377 149.631 259.477 146.701 255.899 146.701Z" fill="#EC5044"/>
<path d="M307.724 231.738H281.812C278.234 231.738 275.333 234.668 275.333 238.282V290.664C275.333 294.278 278.234 297.207 281.812 297.207H307.724C311.302 297.207 314.203 294.278 314.203 290.664V238.282C314.203 234.668 311.302 231.738 307.724 231.738Z" fill="#7B766B"/>
<path d="M204.073 199.053H178.16C174.582 199.053 171.682 201.982 171.682 205.596V290.664C171.682 294.278 174.582 297.207 178.16 297.207H204.073C207.651 297.207 210.551 294.278 210.551 290.664V205.596C210.551 201.982 207.651 199.053 204.073 199.053Z" fill="#41C3F1"/>
</g>
<g clip-path="url(#clip2_633_3032)">
<path d="M155 177.023C155 173.016 151.751 169.768 147.744 169.768C143.738 169.768 140.489 173.016 140.489 177.023C140.489 181.03 143.738 184.278 147.744 184.278C151.751 184.278 155 181.03 155 177.023Z" fill="black"/>
<path fill-rule="evenodd" clip-rule="evenodd" d="M195.869 115.152C202.48 105.346 205.786 94.5309 205.786 82.7052C205.786 66.6769 200.119 52.996 188.786 41.6625C177.452 30.3289 163.771 24.6621 147.743 24.6621C131.715 24.6621 118.034 30.3289 106.7 41.6625C95.3666 52.996 89.6999 66.6769 89.6999 82.7052C89.6999 94.5309 93.0053 105.346 99.6161 115.152C104.091 121.79 109.564 127.197 116.034 131.374V131.399C119.133 133.738 121.566 136.8 123.33 140.583C125.094 144.367 125.977 148.412 125.977 152.719C125.977 153.11 125.969 153.501 125.953 153.892C125.938 154.283 125.915 154.672 125.884 155.062H125.977V155.259H169.509V152.719C169.509 148.347 170.416 144.249 172.23 140.425C174.045 136.599 176.54 133.525 179.714 131.204C186.07 127.051 191.454 121.7 195.869 115.152Z" fill="url(#paint0_radial_633_3032)"/>
<path d="M125.975 162.515C125.975 170.529 132.472 177.026 140.486 177.026H154.997C163.011 177.026 169.507 170.529 169.507 162.515V155.26H125.975V162.515Z" fill="url(#paint1_radial_633_3032)"/>
<path d="M158.627 162.514H136.861C134.858 162.514 133.233 164.138 133.233 166.141C133.233 168.145 134.858 169.769 136.861 169.769H158.627C160.631 169.769 162.255 168.145 162.255 166.141C162.255 164.138 160.631 162.514 158.627 162.514Z" fill="black" fill-opacity="0.2"/>
<path fill-rule="evenodd" clip-rule="evenodd" d="M132.35 67.3136C136.6 63.0635 141.73 60.9385 147.741 60.9385C149.745 60.9385 151.455 60.2301 152.871 58.8134C154.288 57.3967 154.997 55.6866 154.997 53.6831C154.997 51.6796 154.288 49.9695 152.871 48.5527C151.455 47.1361 149.745 46.4277 147.741 46.4277C137.723 46.4277 129.173 49.9695 122.089 57.053C115.006 64.1364 111.464 72.6869 111.464 82.7047C111.464 84.7079 112.173 86.4183 113.589 87.8349C115.006 89.2515 116.716 89.9598 118.72 89.9598C120.723 89.9598 122.433 89.2515 123.85 87.8349C125.267 86.4183 125.975 84.7079 125.975 82.7047C125.975 76.694 128.1 71.5637 132.35 67.3136Z" fill="white"/>
</g>
<path d="M122.327 457.077C122.327 459.147 123.617 460.752 125.08 460.491L124.543 460.586C123.275 460.81 122.325 462.325 122.325 464.121C122.325 465.918 123.271 467.43 124.54 467.654L125.078 467.748C123.618 467.491 122.325 469.093 122.322 471.166C122.322 472.598 122.95 473.882 123.903 474.386L125.791 475.387L113.32 468.816C110.24 467.193 110.24 461.056 113.324 459.429L125.485 453.017L123.916 453.851C122.959 454.364 122.328 455.645 122.327 457.077Z" fill="#64798A"/>
<path d="M384.354 450.999L421.668 456.077C421.96 461.267 421.956 467.012 421.659 472.202L383.306 481.953C383.27 476.575 384.308 456.375 384.354 450.999Z" fill="#F6C358"/>
<path d="M122.319 471.167C122.319 469.097 123.615 467.491 125.075 467.75L127.47 468.172L147.983 471.792C148.389 471.865 151.364 470.967 151.682 471.28C149.158 472.123 144.668 476.424 144.669 480.236C144.669 482.798 145.518 485.073 146.842 486.548C146.833 486.545 146.821 486.546 146.812 486.537L125.795 475.389L123.907 474.388C122.95 473.88 122.319 472.599 122.319 471.167Z" fill="#DC8744"/>
<path d="M152.277 455.256C150.19 456.464 144.678 460.743 144.675 464.109C144.675 467.478 150.648 471.398 152.733 472.604C152.432 472.716 147.607 471.726 147.276 471.669L127.464 468.172L125.069 467.75L124.532 467.656C123.266 467.434 122.317 465.92 122.316 464.123C122.316 462.326 123.266 460.812 124.535 460.588L125.072 460.493L127.464 460.068L147.276 456.554C147.616 456.494 151.974 455.146 152.277 455.256Z" fill="#F6C358"/>
<path d="M144.683 447.983C144.68 451.792 149.664 455.507 152.186 456.347C151.867 456.66 149.694 456.126 149.287 456.199L127.475 460.062L125.083 460.487C123.62 460.748 122.331 459.142 122.33 457.073C122.33 455.64 122.965 454.357 123.914 453.85L125.483 453.015L146.831 441.676C146.843 441.67 146.852 441.674 146.862 441.665C145.536 443.149 144.686 445.424 144.683 447.983Z" fill="#FCD462"/>
<path d="M150.401 472.172C149.631 472.172 148.899 471.957 148.229 471.571C146.144 470.366 144.674 467.483 144.674 464.114C144.677 460.742 146.146 457.859 148.237 456.654C148.908 456.269 149.642 456.05 150.41 456.047L378.745 454.187L378.736 474.633L150.401 472.172Z" fill="#D15241"/>
<path d="M150.411 456.046C149.956 456.046 149.512 455.961 149.088 455.821C146.566 454.98 144.684 451.794 144.687 447.985C144.687 445.423 145.543 443.147 146.863 441.669C147.841 440.577 149.076 439.918 150.42 439.921L376.412 439.972H378.749L378.74 456.097L150.411 456.046Z" fill="#E56353"/>
<path d="M421.663 472.198C421.159 481.078 419.799 488.325 417.587 488.323L385.808 488.338C385.681 482.948 385.611 477.579 385.571 472.21L421.663 472.198Z" fill="#DC8744"/>
<path d="M421.672 456.075L385.525 456.093C385.571 450.725 385.646 445.356 385.777 439.969L417.61 439.953C419.82 439.954 421.174 447.195 421.672 456.075Z" fill="#FCD462"/>
<path d="M387.428 472.218C387.471 477.583 387.538 482.956 387.665 488.346L390.053 488.343L378.73 488.346L378.739 472.221L378.748 456.097L378.757 439.972L390.081 439.969L387.695 439.969C387.562 445.359 387.489 450.725 387.444 456.094C387.392 461.468 387.389 466.843 387.428 472.218Z" fill="#EBF0F3"/>
<path d="M144.668 480.238C144.67 476.429 146.552 473.242 149.078 472.398C149.506 472.256 149.946 472.173 150.404 472.171L378.739 472.222L378.729 488.347L376.396 488.35L150.395 488.295C149.05 488.298 147.815 487.64 146.841 486.55C145.517 485.075 144.668 482.799 144.668 480.238Z" fill="#CE412D"/>
</g>
<defs>
<radialGradient id="paint0_radial_633_3032" cx="0" cy="0" r="1" gradientUnits="userSpaceOnUse" gradientTransform="translate(128.336 60.5708) rotate(56.4705) scale(97.9156 87.0362)">
<stop stop-color="#FADF73"/>
<stop offset="0.457142" stop-color="#FFD500"/>
<stop offset="1" stop-color="#FC9900"/>
</radialGradient>
<radialGradient id="paint1_radial_633_3032" cx="0" cy="0" r="1" gradientUnits="userSpaceOnUse" gradientTransform="translate(111.782 148.498) rotate(38.4256) scale(45.9012 91.8023)">
<stop stop-color="#EFFCFF"/>
<stop offset="0.999999" stop-color="#A5F2FF"/>
</radialGradient>
<clipPath id="clip0_633_3032">
<rect width="512" height="512" fill="white"/>
</clipPath>
<clipPath id="clip1_633_3032">
<rect width="155.477" height="157.047" fill="white" transform="translate(165.204 140.158)"/>
</clipPath>
<clipPath id="clip2_633_3032">
<rect width="159.618" height="159.618" fill="white" transform="translate(69.7476 24.6621)"/>
</clipPath>
</defs>
</svg>
