<svg width="512" height="512" viewBox="0 0 512 512" fill="none" xmlns="http://www.w3.org/2000/svg">
<path d="M112.753 395.903C99.4209 397.721 87.3005 387.722 87.3005 374.086L86.3914 307.727C97.6029 308.333 108.511 308.939 118.814 309.545L131.237 369.541C133.964 381.964 125.48 394.085 112.753 395.903Z" fill="#FF7058"/>
<path d="M367.683 370.04C367.683 372.25 368.125 374.46 368.567 376.228C317.3 337.336 251.449 321.867 168.361 313.912C168.361 313.912 168.803 313.912 169.245 313.912V160.995C251.891 153.04 317.3 137.572 368.567 98.6797C368.125 100.889 367.683 102.657 367.683 104.867V370.04Z" fill="#FF7058"/>
<path d="M169.245 160.996C138.308 164.09 104.72 165.858 68.4793 167.625C55.6625 168.067 45.4976 178.674 45.4976 191.933V283.418C45.4976 296.235 55.6625 306.841 68.4793 307.725C104.72 309.493 137.866 311.261 169.245 314.355V160.996Z" fill="#424547"/>
<path d="M419.834 195.471V279.442C442.374 278.558 460.052 259.996 460.052 237.456C460.052 214.917 442.374 196.355 419.834 195.471Z" fill="#FF7058"/>
<path d="M393.759 396.117C379.174 396.117 367.683 384.626 367.683 370.042V104.868C367.683 90.2838 379.174 78.793 393.759 78.793C408.343 78.793 419.834 90.2838 419.834 104.868V370.042C419.834 384.626 408.343 396.117 393.759 396.117Z" fill="#424547"/>
</svg>
