<svg width="512" height="512" viewBox="0 0 512 512" fill="none" xmlns="http://www.w3.org/2000/svg">
<path d="M368.705 435.275C368.705 448.535 355.446 461.794 342.186 461.794H169.814C156.554 461.794 143.295 448.535 143.295 435.275V77.2708C143.295 64.0114 156.554 50.752 169.814 50.752H342.186C355.446 50.752 368.705 64.0114 368.705 77.2708V435.275Z" fill="#212528"/>
<path d="M332.242 80.5856C335.903 80.5856 338.871 77.6174 338.871 73.9559C338.871 70.2944 335.903 67.3262 332.242 67.3262C328.58 67.3262 325.612 70.2944 325.612 73.9559C325.612 77.6174 328.58 80.5856 332.242 80.5856Z" fill="#94989B"/>
<path d="M275.889 73.9535C275.889 75.9424 275.226 77.2684 273.9 77.2684H238.1C236.774 77.2684 236.111 75.9424 236.111 73.9535C236.111 72.6276 236.774 70.6387 238.1 70.6387H273.9C275.226 70.6387 275.889 72.6276 275.889 73.9535Z" fill="#94989B"/>
<path d="M156.554 97.1641H355.446V415.39H156.554V97.1641Z" fill="#3E4347"/>
<path d="M281.193 443.229C281.193 445.881 279.204 448.533 275.889 448.533H236.111C233.459 448.533 230.807 446.544 230.807 443.229V433.284C230.807 430.632 232.796 427.98 236.111 427.98H275.889C278.541 427.98 281.193 429.969 281.193 433.284V443.229Z" fill="#94989B"/>
<path d="M202.962 396.826C202.962 400.141 200.31 402.13 197.659 402.13H175.781C172.466 402.13 170.477 399.478 170.477 396.826V374.948C170.477 371.633 173.129 369.645 175.781 369.645H197.659C200.973 369.645 202.962 372.296 202.962 374.948V396.826Z" fill="#C7E755"/>
<path d="M249.37 396.826C249.37 400.141 246.719 402.13 244.067 402.13H222.189C218.874 402.13 216.885 399.478 216.885 396.826V374.948C216.885 371.633 219.537 369.645 222.189 369.645H244.067C247.382 369.645 249.37 372.296 249.37 374.948V396.826Z" fill="#FF435E"/>
<path d="M295.778 396.826C295.778 400.141 293.126 402.13 290.474 402.13H268.596C265.282 402.13 263.293 399.478 263.293 396.826V374.948C263.293 371.633 265.945 369.645 268.596 369.645H290.474C293.789 369.645 295.778 372.296 295.778 374.948V396.826Z" fill="#42ADE2"/>
<path d="M342.186 396.826C342.186 400.141 339.534 402.13 336.883 402.13H315.004C311.69 402.13 309.701 399.478 309.701 396.826V374.948C309.701 371.633 312.353 369.645 315.004 369.645H336.883C340.197 369.645 342.186 372.296 342.186 374.948V396.826Z" fill="#C28FEF"/>
</svg>
