<svg width="512" height="512" viewBox="0 0 512 512" fill="none" xmlns="http://www.w3.org/2000/svg">
<path d="M332.01 60.6973V126.863H398.176V402.062H85.3661V60.6973H332.01Z" fill="white"/>
<path d="M332.01 60.6973L398.176 126.863H332.01V60.6973Z" fill="#E6E9EE"/>
<path d="M345.515 355.622L365.623 335.514L331.878 301.768L311.77 321.876L345.515 355.622Z" fill="#2B3B4E"/>
<path d="M245.994 355.065C311.848 355.065 365.234 301.679 365.234 235.825C365.234 169.971 311.848 116.586 245.994 116.586C180.14 116.586 126.755 169.971 126.755 235.825C126.755 301.679 180.14 355.065 245.994 355.065Z" fill="#324A5E"/>
<path d="M245.994 331.275C298.709 331.275 341.442 288.541 341.442 235.827C341.442 183.112 298.709 140.379 245.994 140.379C193.28 140.379 150.546 183.112 150.546 235.827C150.546 288.541 193.28 331.275 245.994 331.275Z" fill="#54C0EB"/>
<path d="M367.064 319.732L329.757 357.038C328.209 358.587 328.209 360.98 329.757 362.528L417.373 450.144C418.922 451.693 421.315 451.693 422.864 450.144L460.17 412.838C461.719 411.289 461.719 408.896 460.17 407.348L372.554 319.732C371.006 318.183 368.612 318.183 367.064 319.732Z" fill="#E6E9EE"/>
<path d="M346.102 378.816L387.306 420.02L430.11 377.215L388.906 336.011L346.102 378.816Z" fill="#FF7058"/>
<path d="M273.587 266.091L249.373 229.771L231.072 257.082L217.839 237.091L206.999 253.14H168.707V239.766H199.819L217.839 213.159L231.072 233.008L249.373 205.557L273.587 241.877L283.019 227.8H323.141V241.174H290.199L273.587 266.091Z" fill="white"/>
</svg>
