<svg width="512" height="512" viewBox="0 0 512 512" fill="none" xmlns="http://www.w3.org/2000/svg">
<path d="M337.388 140.611H325.38V180.194H337.388C344.059 180.194 349.841 175.746 349.841 169.964V150.396C349.841 145.059 344.504 140.611 337.388 140.611Z" fill="#505357"/>
<path d="M161.714 150.396V169.964C161.714 175.301 167.051 180.194 174.167 180.194H186.175V140.611H174.167C167.051 140.611 161.714 145.059 161.714 150.396Z" fill="#505357"/>
<path d="M414.329 445.705H97.2261V318.063C97.2261 297.605 111.903 279.37 133.695 272.699L224.868 245.125C245.326 238.898 266.674 238.898 286.243 245.125L377.415 272.699C399.208 279.37 413.884 297.605 413.884 318.063L414.329 445.705Z" fill="#F99653"/>
<path d="M329.828 335.854H276.903V347.417H329.828V335.854Z" fill="#FFD551"/>
<path d="M289.356 189.533H222.199V282.93H289.356V189.533Z" fill="#EDBF9A"/>
<path d="M332.051 143.279C332.051 194.869 297.806 247.349 256 247.349C214.194 247.349 179.504 194.425 179.504 143.279C179.504 92.1335 213.749 60.5566 256 60.5566C298.251 60.5566 332.051 91.6888 332.051 143.279Z" fill="#FFD9B6"/>
<path d="M170.164 353.197H167.941C165.717 353.197 163.493 354.976 163.493 357.645V445.259H175.057V358.089C174.612 355.421 172.388 353.197 170.164 353.197Z" fill="#E08344"/>
<path d="M344.059 353.197H341.836C339.612 353.197 337.388 354.976 337.388 357.645V445.259H348.952V358.089C348.507 355.421 346.728 353.197 344.059 353.197Z" fill="#E08344"/>
<path d="M289.356 251.795L256 282.038L222.199 251.795L217.307 247.348L181.728 258.022L234.652 306.054L256 282.927L276.903 306.054L330.272 258.022L294.248 247.348L289.356 251.795Z" fill="#E08344"/>
<path d="M286.243 212.661C280.906 212.661 279.571 212.661 272.9 212.217H266.229V206.88H272.9C303.588 207.769 313.817 208.214 323.156 200.209C332.941 192.203 331.162 171.745 331.162 171.3L336.499 170.855C336.499 171.745 338.722 194.427 326.714 204.211C317.819 211.772 306.256 212.661 286.243 212.661Z" fill="#505357"/>
<path d="M278.682 218.887H260.447C257.779 218.887 255.555 216.663 255.555 213.995V207.324C255.555 204.655 257.779 202.432 260.447 202.432H278.682C281.35 202.432 283.574 204.655 283.574 207.324V213.995C284.019 216.219 281.795 218.887 278.682 218.887Z" fill="#0E0D0D"/>
<path d="M332.051 94.357C332.051 70.7856 320.043 69.8961 320.043 69.8961L301.364 67.6723C297.806 67.2276 295.137 64.5591 294.693 61.0012C292.469 48.9931 283.574 50.3273 283.574 50.3273C283.574 50.3273 221.755 50.3273 202.186 57.888C179.504 66.7829 174.167 82.3489 174.167 95.2465C174.167 121.486 180.838 168.629 184.841 179.303C185.73 181.527 189.733 181.082 189.733 178.414V143.279C189.733 141.055 191.512 139.276 193.736 139.276H280.016C282.24 139.276 284.019 137.497 284.019 135.274V126.823C284.019 124.6 285.798 122.821 288.021 122.821C290.245 122.821 291.579 124.6 291.579 126.823V135.274C291.579 137.497 293.358 139.276 295.582 139.276H317.819C320.043 139.276 321.822 141.055 321.822 143.279V177.079C321.822 179.748 326.714 179.748 327.604 177.524C330.717 166.406 332.496 155.287 332.496 143.724C332.496 138.831 332.051 108.144 332.051 94.357Z" fill="#3F3F3F"/>
<path d="M133.695 297.16H377.86C386.31 297.16 392.981 304.276 392.092 312.726L383.197 450.597H128.803L119.908 312.726C119.019 304.276 125.245 297.16 133.695 297.16Z" fill="#EFEEED"/>
<path d="M272.011 415.906C272.011 408.791 267.563 403.009 261.337 400.785V413.238C261.337 415.906 259.558 418.575 256.445 418.575C253.332 419.02 250.218 416.351 250.218 413.238V400.785C243.547 403.009 239.1 409.68 239.544 417.241C239.989 423.467 244.437 428.804 250.218 431.028V447.483H260.892V431.028C267.563 429.249 272.011 423.022 272.011 415.906Z" fill="#80B2F9"/>
<path d="M302.698 428.803H313.372V404.787H302.698C301.364 400.34 300.03 395.892 297.361 392.334L304.922 384.774L288.022 367.429L280.461 374.989C276.458 372.766 272.456 370.987 268.008 369.652V358.979H243.992V369.652C239.544 370.987 235.542 372.321 231.539 374.989L223.978 367.429L207.078 384.329L214.639 391.89C212.415 395.892 210.636 399.895 209.302 404.342H198.628V428.359H209.302C210.191 432.361 211.97 435.919 213.749 439.477C213.749 439.922 214.194 440.367 214.639 440.812L207.078 448.372L219.976 461.27H227.981L231.539 457.712C233.763 459.046 236.431 460.38 238.655 461.27H273.345C276.013 460.38 278.237 459.046 280.461 457.712L284.019 461.27H292.024L305.367 448.372L297.806 440.812C298.251 440.367 298.251 439.922 298.695 439.033C300.474 435.919 301.809 432.361 302.698 428.803ZM261.337 442.591C259.558 443.035 257.779 443.035 256 443.035C254.221 443.035 252.442 443.035 250.663 442.591C247.995 442.146 245.326 440.812 242.658 439.477C234.652 435.03 229.315 426.135 229.315 416.351C229.315 401.674 241.323 389.666 256 389.666C270.677 389.666 282.685 401.674 282.685 416.351C282.685 426.135 277.348 434.585 269.342 439.477C267.119 440.812 264.005 442.146 261.337 442.591Z" fill="#80B2F9"/>
<path d="M439.68 450.597C439.68 453.71 438.345 456.379 436.566 458.603C434.787 460.826 431.674 461.716 428.561 461.716H83.4391C77.2127 461.716 72.3205 456.824 72.3205 450.597C72.3205 447.484 73.6547 444.815 75.4337 442.592C77.2127 440.368 80.3259 439.479 83.4391 439.479H428.561C434.787 439.479 439.68 444.371 439.68 450.597Z" fill="#448FFC"/>
</svg>
