<svg width="376" height="376" viewBox="0 0 376 376" fill="none" xmlns="http://www.w3.org/2000/svg">
<g clip-path="url(#clip0_21_2119)">
<mask id="mask0_21_2119" style="mask-type:luminance" maskUnits="userSpaceOnUse" x="0" y="0" width="376" height="376">
<path d="M376 0H0V376H376V0Z" fill="white"/>
</mask>
<g mask="url(#mask0_21_2119)">
<path d="M188 376C291.83 376 376 291.83 376 188C376 84.1704 291.83 0 188 0C84.1704 0 0 84.1704 0 188C0 291.83 84.1704 376 188 376Z" fill="#FAD24D"/>
<path d="M188 293.532C247.372 293.532 295.502 289.737 295.502 285.056C295.502 280.376 247.372 276.581 188 276.581C128.629 276.581 80.4985 280.376 80.4985 285.056C80.4985 289.737 128.629 293.532 188 293.532Z" fill="#D2AF39"/>
<path d="M75.9364 76.0357H300.064C307.428 76.0357 313.452 82.0605 313.452 89.4241V227.489H62.5493V89.4234C62.5493 82.0598 68.5742 76.035 75.9379 76.035L75.9364 76.0357Z" fill="#666666"/>
<path d="M71.6387 218.397H304.36V89.4226C304.36 87.0756 302.408 85.1243 300.063 85.1243H75.9371C73.5915 85.1243 71.6404 87.0756 71.6404 89.4226V218.397H71.6387Z" fill="white"/>
<path d="M313.451 227.487V242.129C313.451 249.494 306.81 255.517 298.693 255.517H77.3085C69.1909 255.517 62.5503 249.494 62.5503 242.129V227.487H313.452H313.451Z" fill="white"/>
<path d="M188 245.527C190.546 245.527 192.61 243.464 192.61 240.918C192.61 238.371 190.546 236.308 188 236.308C185.455 236.308 183.391 238.371 183.391 240.918C183.391 243.464 185.455 245.527 188 245.527Z" fill="#B6B6B8"/>
<path d="M216.936 276.58L238.224 283.401H137.774L154.95 276.58V255.518H216.936V276.58H216.936Z" fill="#C2C2C4"/>
<path d="M154.951 276.58H216.937L238.224 283.4V286.338H188.001H137.776V283.4L154.951 276.58Z" fill="#ECF0F1"/>
<path d="M154.951 255.517H216.937V276.578L154.951 255.517Z" fill="#919191"/>
<path d="M109.671 101.909H108.016V106.872H109.671V101.909Z" fill="white"/>
<path d="M152.615 118.184H150.959V123.147H152.615V118.184Z" fill="white"/>
<path d="M109.671 164.117H108.016V169.08H109.671V164.117Z" fill="white"/>
<path d="M152.615 180.398H150.959V185.361H152.615V180.398Z" fill="white"/>
<path d="M238.225 98.2557H186.547V106.917H238.225V98.2557Z" fill="#36474F" stroke="#36474F" stroke-width="0.131376" stroke-linecap="round" stroke-linejoin="round"/>
<path d="M238.225 106.919H186.547V150.301H238.225V106.919Z" fill="#E0E0E0" stroke="#E0E0E0" stroke-width="0.131376" stroke-linecap="round" stroke-linejoin="round"/>
<path fill-rule="evenodd" clip-rule="evenodd" d="M191.717 100.618C192.229 100.621 192.721 100.827 193.083 101.192C193.446 101.558 193.65 102.052 193.653 102.568C193.655 102.824 193.606 103.079 193.509 103.316C193.412 103.554 193.27 103.769 193.09 103.951C192.91 104.133 192.696 104.277 192.46 104.374C192.224 104.473 191.972 104.522 191.717 104.521C191.203 104.517 190.713 104.31 190.351 103.944C189.989 103.578 189.785 103.084 189.783 102.568C189.792 102.055 189.998 101.564 190.359 101.201C190.72 100.837 191.206 100.628 191.717 100.618Z" fill="#FF0C3E"/>
<path d="M191.717 99.795C192.083 99.7906 192.447 99.8618 192.786 100.003C193.125 100.144 193.432 100.353 193.688 100.617C194.192 101.139 194.473 101.839 194.47 102.567C194.474 103.307 194.194 104.019 193.688 104.556C193.156 105.063 192.45 105.345 191.717 105.342C190.995 105.345 190.301 105.062 189.784 104.556C189.521 104.297 189.312 103.988 189.171 103.646C189.03 103.304 188.96 102.937 188.964 102.567C188.961 102.203 189.032 101.842 189.173 101.507C189.314 101.171 189.522 100.869 189.784 100.617C190.033 100.354 190.332 100.145 190.665 100.004C190.998 99.8626 191.355 99.7913 191.717 99.795ZM192.498 101.781C192.285 101.585 192.005 101.477 191.717 101.481C191.429 101.485 191.152 101.591 190.935 101.781C190.744 101.998 190.639 102.277 190.636 102.567C190.633 102.859 190.739 103.141 190.935 103.356C191.148 103.556 191.425 103.675 191.717 103.692C192.01 103.684 192.289 103.563 192.498 103.356C192.707 103.146 192.827 102.864 192.835 102.567C192.819 102.273 192.7 101.994 192.498 101.781Z" fill="#FF0C3E"/>
<path fill-rule="evenodd" clip-rule="evenodd" d="M198.723 100.618C199.235 100.627 199.721 100.836 200.082 101.2C200.443 101.563 200.649 102.055 200.656 102.568C200.656 103.084 200.452 103.579 200.09 103.945C199.728 104.311 199.237 104.518 198.723 104.521C198.469 104.522 198.216 104.473 197.98 104.374C197.745 104.277 197.531 104.133 197.351 103.951C197.171 103.769 197.029 103.553 196.933 103.316C196.837 103.079 196.788 102.824 196.791 102.568C196.792 102.052 196.996 101.558 197.358 101.193C197.72 100.827 198.211 100.621 198.723 100.618Z" fill="#FFD514"/>
<path d="M198.723 99.7949C199.085 99.7913 199.442 99.8625 199.775 100.003C200.108 100.145 200.408 100.354 200.657 100.617C200.918 100.869 201.126 101.171 201.267 101.507C201.408 101.842 201.48 102.203 201.477 102.567C201.481 102.937 201.41 103.304 201.269 103.646C201.128 103.987 200.92 104.297 200.657 104.556C200.139 105.062 199.445 105.345 198.723 105.342C197.99 105.345 197.284 105.063 196.752 104.556C196.247 104.018 195.967 103.306 195.97 102.567C195.968 101.839 196.249 101.14 196.752 100.617C197.009 100.353 197.316 100.144 197.654 100.003C197.993 99.8618 198.357 99.7913 198.723 99.7949ZM199.506 101.781C199.29 101.589 199.012 101.483 198.723 101.481C198.435 101.478 198.156 101.585 197.942 101.781C197.742 101.995 197.624 102.273 197.608 102.567C197.617 102.863 197.736 103.144 197.942 103.356C198.152 103.562 198.43 103.682 198.723 103.692C199.016 103.675 199.292 103.556 199.506 103.356C199.701 103.141 199.807 102.859 199.804 102.567C199.801 102.277 199.696 101.998 199.506 101.781Z" fill="#FFD514"/>
<path fill-rule="evenodd" clip-rule="evenodd" d="M205.671 100.618C206.184 100.622 206.674 100.829 207.036 101.194C207.398 101.559 207.602 102.052 207.604 102.568C207.606 102.824 207.558 103.079 207.462 103.316C207.365 103.553 207.224 103.769 207.044 103.951C206.864 104.133 206.65 104.277 206.414 104.374C206.179 104.473 205.926 104.522 205.671 104.521C205.419 104.518 205.169 104.466 204.937 104.367C204.705 104.267 204.494 104.123 204.318 103.941C204.141 103.76 204.002 103.545 203.908 103.31C203.814 103.074 203.768 102.822 203.771 102.568C203.771 102.058 203.97 101.568 204.326 101.203C204.681 100.839 205.164 100.629 205.671 100.618Z" fill="#00E871"/>
<path d="M205.671 99.795C206.037 99.7913 206.4 99.8618 206.739 100.003C207.077 100.145 207.384 100.353 207.64 100.617C208.155 101.134 208.449 101.834 208.46 102.567C208.451 103.311 208.157 104.024 207.64 104.556C207.108 105.063 206.403 105.345 205.671 105.342C204.948 105.345 204.253 105.063 203.734 104.556C203.472 104.297 203.264 103.988 203.123 103.646C202.982 103.304 202.911 102.937 202.914 102.567C202.911 102.203 202.983 101.842 203.124 101.507C203.265 101.171 203.473 100.869 203.734 100.617C203.984 100.354 204.285 100.145 204.618 100.004C204.951 99.8618 205.309 99.7906 205.671 99.795ZM206.449 101.781C206.237 101.585 205.959 101.477 205.671 101.481C205.533 101.479 205.396 101.505 205.268 101.556C205.14 101.607 205.023 101.684 204.925 101.781C204.819 101.882 204.735 102.004 204.677 102.139C204.619 102.274 204.59 102.42 204.591 102.567C204.586 102.715 204.614 102.862 204.672 102.998C204.73 103.135 204.815 103.257 204.925 103.356C205.12 103.562 205.388 103.684 205.671 103.692C205.963 103.683 206.241 103.562 206.449 103.356C206.657 103.146 206.778 102.864 206.787 102.567C206.77 102.273 206.651 101.994 206.449 101.781Z" fill="#00E871"/>
<path d="M226.913 111.718H191.084V116.293H226.913V111.718Z" fill="#FAFAFA" stroke="#FAFAFA" stroke-width="0.131376" stroke-linecap="round" stroke-linejoin="round"/>
<path d="M233.649 111.718H226.913V116.293H233.649V111.718Z" fill="#757575" stroke="#757575" stroke-width="0.131376" stroke-linecap="round" stroke-linejoin="round"/>
<path d="M191.084 120.528H215.64" stroke="#1086E8" stroke-width="0.131376" stroke-linecap="round" stroke-linejoin="round"/>
<path d="M191.084 125.479H225.986" stroke="#9E9E9E" stroke-width="0.131376" stroke-linecap="round" stroke-linejoin="round"/>
<path d="M191.084 130.466H225.986" stroke="#9E9E9E" stroke-width="0.131376" stroke-linecap="round" stroke-linejoin="round"/>
<path d="M191.084 135.525H215.64" stroke="#1086E8" stroke-width="0.131376" stroke-linecap="round" stroke-linejoin="round"/>
<path d="M191.084 140.517H225.986" stroke="#9E9E9E" stroke-width="0.131376" stroke-linecap="round" stroke-linejoin="round"/>
<path d="M191.084 145.501H225.986" stroke="#9E9E9E" stroke-width="0.131376" stroke-linecap="round" stroke-linejoin="round"/>
<path d="M292.41 164.761H242.468V206.691H292.41V164.761Z" fill="#E0E0E0"/>
<path d="M293.275 164.758V206.688C293.272 206.917 293.181 207.138 293.019 207.301C292.857 207.464 292.639 207.557 292.41 207.56H242.468C242.239 207.553 242.023 207.459 241.861 207.297C241.7 207.135 241.606 206.917 241.6 206.688V164.758C241.606 164.529 241.7 164.311 241.861 164.148C242.023 163.986 242.239 163.891 242.468 163.885H292.41C292.639 163.888 292.857 163.981 293.019 164.144C293.181 164.307 293.272 164.527 293.275 164.758ZM291.506 205.814V165.631H243.333V205.814H291.506Z" fill="#E0E0E0"/>
<path d="M292.41 156.395H242.468V164.759H292.41V156.395Z" fill="#36474F"/>
<path d="M242.468 155.495H292.41C292.642 155.503 292.862 155.602 293.023 155.769C293.184 155.937 293.275 156.162 293.275 156.395V164.76C293.272 164.99 293.181 165.21 293.019 165.373C292.857 165.536 292.639 165.629 292.41 165.632H242.468C242.239 165.626 242.023 165.532 241.861 165.37C241.7 165.207 241.606 164.989 241.6 164.76V156.395C241.6 156.161 241.69 155.936 241.852 155.768C242.015 155.6 242.235 155.502 242.468 155.495ZM291.506 157.277H243.333V163.896H291.506V157.277Z" fill="#36474F"/>
<path fill-rule="evenodd" clip-rule="evenodd" d="M248.422 158.688C248.669 158.687 248.914 158.734 249.143 158.829C249.371 158.923 249.579 159.063 249.754 159.238C249.928 159.414 250.067 159.623 250.16 159.854C250.253 160.083 250.301 160.329 250.299 160.578C250.296 161.079 250.098 161.557 249.746 161.911C249.395 162.265 248.919 162.465 248.422 162.468C247.927 162.459 247.454 162.256 247.105 161.904C246.754 161.551 246.554 161.076 246.546 160.578C246.547 160.078 246.746 159.599 247.097 159.245C247.448 158.891 247.925 158.69 248.422 158.688Z" fill="#FF0C3E"/>
<path d="M248.422 157.895C249.134 157.892 249.819 158.167 250.334 158.66C250.824 159.18 251.095 159.87 251.092 160.586C251.095 161.292 250.822 161.97 250.334 162.476C250.086 162.732 249.788 162.936 249.459 163.073C249.131 163.21 248.778 163.28 248.422 163.277C248.071 163.28 247.724 163.211 247.401 163.073C247.078 162.935 246.787 162.732 246.546 162.476C246.292 162.233 246.09 161.939 245.953 161.614C245.817 161.289 245.748 160.939 245.752 160.586C245.748 160.227 245.816 159.872 245.953 159.542C246.089 159.21 246.291 158.911 246.546 158.66C247.047 158.167 247.721 157.892 248.422 157.895ZM249.179 159.821C248.977 159.621 248.706 159.504 248.422 159.494C248.139 159.509 247.87 159.625 247.664 159.821C247.471 160.028 247.364 160.302 247.366 160.586C247.37 160.868 247.476 161.139 247.664 161.348C247.872 161.538 248.142 161.644 248.422 161.648C248.704 161.649 248.975 161.542 249.179 161.348C249.375 161.141 249.49 160.871 249.505 160.586C249.495 160.299 249.379 160.026 249.179 159.821Z" fill="#FF0C3E"/>
<path fill-rule="evenodd" clip-rule="evenodd" d="M255.208 158.688C255.706 158.69 256.182 158.891 256.533 159.245C256.885 159.599 257.083 160.078 257.085 160.578C257.076 161.076 256.876 161.551 256.526 161.904C256.176 162.256 255.703 162.459 255.208 162.468C254.711 162.465 254.235 162.265 253.884 161.911C253.533 161.557 253.334 161.079 253.332 160.578C253.33 160.329 253.377 160.083 253.471 159.854C253.564 159.623 253.702 159.414 253.877 159.238C254.052 159.063 254.259 158.923 254.487 158.829C254.716 158.734 254.961 158.687 255.208 158.688Z" fill="#FFD514"/>
<path d="M255.208 157.895C255.91 157.892 256.583 158.167 257.085 158.66C257.339 158.911 257.54 159.21 257.677 159.542C257.813 159.873 257.881 160.228 257.878 160.586C257.881 160.939 257.812 161.289 257.676 161.614C257.539 161.939 257.338 162.232 257.085 162.476C256.843 162.732 256.552 162.935 256.229 163.073C255.907 163.211 255.559 163.28 255.208 163.277C254.852 163.28 254.499 163.211 254.171 163.074C253.842 162.936 253.544 162.732 253.296 162.476C252.808 161.97 252.536 161.292 252.538 160.586C252.535 159.87 252.806 159.18 253.296 158.66C253.812 158.166 254.497 157.892 255.208 157.895ZM255.966 159.821C255.761 159.623 255.493 159.504 255.208 159.485C254.923 159.494 254.653 159.611 254.45 159.812C254.25 160.017 254.133 160.29 254.125 160.577C254.141 160.862 254.256 161.132 254.45 161.339C254.655 161.534 254.926 161.641 255.208 161.639C255.489 161.634 255.758 161.528 255.966 161.339C256.153 161.129 256.259 160.859 256.264 160.577C256.265 160.294 256.158 160.02 255.966 159.812V159.821Z" fill="#FFD514"/>
<path fill-rule="evenodd" clip-rule="evenodd" d="M261.953 158.688C262.2 158.687 262.445 158.734 262.673 158.829C262.902 158.923 263.109 159.063 263.284 159.238C263.459 159.414 263.597 159.623 263.69 159.854C263.784 160.083 263.831 160.329 263.829 160.578C263.827 161.079 263.629 161.557 263.277 161.911C262.926 162.265 262.45 162.465 261.953 162.468C261.462 162.457 260.994 162.254 260.65 161.9C260.306 161.547 260.113 161.073 260.113 160.578C260.109 160.332 260.154 160.089 260.245 159.86C260.336 159.632 260.471 159.424 260.642 159.248C260.813 159.073 261.017 158.933 261.242 158.836C261.467 158.74 261.708 158.69 261.953 158.688Z" fill="#00E871"/>
<path d="M261.953 157.895C262.662 157.891 263.344 158.162 263.859 158.651C264.36 159.167 264.645 159.857 264.655 160.577C264.644 161.287 264.359 161.965 263.859 162.467C263.61 162.724 263.313 162.927 262.985 163.065C262.656 163.202 262.302 163.271 261.947 163.268C261.596 163.271 261.249 163.202 260.926 163.064C260.603 162.926 260.312 162.724 260.071 162.467C259.572 161.965 259.287 161.287 259.277 160.577C259.286 159.857 259.571 159.167 260.071 158.651C260.574 158.159 261.251 157.888 261.953 157.895ZM262.711 159.821C262.612 159.718 262.495 159.636 262.365 159.58C262.234 159.525 262.095 159.495 261.953 159.494C261.679 159.504 261.42 159.622 261.231 159.821C261.125 159.917 261.042 160.036 260.986 160.168C260.929 160.3 260.902 160.443 260.906 160.587C260.906 160.729 260.934 160.87 260.99 161.001C261.046 161.132 261.128 161.25 261.231 161.348C261.325 161.444 261.437 161.52 261.561 161.571C261.686 161.623 261.819 161.649 261.953 161.648C262.092 161.653 262.232 161.629 262.363 161.577C262.493 161.526 262.611 161.447 262.711 161.348C262.814 161.25 262.897 161.132 262.952 161.001C263.008 160.87 263.037 160.729 263.035 160.587C263.04 160.443 263.013 160.3 262.957 160.168C262.9 160.036 262.817 159.917 262.711 159.821Z" fill="#00E871"/>
<path fill-rule="evenodd" clip-rule="evenodd" d="M247.628 170.177H258.192C258.246 170.175 258.301 170.183 258.352 170.201C258.404 170.219 258.452 170.248 258.492 170.285C258.532 170.322 258.565 170.368 258.587 170.418C258.61 170.468 258.623 170.522 258.624 170.577V178.296C258.621 178.41 258.574 178.519 258.493 178.598C258.413 178.678 258.305 178.723 258.192 178.725H247.62C247.507 178.718 247.401 178.668 247.321 178.588C247.242 178.507 247.194 178.4 247.187 178.287V170.577C247.196 170.468 247.246 170.366 247.326 170.292C247.406 170.219 247.511 170.177 247.62 170.177H247.628Z" fill="#B91912"/>
<path fill-rule="evenodd" clip-rule="evenodd" d="M262.135 170.177H272.742C272.847 170.179 272.947 170.221 273.021 170.296C273.096 170.37 273.137 170.47 273.139 170.576V178.295C273.14 178.405 273.099 178.511 273.026 178.592C272.952 178.673 272.851 178.723 272.742 178.734H262.135C262.026 178.724 261.924 178.674 261.85 178.593C261.776 178.512 261.735 178.405 261.735 178.295V170.585C261.737 170.479 261.78 170.378 261.854 170.304C261.929 170.229 262.029 170.187 262.135 170.186V170.177Z" fill="#C82620"/>
<path fill-rule="evenodd" clip-rule="evenodd" d="M276.686 170.178H287.249C287.354 170.179 287.454 170.222 287.528 170.296C287.602 170.371 287.645 170.472 287.646 170.578V178.297C287.647 178.407 287.606 178.513 287.533 178.594C287.459 178.676 287.358 178.726 287.249 178.734H276.686C276.569 178.736 276.458 178.69 276.374 178.608C276.291 178.526 276.243 178.414 276.242 178.297V170.586C276.242 170.53 276.254 170.473 276.278 170.422C276.3 170.37 276.334 170.324 276.375 170.285C276.417 170.247 276.466 170.218 276.52 170.199C276.573 170.181 276.629 170.174 276.686 170.178Z" fill="#D52D28"/>
<path fill-rule="evenodd" clip-rule="evenodd" d="M247.628 181.451H258.192C258.246 181.448 258.301 181.456 258.352 181.474C258.404 181.493 258.452 181.521 258.492 181.558C258.532 181.595 258.565 181.64 258.587 181.691C258.61 181.741 258.623 181.795 258.624 181.85V189.561C258.626 189.618 258.616 189.676 258.596 189.729C258.574 189.783 258.543 189.831 258.502 189.873C258.461 189.914 258.413 189.945 258.359 189.967C258.306 189.988 258.249 189.997 258.192 189.995H247.62C247.505 189.994 247.396 189.947 247.315 189.865C247.233 189.783 247.188 189.673 247.187 189.558V181.847C247.195 181.738 247.245 181.636 247.325 181.562C247.405 181.488 247.511 181.447 247.62 181.448L247.628 181.451Z" fill="#006065"/>
<path fill-rule="evenodd" clip-rule="evenodd" d="M262.135 181.451H272.743C272.848 181.452 272.948 181.494 273.022 181.569C273.096 181.643 273.138 181.745 273.139 181.85V189.561C273.142 189.615 273.134 189.67 273.116 189.722C273.097 189.773 273.069 189.821 273.032 189.862C272.994 189.902 272.95 189.934 272.9 189.958C272.851 189.981 272.797 189.993 272.743 189.995H262.135C262.08 189.994 262.026 189.981 261.975 189.958C261.925 189.935 261.88 189.902 261.843 189.862C261.805 189.82 261.777 189.773 261.758 189.721C261.74 189.668 261.732 189.613 261.735 189.558V181.847C261.736 181.741 261.778 181.64 261.853 181.565C261.928 181.49 262.029 181.448 262.135 181.448V181.451Z" fill="#008390"/>
<path fill-rule="evenodd" clip-rule="evenodd" d="M276.686 181.453H287.248C287.353 181.454 287.454 181.496 287.528 181.571C287.602 181.645 287.645 181.747 287.646 181.852V189.562C287.649 189.617 287.64 189.672 287.621 189.724C287.603 189.776 287.574 189.823 287.538 189.863C287.501 189.904 287.456 189.937 287.406 189.959C287.357 189.983 287.303 189.995 287.248 189.997H276.686C276.628 190 276.571 189.989 276.517 189.968C276.463 189.947 276.414 189.914 276.373 189.873C276.333 189.832 276.3 189.784 276.279 189.729C276.258 189.675 276.248 189.617 276.25 189.559V181.849C276.253 181.794 276.266 181.74 276.289 181.69C276.312 181.641 276.345 181.596 276.385 181.559C276.426 181.522 276.474 181.494 276.525 181.476C276.576 181.457 276.631 181.45 276.686 181.453Z" fill="#0097A8"/>
<path fill-rule="evenodd" clip-rule="evenodd" d="M247.628 192.729H258.192C258.306 192.73 258.416 192.776 258.496 192.857C258.577 192.939 258.623 193.049 258.624 193.164V200.874C258.623 200.929 258.61 200.984 258.587 201.034C258.565 201.084 258.532 201.128 258.492 201.166C258.452 201.203 258.404 201.232 258.352 201.25C258.301 201.269 258.246 201.277 258.192 201.273H247.62C247.511 201.275 247.405 201.233 247.325 201.16C247.245 201.086 247.195 200.984 247.187 200.874V193.164C247.194 193.051 247.242 192.945 247.321 192.864C247.401 192.784 247.507 192.736 247.62 192.729H247.628Z" fill="#FF6F00"/>
<path fill-rule="evenodd" clip-rule="evenodd" d="M262.135 192.729H272.742C272.851 192.738 272.952 192.788 273.025 192.868C273.099 192.949 273.14 193.055 273.139 193.164V200.874C273.138 200.98 273.096 201.081 273.022 201.156C272.948 201.231 272.847 201.272 272.742 201.273H262.135C262.029 201.273 261.928 201.231 261.853 201.156C261.778 201.082 261.736 200.98 261.735 200.874V193.164C261.735 193.054 261.776 192.948 261.85 192.867C261.924 192.787 262.026 192.737 262.135 192.729Z" fill="#FF9000"/>
<path fill-rule="evenodd" clip-rule="evenodd" d="M276.686 192.729H287.249C287.358 192.737 287.459 192.787 287.533 192.867C287.606 192.948 287.647 193.055 287.646 193.164V200.874C287.645 200.98 287.603 201.081 287.529 201.156C287.454 201.231 287.354 201.272 287.249 201.273H276.686C276.632 201.277 276.577 201.269 276.524 201.25C276.473 201.232 276.425 201.203 276.385 201.166C276.344 201.129 276.311 201.084 276.289 201.034C276.265 200.984 276.253 200.929 276.25 200.874V193.164C276.252 193.049 276.299 192.939 276.38 192.857C276.461 192.776 276.571 192.73 276.686 192.729Z" fill="#FFA100"/>
<path d="M167.105 140.598H166.436V139.93C166.436 139.567 166.131 139.262 165.768 139.262C165.405 139.262 165.1 139.567 165.1 139.93V140.598H164.431C164.069 140.598 163.763 140.904 163.763 141.267C163.763 141.629 164.069 141.935 164.431 141.935H165.1V142.602C165.1 142.965 165.405 143.271 165.768 143.271C166.131 143.271 166.436 142.965 166.436 142.602V141.935H167.105C167.467 141.935 167.772 141.629 167.772 141.267C167.772 140.904 167.467 140.598 167.105 140.598Z" fill="#4E9BD4"/>
<path d="M152.193 152.608L159.2 130.347C160.174 127.254 158.895 124.104 156.356 123.302L147.077 120.38C144.537 119.579 141.673 121.43 140.7 124.524L133.693 146.785L152.193 152.608ZM133.693 146.843L126.934 168.303C125.999 171.281 127.297 174.355 129.836 175.157L139.115 178.078C141.654 178.88 144.48 177.104 145.416 174.125L152.174 152.666L133.693 146.843Z" fill="white"/>
<path d="M156.241 153.888L163.248 131.626C164.222 128.533 162.943 125.383 160.403 124.581L151.124 121.66C148.585 120.858 145.721 122.71 144.748 125.803L137.74 148.065L156.241 153.888Z" fill="#3769A5"/>
<path d="M137.741 148.121L130.981 169.581C130.046 172.56 131.344 175.634 133.884 176.435L143.163 179.356C145.702 180.158 148.528 178.383 149.463 175.405L156.222 153.926L137.741 148.121Z" fill="#CF316A"/>
<path d="M152.976 152.857L159.983 130.595C160.956 127.502 159.83 124.391 157.463 123.646L148.814 120.916C146.447 120.171 143.735 122.08 142.762 125.174L135.755 147.435L152.976 152.857Z" fill="#4E9BD4"/>
<path d="M135.736 147.492L128.977 168.952C128.041 171.93 129.206 174.946 131.573 175.691L140.222 178.422C142.59 179.166 145.282 177.352 146.218 174.374L152.976 152.914L135.736 147.492Z" fill="#F05F88"/>
<path d="M129.168 168.34L128.977 168.932C128.041 171.91 129.206 174.927 131.573 175.671L140.222 178.402C142.59 179.146 145.282 177.333 146.218 174.354L146.408 173.762L129.168 168.34Z" fill="#EE3C7A"/>
<path d="M159.868 130.977L160.059 130.385C160.995 127.406 159.83 124.389 157.462 123.645L148.814 120.914C146.447 120.169 143.754 121.983 142.819 124.962L142.628 125.554L159.868 130.977Z" fill="#4077BB"/>
<path d="M132.872 165.342C132.815 165.342 132.738 165.323 132.662 165.304C132.318 165.19 132.108 164.827 132.223 164.464L133.617 160.053C133.731 159.71 134.113 159.5 134.457 159.615C134.801 159.73 135.011 160.092 134.896 160.454L133.502 164.865C133.426 165.151 133.158 165.342 132.872 165.342Z" fill="white"/>
<path d="M163.878 126.451C163.019 124.789 161.549 123.567 159.754 122.995L148.47 119.444C146.676 118.89 144.786 119.043 143.125 119.921C141.463 120.78 140.241 122.25 139.669 124.045L136.901 132.846C136.71 133.457 137.054 134.087 137.645 134.278C138.256 134.469 138.886 134.125 139.077 133.534L141.845 124.732C142.227 123.529 143.048 122.536 144.175 121.964C145.301 121.372 146.581 121.276 147.783 121.639L159.066 125.19C160.269 125.572 161.262 126.393 161.835 127.52C162.427 128.646 162.522 129.925 162.16 131.128L155.439 152.473L136.137 146.402C135.679 146.268 135.201 146.421 134.915 146.765L136.423 141.972C136.576 141.476 136.385 140.979 135.984 140.693C136.481 140.693 136.92 140.388 137.073 139.892L138.351 135.787C138.542 135.176 138.198 134.546 137.607 134.355C136.996 134.164 136.366 134.507 136.175 135.099L134.896 139.204C134.743 139.682 134.934 140.197 135.335 140.484C134.839 140.484 134.38 140.789 134.228 141.285L125.884 167.786C125.331 169.58 125.483 171.471 126.362 173.131C127.22 174.792 128.69 176.014 130.485 176.587L141.769 180.138C142.456 180.349 143.182 180.463 143.888 180.463C144.996 180.463 146.103 180.196 147.134 179.661C148.795 178.802 150.017 177.332 150.59 175.537L152.976 167.938C153.091 167.556 152.995 167.155 152.766 166.869C153.129 166.774 153.434 166.487 153.549 166.105L157.272 154.306C157.272 154.287 157.291 154.268 157.291 154.249C157.311 154.211 157.311 154.172 157.311 154.153L164.355 131.816C164.909 130.002 164.737 128.112 163.878 126.451ZM151.353 165.399C151.239 165.781 151.334 166.182 151.563 166.468C151.201 166.564 150.895 166.85 150.78 167.232L148.394 174.83C147.611 177.313 144.958 178.706 142.456 177.924L131.173 174.372C129.97 173.99 128.977 173.169 128.404 172.043C127.812 170.917 127.717 169.638 128.079 168.435L134.648 147.567C134.686 148.006 134.991 148.407 135.45 148.56L154.733 154.631L151.353 165.399Z" fill="black"/>
<path d="M144.652 127.903C144.595 127.903 144.518 127.884 144.461 127.865C144.117 127.75 143.907 127.388 144.022 127.025C144.709 124.848 147.039 123.627 149.215 124.314C149.558 124.428 149.768 124.791 149.654 125.154C149.539 125.497 149.176 125.707 148.814 125.593C147.344 125.135 145.759 125.956 145.301 127.426C145.206 127.712 144.938 127.903 144.652 127.903ZM143.869 130.385C143.793 130.385 143.735 130.366 143.659 130.347C143.315 130.233 143.124 129.851 143.239 129.507L143.487 128.762C143.602 128.419 143.984 128.228 144.327 128.342C144.671 128.457 144.862 128.839 144.747 129.182L144.499 129.927C144.404 130.214 144.155 130.385 143.869 130.385ZM125.178 180.025V173.305C125.178 172.083 126.171 171.09 127.392 171.09H153.205C154.427 171.09 155.42 172.083 155.42 173.305V180.025C155.42 181.247 154.427 182.24 153.205 182.24H127.392C126.171 182.24 125.178 181.247 125.178 180.025Z" fill="white"/>
<path d="M125.178 188.292V181.571C125.178 180.349 126.171 179.356 127.392 179.356H153.205C154.427 179.356 155.42 180.349 155.42 181.571V188.292C155.42 189.514 154.427 190.506 153.205 190.506H127.392C126.171 190.506 125.178 189.514 125.178 188.292Z" fill="#3769A5"/>
<path d="M125.178 183.633V176.912C125.178 175.691 126.171 174.698 127.392 174.698H153.205C154.427 174.698 155.42 175.691 155.42 176.912V183.633C155.42 184.855 154.427 185.848 153.205 185.848H127.392C126.171 185.848 125.178 184.855 125.178 183.633Z" fill="#4E9BD4"/>
<path d="M145.74 180.809C145.74 183.099 143.888 184.952 141.597 184.952H125.178V176.685H141.597C143.888 176.666 145.74 178.518 145.74 180.809Z" fill="white"/>
<path d="M140.241 182.43C140.241 182.593 140.306 182.748 140.42 182.862C140.535 182.977 140.691 183.041 140.852 183.041C141.015 183.041 141.169 182.977 141.284 182.862C141.399 182.748 141.463 182.593 141.463 182.43C141.463 182.268 141.399 182.113 141.284 181.999C141.169 181.884 141.015 181.819 140.852 181.819C140.691 181.819 140.535 181.884 140.42 181.999C140.306 182.113 140.241 182.268 140.241 182.43Z" fill="black"/>
<path d="M153.205 170.211H127.392C125.541 170.211 124.032 171.72 124.032 173.572V188.044C124.032 189.895 125.541 191.404 127.392 191.404H153.205C155.057 191.404 156.566 189.895 156.566 188.044V173.572C156.566 171.72 155.057 170.211 153.205 170.211ZM126.323 180.96H144.595C144.518 182.545 143.201 183.805 141.597 183.805H126.323V180.96ZM126.323 178.669V177.829H141.635C142.418 177.829 143.144 178.134 143.697 178.669H126.323ZM154.275 188.044C154.275 188.184 154.247 188.323 154.194 188.453C154.14 188.583 154.061 188.701 153.962 188.8C153.863 188.9 153.744 188.978 153.614 189.032C153.485 189.085 153.346 189.113 153.205 189.113H127.392C127.252 189.113 127.113 189.085 126.983 189.032C126.853 188.978 126.735 188.9 126.636 188.8C126.536 188.701 126.458 188.583 126.404 188.453C126.351 188.323 126.323 188.184 126.323 188.044V186.097H141.597C144.518 186.097 146.886 183.729 146.886 180.808C146.886 179.395 146.332 178.059 145.32 177.066C144.327 176.092 143.029 175.538 141.635 175.538H126.323V173.572C126.323 173.431 126.351 173.292 126.404 173.163C126.458 173.033 126.536 172.914 126.636 172.815C126.735 172.716 126.853 172.637 126.983 172.583C127.113 172.53 127.252 172.503 127.392 172.503H153.205C153.346 172.503 153.485 172.53 153.614 172.583C153.744 172.637 153.863 172.716 153.962 172.815C154.061 172.914 154.14 173.033 154.194 173.163C154.247 173.292 154.275 173.431 154.275 173.572V188.044Z" fill="black"/>
<path d="M128.614 188.731C128.251 188.731 127.946 188.425 127.946 188.062V186.058C127.946 185.695 128.251 185.389 128.614 185.389C128.977 185.389 129.282 185.695 129.282 186.058V188.062C129.282 188.425 128.977 188.731 128.614 188.731Z" fill="white"/>
<path d="M117.006 189.362C116.758 189.686 117.254 189.686 117.006 189.362V189.362Z" fill="white"/>
<path d="M127.335 168.874V125.935C127.335 119.024 121.722 113.411 114.81 113.411C107.899 113.411 102.286 119.024 102.286 125.935V169.16H102.381C102.248 169.351 102.248 169.638 102.4 169.848L117.006 189.379L119.85 183.48L127.335 168.874Z" fill="white"/>
<path d="M132.395 169.141H107.326V125.935C107.326 119.024 112.94 113.411 119.851 113.411C126.763 113.411 132.376 119.024 132.376 125.935L132.395 169.141Z" fill="#4EA33E"/>
<path d="M116.758 112.895C110.457 113.831 105.627 119.005 105.627 125.267V168.493H127.869V125.287C127.869 119.025 123.059 113.831 116.758 112.895Z" fill="#7FC344"/>
<path d="M127.869 130.614V125.288C127.869 119.025 123.04 113.833 116.739 112.916C110.438 113.852 105.608 119.025 105.608 125.288V130.614H127.869Z" fill="#5BBA47"/>
<path d="M131.879 168.875H105.627L114.925 183.462L117.77 189.361C117.521 189.685 118.018 189.685 117.77 189.361L132.376 169.829C132.681 169.448 132.395 168.875 131.879 168.875Z" fill="#FFE4B8"/>
<path d="M112.386 183.462L116.796 189.362C116.853 189.437 116.926 189.498 117.011 189.541C117.095 189.583 117.189 189.605 117.283 189.605C117.377 189.605 117.471 189.583 117.555 189.541C117.639 189.498 117.713 189.437 117.769 189.362L122.18 183.462H112.386Z" fill="#7FC344"/>
<path d="M127.87 168.875L120.786 183.462H122.696L131.783 170.612V168.875H127.87Z" fill="#E7D0A9"/>
<path d="M108.262 123.951C107.899 123.951 107.593 123.645 107.593 123.282C107.593 120.323 109.999 117.917 112.959 117.917C113.321 117.917 113.627 118.223 113.627 118.585C113.627 118.948 113.321 119.254 112.959 119.254C110.744 119.254 108.93 121.068 108.93 123.282C108.93 123.645 108.624 123.951 108.262 123.951Z" fill="white"/>
<path d="M102.267 137.62C102.897 137.62 103.412 137.105 103.412 136.475V131.931H128.996C129.626 131.931 130.141 131.416 130.141 130.786C130.141 130.156 129.626 129.64 128.996 129.64H103.412V127.75C103.412 120.113 109.636 113.889 117.274 113.889C124.91 113.889 131.134 120.113 131.134 127.75V155.205C131.134 155.835 131.65 156.351 132.28 156.351C132.91 156.351 133.426 155.835 133.426 155.205V127.75C133.426 118.853 126.171 111.598 117.274 111.598C108.376 111.598 101.121 118.853 101.121 127.75V136.475C101.121 137.105 101.637 137.62 102.267 137.62ZM132.299 156.675C131.669 156.675 131.153 157.19 131.153 157.82V167.366H105.627C104.997 167.366 104.482 167.882 104.482 168.512C104.482 169.142 104.997 169.658 105.627 169.658H131.02C130.867 170.288 130.6 170.899 130.199 171.433L117.769 188.234C117.598 188.444 117.387 188.483 117.274 188.483C117.159 188.483 116.968 188.444 116.815 188.253L104.386 171.452C103.756 170.593 103.412 169.562 103.412 168.512V146.06C103.412 145.43 102.897 144.914 102.267 144.914C101.637 144.914 101.121 145.43 101.121 146.06V168.512C101.121 170.058 101.598 171.529 102.534 172.808L114.963 189.609C115.498 190.354 116.338 190.774 117.255 190.774H117.274C118.19 190.774 119.03 190.354 119.602 189.609L132.032 172.808C132.948 171.548 133.426 170.058 133.426 168.531V157.839C133.431 157.689 133.406 157.537 133.351 157.396C133.297 157.255 133.215 157.126 133.11 157.017C133.005 156.909 132.878 156.823 132.74 156.764C132.6 156.705 132.45 156.675 132.299 156.675Z" fill="black"/>
<path d="M102.286 137.945C101.656 137.945 101.14 138.461 101.14 139.091V143.462C101.14 144.092 101.656 144.608 102.286 144.608C102.916 144.608 103.431 144.092 103.431 143.462V139.091C103.431 138.461 102.916 137.945 102.286 137.945Z" fill="black"/>
<path d="M108.262 127.463C107.899 127.463 107.593 127.157 107.593 126.794V125.744C107.593 125.381 107.899 125.076 108.262 125.076C108.624 125.076 108.93 125.381 108.93 125.744V126.794C108.93 127.157 108.624 127.463 108.262 127.463ZM108.262 164.998C107.899 164.998 107.593 164.692 107.593 164.33V158.068C107.593 157.705 107.899 157.399 108.262 157.399C108.624 157.399 108.93 157.705 108.93 158.068V164.33C108.93 164.692 108.624 164.998 108.262 164.998Z" fill="white"/>
<path d="M104.138 184.283H103.47V183.614C103.47 183.252 103.164 182.946 102.802 182.946C102.439 182.946 102.133 183.252 102.133 183.614V184.283H101.465C101.102 184.283 100.797 184.588 100.797 184.951C100.797 185.314 101.102 185.619 101.465 185.619H102.133V186.287C102.133 186.649 102.439 186.955 102.802 186.955C103.164 186.955 103.47 186.649 103.47 186.287V185.619H104.138C104.501 185.619 104.807 185.314 104.807 184.951C104.807 184.588 104.501 184.283 104.138 184.283ZM160.384 168.073C159.296 168.073 158.417 167.194 158.417 166.107C158.417 165.018 159.296 164.14 160.384 164.14C161.472 164.14 162.351 165.018 162.351 166.107C162.351 167.194 161.472 168.073 160.384 168.073ZM160.384 165.477C160.04 165.477 159.754 165.763 159.754 166.107C159.754 166.45 160.04 166.737 160.384 166.737C160.728 166.737 161.014 166.45 161.014 166.107C161.014 165.763 160.728 165.477 160.384 165.477Z" fill="#F16723"/>
<path d="M155.019 118.013C155.019 118.065 155.029 118.118 155.049 118.167C155.07 118.215 155.099 118.259 155.137 118.297C155.173 118.334 155.217 118.364 155.267 118.383C155.315 118.404 155.367 118.414 155.42 118.414C155.472 118.414 155.524 118.404 155.573 118.383C155.622 118.364 155.666 118.334 155.703 118.297C155.74 118.259 155.77 118.215 155.79 118.167C155.811 118.118 155.821 118.065 155.821 118.013C155.821 117.96 155.811 117.908 155.79 117.86C155.77 117.811 155.74 117.767 155.703 117.729C155.666 117.692 155.622 117.662 155.573 117.642C155.524 117.622 155.472 117.612 155.42 117.612C155.367 117.612 155.315 117.622 155.267 117.642C155.217 117.662 155.173 117.692 155.137 117.729C155.099 117.767 155.07 117.811 155.049 117.86C155.029 117.908 155.019 117.96 155.019 118.013Z" fill="black"/>
<path d="M96.8447 173.457C96.8447 173.509 96.855 173.561 96.8748 173.611C96.8947 173.659 96.9248 173.703 96.9615 173.741C96.999 173.778 97.043 173.807 97.0915 173.827C97.1407 173.848 97.1928 173.858 97.245 173.858C97.2978 173.858 97.35 173.848 97.3985 173.827C97.4477 173.807 97.4917 173.778 97.5292 173.741C97.5659 173.703 97.5953 173.659 97.6158 173.611C97.6357 173.561 97.6459 173.509 97.6459 173.457C97.6459 173.404 97.6357 173.352 97.6158 173.304C97.5953 173.255 97.5659 173.21 97.5292 173.173C97.4917 173.136 97.4477 173.106 97.3985 173.086C97.35 173.067 97.2978 173.055 97.245 173.055C97.1928 173.055 97.1407 173.067 97.0915 173.086C97.043 173.106 96.999 173.136 96.9615 173.173C96.9248 173.21 96.8947 173.255 96.8748 173.304C96.855 173.352 96.8447 173.404 96.8447 173.457Z" fill="black"/>
<path d="M162.102 155.223C162.102 155.276 162.112 155.328 162.133 155.377C162.153 155.426 162.182 155.47 162.22 155.508C162.257 155.544 162.301 155.574 162.35 155.594C162.398 155.615 162.45 155.625 162.503 155.625C162.556 155.625 162.608 155.615 162.657 155.594C162.705 155.574 162.749 155.544 162.786 155.508C162.824 155.47 162.853 155.426 162.873 155.377C162.894 155.328 162.904 155.276 162.904 155.223C162.904 155.171 162.894 155.119 162.873 155.07C162.853 155.021 162.824 154.977 162.786 154.94C162.749 154.903 162.705 154.873 162.657 154.853C162.608 154.833 162.556 154.822 162.503 154.822C162.45 154.822 162.398 154.833 162.35 154.853C162.301 154.873 162.257 154.903 162.22 154.94C162.182 154.977 162.153 155.021 162.133 155.07C162.112 155.119 162.102 155.171 162.102 155.223Z" fill="black"/>
<path d="M136.232 126.012C136.232 126.065 136.243 126.117 136.263 126.166C136.283 126.214 136.312 126.259 136.35 126.296C136.387 126.333 136.431 126.362 136.48 126.383C136.528 126.403 136.581 126.413 136.633 126.413C136.686 126.413 136.738 126.403 136.787 126.383C136.835 126.362 136.879 126.333 136.917 126.296C136.954 126.259 136.984 126.214 137.004 126.166C137.023 126.117 137.034 126.065 137.034 126.012C137.034 125.959 137.023 125.907 137.004 125.859C136.984 125.81 136.954 125.766 136.917 125.729C136.879 125.691 136.835 125.662 136.787 125.642C136.738 125.621 136.686 125.611 136.633 125.611C136.581 125.611 136.528 125.621 136.48 125.642C136.431 125.662 136.387 125.691 136.35 125.729C136.312 125.766 136.283 125.81 136.263 125.859C136.243 125.907 136.232 125.959 136.232 126.012Z" fill="black"/>
<path d="M163.171 179.814C163.171 179.867 163.182 179.919 163.202 179.967C163.222 180.016 163.251 180.06 163.289 180.097C163.326 180.135 163.37 180.164 163.419 180.184C163.467 180.205 163.519 180.215 163.572 180.215C163.625 180.215 163.677 180.205 163.726 180.184C163.774 180.164 163.818 180.135 163.856 180.097C163.893 180.06 163.923 180.016 163.942 179.967C163.963 179.919 163.973 179.867 163.973 179.814C163.973 179.761 163.963 179.709 163.942 179.66C163.923 179.612 163.893 179.567 163.856 179.53C163.818 179.493 163.774 179.464 163.726 179.443C163.677 179.423 163.625 179.413 163.572 179.413C163.519 179.413 163.467 179.423 163.419 179.443C163.37 179.464 163.326 179.493 163.289 179.53C163.251 179.567 163.222 179.612 163.202 179.66C163.182 179.709 163.171 179.761 163.171 179.814Z" fill="black"/>
<path d="M101.885 115.015C101.885 115.121 101.927 115.223 102.002 115.298C102.077 115.374 102.179 115.416 102.286 115.416C102.392 115.416 102.494 115.374 102.569 115.298C102.644 115.223 102.687 115.121 102.687 115.015C102.687 114.908 102.644 114.807 102.569 114.731C102.494 114.656 102.392 114.614 102.286 114.614C102.179 114.614 102.077 114.656 102.002 114.731C101.927 114.807 101.885 114.908 101.885 115.015Z" fill="black"/>
<path d="M152.976 116.409C152.976 116.567 153.039 116.717 153.149 116.828C153.26 116.939 153.411 117.001 153.568 117.001C153.725 117.001 153.876 116.939 153.987 116.828C154.097 116.717 154.16 116.567 154.16 116.409C154.16 116.252 154.097 116.102 153.987 115.991C153.876 115.88 153.725 115.818 153.568 115.818C153.411 115.818 153.26 115.88 153.149 115.991C153.039 116.102 152.976 116.252 152.976 116.409Z" fill="black"/>
<path d="M96.6538 139.091C96.6538 139.248 96.7155 139.398 96.8271 139.509C96.938 139.62 97.0886 139.683 97.2457 139.683C97.4021 139.683 97.5527 139.62 97.6636 139.509C97.7752 139.398 97.8376 139.248 97.8376 139.091C97.8376 138.933 97.7752 138.783 97.6636 138.672C97.5527 138.561 97.4021 138.499 97.2457 138.499C97.0886 138.499 96.938 138.561 96.8271 138.672C96.7155 138.783 96.6538 138.933 96.6538 139.091Z" fill="black"/>
<path d="M137.741 117.288C136.481 117.288 135.469 116.276 135.469 115.016C135.469 113.755 136.481 112.743 137.741 112.743C139 112.743 140.012 113.755 140.012 115.016C140.012 116.276 139 117.288 137.741 117.288ZM137.741 114.08C137.225 114.08 136.805 114.5 136.805 115.016C136.805 115.531 137.225 115.951 137.741 115.951C138.256 115.951 138.676 115.531 138.676 115.016C138.676 114.5 138.256 114.08 137.741 114.08Z" fill="#FBD20A"/>
<path d="M97.2452 160.131C96.3677 160.131 95.6421 159.406 95.6421 158.527C95.6421 157.65 96.3677 156.924 97.2452 156.924C98.1236 156.924 98.8491 157.65 98.8491 158.527C98.8491 159.406 98.1236 160.131 97.2452 160.131ZM97.2452 158.26C97.0925 158.26 96.9779 158.375 96.9779 158.527C96.9779 158.68 97.0925 158.795 97.2452 158.795C97.398 158.795 97.5126 158.68 97.5126 158.527C97.5126 158.375 97.398 158.26 97.2452 158.26Z" fill="#4E9BD4"/>
</g>
</g>
<defs>
<clipPath id="clip0_21_2119">
<rect width="376" height="376" fill="white"/>
</clipPath>
</defs>
</svg>
