<svg width="512" height="512" viewBox="0 0 512 512" fill="none" xmlns="http://www.w3.org/2000/svg">
<path d="M66.2765 68.7002H445.724C458.191 68.7002 468.391 78.9004 468.391 91.367V325.111H43.6117V91.366C43.6117 78.8994 53.8119 68.6992 66.2785 68.6992H66.2765V68.7002Z" fill="#666666"/>
<path d="M58.9998 309.719H452.997V91.3646C452.997 87.3918 449.693 84.0879 445.723 84.0879H66.2765C62.3056 84.0879 59.0027 87.3918 59.0027 91.3646V309.719H58.9998Z" fill="white"/>
<path d="M468.388 325.107V349.896C468.388 362.365 457.146 372.563 443.403 372.563H68.5978C54.8551 372.563 43.6125 362.365 43.6125 349.896V325.107H468.39H468.388Z" fill="white"/>
<path d="M256 355.651C260.31 355.651 263.804 352.157 263.804 347.847C263.804 343.537 260.31 340.043 256 340.043C251.69 340.043 248.196 343.537 248.196 347.847C248.196 352.157 251.69 355.651 256 355.651Z" fill="#B6B6B8"/>
<path d="M304.99 408.222L341.029 419.77H170.968L200.046 408.222V372.564H304.988V408.222H304.99Z" fill="#C2C2C4"/>
<path d="M200.048 408.223H304.991L341.03 419.771V424.743H256.002H170.97V419.771L200.048 408.223Z" fill="#9AA5A8"/>
<path d="M200.048 372.564H304.991V408.222L200.048 372.564Z" fill="#919191"/>
<path d="M125.048 123.254H122.28V131.552H125.048V123.254Z" fill="white"/>
<path d="M196.843 150.463H194.075V158.761H196.843V150.463Z" fill="white"/>
<path d="M125.048 227.256H122.28V235.554H125.048V227.256Z" fill="white"/>
<path d="M196.843 254.475H194.075V262.772H196.843V254.475Z" fill="white"/>
<path d="M174.479 123.254H88.0836V137.734H174.479V123.254Z" fill="#36474F" stroke="#36474F" stroke-width="0.161295" stroke-linecap="round" stroke-linejoin="round"/>
<path d="M174.479 137.736H88.0836V210.262H174.479V137.736Z" fill="#E0E0E0" stroke="#E0E0E0" stroke-width="0.161295" stroke-linecap="round" stroke-linejoin="round"/>
<path fill-rule="evenodd" clip-rule="evenodd" d="M96.7262 127.203C97.5839 127.208 98.4048 127.554 99.0108 128.164C99.6168 128.775 99.9589 129.601 99.9628 130.463C99.9661 130.892 99.8848 131.317 99.7234 131.714C99.562 132.111 99.3239 132.472 99.0228 132.776C98.7218 133.08 98.3637 133.32 97.9695 133.484C97.5753 133.647 97.1527 133.73 96.7262 133.728C95.8686 133.722 95.0482 133.375 94.4431 132.764C93.8381 132.153 93.4972 131.326 93.4946 130.463C93.5087 129.605 93.8534 128.785 94.4561 128.177C95.0589 127.569 95.8727 127.22 96.7262 127.203V127.203Z" fill="#FF0C3E"/>
<path d="M96.7266 125.826C97.3399 125.82 97.9482 125.938 98.5147 126.174C99.0813 126.41 99.5944 126.76 100.023 127.201C100.866 128.074 101.335 129.244 101.33 130.461C101.337 131.697 100.869 132.889 100.023 133.786C99.1333 134.635 97.9526 135.105 96.7266 135.1C95.5199 135.104 94.3598 134.632 93.495 133.786C93.0553 133.354 92.7072 132.836 92.4715 132.264C92.2358 131.693 92.1174 131.08 92.1235 130.461C92.1187 129.852 92.2379 129.249 92.4738 128.688C92.7096 128.127 93.0572 127.621 93.495 127.201C93.911 126.761 94.4127 126.412 94.9686 126.176C95.5246 125.939 96.123 125.82 96.7266 125.826V125.826ZM98.0332 129.147C97.6772 128.818 97.2098 128.639 96.7266 128.645C96.2457 128.651 95.7827 128.829 95.42 129.147C95.1015 129.51 94.9244 129.977 94.9213 130.461C94.9146 130.948 95.0929 131.42 95.42 131.78C95.7771 132.115 96.2393 132.313 96.7266 132.342C97.2171 132.327 97.684 132.127 98.0332 131.78C98.3813 131.429 98.5829 130.957 98.5967 130.461C98.5701 129.969 98.3703 129.504 98.0332 129.147Z" fill="#FF0C3E"/>
<path fill-rule="evenodd" clip-rule="evenodd" d="M108.441 127.203C109.295 127.219 110.109 127.567 110.712 128.176C111.315 128.784 111.66 129.604 111.672 130.463C111.671 131.326 111.331 132.154 110.725 132.765C110.12 133.377 109.299 133.723 108.441 133.728C108.015 133.73 107.592 133.647 107.198 133.484C106.804 133.32 106.447 133.079 106.146 132.776C105.845 132.472 105.608 132.111 105.447 131.714C105.286 131.317 105.205 130.892 105.209 130.463C105.212 129.601 105.553 128.775 106.158 128.164C106.763 127.554 107.584 127.208 108.441 127.203V127.203Z" fill="#FFD514"/>
<path d="M108.441 125.826C109.045 125.82 109.643 125.939 110.199 126.175C110.755 126.412 111.257 126.761 111.673 127.201C112.11 127.621 112.458 128.127 112.694 128.688C112.93 129.249 113.049 129.852 113.044 130.461C113.05 131.079 112.932 131.693 112.696 132.264C112.46 132.836 112.112 133.354 111.673 133.786C110.808 134.632 109.648 135.104 108.441 135.1C107.215 135.105 106.035 134.634 105.145 133.786C104.301 132.888 103.833 131.697 103.838 130.461C103.835 129.244 104.303 128.075 105.145 127.201C105.574 126.76 106.087 126.411 106.653 126.175C107.22 125.939 107.828 125.82 108.441 125.826ZM109.748 129.147C109.387 128.826 108.922 128.648 108.441 128.645C107.958 128.64 107.491 128.819 107.134 129.147C106.801 129.505 106.603 129.97 106.576 130.461C106.59 130.956 106.79 131.427 107.134 131.78C107.485 132.125 107.951 132.325 108.441 132.342C108.929 132.315 109.391 132.116 109.748 131.78C110.075 131.42 110.253 130.948 110.246 130.461C110.243 129.977 110.066 129.51 109.748 129.147V129.147Z" fill="#FFD514"/>
<path fill-rule="evenodd" clip-rule="evenodd" d="M120.056 127.203C120.913 127.21 121.732 127.556 122.337 128.166C122.942 128.776 123.283 129.602 123.287 130.463C123.291 130.892 123.211 131.317 123.05 131.714C122.889 132.111 122.651 132.472 122.351 132.776C122.05 133.079 121.692 133.32 121.298 133.484C120.904 133.647 120.482 133.73 120.056 133.728C119.634 133.725 119.217 133.637 118.829 133.471C118.44 133.304 118.089 133.062 117.793 132.759C117.498 132.456 117.266 132.097 117.109 131.703C116.952 131.309 116.874 130.888 116.879 130.463C116.88 129.61 117.213 128.791 117.807 128.182C118.401 127.573 119.208 127.221 120.056 127.203V127.203Z" fill="#00E871"/>
<path d="M120.056 125.826C120.668 125.82 121.276 125.938 121.841 126.175C122.407 126.411 122.919 126.76 123.347 127.201C124.209 128.066 124.701 129.236 124.719 130.461C124.703 131.705 124.212 132.896 123.347 133.786C122.459 134.634 121.28 135.105 120.056 135.1C118.847 135.106 117.685 134.634 116.819 133.786C116.38 133.354 116.031 132.836 115.796 132.264C115.56 131.693 115.442 131.08 115.448 130.461C115.443 129.852 115.562 129.249 115.798 128.688C116.034 128.127 116.381 127.621 116.819 127.201C117.236 126.761 117.738 126.411 118.295 126.175C118.852 125.938 119.451 125.82 120.056 125.826V125.826ZM121.357 129.147C121.003 128.819 120.537 128.64 120.056 128.645C119.825 128.642 119.597 128.685 119.383 128.771C119.169 128.857 118.974 128.985 118.809 129.147C118.631 129.316 118.49 129.519 118.394 129.746C118.298 129.972 118.249 130.215 118.25 130.461C118.243 130.708 118.289 130.955 118.385 131.182C118.482 131.41 118.626 131.614 118.809 131.78C119.135 132.125 119.583 132.327 120.056 132.342C120.545 132.326 121.009 132.126 121.357 131.78C121.706 131.429 121.907 130.957 121.921 130.461C121.894 129.969 121.695 129.504 121.357 129.147Z" fill="#00E871"/>
<path d="M155.569 145.762H95.6692V153.411H155.569V145.762Z" fill="#FAFAFA" stroke="#FAFAFA" stroke-width="0.161295" stroke-linecap="round" stroke-linejoin="round"/>
<path d="M166.829 145.762H155.569V153.411H166.829V145.762Z" fill="#757575" stroke="#757575" stroke-width="0.161295" stroke-linecap="round" stroke-linejoin="round"/>
<path d="M95.6692 160.488H136.723" stroke="#1086E8" stroke-width="0.161295" stroke-linecap="round" stroke-linejoin="round"/>
<path d="M95.6692 168.768H154.018" stroke="#9E9E9E" stroke-width="0.161295" stroke-linecap="round" stroke-linejoin="round"/>
<path d="M95.6692 177.105H154.018" stroke="#9E9E9E" stroke-width="0.161295" stroke-linecap="round" stroke-linejoin="round"/>
<path d="M95.6692 185.562H136.723" stroke="#1086E8" stroke-width="0.161295" stroke-linecap="round" stroke-linejoin="round"/>
<path d="M95.6692 193.906H154.018" stroke="#9E9E9E" stroke-width="0.161295" stroke-linecap="round" stroke-linejoin="round"/>
<path d="M95.6692 202.238H154.018" stroke="#9E9E9E" stroke-width="0.161295" stroke-linecap="round" stroke-linejoin="round"/>
<path d="M265.066 205.18H181.573V275.278H265.066V205.18Z" fill="#E0E0E0"/>
<path d="M266.513 205.174V275.273C266.509 275.658 266.355 276.026 266.085 276.299C265.815 276.572 265.449 276.727 265.067 276.732H181.573C181.192 276.721 180.829 276.564 180.559 276.292C180.29 276.021 180.133 275.656 180.122 275.273V205.174C180.133 204.791 180.29 204.426 180.559 204.155C180.829 203.884 181.192 203.726 181.573 203.715H265.067C265.449 203.72 265.815 203.876 266.085 204.148C266.355 204.421 266.509 204.789 266.513 205.174V205.174ZM263.555 273.813V206.634H183.019V273.813H263.555Z" fill="#E0E0E0"/>
<path d="M265.066 191.193H181.573V205.177H265.066V191.193Z" fill="#36474F"/>
<path d="M181.573 189.689H265.067C265.455 189.702 265.822 189.867 266.092 190.148C266.362 190.428 266.513 190.804 266.513 191.194V191.194V205.178C266.509 205.563 266.355 205.931 266.085 206.204C265.815 206.476 265.449 206.632 265.067 206.637H181.573C181.192 206.626 180.829 206.469 180.559 206.197C180.29 205.926 180.133 205.561 180.122 205.178V191.194C180.122 190.803 180.273 190.427 180.544 190.146C180.815 189.865 181.184 189.701 181.573 189.689V189.689ZM263.555 192.669H183.019V203.733H263.555V192.669Z" fill="#36474F"/>
<path fill-rule="evenodd" clip-rule="evenodd" d="M191.528 195.027C191.941 195.025 192.35 195.105 192.732 195.263C193.114 195.421 193.462 195.653 193.753 195.947C194.045 196.241 194.276 196.591 194.433 196.975C194.589 197.36 194.668 197.772 194.664 198.187C194.661 199.023 194.329 199.824 193.742 200.415C193.154 201.007 192.359 201.342 191.528 201.347C190.7 201.332 189.91 200.994 189.325 200.404C188.74 199.815 188.405 199.02 188.391 198.187C188.393 197.351 188.725 196.549 189.312 195.958C189.9 195.366 190.696 195.031 191.528 195.027V195.027Z" fill="#FF0C3E"/>
<path d="M191.527 193.701C192.717 193.697 193.862 194.155 194.724 194.98C195.543 195.849 195.997 197.003 195.991 198.2C195.995 199.379 195.541 200.514 194.724 201.36C194.309 201.789 193.811 202.128 193.262 202.358C192.712 202.588 192.123 202.704 191.527 202.699C190.941 202.705 190.36 202.589 189.82 202.358C189.281 202.128 188.794 201.788 188.391 201.36C187.966 200.953 187.629 200.463 187.4 199.919C187.172 199.375 187.058 198.79 187.064 198.2C187.057 197.601 187.171 197.007 187.399 196.453C187.627 195.9 187.964 195.399 188.391 194.98C189.228 194.156 190.355 193.696 191.527 193.701V193.701ZM192.794 196.921C192.455 196.586 192.003 196.391 191.527 196.375C191.054 196.4 190.605 196.593 190.261 196.921C189.937 197.267 189.758 197.725 189.762 198.2C189.768 198.672 189.946 199.125 190.261 199.474C190.608 199.791 191.059 199.969 191.527 199.976C191.998 199.978 192.451 199.799 192.794 199.474C193.12 199.128 193.313 198.676 193.338 198.2C193.322 197.721 193.128 197.264 192.794 196.921Z" fill="#FF0C3E"/>
<path fill-rule="evenodd" clip-rule="evenodd" d="M202.873 195.027C203.704 195.031 204.501 195.366 205.088 195.958C205.676 196.549 206.007 197.351 206.01 198.187C205.996 199.02 205.661 199.815 205.076 200.404C204.491 200.994 203.701 201.332 202.873 201.347C202.042 201.342 201.246 201.007 200.659 200.415C200.071 199.824 199.74 199.023 199.736 198.187C199.733 197.772 199.811 197.36 199.968 196.975C200.124 196.591 200.355 196.241 200.647 195.947C200.939 195.653 201.286 195.421 201.668 195.263C202.05 195.105 202.46 195.025 202.873 195.027V195.027Z" fill="#FFD514"/>
<path d="M202.873 193.701C204.045 193.696 205.172 194.156 206.01 194.98C206.435 195.399 206.772 195.901 207 196.454C207.228 197.007 207.342 197.601 207.336 198.2C207.342 198.79 207.227 199.375 206.998 199.918C206.77 200.462 206.434 200.952 206.01 201.36C205.606 201.788 205.12 202.128 204.58 202.358C204.04 202.589 203.459 202.705 202.873 202.699C202.278 202.705 201.688 202.589 201.138 202.359C200.589 202.129 200.092 201.789 199.676 201.36C198.86 200.514 198.405 199.379 198.41 198.2C198.404 197.003 198.858 195.849 199.676 194.98C200.537 194.154 201.683 193.696 202.873 193.701ZM204.14 196.921C203.796 196.59 203.348 196.391 202.873 196.36C202.397 196.374 201.945 196.57 201.606 196.906C201.271 197.248 201.076 197.705 201.063 198.185C201.088 198.661 201.28 199.113 201.606 199.459C201.948 199.785 202.402 199.965 202.873 199.961C203.342 199.953 203.792 199.775 204.14 199.459C204.453 199.109 204.63 198.656 204.638 198.185C204.639 197.711 204.461 197.253 204.14 196.906V196.921Z" fill="#FFD514"/>
<path fill-rule="evenodd" clip-rule="evenodd" d="M214.149 195.027C214.562 195.025 214.971 195.105 215.353 195.263C215.735 195.421 216.082 195.653 216.374 195.947C216.666 196.241 216.897 196.591 217.053 196.975C217.21 197.36 217.289 197.772 217.285 198.187C217.281 199.023 216.95 199.824 216.363 200.415C215.775 201.007 214.98 201.342 214.149 201.347C213.327 201.329 212.545 200.988 211.97 200.397C211.395 199.807 211.073 199.014 211.072 198.187C211.066 197.776 211.142 197.368 211.294 196.987C211.446 196.605 211.671 196.258 211.957 195.964C212.243 195.671 212.584 195.437 212.96 195.276C213.336 195.115 213.74 195.031 214.149 195.027V195.027Z" fill="#00E871"/>
<path d="M214.149 193.701C215.333 193.695 216.474 194.147 217.335 194.965C218.173 195.827 218.65 196.98 218.667 198.185C218.648 199.373 218.171 200.506 217.335 201.345C216.92 201.774 216.423 202.114 215.873 202.344C215.324 202.574 214.734 202.69 214.139 202.684C213.552 202.69 212.971 202.574 212.432 202.343C211.892 202.113 211.405 201.773 211.002 201.345C210.168 200.505 209.692 199.372 209.675 198.185C209.691 196.981 210.166 195.828 211.002 194.965C211.844 194.144 212.975 193.69 214.149 193.701V193.701ZM215.415 196.921C215.251 196.75 215.055 196.613 214.837 196.519C214.619 196.425 214.385 196.376 214.149 196.375C213.691 196.391 213.257 196.587 212.942 196.921C212.765 197.083 212.625 197.281 212.532 197.501C212.438 197.722 212.392 197.961 212.398 198.2C212.398 198.439 212.446 198.675 212.539 198.894C212.633 199.113 212.77 199.31 212.942 199.474C213.099 199.635 213.287 199.762 213.495 199.848C213.702 199.934 213.924 199.978 214.149 199.976C214.383 199.984 214.616 199.943 214.834 199.857C215.051 199.771 215.249 199.64 215.415 199.474C215.588 199.311 215.726 199.114 215.819 198.895C215.913 198.675 215.96 198.439 215.959 198.2C215.966 197.96 215.921 197.722 215.827 197.501C215.733 197.28 215.592 197.082 215.415 196.921Z" fill="#00E871"/>
<path fill-rule="evenodd" clip-rule="evenodd" d="M190.201 214.236H207.86C207.951 214.23 208.043 214.243 208.129 214.274C208.215 214.305 208.295 214.353 208.362 214.415C208.429 214.477 208.484 214.553 208.522 214.636C208.56 214.72 208.581 214.811 208.583 214.903V227.808C208.578 227.998 208.5 228.179 208.365 228.313C208.23 228.447 208.049 228.523 207.86 228.525H190.186C189.998 228.512 189.82 228.431 189.687 228.296C189.554 228.161 189.474 227.982 189.463 227.793V214.903C189.478 214.72 189.561 214.55 189.695 214.427C189.829 214.303 190.004 214.235 190.186 214.236H190.201Z" fill="#B91912"/>
<path fill-rule="evenodd" clip-rule="evenodd" d="M214.453 214.234H232.187C232.362 214.237 232.529 214.308 232.653 214.433C232.777 214.557 232.848 214.725 232.85 214.901V227.807C232.851 227.99 232.783 228.167 232.66 228.303C232.538 228.438 232.369 228.523 232.187 228.539H214.453C214.27 228.524 214.1 228.44 213.976 228.304C213.852 228.169 213.784 227.991 213.785 227.807V214.917C213.787 214.74 213.859 214.571 213.984 214.446C214.108 214.321 214.277 214.251 214.453 214.249V214.234Z" fill="#C82620"/>
<path fill-rule="evenodd" clip-rule="evenodd" d="M238.78 214.237H256.439C256.614 214.238 256.782 214.309 256.906 214.433C257.031 214.558 257.101 214.727 257.102 214.904V227.809C257.104 227.993 257.037 228.17 256.914 228.306C256.791 228.442 256.621 228.526 256.439 228.541H238.78C238.585 228.542 238.397 228.466 238.258 228.329C238.119 228.192 238.039 228.005 238.037 227.809V214.919C238.038 214.824 238.058 214.73 238.097 214.644C238.135 214.557 238.191 214.479 238.261 214.415C238.331 214.351 238.413 214.302 238.502 214.272C238.591 214.241 238.686 214.229 238.78 214.237V214.237Z" fill="#D52D28"/>
<path fill-rule="evenodd" clip-rule="evenodd" d="M190.201 233.081H207.86C207.951 233.076 208.043 233.089 208.129 233.12C208.215 233.151 208.295 233.199 208.362 233.261C208.429 233.323 208.484 233.398 208.522 233.482C208.56 233.566 208.581 233.656 208.583 233.748V246.638C208.587 246.735 208.57 246.831 208.535 246.921C208.5 247.011 208.447 247.092 208.379 247.161C208.311 247.229 208.23 247.282 208.141 247.318C208.052 247.353 207.956 247.369 207.86 247.366H190.186C189.994 247.363 189.811 247.285 189.676 247.148C189.541 247.011 189.464 246.826 189.463 246.633V233.743C189.477 233.561 189.559 233.39 189.693 233.266C189.828 233.142 190.004 233.074 190.186 233.076L190.201 233.081Z" fill="#006065"/>
<path fill-rule="evenodd" clip-rule="evenodd" d="M214.453 233.081H232.187C232.362 233.082 232.53 233.153 232.654 233.278C232.778 233.403 232.849 233.572 232.85 233.748V246.638C232.855 246.73 232.841 246.822 232.81 246.908C232.779 246.995 232.732 247.074 232.67 247.142C232.608 247.21 232.534 247.264 232.451 247.303C232.368 247.341 232.278 247.362 232.187 247.366H214.453C214.361 247.363 214.27 247.342 214.186 247.304C214.102 247.265 214.027 247.21 213.965 247.142C213.902 247.074 213.854 246.993 213.823 246.906C213.792 246.819 213.779 246.726 213.784 246.633V233.743C213.786 233.566 213.857 233.396 213.982 233.271C214.107 233.146 214.276 233.076 214.453 233.076V233.081Z" fill="#008390"/>
<path fill-rule="evenodd" clip-rule="evenodd" d="M238.78 233.085H256.439C256.614 233.086 256.782 233.157 256.906 233.282C257.03 233.407 257.101 233.576 257.102 233.752V246.642C257.107 246.734 257.093 246.826 257.062 246.912C257.031 246.999 256.984 247.078 256.922 247.146C256.86 247.214 256.786 247.268 256.703 247.307C256.62 247.345 256.53 247.366 256.439 247.37H238.78C238.683 247.373 238.587 247.357 238.497 247.321C238.407 247.286 238.325 247.232 238.257 247.163C238.189 247.094 238.135 247.012 238.1 246.922C238.064 246.831 238.048 246.735 238.051 246.637V233.747C238.055 233.655 238.077 233.565 238.116 233.482C238.155 233.399 238.21 233.324 238.278 233.263C238.345 233.201 238.425 233.154 238.511 233.123C238.597 233.093 238.688 233.08 238.78 233.085V233.085Z" fill="#0097A8"/>
<path fill-rule="evenodd" clip-rule="evenodd" d="M190.201 251.936H207.86C208.051 251.937 208.235 252.014 208.37 252.15C208.505 252.286 208.582 252.47 208.583 252.663V265.553C208.581 265.645 208.56 265.736 208.522 265.819C208.484 265.903 208.429 265.978 208.362 266.04C208.295 266.103 208.215 266.151 208.129 266.182C208.043 266.212 207.951 266.225 207.86 266.22H190.186C190.004 266.222 189.828 266.154 189.693 266.03C189.559 265.906 189.477 265.736 189.463 265.553V252.663C189.475 252.474 189.555 252.296 189.688 252.162C189.821 252.028 189.998 251.947 190.186 251.936H190.201Z" fill="#FF6F00"/>
<path fill-rule="evenodd" clip-rule="evenodd" d="M214.453 251.936H232.187C232.368 251.951 232.537 252.034 232.66 252.169C232.783 252.303 232.851 252.48 232.85 252.663V265.553C232.849 265.729 232.779 265.898 232.654 266.023C232.53 266.148 232.362 266.219 232.187 266.22H214.453C214.277 266.22 214.107 266.15 213.982 266.025C213.857 265.9 213.786 265.73 213.785 265.553V252.663C213.784 252.479 213.853 252.302 213.977 252.167C214.101 252.032 214.271 251.949 214.453 251.936V251.936Z" fill="#FF9000"/>
<path fill-rule="evenodd" clip-rule="evenodd" d="M238.78 251.936H256.439C256.621 251.95 256.79 252.032 256.913 252.167C257.037 252.303 257.104 252.48 257.102 252.663V265.553C257.101 265.729 257.031 265.898 256.907 266.023C256.783 266.148 256.615 266.219 256.439 266.22H238.78C238.688 266.225 238.596 266.212 238.51 266.182C238.423 266.151 238.344 266.103 238.276 266.041C238.208 265.979 238.153 265.903 238.115 265.82C238.076 265.736 238.055 265.645 238.052 265.553V252.663C238.054 252.47 238.132 252.286 238.268 252.15C238.404 252.014 238.588 251.937 238.78 251.936V251.936Z" fill="#FFA100"/>
<g clip-path="url(#clip0_633_3107)">
<path d="M387.176 133.208L381.949 133.208L356.683 174.552L361.248 219.305L407.874 219.305L412.439 174.552L387.176 133.208Z" fill="#FCB641"/>
<path d="M357.502 234.062L411.62 234.062L411.62 219.303L357.502 219.303L357.502 234.062Z" fill="#EB805B"/>
<path d="M362.422 270.963L406.7 270.963L406.7 234.064L362.422 234.064L362.422 270.963Z" fill="#E66032"/>
<path d="M384.561 184.879C380.655 184.879 377.489 188.045 377.489 191.951C377.489 195.857 380.655 199.023 384.561 199.023C388.467 199.023 391.634 195.857 391.634 191.951C391.634 188.045 388.467 184.879 384.561 184.879Z" fill="white"/>
<path d="M294.779 189.69L286.082 198.387L294.779 207.084L303.476 198.387L294.779 189.69Z" fill="#FCB641"/>
<path d="M294.774 187.238C295.429 187.238 296.054 187.496 296.514 187.959L305.209 196.657C306.171 197.619 306.171 199.173 305.209 200.135L296.514 208.834C295.591 209.756 293.958 209.756 293.035 208.834L284.339 200.135C283.378 199.173 283.378 197.619 284.339 196.657L293.035 187.959C293.495 187.499 294.12 187.238 294.774 187.238ZM299.992 198.396L294.774 193.179L289.557 198.396L294.774 203.614L299.992 198.396Z" fill="#4D4D4D"/>
<path d="M421.46 133.209C421.46 135.927 419.258 138.129 416.54 138.129C413.822 138.129 411.62 135.927 411.62 133.209C411.62 130.491 413.822 128.289 416.54 128.289C419.258 128.289 421.46 130.491 421.46 133.209Z" fill="#FEF0D9"/>
<path d="M416.54 125.828C420.609 125.828 423.92 129.139 423.92 133.208C423.92 137.277 420.609 140.588 416.54 140.588C412.471 140.588 409.16 137.277 409.16 133.208C409.16 129.139 412.471 125.828 416.54 125.828ZM416.54 135.668C417.898 135.668 419 134.564 419 133.208C419 131.853 417.898 130.748 416.54 130.748C415.182 130.748 414.08 131.853 414.08 133.208C414.08 134.564 415.182 135.668 416.54 135.668Z" fill="#4D4D4D"/>
<path d="M329.604 135.667C307.878 144.997 292.622 166.6 292.622 191.706C292.622 193.064 293.721 194.166 295.082 194.166C296.442 194.166 297.542 193.064 297.542 191.706C297.542 160.805 322.68 135.667 353.579 135.667L411.62 135.667L411.62 130.747L288.625 130.747L288.625 135.667L329.604 135.667Z" fill="#4D4D4D"/>
<path d="M288.625 133.209C288.625 135.927 286.423 138.129 283.705 138.129C280.987 138.129 278.785 135.927 278.785 133.209C278.785 130.491 280.987 128.289 283.705 128.289C286.423 128.289 288.625 130.491 288.625 133.209Z" fill="#FEF0D9"/>
<path d="M283.705 125.828C287.774 125.828 291.085 129.139 291.085 133.208C291.085 137.277 287.774 140.588 283.705 140.588C279.636 140.588 276.325 137.277 276.325 133.208C276.325 129.139 279.636 125.828 283.705 125.828ZM283.705 135.668C285.063 135.668 286.165 134.564 286.165 133.208C286.165 131.853 285.063 130.748 283.705 130.748C282.347 130.748 281.245 131.853 281.245 133.208C281.245 134.564 282.347 135.668 283.705 135.668Z" fill="#4D4D4D"/>
<path d="M355.042 133.209C355.042 135.927 352.841 138.129 350.123 138.129C347.404 138.129 345.203 135.927 345.203 133.209C345.203 130.491 347.404 128.289 350.123 128.289C352.841 128.289 355.042 130.491 355.042 133.209Z" fill="#FEF0D9"/>
<path d="M350.122 125.828C354.191 125.828 357.502 129.139 357.502 133.208C357.502 137.277 354.191 140.588 350.122 140.588C346.054 140.588 342.743 137.277 342.743 133.208C342.743 129.139 346.054 125.828 350.122 125.828ZM350.122 135.668C351.48 135.668 352.582 134.564 352.582 133.208C352.582 131.853 351.48 130.748 350.122 130.748C348.765 130.748 347.663 131.853 347.663 133.208C347.663 134.564 348.765 135.668 350.122 135.668Z" fill="#4D4D4D"/>
<path d="M303.384 263.583L308.304 263.583L308.304 268.503C308.304 269.861 309.404 270.963 310.764 270.963C312.124 270.963 313.224 269.861 313.224 268.503L313.224 263.583L318.144 263.583C319.504 263.583 320.604 262.481 320.604 261.123C320.604 259.765 319.504 258.663 318.144 258.663L313.224 258.663L313.224 253.744C313.224 252.386 312.124 251.284 310.764 251.284C309.404 251.284 308.304 252.386 308.304 253.744L308.304 258.663L303.384 258.663C302.024 258.663 300.924 259.765 300.924 261.123C300.924 262.481 302.024 263.583 303.384 263.583Z" fill="#FCB641"/>
<path d="M330.443 204.545C334.512 204.545 337.823 207.856 337.823 211.925C337.823 215.994 334.512 219.305 330.443 219.305C326.374 219.305 323.063 215.994 323.063 211.925C323.063 207.856 326.374 204.545 330.443 204.545ZM330.443 214.385C331.801 214.385 332.903 213.28 332.903 211.925C332.903 210.57 331.801 209.465 330.443 209.465C329.085 209.465 327.983 210.57 327.983 211.925C327.983 213.28 329.085 214.385 330.443 214.385Z" fill="#ED7765"/>
<path d="M358.525 216.846L357.502 216.846C356.142 216.846 355.042 217.948 355.042 219.306L355.042 234.065C355.042 235.423 356.142 236.525 357.502 236.525L359.962 236.525L359.962 270.964C359.962 272.322 361.062 273.424 362.422 273.424L406.7 273.424C408.061 273.424 409.16 272.322 409.16 270.964L409.16 236.525L411.62 236.525C412.98 236.525 414.08 235.423 414.08 234.065L414.08 219.306C414.08 217.948 412.98 216.846 411.62 216.846L410.597 216.846L414.887 174.804C414.939 174.267 414.82 173.729 414.538 173.271L389.272 131.925C388.827 131.194 388.032 130.749 387.174 130.749L381.946 130.749C381.088 130.749 380.293 131.194 379.845 131.927L354.58 173.273C354.299 173.733 354.179 174.27 354.23 174.806L358.525 216.846ZM404.24 268.504L364.882 268.504L364.882 236.525L382.101 236.525L382.101 251.285L377.181 251.285C375.821 251.285 374.721 252.387 374.721 253.745C374.721 255.102 375.821 256.204 377.181 256.204L391.941 256.204C393.301 256.204 394.401 255.102 394.401 253.745C394.401 252.387 393.301 251.285 391.941 251.285L387.021 251.285L387.021 236.525L404.24 236.525L404.24 268.504ZM409.16 231.605L406.7 231.605L362.422 231.605L359.962 231.605L359.962 221.766L361.249 221.766L407.874 221.766L409.16 221.766L409.16 231.605ZM384.561 196.552C382.018 196.552 379.949 194.483 379.949 191.939C379.949 189.396 382.018 187.327 384.561 187.327C387.105 187.327 389.173 189.396 389.173 191.939C389.173 194.483 387.105 196.552 384.561 196.552ZM382.101 137.674L382.101 182.771C378.042 183.863 375.029 187.541 375.029 191.942C375.029 196.343 378.042 200.018 382.101 201.11L382.101 209.466C382.101 210.824 383.201 211.926 384.561 211.926C385.921 211.926 387.021 210.824 387.021 209.466L387.021 201.11C391.08 200.018 394.093 196.34 394.093 191.939C394.093 187.538 391.08 183.863 387.021 182.771L387.021 137.674L409.908 175.131L405.65 216.846L363.472 216.846L359.217 175.131L382.101 137.674Z" fill="#4D4D4D"/>
</g>
<defs>
<clipPath id="clip0_633_3107">
<rect width="147.595" height="147.595" fill="white" transform="translate(423.92 273.424) rotate(-180)"/>
</clipPath>
</defs>
</svg>
