<svg width="512" height="512" viewBox="0 0 512 512" fill="none" xmlns="http://www.w3.org/2000/svg">
<path d="M66.2765 68.7002H445.724C458.191 68.7002 468.391 78.9004 468.391 91.367V325.111H43.6117V91.366C43.6117 78.8994 53.8119 68.6992 66.2785 68.6992H66.2765V68.7002Z" fill="#666666"/>
<path d="M58.9998 309.719H452.997V91.3646C452.997 87.3918 449.693 84.0879 445.723 84.0879H66.2765C62.3057 84.0879 59.0028 87.3918 59.0028 91.3646V309.719H58.9998Z" fill="white"/>
<path d="M468.388 325.107V349.896C468.388 362.365 457.146 372.563 443.403 372.563H68.5978C54.8552 372.563 43.6126 362.365 43.6126 349.896V325.107H468.39H468.388Z" fill="white"/>
<path d="M256 355.651C260.31 355.651 263.804 352.157 263.804 347.847C263.804 343.537 260.31 340.043 256 340.043C251.69 340.043 248.196 343.537 248.196 347.847C248.196 352.157 251.69 355.651 256 355.651Z" fill="#B6B6B8"/>
<path d="M304.99 408.222L341.029 419.77H170.968L200.046 408.222V372.564H304.988V408.222H304.99Z" fill="#C2C2C4"/>
<path d="M200.048 408.223H304.991L341.03 419.771V424.743H256.002H170.97V419.771L200.048 408.223Z" fill="#9AA5A8"/>
<path d="M200.048 372.564H304.991V408.222L200.048 372.564Z" fill="#919191"/>
<path d="M116.807 98.9297H76.1282V105.935H116.807V98.9297Z" fill="#20D0C2"/>
<path d="M193.669 98.9297H121.512V105.935H193.669V98.9297Z" fill="#FF5B62"/>
<path d="M258.581 98.9297H197.146V105.935H258.581V98.9297Z" fill="#FAD24D"/>
<path d="M140.443 127.748H118.861V134.753H140.443V127.748Z" fill="#FAD24D"/>
<path d="M181.222 127.748H142.937V134.753H181.222V127.748Z" fill="#FF5B62"/>
<path d="M215.658 127.746H183.066V134.751H215.658V127.746Z" fill="#20D0C2"/>
<path d="M113.789 140.053H75.8717V147.058H113.789V140.053Z" fill="#20D0C2"/>
<path d="M185.408 140.055H118.164V147.06H185.408V140.055Z" fill="#FAD24D"/>
<path d="M154.267 154.764H116.35V161.769H154.267V154.764Z" fill="#FF5B62"/>
<path d="M225.885 154.764H158.641V161.769H225.885V154.764Z" fill="#20D0C2"/>
<path d="M120.545 168.824H82.6282V175.829H120.545V168.824Z" fill="#FAD24D"/>
<path d="M152.692 168.824H125.557V175.829H152.692V168.824Z" fill="#20D0C2"/>
<path d="M235.273 168.824H159.08V175.829H235.273V168.824Z" fill="#FF5B62"/>
<path d="M267.988 168.826H240.854V175.831H267.988V168.826Z" fill="#20D0C2"/>
<path d="M175.991 183.535H74.5267V190.54H175.991V183.535Z" fill="#20D0C2"/>
<path d="M207.55 183.531H180.415V190.536H207.55V183.531Z" fill="#FAD24D"/>
<path d="M249.334 183.531H211.416V190.536H249.334V183.531Z" fill="#FF5B62"/>
<path d="M123.388 112.504H120.585V120.907H123.388V112.504Z" fill="white"/>
<path d="M196.093 140.059H193.29V148.462H196.093V140.059Z" fill="white"/>
<path d="M116.807 204.26H76.1282V211.265H116.807V204.26Z" fill="#20D0C2"/>
<path d="M193.669 204.26H121.512V211.265H193.669V204.26Z" fill="#FF5B62"/>
<path d="M258.581 204.26H197.146V211.265H258.581V204.26Z" fill="#FAD24D"/>
<path d="M140.443 233.068H118.861V240.073H140.443V233.068Z" fill="#FAD24D"/>
<path d="M181.222 233.07H142.937V240.075H181.222V233.07Z" fill="#FF5B62"/>
<path d="M215.658 233.068H183.066V240.073H215.658V233.068Z" fill="#20D0C2"/>
<path d="M113.789 245.385H75.8717V252.39H113.789V245.385Z" fill="#20D0C2"/>
<path d="M185.408 245.387H118.164V252.392H185.408V245.387Z" fill="#FAD24D"/>
<path d="M123.388 217.822H120.585V226.225H123.388V217.822Z" fill="white"/>
<path d="M196.093 245.387H193.29V253.79H196.093V245.387Z" fill="white"/>
<path d="M437.293 98.9297H290.17V132.861H437.293V98.9297Z" fill="#DCE3DB"/>
<path d="M290.168 137.668H360.237V182.45H290.168V137.668Z" fill="#DCE3DB"/>
<path d="M367.225 137.668H437.294V182.45H367.225V137.668Z" fill="#DCE3DB"/>
<path d="M290.37 188.869H437.095V191.038H290.37V188.869ZM290.37 209.371H386.754V211.54H290.37V209.371ZM290.37 202.536H437.095V204.705H290.37V202.536ZM290.37 195.704H437.095V197.872H290.37V195.704Z" fill="#DCE3DB"/>
<path d="M289.995 216.869H333.72V260.222H289.995V216.869ZM393.747 216.869H437.474V260.222H393.747V216.869ZM341.872 216.869H385.597V260.222H341.872V216.869Z" fill="#DCE3DB"/>
<path d="M290.37 266.258H437.095V268.426H290.37V266.258ZM290.37 286.76H386.754V288.929H290.37V286.76ZM290.37 279.926H437.095V282.094H290.37V279.926ZM290.37 273.093H437.095V275.262H290.37V273.093Z" fill="#DCE3DB"/>
</svg>
