<svg xmlns="http://www.w3.org/2000/svg" width="103" height="28" viewBox="0 0 103 28"><g fill="none" fill-rule="evenodd"><g fill-rule="nonzero"><g><g fill="#B52E31"><path d="M.12 14.36L.12 1.76 1.74 1.76 9.44 11.9 9.44 1.76 10.98 1.76 10.98 14.36 9.36 14.36 1.66 4.12 1.66 14.36zM23.52 13.86c-1.02.38-2.12.58-3.28.58-4.56 0-6.84-2.18-6.84-6.56 0-4.14 2.2-6.22 6.6-6.22 1.26 0 2.44.18 3.52.52v1.4c-1.08-.42-2.2-.62-3.34-.62-3.44 0-5.16 1.64-5.16 4.88 0 3.5 1.7 5.24 5.08 5.24.54 0 1.14-.08 1.8-.22V8.64h1.62v5.22zM26.12 9.5V1.76h1.62V9.5c0 2.42 1.2 3.64 3.62 3.64 2.4 0 3.62-1.22 3.62-3.64V1.76h1.62V9.5c0 3.3-1.74 4.96-5.24 4.96s-5.24-1.66-5.24-4.96zM41.12 1.76L41.12 13.04 47.72 13.04 47.72 14.36 39.5 14.36 39.5 1.76zM50.06 14.36L48.36 14.36 54.62.1 60.88 14.36 59.08 14.36 57.46 10.4 53.3 10.4 53.74 9.08 56.92 9.08 54.56 3.38zM62.62 14.36V1.76H68c2.4 0 3.6 1 3.6 3.02 0 1.64-1.18 2.86-3.52 3.64l4.32 5.94h-2.14l-4-5.66V7.64c2.4-.38 3.62-1.3 3.62-2.78 0-1.16-.66-1.74-2-1.74h-3.6v11.24h-1.66z" transform="translate(-189 -3531) translate(189 3531) translate(30 6.2)"></path></g><g><path fill="#E23237" d="M0 4.6L12.9 0 26.14 4.52 24 21.58 12.9 27.72 1.98 21.66z" transform="translate(-189 -3531) translate(189 3531)"></path><path fill="#B52E31" d="M26.14 4.52L12.9 0 12.9 27.72 24 21.58z" transform="translate(-189 -3531) translate(189 3531)"></path><path fill="#FFF" d="M12.92 3.24L4.88 21.12l3-.06 1.62-4.04h7.18l1.76 4.08 2.86.06-8.38-17.92zm.02 5.74l2.72 5.68h-5.1l2.38-5.68z" transform="translate(-189 -3531) translate(189 3531)"></path></g></g></g></g></svg>