<svg xmlns="http://www.w3.org/2000/svg" width="109" height="32" viewBox="0 0 109 32"><g fill="none" fill-rule="evenodd"><g fill="#0089D6" fill-rule="nonzero"><g><path d="M18.702 29.64c5.194-.917 9.484-1.676 9.533-1.687l.09-.019-4.904-5.832c-2.696-3.208-4.903-5.845-4.903-5.86 0-.03 5.063-13.973 5.092-14.022.01-.017 3.455 5.932 8.352 14.42 4.586 7.947 8.366 14.5 8.4 14.561l.065.112-15.584-.002-15.584-.002 9.443-1.668zm59.763-1.41c-2.372-.152-3.752-1.503-4.118-4.031-.097-.673-.097-.69-.107-5.057l-.01-4.225h2.1l.008 4.087c.008 3.684.012 4.116.047 4.375.143 1.052.428 1.76.912 2.267.388.406.842.644 1.47.77.297.06 1.14.06 1.41 0 .637-.14 1.148-.417 1.598-.867.514-.513.894-1.241 1.077-2.065l.062-.277.007-4.122.007-4.122h2.144v12.96H82.95v-1.028c0-.699-.009-1.026-.025-1.02-.013.004-.067.087-.12.185-.366.666-.975 1.276-1.643 1.643-.8.44-1.602.597-2.698.527zm24.077-.01c-.837-.063-1.719-.351-2.44-.797-1.518-.94-2.417-2.488-2.68-4.62-.091-.737-.102-1.728-.026-2.355.17-1.4.72-2.774 1.504-3.756.2-.251.656-.707.908-.908.679-.542 1.474-.922 2.317-1.106.492-.108 1.357-.158 1.88-.11 1.312.122 2.514.74 3.331 1.712.83.988 1.287 2.368 1.345 4.067.01.267.012.734.005 1.038l-.011.554-4.595.005-4.595.006v.205c0 .624.152 1.335.414 1.94.226.522.616 1.092.934 1.367.654.565 1.454.904 2.33.985.325.03 1.152-.002 1.522-.058 1.056-.163 2.06-.577 2.87-1.184.095-.072.186-.138.202-.149.024-.014.03.172.029.957v.976l-.218.134c-.917.567-1.967.931-3.079 1.068-.332.04-1.55.058-1.946.029zm4-8.228c0-1.045-.441-2.207-1.065-2.805-.445-.427-.983-.688-1.622-.787-.303-.046-.94-.028-1.26.036-.674.136-1.231.433-1.718.913-.512.506-.896 1.12-1.137 1.82-.087.253-.188.666-.22.896l-.015.11h7.036v-.183zm-62.33 7.902l3.468-9.109 3.458-9.08h2.221l.093.236c.281.722 6.921 17.962 6.921 17.971 0 .006-.531.01-1.181.01H58.01l-.957-2.548-.957-2.548H48.389l-.034.087c-.018.047-.427 1.194-.908 2.548l-.875 2.461h-1.185c-.937 0-1.182-.005-1.174-.028zm11.18-7.012c0-.004-.644-1.75-1.43-3.88-1.474-3.985-1.556-4.225-1.672-4.864-.055-.3-.082-.309-.115-.035-.023.196-.123.634-.2.876-.04.12-.702 1.941-1.474 4.045-.773 2.104-1.404 3.835-1.404 3.846 0 .01 1.416.02 3.147.02 1.732 0 3.148-.004 3.148-.008zm5.696 6.709v-.332l3.84-5.278 3.839-5.277-3.476-.012-3.476-.011-.006-.882-.006-.882h10.055v.595l-3.84 5.307c-2.112 2.918-3.84 5.311-3.84 5.317 0 .006 1.708.011 3.794.011h3.794v1.776H61.088v-.332zm28.173.316c-.008-.008-.015-2.934-.015-6.503v-6.487h2.099v1.337c0 .736.008 1.338.02 1.338.01 0 .061-.12.113-.268.236-.674.645-1.305 1.172-1.805.475-.452 1.017-.721 1.658-.825.18-.029.332-.034.691-.025.452.012.688.045.963.135l.087.028v2.178l-.248-.124c-.438-.219-.87-.306-1.39-.279-.338.018-.56.061-.83.163-.556.208-1.007.577-1.322 1.08-.456.727-.782 1.663-.878 2.523-.017.154-.027 1.411-.031 3.889l-.006 3.66H90.31c-.568 0-1.04-.006-1.049-.015zM0 27.862c0-.008 2.31-4.02 5.134-8.913l5.135-8.898 5.984-5.022C19.543 2.267 22.245.004 22.256 0c.01-.004-.032.105-.096.242L15.662 14.18 9.281 27.865l-4.64.006c-2.553.003-4.641 0-4.641-.01z" transform="translate(-588 -4219) translate(588 4219)"></path></g></g></g></svg>