<svg xmlns="http://www.w3.org/2000/svg" width="105" height="38" viewBox="0 0 105 38"><g fill="none" fill-rule="evenodd"><g fill="#0CF"><g><g fill-rule="nonzero" transform="translate(-590 -3526) translate(591 3527) translate(.367 .505)"><circle cx="19.673" cy="17.463" r="3.476"></circle><g><path d="M19.673 9.565c-4.724 0-9.277.678-12.71 1.874-4.12 1.437-6.751 3.688-6.751 6.024 0 2.412 2.825 4.831 7.117 6.298 3.227 1.103 7.551 1.67 12.344 1.67 4.568 0 8.844-.578 12.096-1.655 4.462-1.479 7.365-3.869 7.365-6.313 0-2.344-2.717-4.61-6.92-6.058-3.428-1.18-7.875-1.84-12.541-1.84zm0 1.663c4.49 0 8.756.633 12 1.75 3.601 1.24 5.798 3.072 5.798 4.485 0 1.504-2.373 3.458-6.225 4.734-3.067 1.016-7.171 1.57-11.573 1.57-4.624 0-8.774-.543-11.807-1.579-3.692-1.262-5.992-3.231-5.992-4.725 0-1.417 2.113-3.225 5.637-4.454 3.245-1.13 7.615-1.781 12.162-1.781z"></path><path d="M20.303 3.907c-2.369 2.144-4.765 5.122-6.85 8.531l-.383.635h-.004l-.266.462c-2.359 4.092-4.046 8.375-4.724 11.945-.814 4.288-.178 7.693 1.845 8.859 2.09 1.205 5.597-.034 9.012-3.02 2.566-2.243 5.217-5.706 7.612-9.859 2.283-3.958 3.919-7.95 4.61-11.305.948-4.603.327-8.312-1.79-9.533-2.03-1.171-5.351.05-8.705 2.968l-.357.317zm8.231-1.845c1.304.752 1.81 3.783.992 7.758-.651 3.164-2.222 6.995-4.422 10.81-2.31 4.006-4.854 7.33-7.266 9.438-2.938 2.568-5.793 3.576-7.087 2.83-1.227-.707-1.738-3.441-1.042-7.108l.094-.465c.663-3.127 2.122-6.828 4.132-10.422l.307-.538c2.243-3.89 4.923-7.269 7.51-9.52 2.786-2.425 5.396-3.427 6.667-2.842l.115.06z"></path><path d="M9.893.673c-2.029 1.174-2.63 4.66-1.776 9.024.698 3.56 2.354 7.74 4.69 11.775 2.367 4.088 5.235 7.689 7.99 10.06 3.308 2.846 6.575 3.995 8.596 2.825 2.088-1.208 2.766-4.865 1.885-9.315-.662-3.345-2.339-7.37-4.74-11.519-2.289-3.953-4.93-7.365-7.492-9.639C15.531.764 12.008-.552 9.893.673zm8.05 4.454c2.415 2.146 4.95 5.42 7.156 9.23 2.317 4.001 3.926 7.865 4.548 11.008.758 3.828.206 6.805-1.087 7.553-1.226.71-3.85-.213-6.679-2.647-2.604-2.241-5.356-5.697-7.634-9.632-2.249-3.884-3.838-7.894-4.498-11.262-.731-3.738-.245-6.558.977-7.265 1.264-.732 4.013.259 6.949 2.782l.267.233z"></path></g></g><path d="M58.62 26.848l-4.26-6.436c2.153-.19 4.093-1.75 4.093-4.6 0-2.9-2.058-4.756-4.945-4.756h-6.34v15.78h1.964v-6.27h3.147l4.022 6.27 2.319.012zm-5.347-7.997h-4.14v-6.033h4.14c1.87 0 3.147 1.23 3.147 3.005s-1.278 3.03-3.147 3.03v-.002zm12.658 8.28c1.87 0 3.407-.615 4.543-1.75l-.852-1.16c-.9.923-2.224 1.443-3.525 1.443-2.46 0-3.975-1.798-4.117-3.95h9.25v-.45c0-3.43-2.035-6.128-5.49-6.128-3.265 0-5.63 2.674-5.63 5.986 0 3.573 2.437 6 5.82 6l.001.009zm3.55-6.72h-7.5c.095-1.75 1.3-3.81 3.738-3.81 2.603 0 3.738 2.106 3.762 3.81zm13.534 6.436v-7.855c0-2.768-2.01-3.857-4.424-3.857-1.87 0-3.336.615-4.566 1.893l.828 1.23c1.017-1.088 2.13-1.585 3.502-1.585 1.656 0 2.887.875 2.887 2.413v2.058c-.923-1.065-2.224-1.562-3.786-1.562-1.94 0-4 1.207-4 3.762 0 2.484 2.058 3.786 4 3.786 1.538 0 2.84-.544 3.786-1.585v1.3l1.773.002zm-4.92-.994c-1.656 0-2.816-1.04-2.816-2.484 0-1.467 1.16-2.508 2.816-2.508 1.254 0 2.46.473 3.147 1.42v2.153c-.686.946-1.893 1.42-3.147 1.42v-.001zm13.5 1.278c2.082 0 3.312-.852 4.188-1.987L94.6 24.056c-.757 1.017-1.727 1.49-2.9 1.49-2.437 0-3.95-1.893-3.95-4.424 0-2.531 1.514-4.4 3.95-4.4 1.183 0 2.153.45 2.9 1.49l1.183-1.088c-.875-1.136-2.106-1.987-4.188-1.987-3.407 0-5.702 2.603-5.702 5.986 0 3.407 2.295 6 5.702 6v.008zm9.56 0c1.04 0 1.68-.308 2.13-.733l-.52-1.325c-.237.26-.7.473-1.207.473-.78 0-1.16-.615-1.16-1.467v-7.098h2.32V15.42h-2.32v-3.123h-1.775v3.123H96.73v1.562h1.893v7.477c0 1.704.852 2.674 2.532 2.674v-.002z" transform="translate(-590 -3526) translate(591 3527)"></path></g></g></g></svg>