<svg xmlns="http://www.w3.org/2000/svg" width="119" height="24" viewBox="0 0 119 24"><g fill="none" fill-rule="evenodd"><g fill="#0072C6" fill-rule="nonzero"><g><path d="M0 2.47L13.803 0c.005 7.883 0 15.765 0 23.648-4.598-.816-9.196-1.645-13.803-2.46V2.47zm4.598 5.337c-.564.668-.74 1.592-.635 2.44.085.74.497 1.418 1.057 1.887.512.436 1.166.702 1.625 1.214.346.384.432 1.024.086 1.436-.275.332-.75.355-1.138.29-.654-.096-1.209-.499-1.64-.987l.005 2.043c.635.484 1.455.654 2.237.65.555-.015 1.119-.143 1.57-.48.563-.412.89-1.085.97-1.767.115-.797-.018-1.655-.511-2.309-.432-.545-1.01-.943-1.598-1.294-.317-.194-.635-.403-.848-.715-.251-.427-.242-1.034.128-1.384.308-.3.777-.323 1.18-.275.493.052.958.275 1.342.578V7.105c-.64-.26-1.351-.289-2.03-.237-.686.09-1.36.403-1.8.939zm10.541-3.844c.474-.465 1.133-.75 1.802-.688.952.052 1.791.797 2.028 1.711.095.346.1.707.043 1.057 1.536.636 2.787 1.93 3.38 3.484.673-.128 1.403.067 1.91.531.8.687 1.019 1.934.53 2.873-.435.881-1.478 1.407-2.445 1.208-.593 1.55-1.83 2.844-3.366 3.475.133.763-.1 1.583-.654 2.133-.573.592-1.497.81-2.28.545-.355-.123-.687-.323-.938-.607V16.43c.445-.465 1.08-.75 1.725-.716.612.014 1.18.322 1.593.754 1.294-.512 2.332-1.598 2.806-2.906-.384-.398-.659-.91-.716-1.465-.095-.734.204-1.478.716-1.995-.474-1.313-1.517-2.408-2.82-2.92-.37.427-.906.706-1.465.763-.683.076-1.37-.218-1.849-.701v-3.28zm25.535-.01h1.64v6.555c.512-.843 1.289-1.564 2.265-1.805.872-.218 1.82-.19 2.655.156.73.303 1.265.957 1.521 1.697.26.716.318 1.483.323 2.237v6.148h-1.631v-5.617c-.014-.74-.043-1.503-.365-2.185-.223-.484-.64-.896-1.161-1.052-.797-.252-1.726-.128-2.394.384-.787.602-1.213 1.597-1.228 2.573v5.887h-1.63c.005-4.986.01-9.982.005-14.978zm58.339.232c.602-.218 1.341.195 1.408.849.114.564-.332 1.152-.906 1.213-.511.086-1.09-.237-1.199-.763-.142-.521.17-1.133.697-1.299zm-65.89.711c.891-.365 1.867-.412 2.81-.355.716.047 1.451.142 2.091.479v1.886c-.891-.697-2.062-.929-3.171-.863-.74.043-1.503.337-1.967.925-.484.62-.484 1.502-.223 2.213.356.763 1.133 1.185 1.82 1.617 1.114.654 2.294 1.246 3.195 2.199.62.64.976 1.521.943 2.422.014.953-.336 1.93-1.052 2.574-.849.8-2.038 1.133-3.176 1.185-.915.076-1.839-.11-2.716-.38-.336-.108-.673-.227-.962-.426l.005-1.99c.777.682 1.782 1.066 2.787 1.232.753.109 1.545.061 2.26-.228.465-.194.85-.592.991-1.085.209-.702.124-1.517-.336-2.105-.37-.464-.877-.8-1.37-1.133-.858-.573-1.801-1.01-2.616-1.644-.593-.46-1.166-1-1.441-1.712-.318-.81-.337-1.725-.081-2.554.318-1.053 1.204-1.854 2.209-2.257zm44.432-.137h2.678c1.01.005 2.048-.062 3.043.218.963.251 1.868.834 2.39 1.697.573.957.668 2.133.497 3.209-.17 1.08-.796 2.062-1.678 2.697-.635.474-1.393.763-2.17.891-1.02.17-2.058.066-3.091.095v5.36H77.55c.005-4.71.015-9.437.005-14.167m1.673 1.517v5.797c1.105-.034 2.247.109 3.323-.228.635-.204 1.228-.607 1.56-1.194.37-.669.436-1.47.322-2.214-.095-.592-.384-1.175-.877-1.536-.64-.478-1.465-.602-2.237-.625h-2.09zm35.086.061c.545-.17 1.085-.35 1.63-.526.005 1 0 1.996 0 2.996h2.55v1.403h-2.54v5.877c.014.399.061.825.284 1.166.204.323.593.474.958.498.46.062.929-.061 1.308-.317v1.407c-.588.299-1.266.356-1.915.304-.56-.048-1.138-.237-1.536-.65-.526-.526-.701-1.294-.735-2.01V10.2h-1.753V8.807h1.753c-.004-.825-.014-1.645-.004-2.47zM53.41 8.826c1.09-.304 2.285-.394 3.37-.014.777.27 1.403.905 1.673 1.673.323.834.299 1.754.29 2.635v5.811h-1.631v-1.606c-.398.696-.986 1.308-1.745 1.597-.824.322-1.753.322-2.597.095-.915-.256-1.706-.99-1.93-1.93-.175-.739-.132-1.55.171-2.26.228-.56.669-1.01 1.185-1.309.574-.331 1.219-.497 1.873-.592 1.019-.142 2.028-.285 3.048-.431-.015-.674-.1-1.408-.555-1.944-.37-.445-.976-.62-1.545-.602-1.2-.019-2.375.465-3.285 1.233V9.489c.507-.317 1.1-.493 1.678-.663m.83 5.413c-.565.128-1.214.275-1.56.787-.27.431-.303.971-.228 1.455.114.588.612 1.033 1.176 1.194.635.18 1.341.114 1.934-.17.706-.365 1.246-1.053 1.436-1.82.17-.607.085-1.247.109-1.868-.953.156-1.91.27-2.868.422zm14.37-4.73c.769-.612 1.745-.958 2.731-.94.905-.018 1.84.21 2.564.769.73.564 1.214 1.407 1.432 2.294.227.863.208 1.758.208 2.65-2.379 0-4.768-.005-7.152 0 .043.796.18 1.625.654 2.284.46.668 1.228 1.08 2.024 1.176 1.337.194 2.716-.237 3.768-1.081-.005.512 0 1.033 0 1.545-.924.683-2.09.939-3.218.977-.953.042-1.934-.11-2.764-.607-.83-.493-1.436-1.308-1.758-2.204-.356-.972-.427-2.029-.365-3.053.1-1.445.73-2.896 1.877-3.81m1.085 1.018c-.73.574-1.147 1.47-1.275 2.375h5.442c-.005-.763-.17-1.569-.673-2.166-.427-.521-1.114-.777-1.773-.768-.626-.028-1.251.176-1.72.56zm21.212-1.914c1.199-.128 2.488-.02 3.531.635 1.119.687 1.806 1.92 2.024 3.194.204 1.219.17 2.508-.26 3.674-.465 1.265-1.484 2.332-2.774 2.773-1.09.37-2.299.398-3.412.114-1.185-.304-2.214-1.138-2.778-2.219-.593-1.09-.702-2.375-.593-3.593.1-1.114.484-2.223 1.247-3.066.754-.882 1.868-1.385 3.015-1.512M91.064 10c-.848.11-1.64.593-2.11 1.309-.62.943-.734 2.123-.649 3.227.081 1.024.522 2.077 1.39 2.679.672.483 1.535.625 2.35.554.66-.052 1.323-.299 1.792-.763.512-.479.801-1.152.939-1.834.146-.764.146-1.546.047-2.313-.128-.939-.56-1.901-1.384-2.427-.692-.455-1.57-.526-2.375-.432zm14.3-.55c.546-.492 1.261-.796 1.991-.872.801-.076 1.655 0 2.347.432.777.474 1.242 1.327 1.431 2.19.204.872.147 1.768.157 2.644v5.077h-1.631v-5.816c-.019-.74-.095-1.517-.474-2.17-.26-.465-.73-.811-1.256-.916-.612-.132-1.28-.076-1.84.218-.99.522-1.563 1.63-1.578 2.73-.004 1.991 0 3.973 0 5.963h-1.63V8.797h1.63v1.707c.247-.375.508-.75.854-1.053zm-41.232-.37c.682-.511 1.611-.554 2.408-.322v1.712c-.493-.337-1.133-.399-1.707-.285-.687.147-1.194.72-1.498 1.327-.384.787-.478 1.678-.45 2.55v4.868h-1.63V8.807h1.64v2.119c.227-.711.611-1.403 1.237-1.844zm34.393-.274h1.64v10.13h-1.63l-.01-10.13z" transform="translate(-189 -3985) translate(189 3985)"></path></g></g></g></svg>