<svg xmlns="http://www.w3.org/2000/svg" width="41" height="35" viewBox="0 0 41 35" fill="none"><path fill-rule="evenodd" clip-rule="evenodd" d="M33.015 0C33.695 0 34.4 0.0250004 35.115 0.0740004C35.3403 0.0915777 35.5508 0.193291 35.7046 0.358925C35.8583 0.524559 35.9442 0.741989 35.945 0.968V3.925H39.415L39.577 3.939C39.7827 3.9776 39.9685 4.08668 40.1025 4.24747C40.2364 4.40826 40.3102 4.61072 40.311 4.82V31.02L40.291 31.205C40.253 31.3877 40.1585 31.5538 40.021 31.68C39.9307 31.7649 39.8233 31.8295 39.7061 31.8695C39.5888 31.9095 39.4643 31.924 39.341 31.912C39.1337 31.894 38.9263 31.8773 38.719 31.862L37.472 31.777C36.848 31.741 36.226 31.713 35.612 31.695L34.394 31.671H33.794L32.625 31.684C29.179 31.762 26.34 32.184 25.342 33.001C23.9009 34.2571 22.0633 34.9652 20.152 35.001C18.2317 34.9627 16.3871 34.2456 14.945 32.977C14.066 32.259 11.725 31.851 8.797 31.717L7.674 31.679L6.505 31.666L5.305 31.679L4.078 31.715C3.666 31.7317 3.25267 31.7517 2.838 31.775L1.593 31.86L0.973 31.91C0.849295 31.922 0.724458 31.9076 0.606726 31.8678C0.488994 31.8279 0.381044 31.7636 0.29 31.679C0.198784 31.5949 0.125937 31.4929 0.0760312 31.3793C0.0261258 31.2657 0.000240078 31.1431 0 31.019V4.819L0.0139999 4.659C0.0523933 4.45312 0.161383 4.26708 0.322196 4.13291C0.483008 3.99875 0.685574 3.92487 0.895 3.924H4.365V0.968L4.381 0.795C4.41967 0.60187 4.52062 0.426758 4.66838 0.29652C4.81614 0.166283 5.00254 0.088113 5.199 0.0740004C5.913 0.0240004 6.619 0 7.299 0C13.226 0 17.355 1.758 19.977 4.3H20.339L20.674 3.987C23.305 1.619 27.334 0.00399971 33.017 0.00399971L33.015 0ZM4.365 5.716H1.788V29.772L2.065 30.032L2.752 29.989L4.102 29.922L5.417 29.88C10.38 29.77 14.427 30.242 16.1 31.61C16.4702 31.9165 16.8706 32.1845 17.295 32.41C18.167 32.9111 19.1505 33.1861 20.156 33.21C21.6418 33.1638 23.0664 32.6073 24.19 31.634C25.801 30.315 29.582 29.82 34.253 29.874L35.548 29.903C35.986 29.916 36.431 29.935 36.881 29.957L38.247 30.037L38.524 29.777V5.716H35.945V27.166L35.925 27.348C35.8886 27.5278 35.7974 27.692 35.664 27.818C35.5744 27.9014 35.4689 27.9659 35.3537 28.0074C35.2386 28.049 35.1162 28.0669 34.994 28.06L34.301 28.037L33.585 28.03C28.958 28.03 24.177 28.715 20.555 30.535C20.4302 30.5981 20.2923 30.631 20.1525 30.631C20.0127 30.631 19.8748 30.5981 19.75 30.535C16.128 28.715 11.35 28.03 6.72 28.03C6.591 28.03 6.468 28.03 6.349 28.03L5.688 28.043L5.311 28.058C5.18918 28.0649 5.06722 28.047 4.95254 28.0053C4.83786 27.9636 4.73286 27.8991 4.64391 27.8155C4.55496 27.732 4.48392 27.6313 4.43512 27.5194C4.38631 27.4076 4.36075 27.287 4.36 27.165V5.716H4.365ZM33.017 1.791C26.964 1.791 23.139 3.691 21.117 6.077L21.055 27.967L21.41 28.21L22.257 27.9C25.9208 26.7378 29.7488 26.1772 33.592 26.24H33.898L34.161 25.98V1.806H33.909L33.466 1.796L33.017 1.791ZM7.298 1.791C6.998 1.791 6.698 1.791 6.408 1.805H6.156V25.979L6.416 26.239L7.706 26.249C11.5239 26.2574 15.3121 26.9203 18.906 28.209L19.261 27.966V6.242L19.013 5.95C16.883 3.543 13.124 1.79 7.296 1.79L7.298 1.791Z" fill="#3498db"></path></svg>