<svg xmlns="http://www.w3.org/2000/svg" width="42" height="36" viewBox="0 0 42 36" fill="none"><g clip-path="url(#clip0_410_62)"><path fill-rule="evenodd" clip-rule="evenodd" d="M20.043 29.428C20.7226 29.4282 21.3841 29.647 21.9299 30.0519C22.4756 30.4569 22.8767 31.0266 23.0738 31.677C23.2709 32.3274 23.2537 33.0239 23.0247 33.6637C22.7956 34.3036 22.3669 34.8528 21.8018 35.2303C21.2367 35.6078 20.5652 35.7936 19.8864 35.7602C19.2077 35.7268 18.5576 35.476 18.0323 35.0449C17.5069 34.6138 17.1342 34.0252 16.969 33.366C16.8038 32.7067 16.855 32.0119 17.115 31.384C17.3553 30.8052 17.7616 30.3105 18.2827 29.9624C18.8038 29.6143 19.4163 29.4283 20.043 29.428ZM33.248 29.428C33.8748 29.428 34.4876 29.6139 35.0087 29.9621C35.5299 30.3104 35.9361 30.8054 36.1759 31.3845C36.4157 31.9636 36.4784 32.6009 36.3561 33.2156C36.2337 33.8304 35.9318 34.395 35.4885 34.8382C35.0452 35.2813 34.4804 35.5831 33.8657 35.7052C33.2509 35.8274 32.6136 35.7645 32.0346 35.5245C31.4556 35.2845 30.9607 34.8781 30.6126 34.3569C30.2645 33.8356 30.0788 33.2228 30.079 32.596C30.0793 31.7557 30.4133 30.9499 31.0076 30.3558C31.6018 29.7617 32.4077 29.428 33.248 29.428ZM20.043 30.923C19.7119 30.923 19.3883 31.0212 19.113 31.2051C18.8377 31.3891 18.6231 31.6505 18.4964 31.9564C18.3697 32.2623 18.3366 32.5989 18.4012 32.9236C18.4658 33.2483 18.6252 33.5466 18.8593 33.7807C19.0934 34.0148 19.3917 34.1742 19.7164 34.2388C20.0412 34.3034 20.3778 34.2703 20.6836 34.1436C20.9895 34.0169 21.251 33.8023 21.4349 33.527C21.6188 33.2517 21.717 32.9281 21.717 32.597C21.717 32.153 21.5407 31.7272 21.2267 31.4133C20.9128 31.0994 20.487 30.923 20.043 30.923ZM33.248 30.923C32.9169 30.923 32.5933 31.0212 32.318 31.2051C32.0427 31.3891 31.8282 31.6505 31.7015 31.9564C31.5747 32.2623 31.5416 32.5989 31.6062 32.9236C31.6708 33.2483 31.8302 33.5466 32.0643 33.7807C32.2984 34.0148 32.5967 34.1742 32.9214 34.2388C33.2462 34.3034 33.5827 34.2703 33.8886 34.1436C34.1945 34.0169 34.456 33.8023 34.6399 33.527C34.8238 33.2517 34.922 32.9281 34.922 32.597C34.9218 32.1531 34.7453 31.7275 34.4314 31.4136C34.1175 31.0997 33.6919 30.9233 33.248 30.923ZM9.31802 2.46514e-07C9.49073 -0.000140001 9.65814 0.0595665 9.79179 0.168959C9.92543 0.278352 10.017 0.430673 10.051 0.600001L10.651 3.661H38.681C39.5332 3.7293 40.3243 4.13045 40.8829 4.77763C41.4416 5.42481 41.7229 6.26595 41.666 7.119C41.6659 7.16289 41.6622 7.2067 41.655 7.25L38.833 23.079C38.8022 23.2518 38.7116 23.4082 38.577 23.5208C38.4425 23.6335 38.2725 23.6951 38.097 23.695H14.573L15.203 26.908H39.333C39.5319 26.908 39.7227 26.987 39.8634 27.1277C40.004 27.2683 40.083 27.4591 40.083 27.658C40.083 27.8569 40.004 28.0477 39.8634 28.1883C39.7227 28.329 39.5319 28.408 39.333 28.408H14.587C14.4142 28.408 14.2468 28.3483 14.113 28.2389C13.9792 28.1296 13.8874 27.9773 13.853 27.808L8.70302 1.508H0.747022C0.553504 1.50092 0.370273 1.41907 0.23587 1.27966C0.101467 1.14025 0.0263672 0.954148 0.0263672 0.7605C0.0263672 0.566853 0.101467 0.380752 0.23587 0.241342C0.370273 0.101933 0.553504 0.0200795 0.747022 0.0130003L9.31802 2.46514e-07ZM38.68 5.16H10.944L14.281 22.2H37.473L40.173 7.06C40.208 6.61419 40.0743 6.17151 39.7983 5.81962C39.5224 5.46774 39.1243 5.23233 38.683 5.16H38.68Z" fill="#3498db"></path></g><defs><clipPath id="clip0_410_62"><rect width="41.666" height="35.766" fill="white"></rect></clipPath></defs></svg>