<svg xmlns="http://www.w3.org/2000/svg" width="46" height="29" viewBox="0 0 46 29" fill="none"><g clip-path="url(#clip0_418_318)"><path fill-rule="evenodd" clip-rule="evenodd" d="M42.5766 0C42.7281 0.00686659 42.8745 0.0566359 42.9988 0.143519C43.1231 0.230401 43.2202 0.350826 43.2788 0.490783L43.3285 0.640108L43.3444 0.795407V2.74858H45.2541C45.3526 2.74549 45.4507 2.76242 45.5425 2.79836L45.6718 2.86506L45.7862 2.95764C45.8503 3.02048 45.901 3.09566 45.9354 3.17864L45.9831 3.32L46 3.48227V28.2056C46.0007 28.3551 45.9597 28.5018 45.8817 28.6293C45.8037 28.7568 45.6917 28.86 45.5584 28.9273L45.4142 28.9821L45.262 29H3.40649C3.25603 28.9927 3.11072 28.9428 2.98747 28.8561C2.86422 28.7694 2.7681 28.6494 2.71028 28.5102L2.67149 28.3639L2.65458 28.2096V26.2504H0.744959C0.647082 26.2536 0.549592 26.2367 0.458515 26.2006L0.329218 26.1349L0.213845 26.0424C0.149964 25.9793 0.0992505 25.9042 0.0646558 25.8214L0.0169152 25.676L7.10415e-06 25.5138V0.795407C-0.000620534 0.645793 0.0403514 0.498954 0.11834 0.371316C0.196328 0.243678 0.308257 0.140274 0.441607 0.0726717L0.585823 0.0189146L0.737996 0H42.5766ZM44.4832 4.26274H43.3434V25.5237C43.3394 25.6724 43.2913 25.8166 43.2052 25.9378L43.1057 26.0493C43.04 26.1114 42.963 26.1604 42.879 26.1937L42.7348 26.2375L42.5736 26.2514H4.16736V27.4848H44.4832V4.26274ZM41.8277 1.51516H1.51676V24.7363H41.8307L41.8277 1.51516ZM35.2435 2.74958C35.4411 2.75545 35.6288 2.83738 35.7676 2.97831C35.9063 3.11924 35.9854 3.30831 35.9884 3.50616C35.8898 4.81638 36.2958 6.1147 37.1232 7.13477C37.9919 7.85702 39.1088 8.20976 40.2343 8.11733C40.3322 8.11923 40.4288 8.14053 40.5184 8.18C40.608 8.21947 40.689 8.27633 40.7565 8.34729C40.8178 8.41217 40.8667 8.48775 40.9007 8.57028L40.9455 8.71264L40.9614 8.87391V17.4352C40.9635 17.5328 40.9463 17.6297 40.9109 17.7206C40.8755 17.8115 40.8225 17.8944 40.7549 17.9647C40.6874 18.035 40.6066 18.0913 40.5173 18.1302C40.4279 18.1692 40.3318 18.1901 40.2343 18.1918C37.2307 18.2396 36.0242 19.5268 35.9407 22.7781C35.9364 22.923 35.8898 23.0634 35.8068 23.1821C35.7237 23.3008 35.6077 23.3925 35.4732 23.4461L35.327 23.4919L35.1848 23.5038H7.68325C7.48603 23.5076 7.29527 23.4334 7.15229 23.2974C7.00932 23.1614 6.92564 22.9745 6.9194 22.7771L6.90548 22.362L6.86072 21.6054C6.63992 18.8907 5.83132 18.2346 3.49999 18.1968C3.35347 18.1945 3.21073 18.1499 3.08897 18.0683C2.96721 17.9867 2.87162 17.8716 2.81372 17.7369L2.76399 17.5905L2.74708 17.4392V8.87192C2.74957 8.67181 2.82937 8.48044 2.96972 8.33791C3.11008 8.19538 3.30011 8.11276 3.49999 8.10738C6.08593 8.06656 6.82889 7.1955 6.92338 3.50716C6.92645 3.36096 6.97113 3.21867 7.05217 3.097C7.13321 2.97533 7.24724 2.87933 7.38089 2.82026L7.52511 2.76849L7.67927 2.74858H35.2455L35.2435 2.74958ZM34.5194 4.26274H8.40433L8.39041 4.50465C8.17358 7.64845 7.21678 9.12379 4.785 9.52398L4.44485 9.57176L4.25787 9.58869V16.7225L4.4727 16.7424C5.47102 16.7945 6.41587 17.2101 7.12926 17.9111L7.32818 18.1401C7.94993 19.053 8.30346 20.1222 8.34863 21.2261L8.3914 21.7119L8.40632 21.9827H34.4727L34.4955 21.7527C34.8098 18.8469 36.248 17.2172 38.8618 16.7892L39.2427 16.7354L39.4506 16.7165V9.58869L39.1522 9.55882C38.1373 9.45999 37.1697 9.08087 36.3574 8.46377L36.059 8.20095C35.1426 7.20815 34.6082 5.92183 34.5512 4.57135L34.5194 4.26274ZM21.6543 5.05915C23.7813 5.06023 25.8222 5.89975 27.3353 7.39596C28.8483 8.89216 29.7118 10.9246 29.7386 13.0534C29.7655 15.1821 28.9536 17.2357 27.4787 18.7697C26.0039 20.3037 23.9848 21.1945 21.8585 21.2493C19.7323 21.3041 17.67 20.5185 16.1182 19.0626C14.5664 17.6067 13.65 15.5976 13.5673 13.4703C13.4846 11.3431 14.2423 9.26877 15.6764 7.69658C17.1105 6.12438 19.1056 5.18079 21.2296 5.0701L21.6543 5.05915ZM16.9996 8.50259C16.0014 9.50198 15.3508 10.7962 15.1438 12.1941C14.9368 13.5919 15.1845 15.0194 15.8501 16.2656C16.5158 17.5118 17.5642 18.5107 18.8406 19.1148C20.1169 19.7189 21.5535 19.8962 22.9383 19.6204C24.323 19.3446 25.5824 18.6304 26.5305 17.5833C27.4786 16.5362 28.0651 15.2117 28.2035 13.8054C28.3419 12.399 28.0247 10.9854 27.2989 9.77331C26.573 8.56121 25.477 7.61487 24.1726 7.07404C22.9699 6.57563 21.6465 6.44532 20.3697 6.69959C19.0929 6.95387 17.9202 7.5813 16.9996 8.50259ZM21.6245 7.60664C21.7719 7.60698 21.9161 7.65065 22.0389 7.73223C22.1618 7.81382 22.2581 7.92972 22.3157 8.06557L22.3645 8.21489L22.3804 8.36422V8.77735L22.4659 8.80124C22.8961 8.94402 23.2814 9.19721 23.5833 9.53556C23.8852 9.87392 24.0932 10.2856 24.1866 10.7295L24.2283 11.0023L24.2413 11.2601C24.2419 11.448 24.1728 11.6294 24.0472 11.7691C23.9216 11.9087 23.7486 11.9966 23.5618 12.0156C23.3751 12.0346 23.1879 11.9834 23.0368 11.8719C22.8857 11.7604 22.7815 11.5966 22.7444 11.4124L22.7285 11.2601C22.7285 11.0475 22.6655 10.8396 22.5475 10.6628C22.4294 10.486 22.2617 10.3482 22.0654 10.2668C21.8691 10.1855 21.6531 10.1642 21.4448 10.2056C21.2364 10.2471 21.045 10.3495 20.8948 10.4999C20.7446 10.6503 20.6422 10.8418 20.6008 11.0504C20.5594 11.2589 20.5806 11.4751 20.6619 11.6716C20.7432 11.868 20.8809 12.0359 21.0575 12.1541C21.2342 12.2722 21.4419 12.3353 21.6543 12.3353C22.2436 12.3359 22.815 12.538 23.2739 12.9081C23.7327 13.2781 24.0516 13.7939 24.1776 14.3701C24.3036 14.9463 24.2292 15.5482 23.9668 16.0763C23.7043 16.6044 23.2696 17.027 22.7344 17.274L22.4759 17.3735L22.3764 17.3994V17.9798C22.3768 18.1286 22.3332 18.2741 22.251 18.3981C22.1689 18.5221 22.052 18.619 21.9149 18.6766L21.7737 18.7214L21.6205 18.7374C21.4729 18.7371 21.3287 18.6933 21.2057 18.6115C21.0828 18.5297 20.9867 18.4135 20.9293 18.2774L20.8795 18.1291L20.8646 17.9798V17.3825L20.7652 17.3506C20.3576 17.2014 19.9942 16.952 19.7082 16.6253C19.4223 16.2985 19.2231 15.9051 19.129 15.4811L19.0813 15.1914L19.0674 14.9196C19.0679 14.7323 19.1378 14.5519 19.2634 14.4131C19.3891 14.2743 19.5616 14.187 19.7478 14.1681C19.9339 14.1492 20.1205 14.1999 20.2714 14.3106C20.4224 14.4212 20.5271 14.5839 20.5652 14.7673L20.5802 14.9196C20.5802 15.1322 20.6432 15.3401 20.7612 15.5169C20.8792 15.6937 21.047 15.8315 21.2433 15.9129C21.4395 15.9943 21.6555 16.0156 21.8639 15.9741C22.0722 15.9326 22.2636 15.8302 22.4139 15.6798C22.5641 15.5295 22.6664 15.3379 22.7078 15.1294C22.7493 14.9208 22.728 14.7046 22.6467 14.5082C22.5654 14.3117 22.4277 14.1438 22.2511 14.0257C22.0744 13.9075 21.8668 13.8445 21.6543 13.8445C21.0699 13.8446 20.5027 13.6465 20.0452 13.2826C19.5876 12.9188 19.2667 12.4105 19.1348 11.8407C19.0028 11.2708 19.0675 10.6731 19.3185 10.1448C19.5694 9.61655 19.9917 9.18893 20.5165 8.93165L20.7701 8.82215L20.8696 8.79228V8.36024C20.8698 8.21146 20.9138 8.06604 20.996 7.94212C21.0783 7.81819 21.1951 7.72125 21.3321 7.66338L21.4743 7.61958L21.6265 7.60365L21.6245 7.60664Z" fill="#3498db"></path></g><defs><clipPath id="clip0_418_318"><rect width="46" height="29" fill="white"></rect></clipPath></defs></svg>