<svg xmlns="http://www.w3.org/2000/svg" width="42" height="38" viewBox="0 0 42 38" fill="none"><path fill-rule="evenodd" clip-rule="evenodd" d="M12.5996 0.00104446C15.1276 0.00104446 17.8996 1.36104 20.8336 4.06704C23.3699 1.75642 26.6727 0.46808 30.1036 0.451044C31.5744 0.440962 33.0319 0.72897 34.3883 1.29769C35.7447 1.8664 36.9718 2.70404 37.9956 3.76004C40.3506 6.20774 41.6661 9.47239 41.6661 12.869C41.6661 16.2657 40.3506 19.5304 37.9956 21.978L22.4326 36.951C21.9929 37.379 21.4036 37.6184 20.7901 37.6184C20.1766 37.6184 19.5873 37.379 19.1476 36.951L8.53861 26.704C8.35442 26.5262 8.24841 26.2825 8.24391 26.0265C8.23941 25.7705 8.33678 25.5232 8.51461 25.339C8.69244 25.1549 8.93615 25.0488 9.19214 25.0443C9.44813 25.0398 9.69542 25.1372 9.87961 25.315L20.4916 35.565C20.5717 35.6437 20.6794 35.6878 20.7916 35.6878C20.9038 35.6878 21.0116 35.6437 21.0916 35.565L36.5916 20.611C38.587 18.5243 39.7006 15.7483 39.7006 12.861C39.7006 9.97381 38.587 7.19782 36.5916 5.11104C35.7442 4.2397 34.7291 3.54902 33.6075 3.08069C32.4859 2.61235 31.281 2.37605 30.0656 2.38604H29.9936C26.8259 2.44927 23.8095 3.75347 21.5936 6.01804C21.3916 6.21653 21.1198 6.32775 20.8366 6.32775C20.5534 6.32775 20.2816 6.21653 20.0796 6.01804C17.3326 3.34304 14.7466 1.92904 12.5996 1.92904C11.1929 1.92471 9.79986 2.20409 8.50364 2.75048C7.20743 3.29687 6.03471 4.09905 5.05561 5.10904C3.97952 6.2244 3.148 7.55202 2.61421 9.00702C2.08042 10.462 1.85611 12.0124 1.95561 13.559C1.96493 13.8115 1.87511 14.0575 1.70537 14.2446C1.53562 14.4316 1.29942 14.5448 1.04729 14.56C0.795149 14.5751 0.547091 14.491 0.356162 14.3257C0.165234 14.1603 0.0465921 13.9268 0.0256115 13.675C-0.0881438 11.8604 0.177891 10.0419 0.806718 8.33591C1.43554 6.62988 2.41333 5.07378 3.67761 3.76704C4.83515 2.57133 6.22201 1.62142 7.7552 0.974155C9.28839 0.326892 10.9364 -0.00442013 12.6006 4.45292e-05L12.5996 0.00104446ZM15.8426 10.295C16.0464 10.3074 16.2411 10.384 16.3987 10.5139C16.5563 10.6438 16.6686 10.8203 16.7196 11.018L19.3866 21.751L22.2806 16.251C22.3582 16.0836 22.4821 15.9418 22.6377 15.8426C22.7933 15.7434 22.9741 15.6908 23.1586 15.691L23.2866 15.699C23.4336 15.7179 23.5743 15.7705 23.6976 15.8528C23.821 15.935 23.9236 16.0446 23.9976 16.173L25.8256 19.434H29.7326C29.8619 19.4299 29.9907 19.4517 30.1113 19.4983C30.232 19.5449 30.342 19.6153 30.435 19.7053C30.5279 19.7953 30.6018 19.903 30.6522 20.0221C30.7027 20.1412 30.7287 20.2692 30.7287 20.3985C30.7287 20.5279 30.7027 20.6559 30.6522 20.775C30.6018 20.8941 30.5279 21.0018 30.435 21.0918C30.342 21.1818 30.232 21.2521 30.1113 21.2987C29.9907 21.3453 29.8619 21.3672 29.7326 21.363H25.2526C25.0825 21.3642 24.9151 21.3201 24.7675 21.2355C24.62 21.1508 24.4975 21.0285 24.4126 20.881L23.1826 18.686L19.9656 24.851C19.8837 25.0066 19.7609 25.1369 19.6104 25.2278C19.4599 25.3188 19.2874 25.3669 19.1116 25.367H19.0016C18.8066 25.3448 18.623 25.2636 18.4754 25.1342C18.3278 25.0048 18.2232 24.8335 18.1756 24.643L15.5856 14.383L12.7786 21.619C12.714 21.7861 12.6042 21.9319 12.4614 22.0401C12.3186 22.1483 12.1486 22.2146 11.9703 22.2316C11.7919 22.2487 11.6124 22.2157 11.4517 22.1365C11.2911 22.0573 11.1557 21.9349 11.0606 21.783L8.92461 18.378L7.35161 20.929C7.26833 21.0736 7.14901 21.194 7.00529 21.2787C6.86158 21.3633 6.69838 21.4093 6.53161 21.412L2.57661 21.436C2.32068 21.436 2.07523 21.3344 1.89425 21.1534C1.71328 20.9724 1.61161 20.727 1.61161 20.471C1.61161 20.2151 1.71328 19.9697 1.89425 19.7887C2.07523 19.6077 2.32068 19.506 2.57661 19.506H5.99661L8.10461 16.091C8.18795 15.9467 8.3073 15.8263 8.45103 15.7419C8.59475 15.6574 8.75792 15.6116 8.92461 15.609L9.04761 15.617C9.1885 15.636 9.3235 15.6857 9.44307 15.7626C9.56264 15.8395 9.66388 15.9417 9.73961 16.062L11.6696 19.154L14.8866 10.906C14.9609 10.7161 15.0934 10.5546 15.2651 10.4446C15.4369 10.3347 15.639 10.282 15.8426 10.294V10.295Z" fill="#3498db"></path></svg>