<svg xmlns="http://www.w3.org/2000/svg" width="42" height="39" viewBox="0 0 42 39" fill="none"><g clip-path="url(#clip0_410_69)"><path fill-rule="evenodd" clip-rule="evenodd" d="M40.74 37.038H35.648V19.77L35.879 19.908C36.2529 20.1575 36.6722 20.3309 37.1131 20.4184C37.554 20.5058 38.0078 20.5056 38.4486 20.4176C38.8894 20.3297 39.3086 20.1558 39.6822 19.9059C40.0558 19.6559 40.3765 19.3349 40.626 18.961C40.8755 18.5871 41.0489 18.1678 41.1364 17.7269C41.2238 17.286 41.2236 16.8322 41.1356 16.3914C41.0477 15.9506 40.8738 15.5314 40.6239 15.1578C40.3739 14.7842 40.0529 14.4635 39.679 14.214L21.342 1.992C21.1879 1.90085 21.0121 1.85277 20.833 1.85277C20.6539 1.85277 20.4781 1.90085 20.324 1.992L13.424 6.622V3.704C13.424 2.72164 13.0338 1.77951 12.3391 1.08488C11.6445 0.390242 10.7024 0 9.72 0C8.73764 0 7.79551 0.390242 7.10088 1.08488C6.40624 1.77951 6.016 2.72164 6.016 3.704V11.528L1.99 14.213C1.37727 14.6225 0.912264 15.218 0.663467 15.9117C0.414669 16.6054 0.395238 17.3607 0.608035 18.0663C0.820832 18.7719 1.25461 19.3905 1.84546 19.831C2.43632 20.2714 3.15302 20.5105 3.89 20.513C4.56359 20.515 5.22341 20.3223 5.79 19.958L6.021 19.818V37.037H0.926C0.68041 37.037 0.444878 37.1346 0.271219 37.3082C0.0975606 37.4819 0 37.7174 0 37.963C0 38.2086 0.0975606 38.4441 0.271219 38.6178C0.444878 38.7914 0.68041 38.889 0.926 38.889H40.74C40.9856 38.889 41.2211 38.7914 41.3948 38.6178C41.5684 38.4441 41.666 38.2086 41.666 37.963C41.666 37.7174 41.5684 37.4819 41.3948 37.3082C41.2211 37.1346 40.9856 37.037 40.74 37.037V37.038ZM9.723 1.851C10.2137 1.85258 10.6838 2.04821 11.0308 2.39519C11.3778 2.74216 11.5734 3.21231 11.575 3.703V7.823L7.875 10.277V3.705C7.87579 3.21457 8.07055 2.74436 8.41677 2.39701C8.763 2.04966 9.23257 1.85338 9.723 1.851ZM4.768 18.381C4.53203 18.5426 4.25635 18.6366 3.9708 18.6528C3.68525 18.669 3.40071 18.6068 3.14798 18.4729C2.89524 18.339 2.68394 18.1386 2.53694 17.8932C2.38994 17.6479 2.31285 17.367 2.314 17.081C2.31769 16.824 2.38324 16.5717 2.50508 16.3454C2.62693 16.1191 2.80149 15.9255 3.014 15.781L7.458 12.818L13.014 9.118L20.833 3.891L38.657 15.791C38.8756 15.9289 39.0546 16.1212 39.1764 16.3491C39.2982 16.577 39.3587 16.8327 39.352 17.091C39.3535 17.3771 39.2766 17.6582 39.1297 17.9038C38.9828 18.1493 38.7714 18.35 38.5186 18.4839C38.2657 18.6179 37.981 18.68 37.6953 18.6637C37.4096 18.6473 37.1339 18.553 36.898 18.391L35.233 17.271L21.342 8.011C21.1879 7.91985 21.0121 7.87177 20.833 7.87177C20.6539 7.87177 20.4781 7.91985 20.324 8.011L6.433 17.271L4.767 18.381H4.768ZM7.868 18.566L20.833 9.908L33.796 18.566V37.038H7.87V18.566H7.868ZM28.424 20.094L14.533 33.981C14.4494 34.0695 14.3487 34.14 14.2369 34.1882C14.1251 34.2364 14.0047 34.2612 13.883 34.2612C13.7613 34.2612 13.6409 34.2364 13.5291 34.1882C13.4173 34.14 13.3166 34.0695 13.233 33.981C13.1453 33.897 13.0755 33.7961 13.0278 33.6844C12.9801 33.5727 12.9555 33.4525 12.9555 33.331C12.9555 33.2095 12.9801 33.0893 13.0278 32.9776C13.0755 32.8659 13.1453 32.765 13.233 32.681L27.133 18.796C27.3054 18.6236 27.5392 18.5268 27.783 18.5268C28.0268 18.5268 28.2606 18.6236 28.433 18.796C28.6054 18.9684 28.7022 19.2022 28.7022 19.446C28.7022 19.6898 28.6054 19.9236 28.433 20.096L28.424 20.094ZM16.203 25.001C16.8438 25.001 17.4701 24.811 18.0029 24.455C18.5357 24.0991 18.951 23.5931 19.1963 23.0011C19.4415 22.4092 19.5058 21.7577 19.3808 21.1293C19.2559 20.5008 18.9474 19.9235 18.4944 19.4703C18.0414 19.0172 17.4641 18.7085 16.8357 18.5834C16.2073 18.4582 15.5558 18.5223 14.9638 18.7673C14.3717 19.0124 13.8657 19.4275 13.5095 19.9602C13.1534 20.4929 12.9632 21.1192 12.963 21.76C12.9602 22.1863 13.0421 22.6089 13.2039 23.0033C13.3658 23.3977 13.6043 23.7561 13.9057 24.0576C14.2071 24.3591 14.5654 24.5977 14.9597 24.7597C15.3541 24.9216 15.7767 25.0037 16.203 25.001ZM16.203 20.371C16.4777 20.371 16.7463 20.4525 16.9747 20.6051C17.2031 20.7577 17.3811 20.9746 17.4863 21.2285C17.5914 21.4823 17.6189 21.7615 17.5653 22.031C17.5117 22.3004 17.3794 22.5479 17.1852 22.7422C16.9909 22.9364 16.7434 23.0687 16.474 23.1223C16.2045 23.1759 15.9253 23.1484 15.6715 23.0433C15.4176 22.9381 15.2007 22.7601 15.0481 22.5317C14.8955 22.3033 14.814 22.0347 14.814 21.76C14.8107 21.5767 14.8445 21.3946 14.9131 21.2246C14.9818 21.0546 15.084 20.9002 15.2136 20.7706C15.3432 20.6409 15.4976 20.5388 15.6676 20.4701C15.8376 20.4015 16.0197 20.3677 16.203 20.371ZM25.463 27.779C24.8219 27.7788 24.1952 27.9687 23.6621 28.3247C23.129 28.6807 22.7134 29.1868 22.468 29.779C22.2225 30.3712 22.1582 31.0229 22.2832 31.6517C22.4081 32.2804 22.7167 32.858 23.1699 33.3114C23.6231 33.7647 24.2006 34.0735 24.8293 34.1987C25.4581 34.3238 26.1098 34.2597 26.702 34.0144C27.2943 33.7691 27.8006 33.3537 28.1567 32.8207C28.5129 32.2877 28.703 31.6611 28.703 31.02C28.7058 30.5937 28.6239 30.1711 28.4621 29.7767C28.3002 29.3823 28.0617 29.0239 27.7603 28.7224C27.4589 28.4209 27.1006 28.1823 26.7063 28.0203C26.3119 27.8584 25.8893 27.7763 25.463 27.779ZM25.463 32.409C25.1883 32.409 24.9197 32.3275 24.6913 32.1749C24.4629 32.0223 24.2849 31.8054 24.1797 31.5515C24.0746 31.2977 24.0471 31.0185 24.1007 30.749C24.1543 30.4796 24.2866 30.2321 24.4808 30.0378C24.6751 29.8436 24.9226 29.7113 25.192 29.6577C25.4615 29.6041 25.7407 29.6316 25.9945 29.7367C26.2484 29.8419 26.4653 30.0199 26.6179 30.2483C26.7705 30.4767 26.852 30.7453 26.852 31.02C26.8553 31.2033 26.8215 31.3854 26.7529 31.5554C26.6842 31.7254 26.5821 31.8798 26.4524 32.0094C26.3228 32.139 26.1684 32.2412 25.9984 32.3099C25.8284 32.3785 25.6463 32.4123 25.463 32.409Z" fill="#3498db"></path></g><defs><clipPath id="clip0_410_69"><rect width="41.666" height="38.889" fill="white"></rect></clipPath></defs></svg>