<svg xmlns="http://www.w3.org/2000/svg" width="56" height="55" viewBox="0 0 56 55">
    <g fill="none" fill-rule="evenodd">
        <g>
            <g>
                <g>
                    <path fill="#FFF" d="M0 22H53V34H0z" transform="translate(-572 -996) translate(548 996) translate(24)"/>
                    <g fill="#3498db" fill-rule="nonzero">
                        <g>
                            <path d="M19.006 16.715c-3.262 0-5.906 2.621-5.906 5.854 0 3.234 2.644 5.854 5.906 5.854 3.262 0 5.906-2.62 5.906-5.854-.004-3.231-2.646-5.85-5.906-5.854zm0 10.216c-2.43 0-4.4-1.953-4.4-4.362 0-2.408 1.97-4.361 4.4-4.361 2.43 0 4.4 1.953 4.4 4.361-.002 2.408-1.971 4.36-4.4 4.362z" transform="translate(-572 -996) translate(548 996) translate(24) translate(3 3) matrix(1 0 0 -1 6.25 47.222)"/>
                            <path d="M27.871 23.368c.057-.664.04-1.333-.052-1.994l.812-.771c.228-.217.295-.551.168-.838l-1.096-2.484c-.128-.29-.426-.468-.744-.445l-1.12.082c-.428-.517-.919-.98-1.46-1.379l.032-1.107c.01-.316-.183-.604-.481-.718l-2.55-.975c-.297-.114-.633-.03-.84.208l-.727.835c-.671-.056-1.346-.039-2.013.052l-.778-.805c-.219-.226-.556-.292-.845-.167l-2.506 1.086c-.292.127-.472.423-.449.739l.082 1.11c-.521.424-.988.91-1.39 1.447l-1.117-.032c-.32-.01-.61.181-.725.477l-.984 2.527c-.114.294-.03.628.21.834l.843.72c-.057.665-.04 1.333.052 1.994l-.812.772c-.228.216-.295.55-.169.837l1.097 2.483c.127.29.426.469.744.446l1.12-.082c.428.517.919.98 1.46 1.38l-.032 1.106c-.01.316.183.604.481.718l2.55.976c.296.113.633.03.84-.209l.727-.835c.67.057 1.345.04 2.012-.051l.779.804c.218.226.555.293.845.167l2.506-1.086c.292-.126.472-.422.449-.738l-.083-1.11c.522-.424.99-.91 1.391-1.447l1.117.032c.32.011.61-.18.725-.477l.984-2.527c.114-.294.03-.628-.21-.834l-.843-.72zm-1.144 3.052l-.989-.029c-.26-.008-.505.117-.648.332-.435.647-.98 1.214-1.61 1.676-.208.152-.323.4-.304.655l.073.98-1.536.667-.687-.71c-.176-.181-.43-.263-.68-.218-.779.141-1.576.162-2.361.06-.251-.032-.502.063-.667.253l-.638.733-1.558-.596.029-.98c.007-.257-.12-.5-.335-.643-.653-.43-1.225-.971-1.691-1.596-.154-.206-.403-.32-.66-.3l-.99.071-.673-1.522.717-.682c.183-.173.265-.426.22-.672-.143-.773-.164-1.563-.062-2.342.033-.249-.063-.497-.254-.66l-.74-.633.602-1.545.988.029c.26.008.505-.118.649-.332.435-.647.98-1.214 1.61-1.676.208-.153.323-.4.304-.655l-.073-.981 1.536-.666.687.71c.175.181.43.263.679.218.78-.142 1.577-.162 2.362-.06.251.032.502-.063.667-.253l.638-.733 1.559.596-.03.98c-.007.257.12.5.335.643.653.43 1.225.971 1.692 1.596.153.206.402.32.66.3l.99-.071.672 1.522-.717.681c-.183.174-.265.427-.22.673.143.773.164 1.563.061 2.342-.032.248.064.497.255.66l.74.633-.602 1.545z" transform="translate(-572 -996) translate(548 996) translate(24) translate(3 3) matrix(1 0 0 -1 6.25 47.222)"/>
                            <path d="M.753 30.31c-.416 0-.753.334-.753.746s.337.746.753.746h5.08v3.046c.013.425.357.766.785.778h8.342v1.306h-3.022c-.197-.002-.387.075-.527.213-.139.138-.216.326-.214.522v1.977c-.407.126-.779.345-1.084.64-1.006 1-1.004 2.62.005 3.619 1.009.998 2.643.998 3.651 0 1.009-.999 1.011-2.618.005-3.62-.301-.294-.669-.513-1.072-.64v-1.219h2.976c.425-.003.772-.337.787-.757v-2.04h1.788v4.426c-1.228.37-1.999 1.576-1.81 2.835.189 1.258 1.279 2.19 2.563 2.19 1.284 0 2.374-.932 2.563-2.19.188-1.26-.582-2.465-1.81-2.835v-4.427h1.787v2.04c.015.421.362.755.787.758h2.977v1.22c-.404.126-.772.345-1.073.64-.744.735-.968 1.842-.567 2.804.4.962 1.347 1.59 2.398 1.59 1.05 0 1.997-.628 2.398-1.59.4-.962.177-2.07-.568-2.804-.305-.295-.676-.514-1.083-.64v-1.977c.002-.196-.075-.384-.215-.522s-.329-.215-.526-.213h-3.022v-1.306h8.342c.428-.012.772-.353.784-.778v-3.046h5.081c.416 0 .753-.334.753-.746s-.337-.746-.753-.746h-5.08v-4.103h5.08c.416 0 .753-.334.753-.746s-.337-.747-.753-.747h-5.08v-4.103h5.08c.416 0 .753-.334.753-.746s-.337-.746-.753-.746h-5.08v-4.104h5.08c.416 0 .753-.334.753-.746s-.337-.746-.753-.746h-5.08v-3.232c-.013-.425-.357-.766-.785-.778h-8.342V8.207h3.022c.197.002.387-.075.526-.213.14-.138.217-.326.215-.522V5.495c.407-.126.778-.345 1.084-.64 1.005-1 1.003-2.62-.005-3.619-1.009-.998-2.643-.998-3.651 0-1.01.999-1.011 2.618-.006 3.62.302.294.67.513 1.073.639v1.22h-2.977c-.425.003-.772.337-.787.757v2.04H19.76V5.087c1.228-.37 1.998-1.576 1.81-2.835-.189-1.259-1.28-2.19-2.563-2.19-1.284 0-2.374.931-2.563 2.19-.189 1.26.582 2.465 1.81 2.835v4.427h-1.788v-2.04c-.015-.421-.362-.755-.786-.758h-2.977v-1.22c.404-.126.771-.346 1.073-.64.744-.735.968-1.842.567-2.804-.4-.963-1.348-1.59-2.398-1.59s-1.997.627-2.398 1.59c-.401.962-.177 2.07.567 2.804.306.295.677.514 1.084.64v1.977c-.003.196.075.384.214.522.14.138.33.215.527.213h3.022v1.306H6.618c-.428.012-.772.353-.785.778v3.232H.753c-.416 0-.753.334-.753.746s.337.746.753.746h5.08v4.104H.753c-.416 0-.753.334-.753.746s.337.746.753.746h5.08v4.103H.753c-.416 0-.753.335-.753.747s.337.746.753.746h5.08v4.103H.753zM13.022 42.1c0 .511-.365.952-.872 1.052-.506.1-1.013-.17-1.21-.642-.199-.473-.032-1.018.398-1.303.429-.284 1.001-.229 1.366.133.204.201.319.475.318.76zm7.068.409c0 .486-.33.911-.803 1.037-.474.126-.974-.08-1.22-.5-.244-.421-.174-.953.173-1.297.31-.307.776-.399 1.18-.233.406.167.67.558.67.993zm7.068-.41c0 .512-.365.953-.872 1.053-.506.1-1.013-.17-1.211-.642-.198-.473-.03-1.018.398-1.303.43-.284 1.002-.229 1.367.133.204.201.318.475.317.76zM24.99 3.04c0-.512.365-.953.872-1.053.507-.1 1.015.169 1.212.642.198.474.031 1.02-.399 1.304-.43.285-1.002.23-1.368-.133-.204-.201-.318-.475-.317-.76zm-7.068-.409c0-.486.33-.911.803-1.037.474-.126.974.08 1.219.5.245.421.174.953-.172 1.297-.31.307-.776.399-1.181.233-.405-.167-.669-.558-.669-.993zm-7.068.41c0-.513.366-.954.873-1.054.507-.1 1.014.169 1.212.642.198.474.03 1.02-.4 1.304-.429.285-1.002.23-1.367-.133-.204-.201-.318-.475-.318-.76zM7.34 11.004h23.334v23.129H7.339v-23.13z" transform="translate(-572 -996) translate(548 996) translate(24) translate(3 3) matrix(1 0 0 -1 6.25 47.222)"/>
                        </g>
                    </g>
                </g>
            </g>
        </g>
    </g>
</svg>
