<svg xmlns="http://www.w3.org/2000/svg" width="31" height="46" viewBox="0 0 31 46" fill="none"><g clip-path="url(#clip0_410_47)"><path fill-rule="evenodd" clip-rule="evenodd" d="M15.32 -2.00537e-06C19.3797 0.00923937 23.2706 1.62586 26.1416 4.49627C29.0126 7.36668 30.6299 11.2572 30.64 15.317C30.6463 16.5313 30.4957 17.7413 30.192 18.917C29.8056 20.7798 29.1243 22.5689 28.174 24.217L27.574 25.3L27.029 26.256C26.7078 26.8106 26.3362 27.3345 25.919 27.821L25.289 28.547L24.979 28.917L24.709 29.259L24.576 29.459C24.104 30.2631 23.8988 31.1961 23.99 32.124V35.904L23.972 36.222C23.9178 36.688 23.7483 37.1332 23.4789 37.5173C23.2095 37.9014 22.8487 38.2123 22.429 38.422L21.859 38.722L21.759 39.357L21.679 39.839C20.943 43.93 19.014 45.839 15.316 45.839C11.476 45.839 9.54299 43.783 8.87299 39.359L8.77299 38.723L8.20299 38.423L7.92299 38.258C7.52962 38.0054 7.20618 37.6578 6.98248 37.2472C6.75879 36.8367 6.64204 36.3765 6.64299 35.909V31.752C6.68789 31.1506 6.59249 30.5469 6.36429 29.9887C6.13609 29.4304 5.78133 28.9328 5.32799 28.535L4.99699 28.158C4.37711 27.4779 3.84311 26.7243 3.40699 25.914L3.35199 25.822L2.73099 24.675C2.63499 24.4943 2.54265 24.318 2.45399 24.146L1.96199 23.162C1.29082 21.8312 0.784739 20.4235 0.454986 18.97L0.284986 18.25C0.0922129 17.2844 -0.00193754 16.3017 0.00398616 15.317C0.00253977 13.3047 0.397817 11.3119 1.16721 9.45258C1.9366 7.59322 3.065 5.90378 4.48789 4.4809C5.91077 3.05801 7.60021 1.92961 9.45957 1.16022C11.3189 0.390828 13.3117 -0.00444842 15.324 -0.00300203L15.32 -2.00537e-06ZM20.193 38.692H10.34L10.724 40.266L10.836 40.688C11.436 42.73 12.546 43.782 14.126 44.037C14.338 44.072 14.5522 44.093 14.767 44.1L15.32 44.108L15.826 44.098C17.936 43.998 19.246 43.006 19.854 40.238L20.193 38.692ZM22.263 31.132H8.37799V36.532C8.37799 36.6646 8.43067 36.7918 8.52443 36.8856C8.6182 36.9793 8.74538 37.032 8.87799 37.032H21.764C21.8966 37.032 22.0238 36.9793 22.1175 36.8856C22.2113 36.7918 22.264 36.6646 22.264 36.532V31.131L22.263 31.132ZM15.321 1.655C11.6994 1.66134 8.22786 3.1027 5.66679 5.66339C3.10573 8.22408 1.66386 11.6954 1.65699 15.317L1.66699 15.912C1.68522 16.6478 1.77227 17.3804 1.92699 18.1L2.02099 18.47L2.03299 18.585L2.11899 18.975C2.46683 20.3742 2.99598 21.7219 3.69299 22.984L4.21999 23.962L4.83699 25.053C5.18126 25.6447 5.57146 26.2084 6.00399 26.739L6.59099 27.429C7.02428 27.8668 7.4067 28.3523 7.73099 28.876L8.10399 29.476H22.538L23.022 28.707L23.122 28.561L23.357 28.251L23.657 27.887L24.613 26.773C24.9854 26.3341 25.3218 25.8659 25.619 25.373L25.807 25.053L26.437 23.907L26.97 22.897C27.7251 21.5239 28.2772 20.0485 28.609 18.517L28.731 17.873L28.822 17.311C28.9261 16.652 28.9809 15.9862 28.986 15.319C28.9888 13.5238 28.6372 11.7456 27.9514 10.0865C27.2657 8.4274 26.2592 6.91995 24.9897 5.65057C23.7202 4.38119 22.2127 3.37483 20.5536 2.68919C18.8944 2.00355 17.1162 1.6521 15.321 1.655Z" fill="#3498db"></path><path fill-rule="evenodd" clip-rule="evenodd" d="M18.076 7.292C18.551 7.292 18.741 7.739 18.603 8.24L18.545 8.408L15.595 14.817H18.605C19.439 14.817 19.789 15.423 19.458 16.06L19.358 16.22L19.242 16.368L12.375 24.517C12.2754 24.6804 12.1409 24.8198 11.9812 24.9253C11.8215 25.0307 11.6404 25.0996 11.451 25.127C10.951 25.127 10.784 24.64 10.951 24.127L11.019 23.957L13.804 18.134H11.614C10.793 18.134 10.44 17.574 10.724 16.924L10.807 16.759L10.918 16.593L17.189 7.917C17.275 7.74854 17.4007 7.60353 17.5552 7.49447C17.7097 7.38541 17.8885 7.31558 18.076 7.291V7.292ZM15.498 12.248L12.104 16.965L14.304 16.972C14.4182 16.972 14.5313 16.9951 14.6364 17.0398C14.7416 17.0844 14.8367 17.1498 14.916 17.232L15.023 17.369C15.0837 17.4659 15.1243 17.5739 15.1425 17.6868C15.1608 17.7996 15.1561 17.915 15.129 18.026L15.071 18.189L13.604 21.25L18.031 15.986H15.109C14.9955 15.9861 14.8831 15.9633 14.7785 15.9192C14.6739 15.8751 14.5792 15.8104 14.5 15.729L14.393 15.595C14.3319 15.4993 14.2905 15.3923 14.2712 15.2803C14.252 15.1683 14.2553 15.0537 14.281 14.943L14.337 14.781L15.497 12.251L15.498 12.248Z" fill="#3498db"></path></g><defs><clipPath id="clip0_410_47"><rect width="30.64" height="45.834" fill="white"></rect></clipPath></defs></svg>