<svg xmlns="http://www.w3.org/2000/svg" width="47" height="47" viewBox="0 0 47 47" fill="none"><g clip-path="url(#clip0_410_214)"><path fill-rule="evenodd" clip-rule="evenodd" d="M40.518 6.171C40.7827 6.15806 41.0472 6.20027 41.2948 6.29495C41.5423 6.38963 41.7675 6.53471 41.956 6.721C42.0906 6.86327 42.2014 7.02638 42.284 7.204C43.5775 8.46326 44.6085 9.96639 45.3176 11.6265C46.0266 13.2866 46.3996 15.0708 46.415 16.876C46.386 18.8318 45.968 20.7623 45.1853 22.5549C44.4025 24.3475 43.2708 25.9663 41.856 27.317C41.586 27.587 41.306 27.838 41.026 28.079L43.845 39.373H44.018C44.6332 39.3754 45.2225 39.6215 45.6566 40.0575C46.0907 40.4935 46.3343 41.0838 46.334 41.699V45.332C46.334 45.5972 46.2286 45.8516 46.0411 46.0391C45.8536 46.2266 45.5992 46.332 45.334 46.332H31.891C31.6258 46.332 31.3714 46.2266 31.1839 46.0391C30.9964 45.8516 30.891 45.5972 30.891 45.332V41.702C30.8928 41.0882 31.1376 40.5 31.5717 40.066C32.0059 39.6321 32.5942 39.3876 33.208 39.386H33.439L36.529 30.736C34.9235 31.3254 33.2291 31.6358 31.519 31.654H31.345C28.9428 31.6618 26.5747 31.0852 24.445 29.974C24.3 30.129 24.155 30.274 24.001 30.418L25.381 39.376H27.032C27.6459 39.3778 28.2342 39.6225 28.6683 40.0567C29.1024 40.4908 29.3471 41.0791 29.349 41.693V45.326C29.349 45.5912 29.2436 45.8456 29.0561 46.0331C28.8686 46.2206 28.6142 46.326 28.349 46.326H13.358C13.0928 46.326 12.8384 46.2206 12.6509 46.0331C12.4634 45.8456 12.358 45.5912 12.358 45.326V41.693C12.3598 41.0791 12.6045 40.4908 13.0387 40.0567C13.4728 39.6225 14.0611 39.3778 14.675 39.376H16.412L18.15 33.617C17.1909 33.8423 16.2101 33.962 15.225 33.974H15.08C11.9494 33.9929 8.92059 32.8633 6.567 30.799C6.31181 30.7242 6.07941 30.5867 5.891 30.399C5.041 29.549 5.321 27.928 6.751 25.592C7.88896 23.7797 9.19758 22.0803 10.659 20.517L8.053 16.173C7.64327 16.0892 7.26389 15.896 6.95516 15.6139C6.64643 15.3318 6.41988 14.9713 6.29959 14.5708C6.1793 14.1703 6.16975 13.7446 6.27196 13.3391C6.37418 12.9336 6.58433 12.5633 6.8801 12.2677C7.17587 11.972 7.54621 11.762 7.95177 11.6599C8.35733 11.5579 8.78296 11.5676 9.18345 11.688C9.58394 11.8084 9.94432 12.0351 10.2263 12.344C10.5083 12.6528 10.7014 13.0322 10.785 13.442L17.518 17.483C17.6936 17.588 17.8202 17.7585 17.8701 17.9569C17.92 18.1553 17.889 18.3654 17.784 18.541C17.679 18.7166 17.5085 18.8432 17.3101 18.8931C17.1117 18.943 16.9016 18.912 16.726 18.807L15.418 18.025C14.665 18.681 13.912 19.385 13.178 20.119C12.978 20.319 12.778 20.525 12.578 20.727L13.408 22.113L13.456 22.206C13.535 22.3861 13.5423 22.5896 13.4762 22.7748C13.4101 22.9601 13.2758 23.1131 13.1006 23.2025C12.9254 23.292 12.7227 23.3111 12.5339 23.256C12.3451 23.2008 12.1845 23.0756 12.085 22.906L11.478 21.896C10.2496 23.2468 9.13892 24.7001 8.158 26.24C6.876 28.333 6.924 29.202 7.001 29.317C7.117 29.394 7.986 29.433 10.081 28.149C12.3061 26.715 14.3621 25.0344 16.21 23.139C19.11 20.234 21.393 17.184 22.165 15.166L23.603 15.716C22.9445 17.2349 22.0877 18.66 21.055 19.954C21.6355 20.5728 22.1649 21.2377 22.638 21.942C23.8013 20.055 25.122 18.2696 26.586 16.605L24.26 12.329C24.154 12.339 24.06 12.348 23.95 12.348C23.339 12.3478 22.7419 12.1664 22.234 11.8268C21.7261 11.4873 21.3304 11.0047 21.0967 10.4402C20.8631 9.87566 20.8022 9.25455 20.9215 8.65538C21.0409 8.05621 21.3353 7.5059 21.7675 7.07404C22.1996 6.64217 22.7501 6.34815 23.3493 6.22916C23.9486 6.11016 24.5697 6.17153 25.134 6.40551C25.6984 6.6395 26.1807 7.03558 26.52 7.54367C26.8592 8.05176 27.0402 8.64905 27.04 9.26C27.0386 9.36294 27.0319 9.46574 27.02 9.568L31.2 11.846C34.588 8.75799 38.318 6.171 40.518 6.171ZM27.03 40.917H14.675C14.4704 40.9175 14.2744 40.999 14.1297 41.1437C13.985 41.2884 13.9035 41.4844 13.903 41.689V44.777H27.803V41.693C27.8033 41.4876 27.722 41.2905 27.5771 41.145C27.4321 40.9995 27.2354 40.9175 27.03 40.917ZM44.018 40.917H33.208C33.0034 40.9175 32.8074 40.999 32.6627 41.1437C32.518 41.2884 32.4365 41.4844 32.436 41.689V44.777H44.791V41.693C44.7913 41.4876 44.71 41.2905 44.5651 41.145C44.4201 40.9995 44.2234 40.9175 44.018 40.917ZM39.685 29.106C39.298 29.366 38.893 29.617 38.478 29.839L35.078 39.376H42.26L39.685 29.106ZM22.608 31.567C21.7783 32.1686 20.8771 32.6648 19.925 33.044L18.025 39.366H23.807L22.608 31.567ZM16.846 30.64C15.7604 31.2833 14.6279 31.8439 13.458 32.317C13.9926 32.3857 14.531 32.4211 15.07 32.423H15.205C16.6408 32.409 18.0614 32.1275 19.394 31.593C18.499 31.4128 17.6387 31.09 16.846 30.637V30.64ZM13.651 27.474C12.7155 28.2362 11.7285 28.9328 10.697 29.559C10.0753 29.9378 9.42306 30.264 8.747 30.534C9.3961 30.9689 10.0905 31.332 10.818 31.617C12.4291 31.1254 13.985 30.4686 15.461 29.657C14.7394 29.0386 14.129 28.3013 13.656 27.477L13.651 27.474ZM21.051 27.552C20.2055 28.3125 19.3124 29.0182 18.377 29.665C19.4942 30.1378 20.7156 30.3101 21.92 30.165C22.2561 29.9163 22.5755 29.6457 22.876 29.355L23.069 29.162C22.7397 28.94 22.421 28.7083 22.113 28.467C21.831 28.3807 21.5754 28.2245 21.37 28.013C21.236 27.8797 21.1279 27.7227 21.051 27.55V27.552ZM33.744 27.957C32.4505 28.7536 31.0912 29.4381 29.681 30.003C30.2316 30.0722 30.786 30.1076 31.341 30.109H31.495C33.4562 30.0904 35.3886 29.6354 37.152 28.777C35.9721 28.7377 34.8126 28.4587 33.744 27.957ZM30.044 24.685C28.3709 26.1355 26.4892 27.3262 24.462 28.217C25.228 28.6763 26.0397 29.0547 26.884 29.346C28.7522 28.7932 30.5499 28.0254 32.241 27.058C31.3713 26.408 30.6289 25.6032 30.051 24.684L30.044 24.685ZM20.064 21.185C19.224 22.179 18.288 23.212 17.274 24.225C16.474 25.025 15.662 25.78 14.861 26.485C15.354 27.4027 16.0451 28.1993 16.884 28.817C18.3784 27.8531 19.7639 26.7298 21.016 25.467C21.201 24.7831 21.4563 24.1202 21.778 23.489C21.2851 22.6662 20.7131 21.8936 20.07 21.182L20.064 21.185ZM40.118 22.517C38.6982 24.1782 37.0805 25.6596 35.301 26.928C36.2386 27.2172 37.2247 27.3158 38.201 27.218L39.851 27.054C40.1672 26.796 40.4702 26.5223 40.759 26.234C40.8013 26.1829 40.8464 26.1342 40.894 26.088L40.836 25.588C40.7081 24.5414 40.4674 23.5118 40.118 22.517ZM40.518 7.717C39.224 7.717 36.218 9.425 32.632 12.63L34.446 13.63C34.6184 13.7323 34.7442 13.8975 34.7969 14.0909C34.8496 14.2843 34.8251 14.4906 34.7285 14.6661C34.6318 14.8417 34.4707 14.9729 34.2792 15.0318C34.0876 15.0908 33.8806 15.0729 33.702 14.982L31.435 13.741C30.895 14.252 30.344 14.803 29.785 15.381C29.33 15.864 28.885 16.337 28.452 16.82L29.652 19.029C29.7499 19.2088 29.7727 19.4201 29.7153 19.6166C29.658 19.8131 29.5252 19.979 29.346 20.078C29.2574 20.1265 29.1602 20.1571 29.0597 20.1681C28.9593 20.179 28.8578 20.1701 28.7608 20.1417C28.6639 20.1134 28.5735 20.0663 28.4947 20.003C28.416 19.9397 28.3505 19.8616 28.302 19.773L27.369 18.065C26.0141 19.6445 24.7964 21.3366 23.729 23.123C22.562 25.14 22.369 26.231 22.408 26.695L22.794 27.023H22.813C24.435 27.023 28.749 24.339 33.537 19.359C35.8483 17.0203 37.8818 14.4224 39.597 11.617C41.112 9.01099 40.997 7.959 40.842 7.795C40.7453 7.7345 40.6316 7.70712 40.518 7.717ZM37.255 17.543C36.455 18.508 35.585 19.483 34.655 20.443C33.593 21.543 32.425 22.653 31.247 23.686C31.8405 24.7037 32.6763 25.5591 33.68 26.176C35.8639 24.7271 37.8109 22.9494 39.452 20.906C38.8722 19.6927 38.1323 18.5626 37.252 17.546L37.255 17.543ZM44.716 14.927C43.8379 17.1367 42.6729 19.2212 41.251 21.127C41.7019 22.2243 42.0351 23.3664 42.245 24.534C43.9229 22.3365 44.8442 19.6547 44.871 16.89C44.8687 16.2337 44.8169 15.5785 44.716 14.93V14.927ZM42.256 9.493C41.9378 10.5096 41.4965 11.4835 40.942 12.393C40.1347 13.7643 39.2325 15.0775 38.242 16.323C39.1134 17.2987 39.8682 18.3726 40.491 19.523C41.8836 17.5235 42.9821 15.3345 43.753 13.023L43.966 12.376C43.5292 11.3413 42.9543 10.3705 42.257 9.49L42.256 9.493ZM1.705 8.793C2.97548 7.09743 4.83391 5.93804 6.91541 5.54246C8.9969 5.14688 11.1511 5.5437 12.955 6.655L12.981 6.673L13.007 6.691C13.0822 6.74716 13.1456 6.81761 13.1935 6.89832C13.2414 6.97903 13.2729 7.0684 13.2861 7.1613C13.2994 7.25421 13.2942 7.34882 13.2709 7.43972C13.2475 7.53062 13.2064 7.61601 13.15 7.691L13.133 7.713C13.0072 7.88142 12.8223 7.99605 12.6155 8.03389C12.4087 8.07172 12.1953 8.02997 12.018 7.917C11.818 7.791 11.704 7.717 11.678 7.707C10.256 6.97262 8.62411 6.75139 7.05789 7.08063C5.49167 7.40988 4.08701 8.26944 3.08104 9.51421C2.07506 10.759 1.52938 12.3127 1.53612 13.9132C1.54285 15.5136 2.10158 17.0627 3.118 18.299L3.183 18.393C3.25691 18.5228 3.2858 18.6734 3.26518 18.8214C3.24456 18.9693 3.17558 19.1063 3.069 19.211L2.979 19.299L2.935 19.339C2.78984 19.4589 2.60303 19.5164 2.41556 19.4988C2.22808 19.4812 2.05526 19.3899 1.935 19.245C1.658 18.913 1.5 18.716 1.459 18.655C0.466453 17.1919 -0.0441662 15.4553 -0.00149499 13.6879C0.0411763 11.9204 0.635006 10.2105 1.697 8.797L1.705 8.793ZM10.489 15.067C10.2902 15.4059 10.0079 15.6882 9.669 15.887L11.734 19.343L12.062 19.015C12.699 18.378 13.346 17.76 14.002 17.181L10.489 15.067ZM5.798 9.207C6.89936 8.56952 8.19069 8.34213 9.44356 8.56503C10.6964 8.78793 11.8301 9.44677 12.644 10.425L12.716 10.515C12.7345 10.5394 12.7512 10.5652 12.766 10.592C12.8135 10.6733 12.8445 10.7633 12.8572 10.8567C12.8698 10.95 12.8639 11.045 12.8397 11.136C12.8156 11.2271 12.7737 11.3125 12.7164 11.3873C12.6591 11.4621 12.5876 11.5249 12.506 11.572C12.3278 11.6763 12.1175 11.7119 11.9149 11.6719C11.7123 11.6319 11.5313 11.5192 11.406 11.355L11.385 11.328C11.0526 10.9454 10.6481 10.632 10.1946 10.4057C9.74115 10.1794 9.24753 10.0447 8.74196 10.0092C7.72092 9.93742 6.7132 10.2742 5.9405 10.9455C5.55789 11.2779 5.2445 11.6824 5.01821 12.1358C4.79192 12.5893 4.65717 13.083 4.62165 13.5885C4.54992 14.6096 4.88673 15.6173 5.558 16.39L5.617 16.471C5.68422 16.5831 5.7137 16.7139 5.7011 16.844C5.6885 16.9742 5.63449 17.0968 5.547 17.194L5.412 17.344C5.3884 17.3701 5.36301 17.3945 5.336 17.417C5.26266 17.4774 5.17811 17.5228 5.0872 17.5505C4.99629 17.5782 4.90081 17.5877 4.80623 17.5784C4.71165 17.5691 4.61984 17.5412 4.53606 17.4964C4.45227 17.4515 4.37817 17.3906 4.318 17.317L4.301 17.297C4.12165 17.0739 3.95888 16.8379 3.814 16.591C3.45836 15.9764 3.22744 15.2977 3.13443 14.5937C3.04143 13.8898 3.08818 13.1744 3.272 12.4885C3.45582 11.8027 3.7731 11.1598 4.20569 10.5967C4.63827 10.0336 5.17767 9.56136 5.793 9.207H5.798ZM18.882 1.499C20.7359 0.293985 22.9595 -0.208737 25.1515 0.0815376C27.3435 0.371812 29.3596 1.43597 30.836 3.082C30.947 3.206 31.081 3.372 31.236 3.577L31.267 3.622C31.3192 3.70242 31.3551 3.79235 31.3725 3.88664C31.39 3.98094 31.3887 4.07774 31.3687 4.17154C31.3488 4.26533 31.3105 4.35427 31.2562 4.43328C31.2018 4.51229 31.1324 4.57981 31.052 4.632C30.8774 4.744 30.6668 4.78564 30.4626 4.74853C30.2585 4.71142 30.076 4.59831 29.952 4.432L29.843 4.287C29.4133 3.78086 28.9218 3.33068 28.38 2.947C26.7677 1.81508 24.7836 1.34244 22.8342 1.62587C20.8847 1.90931 19.1174 2.92737 17.8941 4.47154C16.6709 6.01572 16.0844 7.96915 16.2546 9.93174C16.4249 11.8943 17.3391 13.7176 18.81 15.028C18.84 15.0553 18.8733 15.0843 18.91 15.115C19.0663 15.2455 19.1679 15.43 19.1945 15.6319C19.2212 15.8338 19.171 16.0384 19.054 16.205C19.044 16.219 19.034 16.233 19.022 16.247C18.9607 16.3215 18.8853 16.3832 18.8002 16.4286C18.715 16.474 18.6218 16.5021 18.5257 16.5114C18.4297 16.5207 18.3328 16.5109 18.2405 16.4827C18.1482 16.4545 18.0624 16.4084 17.988 16.347C17.828 16.217 17.698 16.104 17.596 16.009C17.0547 15.5005 16.5754 14.9299 16.168 14.309C14.8321 12.2496 14.3676 9.74432 14.8764 7.34284C15.3852 4.94137 16.8257 2.83974 18.882 1.499ZM26.469 11.026C26.2604 11.3219 26.0027 11.58 25.707 11.789L27.667 15.37C27.994 15.013 28.323 14.656 28.667 14.299C29.101 13.855 29.545 13.399 30.009 12.957L26.469 11.026ZM8.498 13.117C8.34531 13.117 8.19605 13.1623 8.0691 13.2471C7.94214 13.3319 7.84319 13.4525 7.78476 13.5936C7.72633 13.7346 7.71104 13.8899 7.74083 14.0396C7.77062 14.1894 7.84414 14.3269 7.95211 14.4349C8.06008 14.5428 8.19763 14.6164 8.34739 14.6462C8.49714 14.6759 8.65236 14.6607 8.79343 14.6022C8.93449 14.5438 9.05506 14.4448 9.13989 14.3179C9.22472 14.1909 9.27 14.0417 9.27 13.889C9.26921 13.6845 9.18762 13.4886 9.04301 13.344C8.8984 13.1994 8.7025 13.1178 8.498 13.117ZM20.408 4.193C21.5093 3.42579 22.8302 3.03769 24.1715 3.0873C25.5127 3.13691 26.8014 3.62153 27.843 4.468C28.0779 4.66905 28.2972 4.88768 28.499 5.122C28.5171 5.1422 28.5338 5.16358 28.549 5.186C28.6024 5.26196 28.6403 5.3477 28.6605 5.43832C28.6808 5.52894 28.683 5.62265 28.667 5.71412C28.651 5.80559 28.6172 5.89301 28.5674 5.9714C28.5177 6.0498 28.453 6.11762 28.377 6.171C28.2103 6.28785 28.0068 6.34011 27.8044 6.31804C27.602 6.29596 27.4146 6.20105 27.277 6.051C27.217 5.986 27.162 5.93 27.113 5.884C26.223 5.05419 25.0422 4.60784 23.8259 4.64138C22.6095 4.67493 21.4551 5.18567 20.6122 6.06327C19.7693 6.94087 19.3055 8.11485 19.321 9.3316C19.3364 10.5483 19.83 11.7101 20.695 12.566L20.72 12.589C20.8746 12.7245 20.9737 12.9124 20.9982 13.1165C21.0228 13.3207 20.9711 13.5267 20.853 13.695C20.8388 13.7158 20.8234 13.7359 20.807 13.755C20.7445 13.8267 20.6685 13.8855 20.5833 13.9278C20.4981 13.9702 20.4054 13.9953 20.3105 14.0018C20.2156 14.0083 20.1203 13.996 20.0302 13.9657C19.94 13.9354 19.8567 13.8875 19.785 13.825C19.702 13.752 19.631 13.687 19.573 13.625C18.9353 12.986 18.4453 12.215 18.1374 11.3663C17.8295 10.5176 17.7113 9.61183 17.791 8.71256C17.8707 7.81329 18.1463 6.94238 18.5986 6.16105C19.0509 5.37972 19.6689 4.70694 20.409 4.19L20.408 4.193ZM23.941 7.717C23.6357 7.71719 23.3372 7.80792 23.0835 7.97769C22.8297 8.14747 22.6319 8.38868 22.5152 8.67082C22.3985 8.95297 22.3681 9.26339 22.4278 9.56283C22.4875 9.86227 22.6346 10.1373 22.8506 10.3531C23.0665 10.569 23.3417 10.7159 23.6411 10.7754C23.9406 10.8349 24.251 10.8043 24.5331 10.6874C24.8152 10.5705 25.0562 10.3726 25.2259 10.1187C25.3955 9.8648 25.486 9.56633 25.486 9.26099C25.4849 8.85165 25.3218 8.45939 25.0322 8.17004C24.7427 7.88068 24.3503 7.71779 23.941 7.717Z" fill="#3498db"></path></g><defs><clipPath id="clip0_410_214"><rect width="46.412" height="46.335" fill="white"></rect></clipPath></defs></svg>