<svg xmlns="http://www.w3.org/2000/svg" width="47" height="28" viewBox="0 0 47 28" fill="none"><g clip-path="url(#clip0_410_207)"><path fill-rule="evenodd" clip-rule="evenodd" d="M29.437 0L29.72 0.0150003C30.3558 0.0802369 30.9494 0.363294 31.4003 0.816195C31.8512 1.26909 32.1316 1.86397 32.194 2.5L32.207 2.78V5.2H38.477L38.818 5.216C39.3776 5.26962 39.9184 5.44568 40.4023 5.73169C40.8862 6.0177 41.3013 6.40666 41.618 6.871L41.79 7.147L44.308 11.731L44.378 11.864L44.748 11.906C45.2164 12.013 45.6399 12.2629 45.9599 12.6212C46.2799 12.9796 46.4805 13.4286 46.534 13.906L46.549 14.149V21.249L46.537 21.5C46.4807 22.0151 46.2495 22.4954 45.8819 22.8606C45.5143 23.2259 45.0325 23.454 44.517 23.507L44.272 23.519H43.117L43.073 23.729L42.993 24.064C42.7334 24.9812 42.182 25.7889 41.4224 26.3648C40.6628 26.9407 39.7363 27.2536 38.783 27.256C37.8206 27.2556 36.8844 26.9422 36.1156 26.3632C35.3468 25.7842 34.7872 24.9709 34.521 24.046L34.441 23.716L34.398 23.516H18.07V23.726L17.99 24.061C17.7304 24.9782 17.179 25.7859 16.4194 26.3618C15.6598 26.9377 14.7333 27.2506 13.78 27.253C12.8176 27.2526 11.8814 26.9392 11.1126 26.3602C10.3438 25.7812 9.78418 24.9679 9.51803 24.043L9.43803 23.713L9.39303 23.513H8.78003L8.49803 23.499C7.86163 23.4335 7.26749 23.1498 6.81638 22.6961C6.36528 22.2425 6.08498 21.6468 6.02303 21.01L6.01003 20.73V15.642H0.750028L0.599028 15.626C0.428753 15.5905 0.276099 15.497 0.167194 15.3614C0.0582878 15.2258 -9.81418e-05 15.0565 0.00202856 14.8826C0.00415526 14.7087 0.0666624 14.5409 0.178852 14.408C0.291041 14.2751 0.445937 14.1853 0.617028 14.154L0.775028 14.141H12.517L12.667 14.157C12.8374 14.1921 12.9902 14.2854 13.0993 14.4208C13.2085 14.5562 13.2672 14.7253 13.2655 14.8992C13.2637 15.0731 13.2015 15.241 13.0896 15.3741C12.9777 15.5072 12.823 15.5973 12.652 15.629L12.493 15.642H7.77003L7.51003 15.626V20.75L7.52603 20.95C7.56744 21.2096 7.68835 21.4501 7.8721 21.6381C8.05586 21.8262 8.29341 21.9526 8.55203 22L8.75203 22.02H9.43203L9.48303 21.82L9.58303 21.478C9.87057 20.596 10.4303 19.8279 11.1818 19.284C11.9333 18.74 12.8379 18.4483 13.7655 18.4508C14.6932 18.4532 15.5962 18.7497 16.3449 19.2976C17.0935 19.8454 17.6491 20.6165 17.932 21.5L18.024 21.834L18.07 22.024H30.707V2.77L30.691 2.57C30.6492 2.31072 30.5282 2.07075 30.3444 1.88309C30.1607 1.69542 29.9234 1.56928 29.665 1.522L29.465 1.502H8.78003L8.58003 1.518C8.32057 1.5596 8.08038 1.68059 7.89252 1.86433C7.70466 2.04807 7.57837 2.28552 7.53103 2.544L7.51103 2.744V4.8H12.517L12.667 4.816C12.8374 4.85114 12.9902 4.94438 13.0993 5.07977C13.2085 5.21515 13.2672 5.38427 13.2655 5.55817C13.2637 5.73208 13.2015 5.89996 13.0896 6.0331C12.9777 6.16623 12.823 6.25634 12.652 6.288L12.493 6.301H0.750028L0.599028 6.285C0.427028 6.25109 0.27234 6.15801 0.161836 6.02191C0.0513325 5.88581 -0.00800374 5.71531 -0.00586453 5.54001C-0.00372531 5.36471 0.0597542 5.1957 0.173546 5.06234C0.287338 4.92898 0.444252 4.8397 0.617028 4.81L0.775028 4.797H6.01003V2.77L6.02503 2.488C6.09032 1.851 6.37429 1.25629 6.82862 0.805055C7.28296 0.353819 7.87959 0.0739274 8.51703 0.0129995L8.79703 0H29.437ZM13.78 19.934C13.1991 19.934 12.6313 20.1063 12.1483 20.429C11.6653 20.7517 11.2889 21.2104 11.0666 21.7471C10.8443 22.2837 10.7861 22.8743 10.8995 23.444C11.0128 24.0137 11.2925 24.537 11.7033 24.9478C12.114 25.3585 12.6373 25.6382 13.207 25.7516C13.7768 25.8649 14.3673 25.8067 14.904 25.5844C15.4406 25.3621 15.8993 24.9857 16.2221 24.5027C16.5448 24.0197 16.717 23.4519 16.717 22.871C16.717 22.4852 16.641 22.1032 16.4934 21.7468C16.3457 21.3904 16.1293 21.0666 15.8564 20.7939C15.5836 20.5211 15.2597 20.3048 14.9033 20.1573C14.5468 20.0097 14.1648 19.9339 13.779 19.934H13.78ZM39.88 20.118C39.4774 19.9471 39.0417 19.8682 38.6047 19.8872C38.1678 19.9061 37.7405 20.0225 37.3543 20.2277C36.968 20.4329 36.6324 20.7217 36.3721 21.0732C36.1117 21.4247 35.9332 21.8299 35.8495 22.2592C35.7657 22.6885 35.7789 23.1311 35.8881 23.5546C35.9973 23.9781 36.1997 24.3719 36.4806 24.7073C36.7614 25.0426 37.1136 25.3109 37.5115 25.4927C37.9093 25.6745 38.3427 25.7651 38.78 25.758C39.5447 25.7567 40.2776 25.4521 40.8179 24.911C41.3582 24.3699 41.6618 23.6366 41.662 22.872C41.6722 22.2872 41.5076 21.7127 41.1893 21.222C40.8709 20.7313 40.4133 20.3469 39.875 20.118H39.88ZM44.388 13.368H32.207V22.007L32.467 22.02H34.443L34.488 21.82L34.588 21.476C34.8801 20.5931 35.4422 19.8242 36.1949 19.2782C36.9477 18.7321 37.8531 18.4365 38.783 18.433C39.7102 18.4397 40.6114 18.7401 41.3571 19.2912C42.1028 19.8423 42.6545 20.6156 42.933 21.5L43.024 21.833L43.074 22.024H44.285L44.431 22.011C44.5711 21.9838 44.7007 21.918 44.8054 21.821C44.91 21.7239 44.9854 21.5996 45.023 21.462L45.049 21.294V14.034L45.013 13.858C44.9793 13.7525 44.921 13.6566 44.843 13.578C44.766 13.502 44.6731 13.444 44.571 13.408L44.444 13.378L44.386 13.372L44.388 13.368ZM38.478 6.7H32.207V11.867H42.637L42.443 11.481L40.473 7.9L40.328 7.667C40.119 7.3701 39.842 7.12744 39.5203 6.95923C39.1985 6.79103 38.8411 6.70215 38.478 6.7ZM3.85503 9.444H15.6L15.75 9.46C15.9204 9.49514 16.0732 9.58838 16.1823 9.72377C16.2915 9.85915 16.3502 10.0283 16.3485 10.2022C16.3467 10.3761 16.2845 10.544 16.1726 10.6771C16.0607 10.8102 15.906 10.9003 15.735 10.932L15.576 10.945H3.83103L3.68003 10.929C3.50972 10.8938 3.35695 10.8004 3.24787 10.6649C3.1388 10.5295 3.08019 10.3603 3.08208 10.1864C3.08397 10.0125 3.14624 9.84466 3.25824 9.7116C3.37023 9.57854 3.52499 9.48854 3.69603 9.457L3.85403 9.444H3.85503Z" fill="#3498db"></path></g><defs><clipPath id="clip0_410_207"><rect width="46.551" height="27.257" fill="white"></rect></clipPath></defs></svg>