<svg xmlns="http://www.w3.org/2000/svg" width="135" height="32" viewBox="0 0 135 32">
    <g fill="none" fill-rule="evenodd">
        <g fill="#424242">
            <g>
                <path d="M884.31 44.054c.76 1.53 1.336 2.093 2.93 2.844-1.802-.442-2.332-.756-2.93-2.844zm.143 1.437c.434.652.685.864 1.354 1.277-.909-.219-1.082-.387-1.354-1.277zM988.027 15l.977 4.447c2.252 0 4.577-.015 6.83-.015 1.1 0 2.073.342 2.938.926 1.044.705 1.823 1.786 2.116 3.12.495 2.256.993 4.511 1.491 6.767.284 1.287.654 2.741-.27 3.904-.848 1.07-1.976 1.153-3.213 1.153-8.91-.01-17.82 0-26.73 0-.899 0-1.652-.29-2.438-.696-.738.522-1.403.696-2.307.696h-12.23l1.002 4.508h-7.904l-.977-4.398h-6.95c-.96 0-1.883-.3-2.688-.818-.78.485-1.382.696-2.307.696h-22.943l1.05 4.569-7.89.012-.053-.236c-.16.645-.366 1.237-.614 1.712-.248.475-1.37 1.077-1.86.579-.371-.376-.625-.947-1.025-1.289-.31-.265-.693-.395-1.03-.533-.26.702-.634 1.247-1.091 1.793-.364.433-.707.65-1.188.95-.948.594-1.685 1.344-2.548 2.056-2.612 2.154-4.856 2.088-8.11.718-1.553-.654-2.303-1.54-3.255-2.815-.576-.03-.971-.141-1.58-.678-.449-.397-.867-.805-1.272-1.227-3.042-.485-4.932-1.065-6.93-2.837-.814-.721-1.405-1.52-1.867-2.419-.428-.473-.854-.958-1.42-1.176-.397-.153-.39-.153-.53.222.473.356.466 1.025.51 1.631.298-.014.41-.35.613-.605.12.536.189 1.368-.375 1.66.091.245.196.492.29.762-.831-.144-3.683-2.066-2.161-3.532.1-.407.179-.688.311-.963.348-.724 1.131-.849 1.813-.583-.187-.857-.225-1.789-.112-3.098.027-.314.072-.63.133-.949l-.47-1.276-1.161-1.151c-.424-.42-.515-.417-.415-1.01.116-.697.452-1.416 1.069-2.035.649-.65 2.011-1.57 2.991-1.137-.09-.33-.212-.675-.366-1.012-.657-1.442.945-1.724 2.066-2.027.932-.252 3.219-.924 3.549.301.148.551.171.847.118 1.373.29.647.383.75.623 1.107.33.488.306.674.234 1.28-.014.117-.031.245-.051.379 1.11-.167 2.177-.166 3.264-.03-.33-.193-.661-.361-1.098-.586-1.036-.533-.06-2.104.387-2.793.937-1.444 1.778-2.438 3.362-1.581.532.288.573.594.905 1.09.183.1 1.128.905 1.69 1.359.213-.256.621-.303 1.24-.348.17-.012.61-.015 1.027-.016h.977c.88.007 1.407.15 1.48 1.151.035.502.013.609-.233 1.047l-.045 1.66c-.017.623-.136 1.005-.38 1.587-.222.53-.347.98-.607 1.493.036.2.064.408.083.625l.99-.953c.629-.606 1.149-1.1 2.108-1.056.943.045 2.015.749 2.378 1.638l.056.159.293.963c1.506-.285 3.266-.22 4.577.48.177.094.345.197.505.308l2.204 9.868-4.549-20.348 7.884-.002 2.371 10.413h2.668c.317 0 .255-.18.202-.42l-2.243-9.993h52.266c.887 0 1.58.183 2.38.59.786-.526 1.481-.7 2.442-.692l12.106.102-.974-4.521h7.891zm-104.552 5.772c-.272.433-1.027 1.678-.369 2.027.623.33.971.566 1.607.983.093-.17.253-.334.358-.504l-.07.557c-.042.337-.04.61-.013.95l.077.983c-.095-.333-.286-.667-.382-1-.038-.133-.07-.241-.088-.341-1.425-.291-2.84-.31-4.266-.055-.09.528-.202 1.078-.294 1.472-.015-.22-.017-.636-.016-1.082l.001-.45c.001-.299.003-.586.002-.814-.002-.53-.024-.711-.297-1.162-.256-.421-.364-.517-.722-1.23.03-.45.03-.747-.09-1.174-.198-.709-2.202-.16-2.73-.015-.652.179-1.998.444-1.66 1.312.298.764.487 1.569.633 2.638-1.193 1.718-2.303 4.074-2.515 6.16-.166 1.62-.067 2.618.284 3.609.556 1.57 1.333 2.93 2.58 4.024 1.682 1.476 3.255 2.069 5.717 2.443-.592-.662-1.178-1.363-1.817-2.115-.646-.76-1.03-1.53-1.44-2.361-.567-1.15-.555-1.587.196-2.596.648-.87.998-1.261 1.28-2.112-.233-.481-.318-.888-.397-1.545.793-.867 1.383-1.461 2.153-1.644.755-.18 1.386-.145 2.061.2 1.501.768 2.89 1.759 4.583 1.8.783 1.925.704 3.534.328 5.397-.257 1.272-.36 2.477-.44 3.774-.318-1.336-.377-2.51-.142-3.841.284-1.604.505-3.375-.285-4.785-1.53-.117-2.842-1.048-4.222-1.763-.555-.287-1.132-.315-1.746-.146-.57.156-.954.533-1.568 1.241-.01.71.15 1.039.477 1.682.525 1.034 1.103 1.996 1.739 3.014-.778-.94-1.515-1.724-2.127-2.668-.234.667-.569 1.006-1.123 1.756-.542.733-.598 1.055-.193 1.903.407.853.752 1.602 1.445 2.35 1.197 1.293 2.293 2.731 3.602 4.004.71.691 1 .668 1.942.81.852.13 1.684.293 2.553.495-.84-.079-1.653-.108-2.47-.128h-.026c.805 1.028 1.272 1.6 2.58 2.169 3.218 1.398 5.264 1.549 7.792-.577.655-.55 1.228-1.085 1.892-1.56-.24-.021-.448-.064-.723-.172.334.063.72 0 1.067-.063.098-.063.198-.125.3-.185.47-.277.735-.43 1.053-.871.335-.468.614-.934.86-1.449-.16.058-.296.107-.417.143-.088.04-.185.067-.287.077-.203.02-.398-.03-.56-.13l-.019-.01c-.26-.125-.661-.27-.93-.313.137-.047.44-.065.584-.009.019.008.038.014.058.019-.064-.11-.107-.235-.12-.37-.012-.134.005-.264.047-.383l.049-.115-.02.054c-.014.05-.02.099-.016.144.02.203.193.352.395.332.203-.02.353-.2.333-.403-.004-.043-.016-.084-.033-.121-.186-.032-.371-.086-.563-.156-.123-.046-.248-.097-.377-.154.6.092 1.14.108 1.726.03.038-.184.077-.38.113-.579-.072-.005-.145-.01-.217-.017l-.018-.001c-.277.221-.585.184-1.007.088-1.282-.293-.98-1.012-1.57-2.096.612.749.566 1.532 1.564 1.768.233.055.391.124.549.1-.284-.142-.529-.378-.626-.653-.274-.773-.104-1.425-.405-2.148.373.646.396 1.277.729 1.956.12.244.564.635.837.641l.224.005c.066-.43.106-.857.08-1.211-.046-.646-.214-1.605-.314-1.972.337.434.491 1.353.64 2 .154.674.115 1.483-.02 2.207-.186.993.837.832 1.431 1.3.437.344.737.894 1.138 1.283.397.386 1.022-.181 1.178-.559.3-.724.527-1.633.672-2.564l-1.65-7.368c-.282-.283-.597-.529-.946-.724-2.083-1.162-4.54-.452-6.61.245-.442.15-.75.366-1.138.61.106-.475.154-.98.013-1.455-.223-.754-.584-1.989.44-2.216.39-.087.568-.075 1.118.21-.445-.101-.67-.077-.976-.02-.278.051-.425.227-.502.435.097-.07.255-.108.525-.173.76-.183 1.483.183 1.625.71.082.307.068.469.243.888.157-.049.32-.093.486-.133l-.282-.92c-.244-.797-1.195-1.439-2.035-1.424-.776.014-1.268.5-1.804.977l-1.077.954c-.966.304-1.74.66-2.637 1.324.638-.75 1.071-1.165 1.961-1.538-.13-1.32-.588-2.282-.98-3.546-.176-.57-1.574-2.86-1.961-3.083-.276-.16-2.006-1.616-2.331-1.808-.243-.322-.455-.767-.82-.96-1.11-.586-1.823.538-2.42 1.487zm7.643 18.516c.193.85.534 1.669 1.856 2.303-1.682-.421-2.052-1.116-1.88-2.17l.024-.133zm-8.037-2.162c.314.724 1.1 2.748 1.702 3.264.166.142.282.23.407.293-.402-.675-.401-.877-.277-1.689l.028-.179.038.23c.136.742.42 1.12.856 1.69l.135.176c.613.154 1.187.338 1.815.583-.709-.08-1.417-.153-2.126-.22-.595-.057-.69-.047-1.113-.464-.642-.635-1.266-2.813-1.465-3.684zm19.18 2.101c1.037.37 1.537 1.204 1.786 2.185-.407-.822-1.033-1.51-1.884-1.931-.456-.226-.748-.147-1.258-.099.519-.149.847-.336 1.356-.155zm-9.062-3.086c.835.99 2.045 1.737 3.184 2.057-.319.004-.695-.055-1.079-.181-.014.127-.049.255-.107.377-.138.29-.38.497-.66.6.254.136.503.278.698.456-.57-.265-1.235-.2-1.725-.531-.432-.292-1.027-1.215-1.466-1.607.318.123.624.336.905.561.002-.167.038-.336.115-.496.059-.124.137-.233.228-.324l.093-.084-.05.06c-.016.023-.03.048-.043.074-.117.244-.012.54.233.656.246.117.541.013.658-.232.011-.024.02-.047.027-.071-.234-.174-.449-.38-.629-.616-.158-.209-.289-.441-.382-.699zm14.965-15.472h-3.81l1.09 4.902h-.012l1.281 5.773.03.121.036.12.065.275h-.02l1.543 6.956h3.818l-1.033-4.655h8.086c1.492 0 2.462-1.181 2.222-2.653l-.032-.164-1.287-5.825h-.007l-1.079-4.85h-3.817l1.072 4.85.876 3.949c.17.773-.29 1.415-1.03 1.484l-.134.006h-5.563l-.333-1.47v-.02l-.863-3.897h-.007l-1.092-4.902zm42.721 0h-11.897c-1.492 0-2.462 1.176-2.222 2.646l.032.165 1.771 7.975c.33 1.487 1.77 2.714 3.254 2.806l.178.005 8.08-.007 1.014 4.557h3.81l-1.006-4.557-3.014-13.59zm-82.475 14.04c.15 1.697.481 2.431 1.69 3.712-1.46-1.03-1.865-1.517-1.71-3.483l.02-.229zm-.391 1.385c.152.696.294.998.674 1.52l.119.162-.134-.096c-.642-.468-.726-.716-.659-1.586zm2.71-2.308c-.14.292-.219.58-.32.949-.945.978.466 2.27 1.235 2.733-.11-.24-.19-.42-.244-.607-.234-.808.106-1.529-.627-2.114.344-.696.328-.973 1.13-.652.31.124.565.298.792.504-.108-.281-.209-.57-.304-.87-.016-.049-.03-.099-.045-.148-.574-.243-1.328-.398-1.616.205zm1.38 2.646c-.117.116-.21.195-.361.178.013.1.03.194.053.284.012.046.025.091.039.136.196-.113.247-.32.269-.598zm63.257-15.762h-12.715c-1.547 0-2.532 1.265-2.19 2.812l.513 2.313h.002l.099.445c.342 1.546 1.889 2.813 3.435 2.812l8.897-.004.131.59c.14.772-.346 1.396-1.11 1.428h-10.3l.71 3.198 12.78-.003c1.516-.03 2.474-1.283 2.135-2.812l-.24-1.085h.002l-.292-1.318h.002l-1.5-6.767h-.002l-.357-1.61zm51.827-4.656h-3.811l1.007 4.556.53 2.4 2.483 11.191h11.892c1.491 0 2.461-1.182 2.221-2.653l-.031-.164-1.765-7.969c-.33-1.487-1.77-2.714-3.254-2.806l-.179-.005-8.08.006-1.013-4.556zm-22.768 4.549h-9.911c-1.547 0-2.532 1.265-2.19 2.812l1.766 7.972c.343 1.546 1.889 2.812 3.436 2.812h9.911c1.547 0 2.532-1.266 2.19-2.812l-1.766-7.972c-.343-1.547-1.889-2.812-3.436-2.812zm16.34 0h-9.912c-1.547 0-2.532 1.265-2.19 2.812l1.766 7.972c.343 1.546 1.889 2.812 3.436 2.812h9.912c1.546 0 2.531-1.266 2.189-2.812l-1.766-7.972c-.343-1.547-1.889-2.812-3.435-2.812zm-86.906 9.522c.108.29.239.627.365.904.134.293.209.32.493.475.201.11.567.26.768.37-.207-.036-.579-.112-.786-.147-.553-.093-.618-.226-.704-.77-.04-.257-.096-.575-.136-.832zm53.915-6.213l1.601 7.19H943.8c-.77 0-1.54-.59-1.779-1.34l-.038-.143-.935-4.223c-.171-.773.283-1.41 1.023-1.478l.134-.006h5.57zm14.855-.109c.77 0 1.54.593 1.78 1.345l.038.143.935 4.22c.17.772-.285 1.412-1.026 1.481l-.133.006h-4.9c-.771 0-1.541-.593-1.78-1.345l-.039-.143-.935-4.22c-.17-.772.285-1.412 1.026-1.48l.133-.007h4.9zm31.86-.002c.77 0 1.54.596 1.779 1.347l.038.143.935 4.217c.171.772-.283 1.415-1.024 1.484l-.133.006h-5.576l-1.596-7.197h5.577zm-15.52.002c.77 0 1.54.593 1.779 1.345l.038.143.935 4.22c.17.772-.284 1.412-1.025 1.481l-.134.006h-4.9c-.771 0-1.541-.593-1.78-1.345l-.039-.143-.934-4.22c-.172-.772.284-1.412 1.025-1.48l.133-.007h4.901zm-34.07 1.249h-2.264c-.328 0-.518.061-.435.437l.874 3.919c.073.33.169.513.485.546l.114.006h2.326l-1.1-4.908zm32.134-.103h-2.623c-.371 0-.374.22-.308.52l.85 3.838c.105.474.291.558.752.558h2.485c.478 0 .452-.25.366-.638l-.854-3.84c-.091-.409-.333-.437-.668-.438zm-16.359 0h-2.622c-.372 0-.375.22-.309.52l.85 3.838c.105.474.292.558.752.558h2.485c.478 0 .452-.25.366-.638l-.854-3.84c-.09-.409-.332-.437-.668-.438zm31.944-.037h-2.326l1.1 4.908h2.264c.298 0 .483-.05.451-.342l-.016-.095-.873-3.92c-.082-.365-.192-.551-.6-.551zm-120.895-.88c-.472.481-.788 1.052-.863 1.587-.055.39-.001.4.271.677l1.102 1.115.241.644c.435-1.503 1.175-2.98 1.996-4.222v-.021c-.052-.214-.111-.422-.236-.589-.587-.785-2.079.367-2.51.808zm20.471-2.574l-.121.001c-.305.006-1.52.011-1.828.038-.436.037-.68.076-.813.175.684.503 1.847 2.577 2.073 3.29.192.604.398 1.146.573 1.696l.125.414.13-.438c.045-.147.096-.297.16-.451.22-.517.326-.837.341-1.392l.05-1.756c.187-.328.216-.398.183-.772-.06-.67-.262-.792-.761-.804l-.112-.001zm40.062 2.452l.44 1.982h-6.657l-.049.004h-.05c-.506 0-1.012-.384-1.178-.875l-.032-.116c-.119-.539.22-.98.753-.99v-.005h6.773z" transform="translate(-1086 -2182) translate(218 2167) matrix(1 0 0 -1 0 61.898)"/>
            </g>
        </g>
    </g>
</svg>
