<svg xmlns="http://www.w3.org/2000/svg" width="122" height="33" viewBox="0 0 122 33">
    <g fill="none" fill-rule="evenodd">
        <g fill="#424242" fill-rule="nonzero">
            <g>
                <path d="M14.988 17.05c5.172 0 9.898 2.325 12.931 6.4 2.475 3.498 3.405 7.852 2.55 11.926-.838 3.87-3.182 7.145-6.606 9.173-2.028 1.098-4.28 1.693-6.512 1.693-4.596 0-8.615-2.4-10.773-6.382-1.377-2.828-1.563-6.046-.52-8.856.967-2.586 2.92-4.596 5.488-5.656 1.079-.41 2.195-.614 3.312-.614 3.646 0 6.716 2.158 7.777 5.414.558 1.991.242 4.13-.837 5.73-.912 1.378-2.326 2.233-3.963 2.42-.13.018-.242.018-.354.018-1.358 0-2.68-.558-3.48-1.47-.65-.744-.93-1.656-.8-2.623.187-1.005.931-2.01 1.992-2.01.167 0 .316.038.465.075.763.279.837.8.874 1.153.019.205.037.335.168.466.13.111.297.167.465.167.577 0 1.246-.763 1.414-1.414.186-.856-.019-1.656-.577-2.363-.744-.912-2.065-1.544-3.368-1.563-2.083.037-3.404 1.135-4.13 2.047-1.228 1.525-1.73 3.758-1.321 5.823.912 3.815 4.354 6.382 8.559 6.382 1.079 0 2.14-.167 3.181-.52 2.773-1.024 4.95-3.07 6.14-5.787 1.321-2.977 1.321-6.475.037-9.6-2.195-4.969-7.051-8.039-12.67-8.039-2.382 0-4.745.577-6.884 1.656-2.4 1.265-4.429 3.089-6.215 5.638-.372.558-.632.8-.874.8l-.068-.005c-.103-.013-.249-.055-.323-.144-.112-.13-.056-.41-.019-.502.186-.614.559-1.21.856-1.693 2.996-4.838 8.261-7.74 14.085-7.74zm27.742 9.21c3.163 0 5.135 2.642 5.135 5.563 0 2.92-1.991 5.581-5.098 5.581-1.563 0-2.866-.8-3.61-2.065v7.164h-2.53V26.557h2.53v1.786c.744-1.265 2.01-2.084 3.573-2.084zm43.668-.056c1.6 0 2.828.837 3.61 2.12V26.54H92.5v10.438h-2.494V35.32c-.744 1.265-1.99 2.102-3.572 2.102-3.163 0-5.135-2.642-5.135-5.563-.019-2.94 1.99-5.656 5.098-5.656zm-31.575 0c3.517 0 5.285 2.642 5.285 5.6 0 .149 0 .465-.038.614h-8.13c0 1.842 1.507 3.07 3.386 3.07 1.32 0 2.4-.577 3.293-1.321l1.284 1.358c-1.042.893-2.363 1.88-4.894 1.88-3.72 0-5.693-2.68-5.693-5.6.037-2.922 2.01-5.601 5.507-5.601zm57.102 0c3.721 0 5.638 2.586 5.638 5.544 0 2.959-1.898 5.564-5.638 5.564-3.702.018-5.6-2.643-5.6-5.564 0-2.92 1.916-5.544 5.6-5.544zm-34.384-3.182v3.535h2.214v2.084h-2.214v2.028c0 3.33.15 4.391 1.359 4.391.223 0 .502-.056.744-.093l.316 1.935c-.744.242-1.284.372-1.786.372-3.043.018-3.176-2.041-3.181-5.981V28.64h-1.47v-2.084h1.47v-3.535h2.548zm-9.954 3.2c3.107 0 4.373 2.01 4.373 5.08v5.693h-2.53v-5.693c0-2.121-.95-3.014-2.457-3.014-1.358 0-2.456.893-2.493 2.92v5.769h-2.55v-10.42h2.55v1.414c.52-.986 1.693-1.749 3.107-1.749zm29.677-11.405v13.136c.558-.986 1.693-1.75 3.107-1.75 3.144 0 4.39 2.01 4.39 5.08v5.694h-2.548v-5.694c0-2.121-.949-3.014-2.437-3.014-1.377 0-2.53.893-2.53 2.921v5.787h-2.513v-22.16h2.53zm14.661 13.229c-1.73 0-3.07 1.47-3.07 3.702 0 2.27 1.321 3.759 3.07 3.759 1.75 0 3.107-1.47 3.107-3.759 0-2.214-1.358-3.702-3.107-3.702zm-69.68.372c-1.823 0-3.05 1.544-3.07 3.33 0 1.842 1.192 3.48 3.07 3.48 1.824 0 3.07-1.545 3.07-3.387 0-1.898-1.264-3.423-3.07-3.423zm44.674-.037c-1.824 0-3.07 1.562-3.07 3.423 0 1.916 1.246 3.386 3.07 3.386 1.823 0 3.051-1.563 3.051-3.386 0-1.823-1.228-3.423-3.051-3.423zm-32.077-.354c-1.619 0-2.79 1.358-2.903 2.903h5.787c-.13-1.545-1.321-2.903-2.884-2.903zm65.028-.8c.763 0 1.358.614 1.358 1.377 0 .781-.595 1.377-1.358 1.377-.763 0-1.358-.614-1.358-1.377-.019-.763.595-1.377 1.358-1.377zm0 .223c-.614 0-1.098.521-1.098 1.172 0 .652.503 1.173 1.117 1.173s1.097-.521 1.097-1.173c-.018-.65-.502-1.172-1.116-1.172zm-.074.391c.223 0 .39.056.483.112.093.074.15.167.15.316 0 .205-.131.316-.299.372v.019c.13.018.224.148.261.372.037.242.074.335.093.372h-.26c-.038-.056-.075-.186-.112-.39-.037-.206-.13-.28-.335-.28h-.167v.67h-.242v-1.526c.13-.018.26-.037.428-.037zm0 .205c-.075 0-.13 0-.186.018v.503h.186c.204 0 .372-.075.372-.26 0-.131-.093-.261-.372-.261z" transform="translate(-218 -2181) translate(218 2167)"/>
            </g>
        </g>
    </g>
</svg>
