<svg xmlns="http://www.w3.org/2000/svg" xmlns:xlink="http://www.w3.org/1999/xlink" viewBox="0 0 750 500"><defs><style>.cls-1,.cls-21{fill:#dd4026;}.cls-2{isolation:isolate;}.cls-28,.cls-3{fill:#ff8976;}.cls-10,.cls-21,.cls-22,.cls-25,.cls-3,.cls-30,.cls-4,.cls-5,.cls-6,.cls-8{fill-rule:evenodd;}.cls-4{fill:#ef6456;}.cls-5{fill:#ba2b27;}.cls-33,.cls-49,.cls-5{mix-blend-mode:multiply;}.cls-35,.cls-5{opacity:0.3;}.cls-6,.cls-7{fill:#7c4284;}.cls-8,.cls-9{fill:#3e2344;}.cls-10,.cls-31{fill:#a1abad;}.cls-11,.cls-25{fill:#ffb072;}.cls-12{fill:#764582;}.cls-13,.cls-30{fill:#9d68aa;}.cls-14,.cls-18,.cls-22{fill:#552f5e;}.cls-14,.cls-29,.cls-36,.cls-43{opacity:0.5;}.cls-15{clip-path:url(#clip-path);}.cls-16{fill:#b22714;}.cls-17{fill:#ffd25a;}.cls-19{clip-path:url(#clip-path-2);}.cls-20{fill:#af79bc;}.cls-23{fill:#ffdcae;}.cls-24,.cls-43{fill:#71bf9d;}.cls-26,.cls-29{fill:#e57e55;}.cls-27,.cls-35{fill:#fff;}.cls-32,.cls-33{fill:#e5daca;}.cls-33{opacity:0.8;}.cls-34{fill:#efe9da;}.cls-36{fill:#d8d0bf;}.cls-37{fill:#fcf7f0;}.cls-38{fill:#f99441;}.cls-39{fill:#d36d29;}.cls-40{fill:#ffcc5a;}.cls-41{fill:#ffe3a4;}.cls-42{fill:#3c8460;}.cls-44{fill:#e4bce8;}.cls-45{fill:#8d5b99;}.cls-46{fill:#c899ce;}.cls-47,.cls-49{fill:#d3d3d3;}.cls-48{fill:#e2e2e2;}.cls-50{fill:#f4f4f4;}.cls-51{fill:none;stroke:#3c8460;stroke-miterlimit:10;stroke-width:1.16px;}.cls-52{fill:#83b6e5;}</style><clipPath id="clip-path"><path class="cls-1" d="M416.72,409.44s0,7.11-1.12,8.12a18.82,18.82,0,0,0-7.07,9.08,4.55,4.55,0,0,1-2.89-.95l1.79-7.46s-7.78,3.87-11.45,3.92c-4.43.05-17.05-4.58-18.3-6.69,0,0,0-4.85,5.41-4.27,13.6,1.43,22.65-9.84,22.65-9.84C410.45,396.39,416.18,402.29,416.72,409.44Z"/></clipPath><clipPath id="clip-path-2"><path class="cls-1" d="M459.23,452.31s2.69,6.58,2,7.94c-2.15,3.72-3.12,6.21-3.11,11.08a4.46,4.46,0,0,1-3,.21L454,464s-5.74,6.52-9.11,7.95c-4.08,1.73-17.52,2.22-19.47.74,0,0-1.86-4.48,3.38-6C441.88,462.84,446,449,446,449,448.48,442.6,456,445.9,459.23,452.31Z"/></clipPath></defs><g class="cls-2"><g id="OBJECTS"><path class="cls-3" d="M610.88,339.66c11-7.38,27.1-108.72,24.46-120.32-4.3-19-88.83-22.5-91.78,3.6-6.8,60-25.12,98.77-20.09,110.32C531.25,351.12,604.63,343.86,610.88,339.66Z"/><path class="cls-4" d="M600,339.66c9.61-7.38,27.82-119.9,23.9-128.62-3.67-8.16-81.12-12.71-83.71,13.39-6,60-21.28,97.28-16.87,108.83C530.19,351.12,594.56,343.86,600,339.66Z"/><path class="cls-5" d="M610.24,231.49C612.12,211.15,590.61,203,570.4,206c-15.76,2.3-29.12,7.85-30.17,18.43-6,60-20.07,93.93-15.65,105.48,3.55,9.29,52.34,10.62,62.75,1.29C596.64,322.85,606.77,268.86,610.24,231.49Z"/><path class="cls-6" d="M503.28,458.77a6.64,6.64,0,1,1-6.64-6.64A6.63,6.63,0,0,1,503.28,458.77Z"/><path class="cls-6" d="M614.15,458.77a6.64,6.64,0,1,1-6.64-6.64A6.63,6.63,0,0,1,614.15,458.77Z"/><circle class="cls-7" cx="543.73" cy="466.12" r="6.64"/><path class="cls-6" d="M570.28,450.49a6.64,6.64,0,1,1-6.64-6.64A6.64,6.64,0,0,1,570.28,450.49Z"/><path class="cls-8" d="M554.15,428.39h-4c-7.87,0-14.24,7-14.24,15.59v3c0,4.24,32.49,4.24,32.49,0v-3C568.39,435.37,562,428.39,554.15,428.39Z"/><path class="cls-9" d="M512.46,397.7c-3.6,1.1-4.64-2.29-1-3.39l20.11-6.17,5-19.71,3.45.87L534.49,391Z"/><path class="cls-10" d="M558,429.4c0,2.17-11.61,2.17-11.61,0V365H558Z"/><path class="cls-9" d="M531.55,345.67h41.18a6.32,6.32,0,0,1,6.32,6.32v2.5a19.29,19.29,0,0,1-19.29,19.29H544.53a19.29,19.29,0,0,1-19.29-19.29V352A6.32,6.32,0,0,1,531.55,345.67Z"/><path class="cls-4" d="M486.53,334.05c0-7.15,125.68-7.15,125.68,0,0,0,6.62,28.6-62.84,28.6S486.53,334.05,486.53,334.05Z"/><path class="cls-5" d="M488.29,331.37c0-3.58,106.94-3.58,106.94,0,0,0,5.64,14.3-53.47,14.3S488.29,331.37,488.29,331.37Z"/><path class="cls-8" d="M540.52,434l-44.72,9.85a7.39,7.39,0,0,0-5.8,7.21V454l48.24-5.16Z"/><path class="cls-8" d="M563.64,434l44.72,9.85a7.39,7.39,0,0,1,5.79,7.21V454l-48.24-5.16Z"/><path class="cls-8" d="M549.61,435.12c-7,0-11.68,20.14-11.63,25.41,0,3.79,4,8.57,10.21,2.29a138.59,138.59,0,0,0,10.46-12.89S560.31,435.12,549.61,435.12Z"/><path class="cls-11" d="M500.5,258.59c-17.37,6.92-48.28,17-48.28,17-2.31.65,1.3,10.42,3.61,9.77,0,0,26.57-3,47.34-8.08C507.07,270.1,508.8,264.56,500.5,258.59Z"/><path class="cls-12" d="M545.82,200.63c-.3-9.55-17.69-26.3-26.72-9.12-8.56,16.27-1.87,54.75-6.9,58.25-1.37,1-14.76,7.33-14.16,9.8.2.84,4.63,2.31,6.42,8.89,1.52,5.59-1.61,9-1.13,9.8.35,1.81,21.6-5.25,25.61-9.45C539.8,257.4,546.11,210.18,545.82,200.63Z"/><path class="cls-11" d="M457.43,274.15c-6.68.52-14.44-1.41-23.14-2.18a42,42,0,0,0-9.55,1.65c-1.8.7-6.29,5.25-6.22,6.51,1.81,2.52,6.57-1.79,8.19-2.71a8.1,8.1,0,0,1,3.46-.29,30.4,30.4,0,0,0-4.52,3.05c-1.28,1.44-3.24,7.52-2.61,8.62,2.75,1.43,5-4.56,6.09-6.11a3,3,0,0,1,.87-.75c-1.15,2.94-2.22,6.73-1.81,7.45,2.75,1.43,5.82-5.14,6.85-6.69a2.42,2.42,0,0,1,.63-.59c.13.15.26.3.4.44-1.05,2.84-2,6.17-1.57,6.84,2,1,4.07-2,5.5-4.4a10.78,10.78,0,0,0,1.05.36c5.84,1.69,15.56,2.36,20.79-.94C464.86,283.08,460.72,273.9,457.43,274.15Z"/><path class="cls-13" d="M547.87,173.72s-21.28,7.18-24.15,13,2.85,16.2-.16,23.77c-11.86,29.78,5,36.88,5,36.88,7.1,21.16-2,35.24-2.2,53.34-3,5,76.44,25.22,74.6,9.74-2.62-22.07-13.18-37.53-10.56-53.93s13.71-44.91,6.4-60.63S564.57,170.44,547.87,173.72Z"/><path class="cls-14" d="M594.22,283.06a98.92,98.92,0,0,1-3.87-15.73c-4-24.16-6.64-38.43-11.3-36s-6.54,17.43-9.31,20.32c-3.28,3.41-28.77,27.1-40.72,29.59l0,.12a9.86,9.86,0,0,0,10.06,11.81C558.07,292.32,576.3,288.55,594.22,283.06Z"/><path class="cls-1" d="M416.72,409.44s0,7.11-1.12,8.12a18.82,18.82,0,0,0-7.07,9.08,4.55,4.55,0,0,1-2.89-.95l1.79-7.46s-7.78,3.87-11.45,3.92c-4.43.05-17.05-4.58-18.3-6.69,0,0,0-4.85,5.41-4.27,13.6,1.43,22.65-9.84,22.65-9.84C410.45,396.39,416.18,402.29,416.72,409.44Z"/><g class="cls-15"><path class="cls-16" d="M376.75,414.16c.26.13,13.57,7.13,18.15,6.69s11-4.44,12.23-4.13,8.47.84,8.47.84l-6.08,13.57-35.36-8.77Z"/></g><path class="cls-17" d="M391.27,410.6l1.05,2.36s3.05,0,4.74-1.43l-.75-2.5a.86.86,0,0,0-1.07-.59l-3.41,1A.88.88,0,0,0,391.27,410.6Z"/><path class="cls-18" d="M461,300.27c-9.75,6.34-55.65,100.89-55.65,100.89-1.46,2.14,10.15,9.62,11.61,7.49,0,0,51.67-58.59,60-74.21,2.43-4.58,51.77,11.7,88.27,8.77,38.34-3.07,43.23-29.14,33.42-45.35C593.66,289.68,470.74,293.93,461,300.27Z"/><path class="cls-9" d="M478.16,326c4-.21,14.72-4.63,14.51-6.1-.17-1.17-10.25,3.64-10.25,3.64s12.55-6.55,11-9.16c-.87-1.43-6.13,5.61-15.18,10.25C478.21,324.67,475.82,326.17,478.16,326Z"/><path class="cls-1" d="M459.23,452.31s2.69,6.58,2,7.94c-2.15,3.72-3.12,6.21-3.11,11.08a4.46,4.46,0,0,1-3,.21L454,464s-5.74,6.52-9.11,7.95c-4.08,1.73-17.52,2.22-19.47.74,0,0-1.86-4.48,3.38-6C441.88,462.84,446,449,446,449,448.48,442.6,456,445.9,459.23,452.31Z"/><g class="cls-19"><path class="cls-16" d="M424,471.8c.29,0,15.26,1.47,19.34-.67s8.46-8.26,9.75-8.45,8.16-2.43,8.16-2.43l-.5,14.86-36,5.27Z"/></g><path class="cls-17" d="M436.1,463,438,464.8s2.82-1.14,3.85-3.11l-1.64-2a.87.87,0,0,0-1.21-.14l-2.8,2.2A.87.87,0,0,0,436.1,463Z"/><path class="cls-9" d="M477.73,324.73c-29.08,22.3-23.62,67.9-32.59,124.64-.39,3.87,12,5.76,14.29.87,0,0,9.91-24,16.25-42.05,3.32-9.45,17.65-39,19.64-57.61C497.13,333.7,493.58,328.38,477.73,324.73Z"/><path class="cls-11" d="M561.14,265.14c-18.77,5.85-50.06,13.67-50.06,13.67-2.31.65.64,11.42,2.95,10.77,0,0,27.76-1.15,50.32-5.34C567,277.22,567.67,271.05,561.14,265.14Z"/><path class="cls-11" d="M512.16,278.54a50.81,50.81,0,0,1-16.83-3.68s-14-1.81-16.2-1.49-8.44,4.27-8.69,5.71c1.38,3.32,7.85-.31,9.92-.91.8-.24,2.51.13,4.3.66-2.76.42-5.79,1-6.74,1.58-1.89,1.18-6,7.31-5.66,8.72,2.59,2.48,6.49-3,8.13-4.36a5.59,5.59,0,0,1,1.92-.78l-.15.08c-1.89,1.18-6,7.31-5.66,8.72,2.59,2.48,6.49-3,8.13-4.36a6.18,6.18,0,0,1,2.23-.86c-1.66,1.82-3.82,5.27-3.58,6.21,2.13,2,5.34-2.45,6.69-3.59a8.32,8.32,0,0,1,3.14-1,9,9,0,0,0,1.07.57c5.08,2.27,14.81,2.52,20,.19C517.05,289.16,515.17,278.72,512.16,278.54Z"/><path class="cls-20" d="M599.22,203.08c-.29-9.55-13.3-26.34-22.33-9.16-8.55,16.27,1.38,56.29-3.65,59.78-1.42,1-15.79,10.07-15.23,12,.32,1.11,5.77,2.46,6.37,8.85s-1.93,9.75-1,10.47,25.09-5.75,29.11-10C603.34,263.67,599.52,212.62,599.22,203.08Z"/><path class="cls-12" d="M576.4,252.86c3.84-.74,15.28.87,15.49,2.3.16,1.14-10.76-1-10.76-1s13.75,3.19,13,6c-.43,1.56-7.36-3.83-17.26-6C576.82,254.15,574.14,253.3,576.4,252.86Z"/><path class="cls-21" d="M585,156.72c-1.85,14.56-59.78,21.26-63.93,2.56-6-27.1,6.71-50.35,29.51-50.43C577.17,108.75,587.28,138.9,585,156.72Z"/><path class="cls-22" d="M534.66,143.21c-.14,5.41-1.62,9.75-6.69,9.62-3.55-.09-6.32-4.55-6.18-10s3.14-9.71,6.69-9.62C533.55,133.39,534.8,137.81,534.66,143.21Z"/><path class="cls-22" d="M524.66,149.45s-7.78,11.44-5.94,15.92,10.91,3.68,10.91,3.68l0-1.34s-7.85.58-9.51-3.18c-1.37-3.11,5.69-14.35,5.69-14.35Z"/><path class="cls-8" d="M534.87,168.78c0,1.38-1.92,2.45-4.21,2.39s-4.12-1.23-4.09-2.61,1.93-2.46,4.22-2.4S534.91,167.39,534.87,168.78Z"/><path class="cls-6" d="M536.18,142.83c-.12,4.5-2.61,8.08-5.57,8s-5.25-3.78-5.14-8.28,2.61-8.08,5.57-8S536.29,138.33,536.18,142.83Z"/><ellipse class="cls-13" cx="531.19" cy="142.7" rx="6.54" ry="4.3" transform="translate(374.72 670) rotate(-88.51)"/><path class="cls-11" d="M554.81,148.48a66,66,0,0,0,3.88,15.29c2.84,6.65,7,8.75,9.48,12.31,4.32,6.26-23.57,22.42-24.76,22.84,0,0-11.65-14-8.26-18.63,3.74-5.11,8.11-7.26,6-16.62-1.83-8.16-2.91-12.69-2.91-12.69Z"/><path class="cls-23" d="M536.5,177.79a7.54,7.54,0,0,0,.86,4.71,6.6,6.6,0,0,0,3.68,2.79,15.09,15.09,0,0,0,4.86.7,20.19,20.19,0,0,0,5-.57,25.14,25.14,0,0,0,9.15-4.08,24.66,24.66,0,0,0,3.82-3.32,16,16,0,0,0,2.91-4.11h0a.34.34,0,0,1,.47-.16.33.33,0,0,1,.17.42c-1.16,3.45-3.7,6.18-6.47,8.41a25.56,25.56,0,0,1-9.67,4.59,22,22,0,0,1-5.37.51,14.76,14.76,0,0,1-5.38-.95,7.87,7.87,0,0,1-4.22-3.65,8.07,8.07,0,0,1-.47-5.44.36.36,0,0,1,.43-.25.35.35,0,0,1,.26.38Z"/><path class="cls-23" d="M536.83,177.89a25.43,25.43,0,0,0-1,7.83,38.51,38.51,0,0,0,1,7.86,47.22,47.22,0,0,0,2.55,7.49c.49,1.23,1.17,2.38,1.74,3.57s1.34,2.29,2,3.43l-1.28-.2c2.67-2.32,5.25-4.81,7.75-7.35a103.11,103.11,0,0,0,7.07-8,70,70,0,0,0,6.11-8.72,41.18,41.18,0,0,0,4.26-9.71h0a.35.35,0,0,1,.68.16,40.42,40.42,0,0,1-3.84,10.18,73,73,0,0,1-5.95,9.1,106.54,106.54,0,0,1-7.11,8.2,94.44,94.44,0,0,1-7.88,7.47l0,0a.83.83,0,0,1-1.17-.1.5.5,0,0,1-.08-.12c-.68-1.19-1.39-2.35-2-3.56s-1.26-2.43-1.76-3.71a42.11,42.11,0,0,1-2.46-7.83,35.73,35.73,0,0,1-.72-8.18,26.08,26.08,0,0,1,1.47-8.08.34.34,0,0,1,.45-.2.35.35,0,0,1,.21.43Z"/><path class="cls-23" d="M544.55,213.32c-.52,3.22-2.37,5.6-4.12,5.31s-2.73-3.12-2.21-6.34,2.37-5.6,4.12-5.32S545.08,210.1,544.55,213.32Z"/><path class="cls-24" d="M543.56,213.16c-.36,2.22-1.63,3.85-2.83,3.66s-1.88-2.15-1.52-4.37,1.63-3.86,2.83-3.66S543.93,210.94,543.56,213.16Z"/><path class="cls-25" d="M554.94,149.25s-3.06,17.52-19.56,15.59c-8.29-1-11.68-17.12-8.4-22.37,0,0-4-9.28-.3-17.39,4-8.69,16.73-10.65,27.93-6.72,0,0,3.2,5.53,1.37,19.34a4.24,4.24,0,0,1,5.41-.5c2.44,1.46,2.57,4.7,1.6,7.7C561.82,148.5,557.89,151.48,554.94,149.25Z"/><path class="cls-26" d="M556.17,148l1.38-3.24-2.08-1s1.63-6.11,5-3.69C563.18,142.05,559.64,149.36,556.17,148Z"/><path class="cls-27" d="M533.13,153.73a27.35,27.35,0,0,1,9.9-1.44C541.85,156.85,533.62,158.77,533.13,153.73Z"/><path class="cls-28" d="M532.69,153.46a.9.9,0,0,1,.57-.31A33.24,33.24,0,0,1,543,152a.26.26,0,0,1,.25.33c-1,4.52-10.23,7.24-10.59,1.1Zm.89.54a11.4,11.4,0,0,1,.44,1.07c1.6,2.25,5.14,1.26,7-.25a4.89,4.89,0,0,0,1.75-2.6l.25.33a24.91,24.91,0,0,0-9.56,1.6l-.07,0s-.08,0,0,0a.44.44,0,0,0,.16-.17Z"/><path class="cls-9" d="M528,142.71c0,.79,1.06.89,2.32.83s2.26-.23,2.23-1-1.08-1.37-2.33-1.32S528,141.93,528,142.71Z"/><path class="cls-1" d="M526.23,139.38a8.62,8.62,0,0,1,3.51-2.37c1.91-.5,3.35,1.22,3.64.83a7.14,7.14,0,0,0,.59-1.28s-2.72-1.24-4.54-.63A5.05,5.05,0,0,0,526.23,139.38Z"/><path class="cls-9" d="M540.2,141.84c0,.79,1.06.88,2.32.83s2.26-.23,2.23-1-1.08-1.37-2.33-1.32S540.17,141.06,540.2,141.84Z"/><path class="cls-1" d="M547.84,137.18c.06.1-2.6-1.78-4.81-1.76-1.43,0-4.23,2-4.64,1.61a5.08,5.08,0,0,1-.84-1.18,9.88,9.88,0,0,1,5.65-1.57A6.31,6.31,0,0,1,547.84,137.18Z"/><path class="cls-29" d="M534.82,150.82s2.9,0,2.86-.77-6-1.92-6.4-1.36S533.54,150.4,534.82,150.82Z"/><path class="cls-26" d="M533.56,137.53s2,3.35,1.51,4.64-3.3,5.7-3.39,6.32,2.92,2.26,3.14,2.36-4.34-.8-4.14-2.21,3.79-6.44,3.94-7.14S533.56,137.53,533.56,137.53Z"/><path class="cls-21" d="M556,137.7c-7.68,1.06-25.11-15.38-27.19-14.92-2.25.5-4.23,8-3,15.7,0,0-5.81-13.68,1.07-22.22,7.22-9,25.69-7.92,31.62,1.33,4.48,7,2.45,19.34,2.45,19.34S558.8,137.31,556,137.7Z"/><path class="cls-22" d="M563.13,142.05c-.14,5.4-1.61,9.75-6.69,9.62-3.55-.1-6.31-4.55-6.17-10s3.13-9.71,6.68-9.62C562,132.23,563.27,136.64,563.13,142.05Z"/><path class="cls-6" d="M564.65,141.66c-.12,4.5-2.61,8.08-5.56,8s-5.26-3.79-5.14-8.29,2.6-8.08,5.56-8S564.77,137.17,564.65,141.66Z"/><path class="cls-30" d="M564,141.64c-.1,3.61-2.1,6.49-4.47,6.43s-4.22-3-4.12-6.65,2.09-6.48,4.46-6.42S564.05,138,564,141.64Z"/><path class="cls-9" d="M555.58,133.28s1-17.62-16-18.06-15.33,20.17-15.33,20.17L523,137.5s-4.32-23.36,16.11-24.27c19.36-.85,18.38,19.2,18.38,19.2Z"/><path class="cls-31" d="M337.58,328.63,30.69,349.05Q18.32,245.66,0,141l306.9-12Z"/><path class="cls-32" d="M0,141l306.9-12L145.72,1.3a8,8,0,0,0-9.7.75Z"/><path class="cls-24" d="M306,236l-271.25,18a3.86,3.86,0,0,1-4.07-3.31L3.55,59.48a3.86,3.86,0,0,1,3.66-4.4L278.48,44.46a3.85,3.85,0,0,1,4,3.29l27.08,183.86A3.86,3.86,0,0,1,306,236Z"/><path class="cls-27" d="M282,214.58,52.51,225.71a5.94,5.94,0,0,1-6.16-5.05L36,145.78A6,6,0,0,1,41.62,139L271,128.64a5.94,5.94,0,0,1,6.11,4.9l10.49,74.07A6,6,0,0,1,282,214.58Z"/><path class="cls-31" d="M257.63,146.05l-205.24,8.8a2.25,2.25,0,0,1-2.33-1.95h0a2.25,2.25,0,0,1,2.13-2.55l205.25-8.79a2.26,2.26,0,0,1,2.34,2.09h0A2.25,2.25,0,0,1,257.63,146.05Z"/><path class="cls-31" d="M261.4,154.1h0a2.27,2.27,0,0,0-2.35-2.09L53.6,160.8a2.26,2.26,0,0,0-2.14,2.56h0a2.25,2.25,0,0,0,2.33,1.94l205.46-8.8A2.26,2.26,0,0,0,261.4,154.1Z"/><path class="cls-31" d="M148.58,167.27l-93.6,4a2.23,2.23,0,0,0-2.12,2.52v0a2.23,2.23,0,0,0,2.31,1.94l93.59-4a2.25,2.25,0,0,0,2.13-2.53v0A2.25,2.25,0,0,0,148.58,167.27Z"/><path class="cls-31" d="M184.22,176.27,56.39,181.74a2.23,2.23,0,0,0-2.12,2.53v.06a2.23,2.23,0,0,0,2.31,1.93l127.82-5.48a2.22,2.22,0,0,0,2.14-2.36v0A2.26,2.26,0,0,0,184.22,176.27Z"/><path class="cls-31" d="M57.07,205.24h0a2.25,2.25,0,0,0,2.32,1.95l105-4.5a2.24,2.24,0,0,0,2.16-2.35v-.09a2.23,2.23,0,0,0-2.34-2.07l-105,4.5A2.25,2.25,0,0,0,57.07,205.24Z"/><path class="cls-27" d="M262.42,88.81,116.71,95.88a3.79,3.79,0,0,1-3.92-3.21l-1.06-7.09a3.78,3.78,0,0,1,3.56-4.33L260.91,74.7a3.76,3.76,0,0,1,3.88,3.11L266,84.38A3.77,3.77,0,0,1,262.42,88.81Z"/><path class="cls-27" d="M266.27,112.37l-145.72,7.06a3.76,3.76,0,0,1-3.91-3.2l-1.06-7.09a3.77,3.77,0,0,1,3.56-4.33l145.61-6.55a3.76,3.76,0,0,1,3.89,3.11l1.16,6.57A3.78,3.78,0,0,1,266.27,112.37Z"/><path class="cls-31" d="M213.67,81.86l-93.89,4.83a2.23,2.23,0,0,0-2.1,2.53v0A2.22,2.22,0,0,0,120,91.2l93.89-4.84A2.24,2.24,0,0,0,216,83.84v0A2.23,2.23,0,0,0,213.67,81.86Z"/><path class="cls-31" d="M199,106.71l-74.27,4a2.23,2.23,0,0,0-2.09,2.53v.05a2.23,2.23,0,0,0,2.34,1.93l74.26-4a2.24,2.24,0,0,0,2.11-2.52v0A2.24,2.24,0,0,0,199,106.71Z"/><path class="cls-33" d="M0,141l157.56,84.07s7-8.72,16.17-9.9,17.58,8.32,17.58,8.32L306.9,129,177.77,270.44Z"/><path class="cls-34" d="M0,141,178.32,248.76,307.35,131,338,330.66,31.15,351.07Q15.91,248.31,0,141Z"/><path class="cls-35" d="M0,141s12.13,38.06,21.77,105.32,8.92,102.72,8.92,102.72Z"/><path class="cls-36" d="M160.64,238.08s-130.9,114.25-129.5,113,34.36-35.44,58.15-58.59S146.68,242.76,160.64,238.08Z"/><path class="cls-37" d="M31.14,351.07,338,330.66,178.8,226.39a8,8,0,0,0-9.71.74Z"/><path class="cls-23" d="M273.87,317.36s-14.13,127.91-17.12,174.76c-.24,3.66,10.43,6.51,11.6,0,7.32-41,28.36-174.76,28.36-174.76Z"/><path class="cls-38" d="M314.42,317.36s-12,121.12-14.58,161c-.2,3.12,8.89,5.55,9.88,0,6.23-34.88,24.14-161,24.14-161Z"/><path class="cls-23" d="M618.21,317.36s14.14,127.91,17.13,174.76c.23,3.66-10.44,6.51-11.6,0-7.32-41-28.36-174.76-28.36-174.76Z"/><path class="cls-38" d="M650.37,317.36s12,121.12,14.58,161c.2,3.12-8.89,5.55-9.88,0-6.23-34.88-24.14-161-24.14-161Z"/><polygon class="cls-38" points="621.83 324.02 267 324.02 261.19 301.7 624.78 301.7 621.83 324.02"/><polygon class="cls-39" points="654.71 320.88 621.83 324.02 624.78 301.7 659.67 301.7 654.71 320.88"/><rect class="cls-40" x="241.39" y="295.75" width="393.95" height="11.91"/><polygon class="cls-38" points="674.08 306.04 635.35 307.66 635.35 295.75 674.08 294.14 674.08 306.04"/><polygon class="cls-41" points="241.39 295.75 313.96 294.14 674.08 294.14 635.35 295.75 241.39 295.75"/><path class="cls-42" d="M296.11,280.09s-10.59-24.17,3.73-24.17,3.76,24.17,3.76,24.17S298.83,280.2,296.11,280.09Z"/><path class="cls-43" d="M297,280.09s-8.18-24.17,2.88-24.17,2.91,24.17,2.91,24.17S299.06,280.2,297,280.09Z"/><path class="cls-1" d="M314.74,280.49l-.12,1.74-.13,2-.15,2.5,0,.78-.49,7.07c0,.72-27.62,1.05-27.63.33l-.61-7.4,0-.41-.22-2.53-.2-2.37L285,280.5a1.39,1.39,0,0,1,1.38-1.49h27A1.39,1.39,0,0,1,314.74,280.49Z"/><polygon class="cls-28" points="314.63 282.23 314.49 284.26 314.34 286.76 314.29 287.54 285.56 287.54 285.53 287.13 285.31 284.6 285.11 282.23 314.63 282.23"/><path class="cls-13" d="M354.4,288.24H489.25A3.77,3.77,0,0,1,493,292v2.13a0,0,0,0,1,0,0H350.63a0,0,0,0,1,0,0V292a3.77,3.77,0,0,1,3.77-3.77Z"/><path class="cls-18" d="M459,271.63H345.81a2.38,2.38,0,0,1-2.33-1.9l-21.06-82.87-.52-2c-.28-1.43,4.39-5,5.86-5l115.5-1a4.73,4.73,0,0,1,3.32,1.12,5.83,5.83,0,0,1,1.6,3.39l16.06,83.3C464.68,268.47,461.42,271.63,459,271.63Z"/><path class="cls-44" d="M446.58,180c-1.52,1.37-3.28,2.93-3.85,3.39,0,0-119,3.34-119.6,3.56a2.1,2.1,0,0,1-.71-.07l-.52-2c-.28-1.43,4.39-5,5.86-5l115.5-1A4.73,4.73,0,0,1,446.58,180Z"/><path class="cls-45" d="M458.78,271.63H342.26a2.36,2.36,0,0,1-2.32-1.91l-18-84.17a2.35,2.35,0,0,1,2.26-2.82l117.72-1a2.37,2.37,0,0,1,2.38,1.91l16.79,85.22A2.37,2.37,0,0,1,458.78,271.63Z"/><path class="cls-18" d="M450,261.2c.25,1.21-2.32,4.09-4.33,4.09H352.61a2,2,0,0,1-1.92-1.58l-18-69.79-.14-.51c-.23-1.19,3.62-4.12,4.83-4.16l97.13-.55a1.89,1.89,0,0,1,1.49.66,1.84,1.84,0,0,1,.47.92Z"/><path class="cls-46" d="M436,189.36l-4.4,3.32-98.91,1.24-.14-.51c-.23-1.19,3.62-4.12,4.83-4.16l97.13-.55A1.89,1.89,0,0,1,436,189.36Z"/><path class="cls-44" d="M445.5,265.29H349.68a2,2,0,0,1-1.92-1.58l-12.64-58.54-1.5-6.68-1-4.53a2,2,0,0,1,1.87-2.33l97.13-.57a2,2,0,0,1,2,1.59l.92,4.72,1.46,7.32L447.42,263A2,2,0,0,1,445.5,265.29Z"/><polygon class="cls-18" points="407.27 201.44 362.24 201.67 361.91 200.33 406.95 200.14 407.27 201.44"/><polygon class="cls-18" points="407.8 203.81 362.78 204.05 362.44 202.7 407.49 202.52 407.8 203.81"/><polygon class="cls-18" points="408.34 206.19 363.31 206.42 362.98 205.08 408.02 204.9 408.34 206.19"/><polygon class="cls-18" points="408.88 208.57 363.85 208.8 363.52 207.46 408.56 207.27 408.88 208.57"/><polygon class="cls-18" points="370.02 228.19 405.26 228.17 394.97 294.14 360.05 294.14 370.02 228.19"/><polygon class="cls-13" points="370.02 228.19 401.94 228.17 391.65 294.14 360.05 294.14 370.02 228.19"/><rect class="cls-12" x="369.77" y="224.87" width="35.73" height="6.61"/><ellipse class="cls-13" cx="405.4" cy="228.18" rx="1.79" ry="3.31"/><path class="cls-12" d="M368.18,228.18c0-1.83.72-3.31,1.59-3.31s1.59,1.48,1.59,3.31-.71,3.31-1.59,3.31S368.18,230,368.18,228.18Z"/><circle class="cls-11" cx="392.76" cy="40.82" r="26.92" transform="translate(86.17 289.68) rotate(-45)"/><rect class="cls-47" x="373.22" y="28.63" width="38.48" height="24.49"/><polygon class="cls-48" points="411.7 53.12 373.22 53.12 392.46 40.87 411.7 53.12"/><path class="cls-49" d="M373.22,28.63l18.07,15.93a1.75,1.75,0,0,0,2.34,0L411.7,28.63Z"/><path class="cls-50" d="M373.22,28.63l18.07,14.64a1.87,1.87,0,0,0,2.34,0L411.7,28.63Z"/><circle class="cls-7" cx="392.76" cy="109.9" r="26.92" transform="translate(37.32 309.91) rotate(-45)"/><path class="cls-27" d="M385.76,105.93a8.39,8.39,0,0,0,4.16-1l2.06-1.11a1.39,1.39,0,0,0,.72-1.82L387.86,93a1.39,1.39,0,0,0-1.92-.4l-2.06,1.11a7.76,7.76,0,0,0-4,5c-.84,4,2.68,13.34,4.84,17.35s9,12.56,12.72,13.41a7.8,7.8,0,0,0,5.3-.94l2.06-1.11a1.4,1.4,0,0,0,.71-1.82l-4.84-9a1.38,1.38,0,0,0-1.91-.4l-2.06,1.11a8.42,8.42,0,0,0-3.22,3A73.5,73.5,0,0,1,385.76,105.93Z"/><rect class="cls-48" x="387.6" y="92.34" width="0.86" height="12.7" transform="translate(-0.24 196.43) rotate(-28.4)"/><rect class="cls-48" x="400.38" y="115.96" width="0.86" height="12.7" transform="translate(-9.93 205.39) rotate(-28.4)"/><circle class="cls-17" cx="461.98" cy="40.84" r="26.92" transform="translate(106.43 338.63) rotate(-45)"/><path class="cls-1" d="M473.42,36.51c0,9-11.93,22.48-11.93,22.48s-11.93-13.44-11.93-22.48a11.93,11.93,0,0,1,23.86,0Z"/><circle class="cls-27" cx="461.49" cy="36.51" r="7.55"/><circle class="cls-28" cx="461.98" cy="109.92" r="26.92" transform="translate(57.58 358.87) rotate(-45)"/><ellipse class="cls-51" cx="461.98" cy="110" rx="11.55" ry="16.16"/><circle class="cls-52" cx="461.98" cy="110" r="16.16" transform="translate(57.53 358.89) rotate(-45)"/><path class="cls-27" d="M462,93.26A16.74,16.74,0,1,0,478.72,110,16.76,16.76,0,0,0,462,93.26Zm-3.82,27.36c-5.9-1.06-10.48-4.48-11.53-8.75,2,1.33,6.11,2.2,10.62,2.55A43.46,43.46,0,0,0,458.16,120.62Zm19.38-11c0,.11,0,.22,0,.33s0,.22,0,.32c-.62,1.19-4.52,2.6-10.77,3.09.07-1.13.11-2.27.11-3.41s0-2.28-.11-3.41C473,107.08,476.92,108.49,477.54,109.67Zm-11.7.33c0,1.23,0,2.38-.11,3.49-1.18.07-2.43.11-3.75.11s-2.57,0-3.75-.11c-.07-1.11-.11-2.26-.11-3.49s0-2.39.11-3.49c1.18-.07,2.43-.11,3.75-.11s2.57,0,3.75.11C465.8,107.61,465.84,108.77,465.84,110Zm-19.42.32c0-.1,0-.21,0-.32s0-.22,0-.33c.62-1.18,4.52-2.59,10.77-3.08-.07,1.13-.11,2.27-.11,3.41s0,2.28.11,3.41C450.94,112.92,447,111.51,446.42,110.32ZM462,105.39c-1.23,0-2.46,0-3.68.12a38.81,38.81,0,0,1,1-6.3,20.34,20.34,0,0,1,5.4,0,38.81,38.81,0,0,1,1,6.3C464.44,105.43,463.21,105.39,462,105.39Zm-4.73.19c-4.51.35-8.61,1.22-10.62,2.55,1.05-4.27,5.63-7.69,11.53-8.75A43.46,43.46,0,0,0,457.25,105.58Zm4.73,9c1.23,0,2.46,0,3.68-.12a38.81,38.81,0,0,1-1,6.3,20.34,20.34,0,0,1-5.4,0,38.81,38.81,0,0,1-1-6.3C459.52,114.57,460.75,114.61,462,114.61Zm4.73-.19c4.52-.35,8.61-1.22,10.62-2.55-1.05,4.27-5.63,7.69-11.53,8.75A43.46,43.46,0,0,0,466.71,114.42Zm0-8.84a43.46,43.46,0,0,0-.91-6.2c5.9,1.06,10.48,4.48,11.53,8.75C475.32,106.8,471.23,105.93,466.71,105.58Zm9.45-2a17.67,17.67,0,0,0-10.68-5.45,11.33,11.33,0,0,0-1.57-3.58A15.59,15.59,0,0,1,476.16,103.59Zm-14.49-9.15.31,0,.32,0c.67.3,1.41,1.55,2.05,3.57a20,20,0,0,0-4.73,0C460.25,96,461,94.74,461.67,94.44Zm-1.62.12a11.53,11.53,0,0,0-1.57,3.59,17.61,17.61,0,0,0-10.68,5.44A15.59,15.59,0,0,1,460.05,94.56ZM447.8,116.41a17.61,17.61,0,0,0,10.68,5.44,11.53,11.53,0,0,0,1.57,3.59A15.59,15.59,0,0,1,447.8,116.41Zm14.5,9.15-.32,0-.31,0c-.68-.3-1.42-1.55-2.05-3.57a20,20,0,0,0,4.73,0C463.71,124,463,125.26,462.3,125.56Zm1.61-.12a11.3,11.3,0,0,0,1.57-3.59,17.61,17.61,0,0,0,10.68-5.44A15.59,15.59,0,0,1,463.91,125.44Z"/><path class="cls-17" d="M597.75,92.33h86A13.64,13.64,0,0,1,697.39,106v21.71a13.64,13.64,0,0,1-13.64,13.64H627.22l-21.57,34.86,7-34.86h-14.9a13.64,13.64,0,0,1-13.64-13.64V106A13.64,13.64,0,0,1,597.75,92.33Z"/><path class="cls-9" d="M657.88,115.91a3.95,3.95,0,1,0,4-3.94A4,4,0,0,0,657.88,115.91Z"/><path class="cls-9" d="M636.81,115.91a3.95,3.95,0,1,0,3.94-3.94A3.94,3.94,0,0,0,636.81,115.91Z"/><path class="cls-9" d="M615.73,115.91a3.95,3.95,0,1,0,3.94-3.94A3.94,3.94,0,0,0,615.73,115.91Z"/></g></g></svg>