<svg xmlns="http://www.w3.org/2000/svg" xmlns:xlink="http://www.w3.org/1999/xlink" width="81" height="46" viewBox="0 0 81 46"><defs><path id="au2p0fibca" d="M.072 20.184C.072 9.08 17.185.078 38.295.078S76.518 9.08 76.518 20.184c0 11.105-17.113 20.107-38.223 20.107S.072 31.29.072 20.184"></path><path id="vzy3hd9u4d" d="M0 44.793L79.631 44.793 79.631 0 0 0z"></path><path id="uo8h1ou2ff" d="M0 44.793L79.631 44.793 79.631 0 0 0z"></path><radialGradient id="20p8kyms0c" cx="30.02%" cy="82.422%" r="124.814%" fx="30.02%" fy="82.422%" gradientTransform="matrix(.52604 0 0 1 .142 0)"><stop offset="0%" stop-color="#AEB2D5"></stop><stop offset="30%" stop-color="#AEB2D5"></stop><stop offset="75%" stop-color="#484C89"></stop><stop offset="100%" stop-color="#484C89"></stop></radialGradient></defs><g fill="none" fill-rule="evenodd"><g><g><g><g transform="translate(-602 -3741) translate(602 3741) matrix(1 0 0 -1 .066 45.826) translate(1.52 2.212)"><mask id="tss9fi8eeb" fill="#fff"><use xlink:href="#au2p0fibca"></use></mask><g fill="url(#20p8kyms0c)" fill-rule="nonzero" mask="url(#tss9fi8eeb)"><g><path d="M.072 20.184C.072 9.08 17.185.078 38.295.078S76.518 9.08 76.518 20.184c0 11.105-17.113 20.107-38.223 20.107S.072 31.29.072 20.184"></path></g></g></g><g transform="translate(-602 -3741) translate(602 3741) matrix(1 0 0 -1 .066 45.826)"><mask id="zxkhv0azee" fill="#fff"><use xlink:href="#vzy3hd9u4d"></use></mask><g mask="url(#zxkhv0azee)"><g><path fill="#777BB3" fill-rule="nonzero" d="M36.774 0c20.285 0 36.73 8.334 36.73 18.614 0 10.28-16.445 18.614-36.73 18.614-20.285 0-36.73-8.334-36.73-18.614C.044 8.334 16.49 0 36.774 0" transform="translate(3.041 3.782)"></path></g></g></g><g transform="translate(-602 -3741) translate(602 3741) matrix(1 0 0 -1 .066 45.826)"><mask id="1f2z3ti6og" fill="#fff"><use xlink:href="#uo8h1ou2ff"></use></mask><g mask="url(#1f2z3ti6og)"><g><g><path fill="#000" fill-rule="nonzero" d="M9.263 9.4c1.668 0 2.913.309 3.7.915.78.6 1.319 1.64 1.6 3.09.264 1.356.164 2.302-.297 2.813-.471.522-1.49.787-3.027.787H8.574L7.096 9.4h2.167zM.544.036c-.123 0-.241.055-.32.15C.146.282.114.408.137.529l3.917 20.15c.037.195.208.336.407.336h8.44c2.653 0 4.628-.72 5.869-2.141 1.247-1.428 1.633-3.425 1.145-5.934-.199-1.022-.54-1.972-1.015-2.822-.476-.85-1.104-1.638-1.868-2.34-.915-.856-1.95-1.477-3.074-1.842-1.107-.36-2.527-.543-4.223-.543H6.317L5.34.37C5.303.175 5.132.035 4.934.035H.544z" transform="translate(12.719 10.23) translate(.378 .457)"></path></g><g><path fill="#FFF" fill-rule="nonzero" d="M9.263 17.005h2.323c1.856 0 2.5-.408 2.72-.65.363-.403.431-1.252.198-2.456-.263-1.348-.75-2.304-1.446-2.84-.714-.55-1.874-.829-3.448-.829H7.946l1.317 6.775zm3.986 4.838H4.808c-.397 0-.739-.281-.814-.67L.077 1.022C.03.778.094.527.251.335.41.146.644.035.891.035h4.39c.397 0 .738.281.814.67l.91 4.687h3.077c1.74 0 3.204.19 4.352.563 1.18.384 2.267 1.034 3.228 1.934.796.731 1.45 1.552 1.947 2.44.496.89.853 1.88 1.06 2.946.514 2.64.096 4.756-1.24 6.285-1.323 1.515-3.403 2.283-6.18 2.283M6.939 9.401h2.67c1.77 0 3.089.333 3.955 1 .866.667 1.45 1.78 1.754 3.34.29 1.497.158 2.554-.397 3.17-.556.615-1.667.923-3.335.923H8.58l-1.64-8.433m6.31 11.613c2.539 0 4.391-.667 5.555-2 1.165-1.332 1.515-3.193 1.05-5.581-.19-.984-.514-1.884-.97-2.699-.455-.815-1.05-1.56-1.786-2.237-.876-.82-1.85-1.405-2.921-1.753-1.072-.349-2.436-.523-4.095-.523h-3.76L5.281.864H.89l3.917 20.15h8.44" transform="translate(12.719 10.23) translate(.03 .042)"></path></g><g><path fill="#000" fill-rule="nonzero" d="M11.198 0c-.124 0-.241.055-.32.151-.079.095-.11.221-.087.343l1.732 8.915c.165.848.125 1.457-.114 1.714-.146.157-.584.42-1.881.42H7.389L5.211.337C5.173.14 5.003 0 4.804 0H.45C.325 0 .21.055.13.151.05.246.02.372.042.494l3.916 20.15c.038.195.21.335.408.335H8.72c.124 0 .242-.055.32-.15.08-.096.111-.222.088-.344l-.945-4.863h3.376c2.572 0 4.316-.453 5.332-1.386 1.035-.952 1.359-2.474.96-4.524L16.03.336C15.991.14 15.821 0 15.622 0h-4.424z" transform="translate(12.719 10.23) translate(19.159 5.849)"></path></g><g><path fill="#FFF" fill-rule="nonzero" d="M9.124 21.843H4.77c-.398 0-.739-.281-.815-.67L.04 1.022C-.008.778.056.527.213.335.371.146.606.035.853.035h4.355c.397 0 .739.281.814.67l2.113 10.873h2.797c1.294 0 1.566-.276 1.577-.288.078-.085.182-.476.011-1.352l-1.732-8.916c-.047-.243.016-.494.174-.686.158-.19.392-.301.64-.301h4.424c.397 0 .739.281.814.67l1.822 9.377c.428 2.202.062 3.853-1.086 4.908-1.096 1.007-2.932 1.496-5.613 1.496H9.089l.85 4.37c.047.243-.017.494-.174.685-.158.192-.393.302-.64.302m0-.83l-1.042-5.356h3.88c2.44 0 4.125-.426 5.051-1.277.927-.852 1.205-2.232.834-4.14L16.026.865h-4.424l1.733 8.915c.197 1.015.124 1.706-.218 2.075-.343.37-1.071.554-2.185.554h-3.48L5.207.864H.853l3.917 20.15h4.354" transform="translate(12.719 10.23) translate(18.755 5.4)"></path></g><g><path fill="#000" fill-rule="nonzero" d="M9.263 9.4c1.668 0 2.913.309 3.7.915.78.6 1.319 1.64 1.6 3.09.264 1.356.164 2.302-.297 2.813-.471.522-1.49.787-3.027.787H8.574L7.096 9.4h2.167zM.544.036c-.123 0-.24.055-.32.15C.147.282.115.408.138.529l3.917 20.15c.038.195.208.336.407.336h8.44c2.653 0 4.628-.72 5.869-2.141 1.247-1.428 1.633-3.425 1.145-5.934-.199-1.022-.54-1.972-1.015-2.822-.476-.85-1.104-1.638-1.868-2.34-.915-.856-1.95-1.477-3.074-1.842-1.107-.36-2.527-.543-4.223-.543H6.317L5.34.37C5.303.175 5.132.035 4.934.035H.544z" transform="translate(12.719 10.23) translate(34.638 .457)"></path></g><g><path fill="#FFF" fill-rule="nonzero" d="M9.263 17.005h2.323c1.856 0 2.5-.408 2.72-.65.363-.403.431-1.252.198-2.456-.263-1.348-.75-2.304-1.446-2.84-.714-.55-1.874-.829-3.448-.829H7.946l1.317 6.775zm3.986 4.838H4.808c-.397 0-.739-.281-.814-.67L.077 1.022C.03.778.094.527.251.335.41.146.644.035.891.035h4.39c.397 0 .738.281.814.67l.91 4.687h3.077c1.74 0 3.204.19 4.352.563 1.18.384 2.267 1.035 3.229 1.934.795.731 1.45 1.552 1.946 2.44.496.89.853 1.88 1.06 2.946.514 2.64.096 4.756-1.24 6.285-1.323 1.515-3.403 2.283-6.18 2.283M6.94 9.401h2.67c1.77 0 3.088.333 3.954 1 .866.667 1.45 1.78 1.754 3.34.29 1.497.158 2.554-.397 3.17-.556.615-1.667.923-3.335.923H8.58L6.94 9.401m6.309 11.613c2.539 0 4.391-.667 5.555-2 1.165-1.332 1.515-3.193 1.05-5.581-.19-.984-.514-1.884-.97-2.699-.455-.815-1.05-1.56-1.786-2.237-.876-.82-1.85-1.405-2.921-1.753-1.072-.349-2.436-.523-4.095-.523h-3.76L5.281.864H.891l3.917 20.15h8.44" transform="translate(12.719 10.23) translate(34.291 .042)"></path></g></g></g></g></g></g></g></g></svg>