<svg xmlns="http://www.w3.org/2000/svg" width="128" height="38" viewBox="0 0 128 38"><defs><linearGradient id="aehd6zwg9a" x1=".959%" x2="74.051%" y1="0%" y2="64.11%"><stop offset="0%" stop-color="#5A9FD4"></stop><stop offset="100%" stop-color="#306998"></stop></linearGradient><linearGradient id="3gpbhkditb" x1="50%" x2="24.242%" y1="82.276%" y2="44.914%"><stop offset="0%" stop-color="#FFD43B"></stop><stop offset="100%" stop-color="#FFE873"></stop></linearGradient><radialGradient id="p843sjhboc" cx="50%" cy="50%" r="50%" fx="50%" fy="50%" gradientTransform="matrix(0 -1 .1939 0 .403 1)"><stop offset="0%" stop-color="#B8B8B8" stop-opacity=".498"></stop><stop offset="100%" stop-color="#7F7F7F" stop-opacity="0"></stop></radialGradient></defs><g fill="none" fill-rule="evenodd"><g fill-rule="nonzero"><g><path fill="#646464" d="M48.244 15.828c0-3.911-1.116-5.92-3.346-6.03-.888-.041-1.754.1-2.597.428-.673.24-1.126.479-1.364.72v9.336c1.427.895 2.694 1.311 3.799 1.246 2.338-.155 3.508-2.053 3.508-5.7zm2.751.163c0 1.987-.466 3.636-1.403 4.948-1.045 1.484-2.492 2.249-4.343 2.29-1.396.045-2.833-.392-4.312-1.309v8.486l-2.393-.854V10.718c.393-.482.898-.896 1.51-1.246 1.425-.83 3.155-1.257 5.192-1.278l.034.034c1.862-.023 3.296.741 4.304 2.29.94 1.422 1.411 3.245 1.411 5.473zM65.62 21.56c0 2.664-.267 4.51-.801 5.536-.537 1.027-1.558 1.846-3.066 2.456-1.223.482-2.545.744-3.964.788l-.395-1.508c1.442-.196 2.458-.393 3.047-.589 1.16-.393 1.956-.995 2.393-1.801.351-.657.524-1.911.524-3.768v-.623c-1.637.744-3.351 1.113-5.145 1.113-1.178 0-2.217-.37-3.113-1.113-1.005-.809-1.508-1.835-1.508-3.078v-9.96l2.393-.819V18.22c0 1.07.346 1.895 1.037 2.474.691.578 1.587.856 2.684.835 1.097-.024 2.272-.448 3.52-1.278V8.555h2.394V21.56zM74.96 23.099c-.284.023-.546.034-.787.034-1.354 0-2.409-.322-3.163-.969-.751-.647-1.128-1.54-1.128-2.678V10.06h-1.639V8.555h1.639V4.558l2.39-.851v4.848h2.689v1.506h-2.689v9.36c0 .897.241 1.533.723 1.905.413.307 1.07.482 1.966.526V23.1zM89.45 22.902h-2.394v-9.236c0-.94-.22-1.75-.657-2.425-.505-.764-1.207-1.146-2.107-1.146-1.097 0-2.47.578-4.116 1.736v11.071h-2.393V.824L80.176.07v10.056c1.529-1.112 3.2-1.67 5.014-1.67 1.267 0 2.293.427 3.078 1.277.788.851 1.181 1.912 1.181 3.179v9.99zM102.168 15.451c0-1.502-.286-2.743-.854-3.725-.675-1.197-1.725-1.828-3.144-1.893-2.623.152-3.932 2.032-3.932 5.634 0 1.652.272 3.032.822 4.14.701 1.41 1.754 2.107 3.157 2.083 2.634-.02 3.95-2.1 3.95-6.239zm2.62.016c0 2.139-.547 3.92-1.639 5.34-1.201 1.593-2.861 2.391-4.98 2.391-2.099 0-3.735-.798-4.916-2.39-1.07-1.422-1.605-3.202-1.605-5.341 0-2.01.579-3.702 1.736-5.079 1.223-1.46 2.83-2.194 4.817-2.194s3.605.733 4.852 2.194c1.157 1.377 1.735 3.068 1.735 5.079zM118.507 22.902h-2.393v-9.76c0-1.07-.322-1.906-.966-2.508-.644-.6-1.503-.89-2.574-.866-1.136.02-2.217.392-3.243 1.112v12.022h-2.393V10.584c1.377-1.002 2.644-1.657 3.801-1.963 1.092-.286 2.055-.427 2.885-.427.568 0 1.102.055 1.605.165.94.217 1.704.62 2.294 1.212.657.655.984 1.44.984 2.359v10.972z" transform="translate(-763 -3745) translate(763 3745)"></path><path fill="url(#aehd6zwg9a)" d="M14.91.913c-1.231.005-2.407.11-3.442.293-3.047.539-3.6 1.666-3.6 3.744v2.745h7.201v.915H5.165c-2.093 0-3.926 1.258-4.5 3.65-.66 2.744-.69 4.456 0 7.32.513 2.132 1.735 3.651 3.828 3.651H6.97v-3.29c0-2.377 2.057-4.474 4.5-4.474h7.193c2.002 0 3.6-1.648 3.6-3.66V4.95c0-1.952-1.646-3.418-3.6-3.744-1.237-.205-2.52-.299-3.752-.293zM11.015 3.12c.744 0 1.352.618 1.352 1.377 0 .756-.608 1.368-1.352 1.368-.746 0-1.351-.612-1.351-1.368 0-.76.605-1.377 1.351-1.377z" transform="translate(-763 -3745) translate(763 3745)"></path><path fill="url(#3gpbhkditb)" d="M23.16 8.61v3.198c0 2.479-2.101 4.566-4.498 4.566h-7.194c-1.97 0-3.6 1.686-3.6 3.66v6.857c0 1.952 1.697 3.1 3.6 3.66 2.28.67 4.466.791 7.194 0 1.813-.525 3.6-1.582 3.6-3.66v-2.745H15.07v-.915h10.794c2.094 0 2.874-1.46 3.602-3.65.751-2.257.72-4.426 0-7.32-.518-2.084-1.506-3.651-3.601-3.651H23.16zm-4.045 17.366c.747 0 1.352.612 1.352 1.368 0 .76-.605 1.377-1.352 1.377-.744 0-1.351-.617-1.351-1.377 0-.756.607-1.368 1.351-1.368z" transform="translate(-763 -3745) translate(763 3745)"></path><path fill="#646464" d="M123.167 6.422h.42V3.791h.993v-.314h-2.407v.314h.994v2.631m1.785 0h.358V4.019l.778 2.403h.4l.81-2.395v2.395h.391V3.477h-.517L126.286 6l-.756-2.523h-.578v2.945" transform="translate(-763 -3745) translate(763 3745)"></path><path fill="url(#p843sjhboc)" d="M24.802 35.213c0 .668-1.84 1.286-4.825 1.62-2.986.335-6.665.335-9.651 0C7.34 36.5 5.5 35.881 5.5 35.213c0-.669 1.84-1.287 4.826-1.621 2.986-.334 6.665-.334 9.65 0 2.987.334 4.826.952 4.826 1.62z" opacity=".444" transform="translate(-763 -3745) translate(763 3745)"></path></g></g></g></svg>