<svg width="383" height="383" viewBox="0 0 383 383" fill="none" xmlns="http://www.w3.org/2000/svg">
<rect x="5" y="5" width="373" height="373" rx="186.5" stroke="#3498DB" stroke-width="9"/>
<path d="M173.25 240.75C173.25 247.688 171.307 254.255 167.885 259.805C161.502 270.535 149.755 277.75 136.25 277.75C122.745 277.75 110.998 270.535 104.615 259.805C101.193 254.255 99.25 247.688 99.25 240.75C99.25 220.307 115.807 203.75 136.25 203.75C156.693 203.75 173.25 220.307 173.25 240.75Z" stroke="#3498DB" stroke-width="13" stroke-miterlimit="10" stroke-linecap="round" stroke-linejoin="round"/>
<path d="M121.833 240.745L130.991 249.903L150.693 231.681" stroke="#3498DB" stroke-width="13" stroke-linecap="round" stroke-linejoin="round"/>
<path d="M254.201 130.212C251.981 129.842 249.668 129.75 247.263 129.75H154.763C152.173 129.75 149.676 129.935 147.271 130.305C148.566 127.715 150.416 125.31 152.636 123.09L182.698 92.935C195.371 80.355 215.906 80.355 228.578 92.935L244.766 109.307C250.686 115.135 253.831 122.535 254.201 130.212Z" stroke="#3498DB" stroke-width="13" stroke-linecap="round" stroke-linejoin="round"/>
<path d="M293.5 176V222.25C293.5 250 275 268.5 247.25 268.5H160.578C163.445 266.095 165.942 263.135 167.885 259.805C171.307 254.255 173.25 247.688 173.25 240.75C173.25 220.307 156.693 203.75 136.25 203.75C125.15 203.75 115.253 208.652 108.5 216.33V176C108.5 150.84 123.67 133.265 147.257 130.305C149.662 129.935 152.16 129.75 154.75 129.75H247.25C249.655 129.75 251.968 129.842 254.188 130.212C278.052 132.987 293.5 150.655 293.5 176Z" stroke="#3498DB" stroke-width="13" stroke-linecap="round" stroke-linejoin="round"/>
<path d="M293.5 180.625H265.75C255.575 180.625 247.25 188.95 247.25 199.125C247.25 209.3 255.575 217.625 265.75 217.625H293.5" stroke="#3498DB" stroke-width="13" stroke-linecap="round" stroke-linejoin="round"/>
</svg>
